<svg xmlns="http://www.w3.org/2000/svg" xmlns:xlink="http://www.w3.org/1999/xlink" width="1200.495" height="608.104" viewBox="0 0 1200.495 608.104">
  <defs>
    <clipPath id="clip-path">
      <path id="Trazado_3141" data-name="Trazado 3141" d="M-3197.4-1977.239l-1200.495,79.922v-608.1H-3197.4Z" transform="translate(4397.924 2609.996)" fill="#464ffb"/>
    </clipPath>
    <clipPath id="clip-path-2">
      <path id="Trazado_3139" data-name="Trazado 3139" d="M1360.96,1105.1c-35.743,0-161.082,36.051-186.418-11.69s-13.706-87.379-13.706-87.379h-19.753s-103.454,44.861-95.154,138.692c7.8,88.066-87.525,87.318-172.777,117.059s21.309,124.248-233.507,89.172-305.932,135.069-399.176,66.251v48.832H1444.495V1163.888C1432.112,1130.287,1407.353,1105.1,1360.96,1105.1Z" transform="translate(-240.469 -1006.034)" fill="#f8f8f9"/>
    </clipPath>
  </defs>
  <g id="Enmascarar_grupo_20" data-name="Enmascarar grupo 20" transform="translate(-0.032 -104.575)" clip-path="url(#clip-path)">
    <g id="Grupo_1596" data-name="Grupo 1596" transform="translate(-1.366 117.407)">
      <g id="Grupo_1595" data-name="Grupo 1595" transform="translate(0 182.323)">
        <g id="Grupo_1594" data-name="Grupo 1594">
          <g id="Grupo_1593" data-name="Grupo 1593" clip-path="url(#clip-path-2)">
            <rect id="Rect치ngulo_2276" data-name="Rect치ngulo 2276" width="1204.026" height="783.217" transform="translate(0 -323.21)" fill="#f8f8f9"/>
            <path id="Trazado_3135" data-name="Trazado 3135" d="M1101.8,1050.888c7.457,73.072,44.483,138.353-80.23,172.454s-125.289,32.7-158.127,88.45c-19.864,33.727-66.58,78.427-100.388,108.476H240.469V1047.453q41.671-29.478,97.119-56.971c310.827-153.292,803.5-30.221,803.5-30.221S1094.343,977.817,1101.8,1050.888Z" transform="translate(-240.469 -960.261)" fill="#f8f8f9"/>
            <path id="Trazado_3136" data-name="Trazado 3136" d="M2315.753,981.707v336.279c-28.953-38.547-43.189-107.5-43.917-142.642-.97-47.19-47.741-58.037-106.187-38.552s-137.389-13.64-157.849-69.177,13.822-87.7,13.822-87.7C2078.856,940.716,2225.176,947.657,2315.753,981.707Z" transform="translate(-1111.727 -979.914)" fill="#f8f8f9"/>
            <g id="Grupo_1592" data-name="Grupo 1592" transform="translate(0 326.155)">
              <g id="Grupo_1591" data-name="Grupo 1591">
                <path id="Trazado_3137" data-name="Trazado 3137" d="M1444.495,1651.634v133.852H240.469V1666.921l8.947,4.451,24.275-3.764,17.8,7.755,15.141-1.051,22.2,5.047,154.888-4,33.742,7.755,17.717-3.289,126.39,3.289,87.788-8.806,41.451,2.7,20.228-9.4,16.09,2.339,16.086-2.339,20.233,9.4,41.446-2.7,87.788,8.806,126.4-3.289,17.712,3.289,33.742-7.755,154.893,4,22.2-5.047,15.136,1.051,17.8-7.755,24.28,3.764Z" transform="translate(-240.469 -1651.634)" fill="#f8f8f9"/>
                <rect id="Rect치ngulo_2277" data-name="Rect치ngulo 2277" width="1204.026" height="79.392" transform="translate(0 54.46)" fill="#f8f8f9"/>
                <path id="Trazado_3138" data-name="Trazado 3138" d="M1838.447,1806.526v32.691h-801.8l404.451-78.993h156.187Z" transform="translate(-634.421 -1705.365)" fill="#f8f8f9"/>
              </g>
            </g>
          </g>
        </g>
        <circle id="Elipse_497" data-name="Elipse 497" cx="73.836" cy="73.836" r="73.836" transform="translate(926.925 121.594) rotate(-45)" fill="#f8f8f9"/>
      </g>
      <path id="Trazado_3140" data-name="Trazado 3140" d="M2046.437,785.026a3.134,3.134,0,0,0,.018-.678c-4.2,3.149-6.108,3.4-6.841,3.305a.421.421,0,0,1-.074-.123l-.025.109a.787.787,0,0,1-.294-.107s-23.854-5.693-55.717-13.282a9.536,9.536,0,0,0-17.727-4.631l-.382-.1c-.062.13-.113.251-.171.378-19.711-4.692-41.107-9.781-61.178-14.546-.062-.2-.11-.392-.179-.591l-.374-.028a9.53,9.53,0,0,0-15.881-3.281c-34.74-8.236-62.3-14.731-64.552-15.139-6.145-1.117-6.358-2.5-6.366-2.6l.06,0c2.027-69.449-10.706-80.155-10.706-80.155a24.109,24.109,0,0,0-13.442-7.948,23.151,23.151,0,0,0-4.573-.456,23.972,23.972,0,0,0-14.557,4.477,18.171,18.171,0,0,0-3.659,3.337c-13.89,14.179-12.009,79.579-12.009,79.579-.29,1.013-.712,1.155-.712,1.155s0,1.448-6.367,2.6c-2.227.406-29.353,6.8-63.683,14.934a9.533,9.533,0,0,0-15.813,3.055l-.347.025c-.1.274-.163.541-.245.811-20.126,4.778-41.633,9.893-61.473,14.616a9.536,9.536,0,0,0-17.8,4.238c-32.406,7.718-56.805,13.54-56.805,13.54s-1.446,1.157-7.234-3.185a3.165,3.165,0,0,0,.011.593c-.267.012-.022.422-.022.422.05.11.1.213.147.321.38,1.664,1.745,4.783,6.52,8.792,0,0,0,1.157,5.5,1.157l17.086-1.485-.022.04,40.5-3.536a9.561,9.561,0,0,0,7.531,1.221,13.329,13.329,0,0,0,4.882-2.305l56.475-4.931a86.92,86.92,0,0,1,23.139.871c7.528,1.11,14.55,2.049,20.947,2.839,12.06,1.586,23.625,2.948,23.625,2.948l.93.053v6.6a1.737,1.737,0,0,0,1.737,1.735h.435a1.737,1.737,0,0,0,1.736-1.735v-2.895h10.2v3.328a1.737,1.737,0,0,0,1.737,1.736h.433a1.737,1.737,0,0,0,1.736-1.736v-14.54a1.735,1.735,0,0,0-1.736-1.737h-.159l1.173-5.86h1.736l.578,8.971,3.4.143s3.255.868,3.69,3.69c.017.125.034.241.052.364.059.431.136,1.045.232,1.793a1.731,1.731,0,0,0-.935,1.533V807.28a1.737,1.737,0,0,0,1.736,1.737h.433a1.732,1.732,0,0,0,1.628-1.152,21.851,21.851,0,0,0,2.482,6.467c.07.139.148.276.22.414l-60.975,10.114v3.763h3.69v-1.158l47.745-1.3v1.3h20.184s5.208,6.294,7.6,7.6c0,0,1.391,1.973,3.789.252a2.893,2.893,0,0,0,.335-.252c2.6-2.169,5.859-4.774,8.029-7.6h19.1v-1.52l48.179,1.52v1.085h3.908v-3.257l-60.768-10.851a20.392,20.392,0,0,0,2.495-5.906,1.73,1.73,0,0,0,1.194.481h.434a1.738,1.738,0,0,0,1.737-1.737V792.741a1.728,1.728,0,0,0-.539-1.253c.045-.861.084-1.742.106-2.655a4.215,4.215,0,0,1,3.69-3.254c3.037-.217,3.037,0,3.037,0l.869-9.332h1.519l1.254,5.648a1.732,1.732,0,0,0-1.688,1.731v14.541a1.736,1.736,0,0,0,1.736,1.736h.434a1.737,1.737,0,0,0,1.737-1.736v-3.038h10.851v2.821a1.736,1.736,0,0,0,1.735,1.735h.434a1.738,1.738,0,0,0,1.738-1.735v-6.725c2.827-.336,15.868-1.9,27.919-3.529,5.288-.678,10.947-1.45,16.933-2.333a64.281,64.281,0,0,1,7.907-.985,79.675,79.675,0,0,1,14.375.261l58.1,5.052a13.605,13.605,0,0,0,4.438,1.964,9.63,9.63,0,0,0,7.1-.96l56.81,4.94c5.5,0,5.5-1.159,5.5-1.159.037-.031.069-.06.1-.09,1.833-1.146,4.5-3.637,6.881-9.025C2046.783,785.36,2047.17,784.713,2046.437,785.026Zm-297.745,8.437h-10.2v-1.892l10.2.589Zm77.263.073v-1.52s1.677-.1,4.761-.339l6.09-.248v2.108Z" transform="translate(-877.157 -645.14)" fill="#f8f8f9"/>
    </g>
  </g>
</svg>
