<svg id="Grupo_2189" data-name="Grupo 2189" xmlns="http://www.w3.org/2000/svg" xmlns:xlink="http://www.w3.org/1999/xlink" width="1200.387" height="676" viewBox="0 0 1200.387 676">
  <defs>
    <radialGradient id="radial-gradient" cx="0.953" cy="-13.949" r="33.368" gradientTransform="matrix(-0.028, 0, 0, 1, 12.524, 0)" gradientUnits="objectBoundingBox">
      <stop offset="0.002" stop-color="#cdf7f1"/>
      <stop offset="1" stop-color="#5dcfca"/>
    </radialGradient>
  </defs>
  <g id="Grupo_2188" data-name="Grupo 2188" transform="translate(459.915 178.601)">
    <path id="Trazado_1405" data-name="Trazado 1405" d="M3529.463,622.356,2823.48,799.2a45.545,45.545,0,0,0-33.114,55.246l29.857,119.2,709.239-.265Z" transform="translate(-2788.991 -476.242)" fill="#4650ff"/>
    <g id="Grupo_1291" data-name="Grupo 1291" transform="translate(20.105 0)">
      <g id="Grupo_1238" data-name="Grupo 1238" transform="translate(501.721 187.746)">
        <g id="Grupo_1233" data-name="Grupo 1233" transform="translate(83.944 17.971)">
          <path id="Trazado_2339" data-name="Trazado 2339" d="M1998.985,2179.986a12.871,12.871,0,0,0,8.518-3.08c4.28-3.721,6.133-10.341,5.511-19.674-.421-6.3-2.9-12.677-5.525-19.431-4.419-11.359-9.425-24.233-6.805-41.26l-4.866-.749c-2.819,18.331,2.672,32.449,7.082,43.794,2.594,6.667,4.833,12.427,5.2,17.972.505,7.568-.8,12.961-3.784,15.6a8.166,8.166,0,0,1-6.506,1.828l-.986,4.822A11.308,11.308,0,0,0,1998.985,2179.986Z" transform="translate(-1995.046 -2095.792)" fill="#367082"/>
        </g>
        <g id="Grupo_1236" data-name="Grupo 1236" transform="translate(3.3 119.469)">
          <g id="Grupo_1234" data-name="Grupo 1234" transform="translate(3.904 21.744)">
            <path id="Trazado_2340" data-name="Trazado 2340" d="M1938.078,2293.044l-4.794,7.309,40.256,12.895s2.69-2.571-7.189-7.735C1954.852,2299.495,1938.078,2293.044,1938.078,2293.044Z" transform="translate(-1895.133 -2293.044)" fill="#88bdda"/>
            <path id="Trazado_2341" data-name="Trazado 2341" d="M1908.018,2293.044l4.792,7.309-40.254,12.895s-2.69-2.571,7.188-7.735C1891.246,2299.495,1908.018,2293.044,1908.018,2293.044Z" transform="translate(-1872.222 -2293.044)" fill="#88bdda"/>
          </g>
          <rect id="Rectángulo_2185" data-name="Rectángulo 2185" width="8.411" height="29.95" transform="translate(39.07)" fill="#88bdda"/>
          <g id="Grupo_1235" data-name="Grupo 1235" transform="translate(8.518 23.283)">
            <path id="Trazado_2342" data-name="Trazado 2342" d="M1939.357,2295.508l-4.1,6.974,34.458,12.306s2.3-2.454-6.15-7.385A269.637,269.637,0,0,0,1939.357,2295.508Z" transform="translate(-1900.485 -2295.508)" fill="#91e2f6"/>
            <path id="Trazado_2343" data-name="Trazado 2343" d="M1910.251,2295.508l4.1,6.974-34.46,12.306s-2.3-2.454,6.153-7.385A269.449,269.449,0,0,1,1910.251,2295.508Z" transform="translate(-1879.606 -2295.508)" fill="#91e2f6"/>
          </g>
          <path id="Trazado_2344" data-name="Trazado 2344" d="M1984.163,2329.042a2.923,2.923,0,1,0,2.922-2.924A2.921,2.921,0,0,0,1984.163,2329.042Z" transform="translate(-1910.319 -2283.71)" fill="#001f46"/>
          <path id="Trazado_2345" data-name="Trazado 2345" d="M1877.3,2329.042a2.923,2.923,0,1,0,2.923-2.924A2.923,2.923,0,0,0,1877.3,2329.042Z" transform="translate(-1870.223 -2283.71)" fill="#001f46"/>
          <path id="Trazado_2346" data-name="Trazado 2346" d="M1995.487,2329.042a2.924,2.924,0,1,0,2.924-2.924A2.923,2.923,0,0,0,1995.487,2329.042Z" transform="translate(-1914.567 -2283.71)" fill="#367082"/>
          <path id="Trazado_2347" data-name="Trazado 2347" d="M1865.973,2329.042a2.923,2.923,0,1,0,2.924-2.924A2.922,2.922,0,0,0,1865.973,2329.042Z" transform="translate(-1865.973 -2283.71)" fill="#367082"/>
        </g>
        <rect id="Rectángulo_2186" data-name="Rectángulo 2186" width="6.152" height="10.769" transform="translate(43.608 108.496)" fill="#367082"/>
        <path id="Trazado_2348" data-name="Trazado 2348" d="M1923.1,2227.966a6,6,0,0,0,6,6h3.385a6,6,0,0,0,6-6h0a6,6,0,0,0-6-6H1929.1a6,6,0,0,0-6,6Z" transform="translate(-1884.107 -2125.162)" fill="#367082"/>
        <path id="Trazado_2349" data-name="Trazado 2349" d="M1862.076,2213.98c-.148-.706-.233-5.135-.233-5.9,0-4.845,3.131-8.77,6.995-8.77h77.938c3.863,0,6.994,3.925,6.994,8.77,0,.762-.084,5.191-.231,5.9Z" transform="translate(-1861.123 -2116.663)" fill="#3dc7c9"/>
        <path id="Trazado_2350" data-name="Trazado 2350" d="M1954.057,2224.978c0,1.482-.867,2.684-1.937,2.684h-89.491c-1.071,0-1.938-1.2-1.938-2.684h0c0-1.483.867-2.686,1.938-2.686h89.491c1.07,0,1.937,1.2,1.937,2.686Z" transform="translate(-1860.691 -2125.284)" fill="#367082"/>
        <g id="Grupo_1237" data-name="Grupo 1237" transform="translate(45.154 0)">
          <path id="Trazado_2351" data-name="Trazado 2351" d="M1976.81,2119.343c-1.923.144-14.139.358-16.245.383-13.372.163-24.892-2.347-25.532-5.642a114.137,114.137,0,0,1-.347-41.414c.571-3.291,12.263-5.8,25.916-5.635,2.149.024,14.617.242,16.575.385A112.028,112.028,0,0,0,1976.81,2119.343Z" transform="translate(-1932.962 -2067.028)" fill="#3dc7c9"/>
          <path id="Trazado_2352" data-name="Trazado 2352" d="M2002.514,2067.654c1.5.018,2.541.729,2.334,1.588a111.872,111.872,0,0,0-.418,48.759c.188.862-.847,1.57-2.314,1.587h0c-1.464.018-2.818-.666-3-1.529a112.093,112.093,0,0,1,.319-48.876c.2-.864,1.583-1.547,3.084-1.529Z" transform="translate(-1956.828 -2067.263)" fill="#367082"/>
          <path id="Trazado_2353" data-name="Trazado 2353" d="M1999.966,2119.433a32.887,32.887,0,0,1-3.506.233c-2.913.036-5.914-2.536-6.493-5.774a112.317,112.317,0,0,1,.186-40.786,7.18,7.18,0,0,1,6.653-5.771,34.779,34.779,0,0,1,3.575.235A111.955,111.955,0,0,0,1999.966,2119.433Z" transform="translate(-1953.684 -2067.143)" fill="#33a8b5"/>
        </g>
      </g>
      <g id="Grupo_1242" data-name="Grupo 1242" transform="translate(398.446)">
        <path id="Trazado_2354" data-name="Trazado 2354" d="M1863.868,2025.32s-18.549,65.709-33.41,89.232-20.051-7.074-20.051-7.074l18.456-109.27,43.175-.272S1870.948,2000.175,1863.868,2025.32Z" transform="translate(-1738.549 -1853.358)" fill="#2c7eea"/>
        <path id="Trazado_2355" data-name="Trazado 2355" d="M1863.167,1997.436s12.428,107.8,14.207,113.208c6.013,18.321,19.767,6.492,21.892.384s5.664-51.3,4.955-84.277-.71-30.817-.71-30.817Z" transform="translate(-1758.345 -1852.596)" fill="#2c7eea"/>
        <path id="Trazado_2356" data-name="Trazado 2356" d="M1910.161,2331.1c.637.775.171,2.816.171,2.816s-11.18,1.246-14.779.4a18.857,18.857,0,0,1-4-1.877c-.252-.142-.7-1-.937-1.144-.451-.269-.686.182-1.07-.06a12.831,12.831,0,0,1-1.705-1.182c-.983-5.129.318-7.193.318-7.193s9.522-3.166,11.3-.96C1903.664,2327.09,1908.761,2329.4,1910.161,2331.1Z" transform="translate(-1767.467 -1974.618)" fill="#161711"/>
        <path id="Trazado_2357" data-name="Trazado 2357" d="M1791.363,2326.177l-1.594,8.328h-8.494s-.471-1.18-1.19-1.18c-.606,0-1.388,1.18-2.212,1.18h-21.6s-.387-1.753.083-2.356a8.236,8.236,0,0,1,2.605-1.116c4.391-1.232,16.947-5.081,19.134-9.273C1780.744,2316.656,1791.363,2326.177,1791.363,2326.177Z" transform="translate(-1718.18 -1974.295)" fill="#161711"/>
        <path id="Trazado_2358" data-name="Trazado 2358" d="M1889.016,1805.207c.193,2.747,1.855,4.869,3.725,4.735h0c1.871-.13,3.225-2.459,3.036-5.208l-.245-3.458c-.188-2.746-1.862-4.865-3.725-4.737h0c-1.871.134-3.228,2.462-3.035,5.211Z" transform="translate(-1767.945 -1777.791)" fill="#e2c59c"/>
        <path id="Trazado_2359" data-name="Trazado 2359" d="M1868.569,1835.9c.855,3.515,3.631,6.28,6.129,6.09l7.053-.962c2.457-.487,4.394-3.895,4.273-7.51q-.336-8.925-.675-17.865c-.092-3.575-2.751-10.419-6.79-12a11.251,11.251,0,0,0-10.8,1.474c-3.467,2.6-4.2,9.908-3.331,13.377Q1866.5,1827.209,1868.569,1835.9Z" transform="translate(-1758.694 -1780.179)" fill="#e2c59c"/>
        <path id="Trazado_2360" data-name="Trazado 2360" d="M1946.669,1972.338l-27.607,28.265s33.288-7.64,34.769-21.419S1946.669,1972.338,1946.669,1972.338Z" transform="translate(-1779.317 -1843.099)" fill="#e9d6b8"/>
        <path id="Trazado_2361" data-name="Trazado 2361" d="M1829.583,1861.995l22.122-8.282,12.083,3.606,14.941-1.706,16.455,7.136s7.429,7.14.529,30.085-4.249,58.889-4.249,58.889l-58.578,2.611s-2.142-33.442-4.993-66.46C1825.659,1861.983,1832.181,1867.662,1829.583,1861.995Z" transform="translate(-1744.932 -1799.245)" fill="#86c0f0"/>
        <path id="Trazado_2362" data-name="Trazado 2362" d="M1918.883,1868.656s9.124-7.152,18.048,6.117a248.057,248.057,0,0,1,24.421,47.42c1.591,4.585,3.72,18.354-2.654,22.43l-6.369,4.083-13.273-8.159,2.125-4.079,1.062-2.552s-7.436-16.316-15.393-31.1S1918.883,1868.656,1918.883,1868.656Z" transform="translate(-1779.25 -1804.13)" fill="#86c0f0"/>
        <path id="Trazado_2363" data-name="Trazado 2363" d="M1858.7,1817.328c2.562,3.885,4.646,4.334,7.914,3.79,3.061-.669,3.878-.606,6.938-1.275,3.193-.866,5.045-6.067,4.542-10.1-.863-6.658.875-12.917.013-19.566-.463-4.006-3.167-6.849-8.628-8.09-4.977-1.08-11.563-4.449-15.517-1.423-4.316,3.371-4.576,11.667-3.1,15.452C1853.228,1802.431,1856.323,1811,1858.7,1817.328Z" transform="translate(-1753.422 -1771.372)" fill="#e9d6b8"/>
        <path id="Trazado_2364" data-name="Trazado 2364" d="M1885.906,1855.259l4.913,8.058,9.682-10.726-4.274-4.607Z" transform="translate(-1766.877 -1797.095)" fill="#74b2e8"/>
        <path id="Trazado_2365" data-name="Trazado 2365" d="M1867.878,1847.771l5.865,5.934-3.935,6.975-4.8-9.2Z" transform="translate(-1759.035 -1797.015)" fill="#74b2e8"/>
        <path id="Trazado_2366" data-name="Trazado 2366" d="M1880.872,2103.237s2.758,40.881,2.36,62.5c-.294,16.3-.328,47.551,2.152,74.182.149,1.629,13.449.4,13.449.4s8.926-101.912,10.341-118.608S1891.49,2091.312,1880.872,2103.237Z" transform="translate(-1764.988 -1891.179)" fill="#2c7eea"/>
        <path id="Trazado_2367" data-name="Trazado 2367" d="M1807.6,2175s3.757.822,15.573,1.845c5.383.468-15.75,94.32-15.75,94.32l-16.739-7.22,12.608-94.553Z" transform="translate(-1731.149 -1917.69)" fill="#2c7eea"/>
        <path id="Trazado_2368" data-name="Trazado 2368" d="M1877.51,1779.691l-.7,5.644s-6.622-3.9-11.5-7.265c-1.536-1.067-12.655,2.4-15.243,3.784-1.886,1.006-1.286,3.649-1.263,5.289.083,5.858-2.206-9.2-2.206-9.2s1.572-7.949,8.43-10.793c3.789-1.574,6.336.1,8.763,2.556.569.576-4.643.273-3.876-.087a50.349,50.349,0,0,1,6.289,2.691,24.916,24.916,0,0,0,3.857,3.6C1875.45,1779.741,1877.51,1779.691,1877.51,1779.691Z" transform="translate(-1752.128 -1766.535)" fill="#163f59"/>
        <path id="Trazado_2369" data-name="Trazado 2369" d="M1868.907,1800.885l-2.921,1.413,1.435,1.6-2.133,1.688.667,10.165,4.1-1.008-1.24-5.946,1.5-3.677,5.965-2.56Z" transform="translate(-1759.141 -1779.423)" fill="#e2c59c"/>
        <path id="Trazado_2370" data-name="Trazado 2370" d="M1963.323,1988l-11.442-9.65-4.478,6.112,11.207,9.14Z" transform="translate(-1789.951 -1846.009)" fill="#86c0f0"/>
        <g id="Grupo_1239" data-name="Grupo 1239" transform="translate(134.161 146.696)">
          <path id="Trazado_2371" data-name="Trazado 2371" d="M1923.9,2001.344c-1.841.548-1.734.434-1.734.434a7.094,7.094,0,0,1-1.359,4.259c-.723.9-3.408,3.406-3.408,3.406l-3.945,3.774-1.964,1.6s-1.183.821-1.3,1.26c-.337,1.26.743,1.047.743,1.047l8.162-5.561-6.162,7.19s-.637,1.054-.245,1.561c.363.475.639.2.639.2l8.851-6.489-2.768,4.067s-.6,1.042-.242,1.561c.388.568.482.734.482.734l6.75-7.491S1925.742,2000.8,1923.9,2001.344Z" transform="translate(-1910.125 -2001.326)" fill="#e9d6b8"/>
          <path id="Trazado_2372" data-name="Trazado 2372" d="M1922.7,2020.186l-4.048,5.312a5.452,5.452,0,0,0-1.2,1.891.879.879,0,0,0,.592,1.121l6.871-7.411Z" transform="translate(-1912.862 -2008.402)" fill="#e9d6b8"/>
        </g>
        <path id="Trazado_2373" data-name="Trazado 2373" d="M1880.053,1953.847h-6.19a233.9,233.9,0,0,1,.955-97.171l5.6,2.244A223.57,223.57,0,0,0,1880.053,1953.847Z" transform="translate(-1760.619 -1800.356)" fill="#74b2e8"/>
        <g id="Grupo_1241" data-name="Grupo 1241" transform="translate(0 61.26)">
          <g id="Grupo_1240" data-name="Grupo 1240" transform="translate(9.215)">
            <path id="Trazado_2374" data-name="Trazado 2374" d="M1740.12,1987.253,1718.8,2017.2l-8.656.134s-.021-.478,1.85-1.474c.536-.284,3.222-.01,3.651-.512.574-.67,3.291-1.556,3.454-2.742,1.169-8.555,1.266-21.523,5.646-30.265C1731.784,1968.284,1740.667,1986.9,1740.12,1987.253Z" transform="translate(-1710.146 -1906.799)" fill="#e9d6b8"/>
            <path id="Trazado_2375" data-name="Trazado 2375" d="M1798.721,1864.584s-14.5,2.978-39.07,33.848c-25.1,31.54-22.6,32.445-22.6,32.445l-3.778,8.331,13.158,10.108,42.683-48.724Z" transform="translate(-1718.823 -1864.584)" fill="#86c0f0"/>
            <path id="Trazado_2376" data-name="Trazado 2376" d="M1816.229,1898.912l-30.257,33.126-12.142,10.981,3.758-6.415s2.634-3.806,16.961-22.36c8.069-10.454,12.021-14.066,17.373-18.851Z" transform="translate(-1734.04 -1876.144)" fill="#74b2e8"/>
            <path id="Trazado_2377" data-name="Trazado 2377" d="M1743.281,1977.434l8.733,5.873,2.006,1.765-4.508,6.2-8.277-8.682Z" transform="translate(-1721.811 -1906.926)" fill="#74b2e8"/>
          </g>
          <path id="Trazado_2378" data-name="Trazado 2378" d="M1701.333,2030.933c-2.472,1.422-7.222,3.517-5.609,4.465l8.649-3.421,4.564.094,2.647,2.548,1.723-2.548c1.138-.286,1.969-.611,1.422-2.472l.764-1.045c-3.422-.666-4.847-1.045-5.9-.855l-4.276,1.144A19.129,19.129,0,0,0,1701.333,2030.933Z" transform="translate(-1695.397 -1925.768)" fill="#e9d6b8"/>
        </g>
      </g>
      <path id="Trazado_2380" data-name="Trazado 2380" d="M1057.672,2308.921c0,34.682,148.971,62.8,332.737,62.8s332.736-28.116,332.736-62.8-148.971-62.8-332.736-62.8S1057.672,2274.239,1057.672,2308.921Z" transform="translate(-1057.672 -1946.48)" fill="#c5e5fd"/>
      <g id="Grupo_1249" data-name="Grupo 1249" transform="translate(432.727 74.729)">
        <g id="Grupo_1244" data-name="Grupo 1244" transform="translate(112.441 23.508)">
          <path id="Trazado_2381" data-name="Trazado 2381" d="M1970.785,1923.767h7.429v3.805A9.152,9.152,0,0,0,1970.785,1923.767Z" transform="translate(-1945.445 -1923.767)" fill="#dce5ea"/>
          <path id="Trazado_2382" data-name="Trazado 2382" d="M1953.384,1923.767v10.486a9.173,9.173,0,0,0,9.177,9.175H1963V1959.6h-32.769v-35.829Z" transform="translate(-1930.228 -1923.767)" fill="#dce5ea"/>
        </g>
        <g id="Grupo_1248" data-name="Grupo 1248" transform="translate(0 0)">
          <path id="Trazado_2383" data-name="Trazado 2383" d="M1908.663,1958.74s12.836,4.582.509,41.381-20.54,32.339-20.54,32.339l-10.189-.984L1858.9,2008.3l10.523-9.2,2.125.844s2.72-1.123,3.038-3.657,5.249-13.119,8.975-34.74C1885.276,1951.575,1906.195,1957.839,1908.663,1958.74Z" transform="translate(-1791.023 -1912.342)" fill="#cfd9e8"/>
          <path id="Trazado_2384" data-name="Trazado 2384" d="M1836.837,2031.434s-25.342,12.948-41.3-12.111c-4.746-7.447-2.718,1.127-.124,9.275s18.341,26.606,36.239,27.839,24.727.238,28.078-5.955S1836.837,2031.434,1836.837,2031.434Z" transform="translate(-1766.178 -1935.042)" fill="#ffc4ad"/>
          <path id="Trazado_2385" data-name="Trazado 2385" d="M1891.04,2027.6l-6.422-4.161-2.666-1.518a5.589,5.589,0,0,1-2.813,2.769l5.362,2.2,5.842,3.755,6.036,7.253Z" transform="translate(-1798.619 -1937.086)" fill="#aebddc"/>
          <path id="Trazado_2386" data-name="Trazado 2386" d="M1897.257,2063.918l47.974-1.036,19.945-66.787s9.128-40.232-7.925-40.9c-24.781-.968-57.3-.52-57.3-.52S1883.243,1969.174,1897.257,2063.918Z" transform="translate(-1803.316 -1911.817)" fill="#cfd9e8"/>
          <path id="Trazado_2387" data-name="Trazado 2387" d="M1924.132,2061.487q-2.823.416-5.641.826a296.406,296.406,0,0,1,9.568-104.616q2.3.762,4.606,1.531A289.4,289.4,0,0,0,1924.132,2061.487Z" transform="translate(-1812.963 -1912.989)" fill="#aebddc"/>
          <path id="Trazado_2388" data-name="Trazado 2388" d="M1773.969,2287.805s4.663,7.195,7.047,2.783c7.151-13.234,13.6-55.016,14-72.159.542-22.864,1.588-36.8,1.588-36.8l-23-8.339Z" transform="translate(-1759.02 -1993.88)" fill="#163f59"/>
          <path id="Trazado_2389" data-name="Trazado 2389" d="M1854.591,2128.762l-81.164,27.787,21.288,11.88s83.709,14.682,85.2-16.386C1881.171,2125.907,1854.591,2128.762,1854.591,2128.762Z" transform="translate(-1758.954 -1977.14)" fill="#163f59"/>
          <path id="Trazado_2390" data-name="Trazado 2390" d="M1819.822,2289.745s4.2,3.852,6.588-.561c7.152-13.235,18.882-48.4,19.286-65.543.539-22.861-3.235-38.763-3.235-38.763l-23.505-8.163Z" transform="translate(-1776.037 -1995.166)" fill="#194866"/>
          <path id="Trazado_2391" data-name="Trazado 2391" d="M1897.135,2129.876l-77.39,29.2,21.2,11.54s78.542,14.681,80.06-16.382S1897.135,2129.876,1897.135,2129.876Z" transform="translate(-1776.334 -1977.363)" fill="#194866"/>
          <path id="Trazado_2392" data-name="Trazado 2392" d="M1952.579,2155.161c.2,2.14-1.053,9.284-3.432,12.156-7.328,8.85-24.679,5.884-38.519,5.884-.76,0-4.617-10.8-4.617-10.8l-5.776-35.309,48.517.825S1950.9,2137.338,1952.579,2155.161Z" transform="translate(-1806.534 -1976.549)" fill="#194866"/>
          <path id="Trazado_2393" data-name="Trazado 2393" d="M1845.423,2092.262l-17.767-3.189s-2.765-.3-2.891,1.616c-.167,2.523.287,10.755.287,10.755l3.19-1.971,4.575,2.792,5.309-7.027a13.664,13.664,0,0,0,5.028-.049C1843.917,2095,1845.423,2092.262,1845.423,2092.262Z" transform="translate(-1778.203 -1962.276)" fill="#ffc4ad"/>
          <path id="Trazado_2394" data-name="Trazado 2394" d="M1899.369,2086.124l-47.033,5.219s25.231,12.89,36.787,12.971a103.113,103.113,0,0,0,22.386-2.572Z" transform="translate(-1788.562 -1961.176)" fill="#ffc4ad"/>
          <path id="Trazado_2395" data-name="Trazado 2395" d="M1949.266,1988.453l-23.5,44.467,1.347,3.609-3.615.672,10.974,17.464,17.217-3.926,30.983-61.371s6.52-18.525-8.267-32.671C1967.026,1949.637,1951.344,1984.889,1949.266,1988.453Z" transform="translate(-1815.263 -1912.264)" fill="#aebddc"/>
          <path id="Trazado_2396" data-name="Trazado 2396" d="M1943.3,2095.653s-11.124-8.5-16.772-13.142l.587,1.574-3.616.67,3.843,6.009,6.665,7.75,3.818-1.394-1.445-2.724Z" transform="translate(-1815.262 -1959.821)" fill="#cfd9e8"/>
          <g id="Grupo_1246" data-name="Grupo 1246" transform="translate(99.66)">
            <g id="Grupo_1245" data-name="Grupo 1245">
              <path id="Trazado_2397" data-name="Trazado 2397" d="M1931.489,1902.392a5.813,5.813,0,0,0,5.813,5.814h21.962a5.811,5.811,0,0,0,5.812-5.814h0a5.811,5.811,0,0,0-5.812-5.814H1937.3a5.813,5.813,0,0,0-5.812,5.814Z" transform="translate(-1917.92 -1890.057)" fill="#163f59"/>
              <path id="Trazado_2398" data-name="Trazado 2398" d="M1937.934,1915.566a10.745,10.745,0,0,0,10.741,10.743h11.461a10.745,10.745,0,0,0,10.742-10.743h0a10.744,10.744,0,0,0-10.742-10.741h-11.461a10.743,10.743,0,0,0-10.741,10.741Z" transform="translate(-1920.339 -1893.151)" fill="#163f59"/>
              <path id="Trazado_2399" data-name="Trazado 2399" d="M1924.134,1927.947v-33.59c0-5.349,4.336,0,9.686,0h5.167a9.691,9.691,0,0,1,9.691,9.689v23.9Z" transform="translate(-1915.161 -1888.331)" fill="#ffc4ad"/>
              <path id="Trazado_2400" data-name="Trazado 2400" d="M1956.563,1920.739a4.257,4.257,0,0,0,4.255,4.256h0a4.256,4.256,0,0,0,4.257-4.256h0a4.256,4.256,0,0,0-4.257-4.255h0a4.256,4.256,0,0,0-4.255,4.255Z" transform="translate(-1927.328 -1897.526)" fill="#ffc4ad"/>
              <path id="Trazado_2401" data-name="Trazado 2401" d="M1924.562,1925.044a2.428,2.428,0,0,1-2.385,2.47h-1.986a2.426,2.426,0,0,1-2.384-2.47s4.355-12.75,5.674-12.75a4.02,4.02,0,0,1,1.08,2.467Z" transform="translate(-1912.787 -1895.953)" fill="#ffc4ad"/>
              <path id="Trazado_2402" data-name="Trazado 2402" d="M1937.7,1942.783c9.689,0,10.7-2.97,10.981-6.37,0,0,2.583,8.508,2.583,11.25v3.056c0,5.906-6.074,10.693-13.564,10.693h-13.562v-18.628Z" transform="translate(-1915.161 -1905.003)" fill="#163f59"/>
              <path id="Trazado_2403" data-name="Trazado 2403" d="M1924.134,1936.624h7.75a6.455,6.455,0,0,1,6.455,6.458,6.357,6.357,0,0,1-.227,1.616h-13.978Z" transform="translate(-1915.161 -1905.083)" fill="#163f59"/>
              <path id="Trazado_2404" data-name="Trazado 2404" d="M1935.09,1947.481v2.152a1.077,1.077,0,0,1-1.077,1.077h-6.279a1.08,1.08,0,0,1-1.078-1.077v-2.152Z" transform="translate(-1916.107 -1909.156)" fill="#ffc4ad"/>
              <path id="Trazado_2405" data-name="Trazado 2405" d="M1929.48,1886.238h19.87a3.875,3.875,0,0,1,3.875,3.878v7.749H1929.48Z" transform="translate(-1917.167 -1886.177)" fill="#163f59"/>
              <path id="Trazado_2406" data-name="Trazado 2406" d="M1909.772,1891.991a5.855,5.855,0,0,0,5.853,5.855h13.451a5.856,5.856,0,0,0,5.855-5.855h0a5.852,5.852,0,0,0-5.855-5.85h-13.451a5.85,5.85,0,0,0-5.853,5.85Z" transform="translate(-1909.772 -1886.141)" fill="#163f59"/>
            </g>
            <rect id="Rectángulo_2187" data-name="Rectángulo 2187" width="5.371" height="14.138" transform="translate(28.376 8.889)" fill="#163f59"/>
            <rect id="Rectángulo_2188" data-name="Rectángulo 2188" width="15.807" height="16.644" transform="translate(16.268 2.811)" fill="#163f59"/>
            <path id="Trazado_2407" data-name="Trazado 2407" d="M1943.836,1912.828a7.993,7.993,0,0,0-7.994-8h-4.129c-4.417,0-6.781,3.579-6.781,8h0a8,8,0,0,0,8,8h2.912a7.994,7.994,0,0,0,7.994-8Z" transform="translate(-1915.46 -1893.154)" fill="#ffc4ad"/>
          </g>
          <g id="Grupo_1247" data-name="Grupo 1247" transform="translate(2.143 66.228)">
            <path id="Trazado_2408" data-name="Trazado 2408" d="M1783.153,2018.893s3.814-9.144,2.449-11.622-6.978-11.209-6.978-11.209l-1.644-2.1s-3.338.5.5,6.331.4,3.995.4,3.995l-5.5-3.976-7.136-4.359-2.913-2.33s-1.554-1.446-2.217-1.478c-1.926-.091-1.279,1.4-1.279,1.4l10.553,10.01-12.272-6.622s-1.712-.588-2.324.132c-.575.675-.082.984-.082.984l12.106,10.716-6.717-2.715s-1.692-.534-2.328.136c-.689.736-.9.916-.9.916l24.686,13.816Z" transform="translate(-1754 -1992.141)" fill="#ffc4ad"/>
            <path id="Trazado_2409" data-name="Trazado 2409" d="M1767.124,2009.991l-8.906-4.165a8.07,8.07,0,0,0-3.1-1.141,1.294,1.294,0,0,0-1.423,1.2l12.812,7.58Z" transform="translate(-1753.694 -1996.848)" fill="#ffc4ad"/>
          </g>
          <path id="Trazado_2410" data-name="Trazado 2410" d="M1808.151,2363.768a5.226,5.226,0,0,0-.085,2.482s7.25,1.194,9.571.481a10.854,10.854,0,0,0,2.573-1.623c.162-.127.44-.877.6-1,.292-.231.448.163.695-.046a8.561,8.561,0,0,0,1.1-1.026c.591-4.521-.271-6.355-.271-6.355s-6.193-2.875-7.329-.943C1812.322,2360.283,1809.043,2362.281,1808.151,2363.768Z" transform="translate(-1771.906 -2062.084)" fill="#194866"/>
          <path id="Trazado_2411" data-name="Trazado 2411" d="M1773.033,2358.079l-1.029,6.56h-5.489s-.3-.929-.766-.929c-.39,0-.9.929-1.429.929h-13.961s-.248-1.38.056-1.854a4.8,4.8,0,0,1,1.683-.877c2.837-.974,11.417-3.093,13.324-6.136C1766.9,2353.411,1773.033,2358.079,1773.033,2358.079Z" transform="translate(-1750.264 -2062.099)" fill="#163f59"/>
        </g>
      </g>
      <g id="Grupo_1250" data-name="Grupo 1250" transform="translate(592.2 42.297)">
        <path id="Trazado_2412" data-name="Trazado 2412" d="M2096.273,1932.96v-54.5a7.165,7.165,0,0,0-7.014-7.307h-66.216a7.166,7.166,0,0,0-7.015,7.307v16.307l-3.507,3.653-7.016,7.3,7.016,7.3,3.507,3.654v16.285a7.165,7.165,0,0,0,7.015,7.306h66.216A7.165,7.165,0,0,0,2096.273,1932.96Z" transform="translate(-2005.505 -1871.15)" fill="#5981ff"/>
      </g>
      <g id="Grupo_1255" data-name="Grupo 1255" transform="translate(594.823 278.984)">
        <g id="Grupo_1252" data-name="Grupo 1252" transform="translate(28.073 34.84)">
          <path id="Trazado_2414" data-name="Trazado 2414" d="M2059.178,2313.4s3.729-13.317,9.589-17.847,10.123-10.92,17.847-13.851,9.589-8.256,6.66-10.12-12.52-7.193-24.239,5.06-14.65,21.842-14.384,33.3S2058.646,2320.061,2059.178,2313.4Z" transform="translate(-2054.634 -2268.819)" fill="#3dc7c9"/>
          <path id="Trazado_2415" data-name="Trazado 2415" d="M2089.98,2276.512s-11.719,3.463-17.047,7.459-15.183,15.183-15.715,26.1" transform="translate(-2055.603 -2271.706)" fill="none" stroke="#33a8b5" stroke-miterlimit="10" stroke-width="2.282"/>
        </g>
        <g id="Grupo_1253" data-name="Grupo 1253" transform="translate(19.321)">
          <path id="Trazado_2416" data-name="Trazado 2416" d="M2050.727,2296.742s-6.038-17.047-8.525-22.374-2.129-18.114,1.777-23.086,10.3-12.43,7.458-23.439-1.421-17.757,3.907-13.494,14.684,13.657,14.916,28.766c.177,11.542-3.227,18.3-9.589,26.636C2055.521,2276.5,2050.371,2288.929,2050.727,2296.742Z" transform="translate(-2040.627 -2213.057)" fill="#acd5f4"/>
          <path id="Trazado_2417" data-name="Trazado 2417" d="M2052.955,2296.633s-3.2-17.049,0-23.973,10.815-19.731,11.454-28.233c.8-10.655-5.862-20.778-5.862-20.778" transform="translate(-2044.719 -2217.031)" fill="none" stroke="#86c0f0" stroke-miterlimit="10" stroke-width="2.282"/>
        </g>
        <g id="Grupo_1254" data-name="Grupo 1254" transform="translate(0 46.611)">
          <path id="Trazado_2418" data-name="Trazado 2418" d="M2015.418,2299.43c-6.925-1.333-7.459-9.324-2.132-10.92s14.117-1.332,18.38,4.261c4.941,6.484,6.925,18.112,5.327,26.37s0-3.2-3.462-8.791S2021.13,2300.528,2015.418,2299.43Z" transform="translate(-2009.703 -2287.66)" fill="#194866"/>
          <path id="Trazado_2419" data-name="Trazado 2419" d="M2013.732,2295.971s9.589-1.865,16.248,4.528c5.765,5.533,8.258,12.429,9.323,19.533" transform="translate(-2011.215 -2290.683)" fill="none" stroke="#161711" stroke-miterlimit="10" stroke-width="1.705"/>
        </g>
        <path id="Trazado_2420" data-name="Trazado 2420" d="M2061.687,2354.3h-19.179l-3.2-30.9h25.571Z" transform="translate(-2020.813 -2254.462)" fill="#2c7eea"/>
      </g>
      <g id="Grupo_1283" data-name="Grupo 1283" transform="translate(61.762 86.662)">
        <g id="Grupo_1259" data-name="Grupo 1259" transform="translate(231.407 148.471)">
          <g id="Grupo_1258" data-name="Grupo 1258" transform="translate(3.3 36.819)">
            <g id="Grupo_1256" data-name="Grupo 1256" transform="translate(4.119 21.744)">
              <path id="Trazado_2421" data-name="Trazado 2421" d="M1574.568,2236.6l4.794,7.308-40.256,12.9s-2.689-2.571,7.19-7.736C1557.795,2243.053,1574.568,2236.6,1574.568,2236.6Z" transform="translate(-1538.772 -2236.603)" fill="#88bdda"/>
              <path id="Trazado_2422" data-name="Trazado 2422" d="M1604.631,2236.6l-4.792,7.308,40.255,12.9s2.687-2.571-7.189-7.736C1621.4,2243.053,1604.631,2236.6,1604.631,2236.6Z" transform="translate(-1561.685 -2236.603)" fill="#88bdda"/>
            </g>
            <rect id="Rectángulo_2189" data-name="Rectángulo 2189" width="8.41" height="29.95" transform="translate(39.285)" fill="#88bdda"/>
            <g id="Grupo_1257" data-name="Grupo 1257" transform="translate(8.734 23.283)">
              <path id="Trazado_2423" data-name="Trazado 2423" d="M1576.8,2239.066l4.1,6.975-34.46,12.306s-2.3-2.453,6.152-7.385A269.648,269.648,0,0,1,1576.8,2239.066Z" transform="translate(-1546.158 -2239.066)" fill="#91e2f6"/>
              <path id="Trazado_2424" data-name="Trazado 2424" d="M1605.905,2239.066l-4.1,6.975,34.461,12.306s2.3-2.453-6.154-7.385A269.38,269.38,0,0,0,1605.905,2239.066Z" transform="translate(-1567.037 -2239.066)" fill="#91e2f6"/>
            </g>
            <path id="Trazado_2425" data-name="Trazado 2425" d="M1549.35,2272.6a2.922,2.922,0,1,1-2.922-2.925A2.921,2.921,0,0,1,1549.35,2272.6Z" transform="translate(-1536.429 -2227.269)" fill="#001f46"/>
            <path id="Trazado_2426" data-name="Trazado 2426" d="M1656.214,2272.6a2.923,2.923,0,1,1-2.923-2.925A2.922,2.922,0,0,1,1656.214,2272.6Z" transform="translate(-1576.524 -2227.269)" fill="#001f46"/>
            <path id="Trazado_2427" data-name="Trazado 2427" d="M1538.025,2272.6a2.923,2.923,0,1,1-2.923-2.925A2.922,2.922,0,0,1,1538.025,2272.6Z" transform="translate(-1532.179 -2227.269)" fill="#367082"/>
            <path id="Trazado_2428" data-name="Trazado 2428" d="M1667.54,2272.6a2.923,2.923,0,1,1-2.925-2.925A2.922,2.922,0,0,1,1667.54,2272.6Z" transform="translate(-1580.774 -2227.269)" fill="#367082"/>
          </g>
          <rect id="Rectángulo_2190" data-name="Rectángulo 2190" width="6.152" height="10.77" transform="translate(43.606 25.844)" fill="#367082"/>
          <path id="Trazado_2429" data-name="Trazado 2429" d="M1604.686,2171.525a6,6,0,0,1-6,6H1595.3a6,6,0,0,1-6-6h0a6,6,0,0,1,6-6h3.385a6,6,0,0,1,6,6Z" transform="translate(-1550.312 -2151.372)" fill="#367082"/>
          <path id="Trazado_2430" data-name="Trazado 2430" d="M1619.743,2157.538c.147-.706.233-5.135.233-5.9,0-4.845-3.132-8.77-7-8.77h-77.937c-3.862,0-6.993,3.925-6.993,8.77,0,.761.084,5.191.23,5.9Z" transform="translate(-1527.33 -2142.872)" fill="#3dc7c9"/>
          <path id="Trazado_2431" data-name="Trazado 2431" d="M1526.9,2168.537c0,1.482.867,2.684,1.936,2.684h89.492c1.07,0,1.938-1.2,1.938-2.684h0c0-1.483-.867-2.686-1.938-2.686h-89.492c-1.07,0-1.936,1.2-1.936,2.686Z" transform="translate(-1526.897 -2151.494)" fill="#367082"/>
        </g>
        <g id="Grupo_1268" data-name="Grupo 1268" transform="translate(183.067)">
          <path id="Trazado_2432" data-name="Trazado 2432" d="M1576.584,2121.734s-50.122.1-69.468.4c-13.385.2-14.606-18.881-9.326-21.754,16.03-8.722,66.041-13.206,66.041-13.206l34.02,31.239S1595.943,2118.363,1576.584,2121.734Z" transform="translate(-1466.543 -1973.502)" fill="#3d7aa8"/>
          <path id="Trazado_2433" data-name="Trazado 2433" d="M1534.479,1978.6s-12.883-3.6-18.5,13.223c-8.6,25.826-7.845,49.507-6.646,54.556.552,2.324,2.208,10.347,16.605,10.656,5.836.125,3.5-12.388,3.5-12.388a272.838,272.838,0,0,0,7.731-28.6C1541.166,1998.067,1534.479,1978.6,1534.479,1978.6Z" transform="translate(-1471.697 -1932.643)" fill="#1f5aea"/>
          <path id="Trazado_2434" data-name="Trazado 2434" d="M1533.695,1973.689l33.05-10.688,25.014-1.68,27.413,8.293s8.968,6.182.64,26.052-5.123,51-5.123,51l-70.711,2.266a575.487,575.487,0,0,0-6.024-57.565C1536.909,1984.941,1536.778,1977.379,1533.695,1973.689Z" transform="translate(-1481.108 -1926.282)" fill="#2c7eea"/>
          <path id="Trazado_2435" data-name="Trazado 2435" d="M1607.551,2048.787h-3.6a299.573,299.573,0,0,1,.558-84.152q1.626.97,3.258,1.942C1606.853,1994.9,1608.409,2023.215,1607.551,2048.787Z" transform="translate(-1506.455 -1927.525)" fill="#1f5aea"/>
          <g id="Grupo_1260" data-name="Grupo 1260" transform="translate(84.679 10.5)">
            <path id="Trazado_2436" data-name="Trazado 2436" d="M1587.426,1956.053c.487,3.826,3.608,7.137,6.891,7.292h9.341c3.285-.155,6.407-3.466,6.892-7.292q1.147-9.451,2.294-18.9c.513-3.776-1.733-11.365-6.7-13.608a17.868,17.868,0,0,0-14.3,0c-4.972,2.24-7.22,9.832-6.708,13.608Q1586.279,1946.6,1587.426,1956.053Z" transform="translate(-1585.059 -1922.046)" fill="#e6b09c"/>
          </g>
          <path id="Trazado_2437" data-name="Trazado 2437" d="M1607.95,1980.547l5.932,9.726,10.869-13.595-1.711-7.147-3.526-2.9-.048,5.381Z" transform="translate(-1508.969 -1928.276)" fill="#1f5aea"/>
          <path id="Trazado_2438" data-name="Trazado 2438" d="M1597.162,1980.513l-5.93,9.726-10.113-12.662,1.659-7.761,2.536-3.271,1.027,6.355Z" transform="translate(-1498.901 -1928.241)" fill="#1f5aea"/>
          <g id="Grupo_1261" data-name="Grupo 1261" transform="translate(81.122)">
            <path id="Trazado_2439" data-name="Trazado 2439" d="M1608.347,1905.24a7.468,7.468,0,0,1,6.252,3.381h2.564a5.793,5.793,0,0,1,5.8,5.792v14.308h-4.077v-5.815a4.079,4.079,0,0,0-4.074-4.076h-1.1a7.476,7.476,0,0,1-7.477-7.475v-6.115Z" transform="translate(-1589.445 -1905.24)" fill="#163f59"/>
            <path id="Trazado_2440" data-name="Trazado 2440" d="M1621.176,1946.639a3.545,3.545,0,0,0,3.548,3.546h.294a3.545,3.545,0,0,0,3.548-3.546v-4.307a3.545,3.545,0,0,0-3.548-3.544h-.294a3.555,3.555,0,0,0-3.248,2.109" transform="translate(-1595.052 -1917.827)" fill="#e6b09c"/>
            <path id="Trazado_2441" data-name="Trazado 2441" d="M1602.839,1910.926v-5.686h-12.275a7.474,7.474,0,0,0-7.474,7.477v5.679h12.275A7.472,7.472,0,0,0,1602.839,1910.926Z" transform="translate(-1580.763 -1905.24)" fill="#163f59"/>
            <path id="Trazado_2442" data-name="Trazado 2442" d="M1584.774,1941.51c.013,2.969,2.284,8,6.047,9.6a21.745,21.745,0,0,0,16.283,0c3.772-1.591,6.031-6.62,6.05-9.594V1916.2c.021-2.992-2.961-5.5-6.646-5.575h-15.089c-3.679.07-6.668,2.58-6.645,5.575Z" transform="translate(-1581.395 -1907.26)" fill="#ffc4ad"/>
            <path id="Trazado_2443" data-name="Trazado 2443" d="M1594.063,1905.24a7.468,7.468,0,0,0-6.252,3.381h-2.565a5.793,5.793,0,0,0-5.792,5.792v14.308h4.075v-5.815a4.079,4.079,0,0,1,4.077-4.076h5.208a7.475,7.475,0,0,0,7.474-7.475v-6.115Z" transform="translate(-1579.398 -1905.24)" fill="#163f59"/>
            <path id="Trazado_2444" data-name="Trazado 2444" d="M1586.752,1942.329a3.544,3.544,0,0,0-3.547-3.541h-.294a3.545,3.545,0,0,0-3.546,3.541v4.308a3.551,3.551,0,0,0,3.546,3.548h.294a3.553,3.553,0,0,0,3.248-2.115" transform="translate(-1579.365 -1917.827)" fill="#ffc4ad"/>
            <path id="Trazado_2445" data-name="Trazado 2445" d="M1612.713,1912.4a7.531,7.531,0,0,1-.148-1.469v-5.686h5.294a7.475,7.475,0,0,1,7.476,7.477v5.679h-5.3a7.509,7.509,0,0,1-1.532-.159A7.473,7.473,0,0,0,1612.713,1912.4Z" transform="translate(-1591.822 -1905.24)" fill="#163f59"/>
          </g>
          <path id="Trazado_2446" data-name="Trazado 2446" d="M1701.389,2288.639c.771.935.207,3.4.207,3.4s-13.49,1.5-17.832.482a22.971,22.971,0,0,1-4.831-2.265c-.3-.175-.836-1.209-1.128-1.381-.544-.324-.828.214-1.291-.078a15.169,15.169,0,0,1-2.061-1.426c-1.187-6.186.391-8.679.391-8.679s11.49-3.819,13.643-1.157C1693.551,2283.8,1699.7,2286.59,1701.389,2288.639Z" transform="translate(-1533.755 -2044.572)" fill="#161711"/>
          <path id="Trazado_2447" data-name="Trazado 2447" d="M1491.065,2281.566l-.934,10.195-10.205,1s-.708-1.358-1.568-1.275c-.729.073-1.528,1.583-2.519,1.677-2.146.212-4.525.442-5.48.535-1.912.19-20.474,2-20.474,2s-.669-2.059-.179-2.839a10.018,10.018,0,0,1,3.006-1.647c5.126-2,19.759-8.1,21.888-13.39C1477.188,2271.385,1491.065,2281.566,1491.065,2281.566Z" transform="translate(-1449.527 -2044.235)" fill="#161711"/>
          <g id="Grupo_1262" data-name="Grupo 1262" transform="translate(48.086 108.295)">
            <path id="Trazado_2448" data-name="Trazado 2448" d="M1535.372,2078.579l34.5,14.092s-24.473,3.491-39.774.372C1519.753,2090.933,1534.9,2078.132,1535.372,2078.579Z" transform="translate(-1526.491 -2078.568)" fill="#ffc4ad"/>
          </g>
          <path id="Trazado_2449" data-name="Trazado 2449" d="M1666.045,2111.339s3.318,31.5,2.844,48.156c-.356,12.562-.394,36.639,2.6,57.161.182,1.253,16.231.308,16.231.308s5.757-78.1,7.466-90.961S1691.923,2103.859,1666.045,2111.339Z" transform="translate(-1530.766 -1981.566)" fill="#3d7aa8"/>
          <path id="Trazado_2450" data-name="Trazado 2450" d="M1498.577,2121.784s5.172,8.166,19.355,10.1c5.127.7-8.266,91.422-8.266,91.422l-20.956-6.706,4.048-100.333Z" transform="translate(-1464.229 -1984.418)" fill="#316091"/>
          <path id="Trazado_2451" data-name="Trazado 2451" d="M1595.775,2120.934s27.4,3.909,45.685,5.829c6.7.7,12.509-18.068,13.286-18.881a13.793,13.793,0,0,1,9.556-4.663c-3.961-4.282-24.478-8.256-45.918-13.286s-24.708-1.862-24.708-1.862Z" transform="translate(-1503.613 -1973.47)" fill="#316091"/>
          <path id="Trazado_2452" data-name="Trazado 2452" d="M1618.961,2089.933c21.441,5.03,41.958,9,45.918,13.286a13.792,13.792,0,0,0-9.556,4.662c-.213.224-1.447,6.238-2.33,8.394,3.5-6.295-46.892-24.059-57.78-28.658C1597.246,2086.97,1603.174,2086.232,1618.961,2089.933Z" transform="translate(-1504.19 -1973.47)" fill="#3d7aa8"/>
          <path id="Trazado_2453" data-name="Trazado 2453" d="M1670.907,2137.387l2.093,61.305,2.1,14.218.232-14.218-.464-8.86,4.893-13.749,2.564-31.935-3.73,1.4.467-13.985Z" transform="translate(-1532.591 -1990.158)" fill="#316091"/>
          <path id="Trazado_2454" data-name="Trazado 2454" d="M1501.436,2112.906l-5.127,1.4-1.867,73.656,10.724,26.339-5.127-17.947,2.1-37.062s7.461,17.948,7.461,17.015-6.295-38.925-6.295-38.925,6.994,5.829,6.295,5.594S1505.4,2116.4,1501.436,2112.906Z" transform="translate(-1466.38 -1983.158)" fill="#3d7aa8"/>
          <path id="Trazado_2455" data-name="Trazado 2455" d="M1646.261,1973.682s11.014-8.629,21.784,7.385c15.79,23.469,22.646,48.429,25.155,55.656,1.923,5.539.865,21.205-5.592,27.662-1.555,1.552-10.877.31-10.877.31l-6.121-4.236,2.565-4.927.137-3.89s-7.826-18.879-17.439-36.728S1646.261,1973.682,1646.261,1973.682Z" transform="translate(-1523.343 -1930.049)" fill="#2c7eea"/>
          <g id="Grupo_1264" data-name="Grupo 1264" transform="translate(104.731 113.263)">
            <path id="Trazado_2456" data-name="Trazado 2456" d="M1667.877,2089.915l-35.759,1.865s34.443,15.8,35.578,13.08C1674.152,2089.425,1667.877,2089.915,1667.877,2089.915Z" transform="translate(-1622.768 -2087.793)" fill="#ffc4ad"/>
            <g id="Grupo_1263" data-name="Grupo 1263">
              <path id="Trazado_2457" data-name="Trazado 2457" d="M1642.588,2087.542c-2.087-1-1.9-1.022-1.9-1.022a8.558,8.558,0,0,1-4.673,2.694c-1.375.212-5.809.268-5.809.268l-6.585.164-3.057-.175a5.6,5.6,0,0,0-2.182.068c-1.329.854-.191,1.54-.191,1.54l11.8,1.674-11.339,1.4s-1.424.422-1.493,1.193c-.061.722.414.7.414.7l13.172,1.407-5.776,1.379s-1.381.445-1.486,1.194c-.117.821-.169,1.04-.169,1.04l12.115-1.187S1644.677,2088.55,1642.588,2087.542Z" transform="translate(-1617.153 -2086.52)" fill="#ffc4ad"/>
              <path id="Trazado_2458" data-name="Trazado 2458" d="M1630.276,2099.833l-7.928,1.447a6.561,6.561,0,0,0-2.61.71,1.056,1.056,0,0,0-.382,1.476l12.155-1.02Z" transform="translate(-1617.921 -2091.515)" fill="#ffc4ad"/>
            </g>
          </g>
          <g id="Grupo_1267" data-name="Grupo 1267" transform="translate(67.234 77.347)">
            <path id="Trazado_2459" data-name="Trazado 2459" d="M1557.348,2108.417c-.011-.026-.028-.048-.036-.071l.036-2.255h70.445v2.255a.107.107,0,0,1,0,.071l-.242.421c-1.2,1.956-3.352,2.3-5.816,2.3h-58.33c-2.465,0-4.615-.348-5.817-2.3Z" transform="translate(-1557.203 -2057.947)" fill="#b6c2c9"/>
            <g id="Grupo_1265" data-name="Grupo 1265" transform="translate(12.027 48.667)">
              <rect id="Rectángulo_2191" data-name="Rectángulo 2191" width="46.645" height="1.591" fill="#879ba6"/>
            </g>
            <g id="Grupo_1266" data-name="Grupo 1266">
              <path id="Trazado_2460" data-name="Trazado 2460" d="M1557.326,2077.421l-.188-46.185a2.188,2.188,0,0,1,2.2-2.2h65.937a2.21,2.21,0,0,1,2.213,2.2l.191,46.185Z" transform="translate(-1557.138 -2029.036)" fill="#e4eef3"/>
              <path id="Trazado_2461" data-name="Trazado 2461" d="M1606.748,2065.191a4.269,4.269,0,1,0,4.251-4.271A4.245,4.245,0,0,0,1606.748,2065.191Z" transform="translate(-1575.752 -2040.999)" fill="#b6c2c9"/>
            </g>
          </g>
          <path id="Trazado_2462" data-name="Trazado 2462" d="M1690.38,2106.574l2.453-15.675-4.069-4.188-9.03,1.443,1.844,17.351Z" transform="translate(-1535.902 -1973.329)" fill="#1f5aea"/>
          <path id="Trazado_2463" data-name="Trazado 2463" d="M1520.753,2090.877l-.937-5.767,11.421-10.252,6.177,2.787-8.08,15.468Z" transform="translate(-1475.9 -1968.882)" fill="#1f5aea"/>
        </g>
        <g id="Grupo_1274" data-name="Grupo 1274" transform="translate(0 103.819)">
          <g id="Grupo_1269" data-name="Grupo 1269" transform="translate(0 17.972)">
            <path id="Trazado_2464" data-name="Trazado 2464" d="M1170.67,2184.364a12.878,12.878,0,0,1-8.518-3.08c-4.279-3.721-6.132-10.341-5.51-19.675.421-6.3,2.9-12.676,5.526-19.43,4.418-11.359,9.425-24.233,6.8-41.26l4.866-.75c2.819,18.331-2.672,32.45-7.083,43.794-2.593,6.667-4.833,12.427-5.2,17.972-.5,7.567.8,12.96,3.785,15.6a8.162,8.162,0,0,0,6.506,1.827l.986,4.823A11.363,11.363,0,0,1,1170.67,2184.364Z" transform="translate(-1156.524 -2100.17)" fill="#367082"/>
          </g>
          <g id="Grupo_1272" data-name="Grupo 1272" transform="translate(11.963 119.47)">
            <g id="Grupo_1270" data-name="Grupo 1270" transform="translate(4.12 21.744)">
              <path id="Trazado_2465" data-name="Trazado 2465" d="M1218.062,2297.422l4.794,7.309-40.256,12.895s-2.69-2.571,7.189-7.736C1201.288,2303.872,1218.062,2297.422,1218.062,2297.422Z" transform="translate(-1182.265 -2297.422)" fill="#88bdda"/>
              <path id="Trazado_2466" data-name="Trazado 2466" d="M1248.123,2297.422l-4.792,7.309,40.254,12.895s2.69-2.571-7.188-7.736C1264.9,2303.872,1248.123,2297.422,1248.123,2297.422Z" transform="translate(-1205.178 -2297.422)" fill="#88bdda"/>
            </g>
            <rect id="Rectángulo_2192" data-name="Rectángulo 2192" width="8.411" height="29.95" transform="translate(39.285)" fill="#88bdda"/>
            <g id="Grupo_1271" data-name="Grupo 1271" transform="translate(8.735 23.283)">
              <path id="Trazado_2467" data-name="Trazado 2467" d="M1220.293,2299.886l4.1,6.974-34.459,12.307s-2.3-2.454,6.151-7.385C1205.935,2306.041,1220.293,2299.886,1220.293,2299.886Z" transform="translate(-1189.652 -2299.886)" fill="#91e2f6"/>
              <path id="Trazado_2468" data-name="Trazado 2468" d="M1249.4,2299.886l-4.1,6.974,34.46,12.307s2.3-2.454-6.153-7.385A269.57,269.57,0,0,0,1249.4,2299.886Z" transform="translate(-1210.531 -2299.886)" fill="#91e2f6"/>
            </g>
            <path id="Trazado_2469" data-name="Trazado 2469" d="M1192.843,2333.421a2.923,2.923,0,1,1-2.922-2.924A2.921,2.921,0,0,1,1192.843,2333.421Z" transform="translate(-1179.921 -2288.088)" fill="#001f46"/>
            <path id="Trazado_2470" data-name="Trazado 2470" d="M1299.707,2333.421a2.923,2.923,0,1,1-2.924-2.924A2.923,2.923,0,0,1,1299.707,2333.421Z" transform="translate(-1220.016 -2288.088)" fill="#001f46"/>
            <path id="Trazado_2471" data-name="Trazado 2471" d="M1181.517,2333.421a2.923,2.923,0,1,1-2.923-2.924A2.922,2.922,0,0,1,1181.517,2333.421Z" transform="translate(-1175.671 -2288.088)" fill="#367082"/>
            <path id="Trazado_2472" data-name="Trazado 2472" d="M1311.033,2333.421a2.923,2.923,0,1,1-2.925-2.924A2.922,2.922,0,0,1,1311.033,2333.421Z" transform="translate(-1224.266 -2288.088)" fill="#367082"/>
          </g>
          <rect id="Rectángulo_2193" data-name="Rectángulo 2193" width="6.152" height="10.769" transform="translate(52.269 108.497)" fill="#367082"/>
          <path id="Trazado_2473" data-name="Trazado 2473" d="M1248.179,2232.344a6,6,0,0,1-6,6h-3.385a6,6,0,0,1-6-6h0a6,6,0,0,1,6-6h3.385a6,6,0,0,1,6,6Z" transform="translate(-1185.141 -2129.54)" fill="#367082"/>
          <path id="Trazado_2474" data-name="Trazado 2474" d="M1263.235,2218.358c.147-.706.233-5.135.233-5.9,0-4.845-3.131-8.771-6.995-8.771h-77.938c-3.862,0-6.993,3.926-6.993,8.771,0,.761.084,5.19.231,5.9Z" transform="translate(-1162.159 -2121.04)" fill="#3dc7c9"/>
          <path id="Trazado_2475" data-name="Trazado 2475" d="M1170.39,2229.356c0,1.482.867,2.683,1.936,2.683h89.492c1.07,0,1.937-1.2,1.937-2.683h0c0-1.484-.866-2.686-1.937-2.686h-89.492c-1.07,0-1.936,1.2-1.936,2.686Z" transform="translate(-1161.727 -2129.661)" fill="#367082"/>
          <g id="Grupo_1273" data-name="Grupo 1273" transform="translate(8.829)">
            <path id="Trazado_2476" data-name="Trazado 2476" d="M1177.153,2123.721c1.923.144,14.139.358,16.245.382,13.371.164,24.892-2.347,25.531-5.641a114.133,114.133,0,0,0,.348-41.414c-.571-3.292-12.263-5.8-25.916-5.635-2.148.025-14.616.242-16.574.386A112.037,112.037,0,0,1,1177.153,2123.721Z" transform="translate(-1172.955 -2071.406)" fill="#3dc7c9"/>
            <path id="Trazado_2477" data-name="Trazado 2477" d="M1173.015,2072.031c-1.5.018-2.541.73-2.335,1.588a111.861,111.861,0,0,1,.419,48.759c-.188.862.847,1.569,2.313,1.587h0c1.464.018,2.819-.666,3.005-1.529a112.081,112.081,0,0,0-.319-48.875c-.2-.865-1.583-1.548-3.083-1.529Z" transform="translate(-1170.655 -2071.639)" fill="#367082"/>
            <path id="Trazado_2478" data-name="Trazado 2478" d="M1173.23,2123.811a32.873,32.873,0,0,0,3.506.233c2.913.036,5.914-2.535,6.493-5.773a112.313,112.313,0,0,0-.185-40.787,7.181,7.181,0,0,0-6.654-5.771,34.673,34.673,0,0,0-3.576.235A111.943,111.943,0,0,1,1173.23,2123.811Z" transform="translate(-1171.465 -2071.521)" fill="#33a8b5"/>
          </g>
        </g>
        <g id="Grupo_1278" data-name="Grupo 1278" transform="translate(10.387 13.182)">
          <g id="Grupo_1277" data-name="Grupo 1277">
            <path id="Trazado_2479" data-name="Trazado 2479" d="M1370.227,2110.919l-3.354-4.1-3.54-2.489-6.854-1.556s-7.452-.748-10.367-.02-14.072-.223-15.48-.011-2.289,4.277-2.289,4.277,10.255.319,14.988.183,11.543,1.994,13.4,2.007a20.688,20.688,0,0,0,3.877-.352c1.165-.214,1.158-.587.173-.764-1.539-.272-3.667-.635-4.467-.689-1.31-.091-.514-1.508-.514-1.508s6.847.554,8.562,1.444a10.835,10.835,0,0,1,2.938,2.292A5.9,5.9,0,0,0,1370.227,2110.919Z" transform="translate(-1231.379 -1992.412)" fill="#ffc4ad"/>
            <path id="Trazado_2480" data-name="Trazado 2480" d="M1279.206,1961.226a15.615,15.615,0,0,1-15.615,15.613l-3.9-7.416c-8.623,0-15.612-12.993-15.612-21.618v-5.854a15.612,15.612,0,0,1,15.612-15.613h3.9a15.614,15.614,0,0,1,15.615,15.613Z" transform="translate(-1199.761 -1926.338)" fill="#001f46"/>
            <path id="Trazado_2481" data-name="Trazado 2481" d="M1235.785,1950.956a21.272,21.272,0,0,0-2.521.166,19.731,19.731,0,0,1,.276,3.16,20.478,20.478,0,0,1-18.24,20.165,20.72,20.72,0,1,0,20.485-23.49Z" transform="translate(-1188.964 -1935.575)" fill="#001f46"/>
            <path id="Trazado_2482" data-name="Trazado 2482" d="M1276.6,1935.826a30.742,30.742,0,0,1-.376,4.4c-1.578,10.026-7.671,17.639-14.33,18.578a47.512,47.512,0,0,1-2.214,12.094c-1.242,3.955-5.874,8.132-5.874,8.132-1.13,7,22.7,17.281,22.137,16.151s-6.438-9.375-8.356-16.943a15.389,15.389,0,0,1,2.394-12.623,12.767,12.767,0,0,1,9.126-4.319,1.8,1.8,0,0,0,1.317-.577,11.1,11.1,0,0,0,.489-3.262V1944.58A11.035,11.035,0,0,0,1276.6,1935.826Z" transform="translate(-1203.4 -1929.898)" fill="#ffc4ad"/>
            <g id="Grupo_1276" data-name="Grupo 1276" transform="translate(0 40.875)">
              <path id="Trazado_2483" data-name="Trazado 2483" d="M1205.653,2137.08c-.02-.074-.042-.157-.06-.226.047-.056.088-.118.135-.175a120.369,120.369,0,0,1,10.783-32.5c3.664-7.073,11.047-13.777,14.3-17.163,8.395,4.578,16.692,2.453,24.539,8.387a72.687,72.687,0,0,1,2.439,10.565c1.191,6.853,2.217,13.224,3.1,19.179,14.469,4.246,19.333,8.208,27.139,13.2.992.547,4.576,4.148,5.621,5-.593,10.927-2.109,18.416-7.477,27.17-.954,1.555-11.538.91-20.936-.631-4.34-.708-18.484-1.6-19.984-2.183C1198.419,2162.709,1203.98,2145.855,1205.653,2137.08Z" transform="translate(-1184.93 -2027.502)" fill="#194866"/>
              <path id="Trazado_2484" data-name="Trazado 2484" d="M1305.306,2200.48q2.323-3.753,4.515-7.446c1.153-4.791,1.15-8.035-.228-9.225-5.224-4.493-25.629,6.033-50.984,59.036-1.271,2.66-26.319,45.274-25.348,44.676C1245.283,2280.137,1282.376,2237.574,1305.306,2200.48Z" transform="translate(-1195.693 -2063.469)" fill="#e6b09c"/>
              <path id="Trazado_2485" data-name="Trazado 2485" d="M1232.339,2334.084l8.081-12.938a3.675,3.675,0,0,1,3.264-1.859l-6.222,9.96a4.526,4.526,0,0,0,.661,5.793,3,3,0,0,0,1.756.673l-1.855,2.976c-1.2,1.925-3.452,2.46-5.022,1.187A4.527,4.527,0,0,1,1232.339,2334.084Z" transform="translate(-1195.08 -2114.648)" fill="#163f59"/>
              <path id="Trazado_2486" data-name="Trazado 2486" d="M1254.331,2040.137l14.758-22.841c4.388-6.791,1.794-13.648-5.758-15.243l-42.722-9.016c-4.744-.594-12.348,6.2-10.651,14.276l9.055,26.385Z" transform="translate(-1186.869 -1992.225)" fill="#ffc4ad"/>
              <path id="Trazado_2487" data-name="Trazado 2487" d="M1296.573,2009.816c-5.708,19.556,6.12,57.329,6.12,57.329s6.437,3.322,7.943.059c1.912-4.135-1.194-17.4-3.4-45.438C1305.874,2004.41,1297.532,2006.541,1296.573,2009.816Z" transform="translate(-1218.875 -1997.696)" fill="#163f59"/>
              <path id="Trazado_2488" data-name="Trazado 2488" d="M1199.333,1993.995c-15.123,10.849-25.487,44.6-25.487,44.6s2.146,3.691,5.127,2.194c3.777-1.9,9.677-10.87,22.788-32.239C1209.881,1995.317,1201.865,1992.18,1199.333,1993.995Z" transform="translate(-1173.411 -1992.422)" fill="#163f59"/>
              <path id="Trazado_2489" data-name="Trazado 2489" d="M1233.487,2071.606c.054,3.056,3.234,8,5.554,7.947l24.674,1.268c2.32-.045,5.745-4.354,5.689-7.411l-.213-10.281c-.056-3.057-1.983-5.5-4.3-5.451l-29.123-6.936c-2.32.043-4.158,2.561-4.1,5.617Z" transform="translate(-1195.104 -2013.891)" fill="#2c7eea"/>
              <path id="Trazado_2490" data-name="Trazado 2490" d="M1267.505,2097.606c-.023.335-1.636.509-3.608.386l-22.325-1.39c-1.972-.122-3.554-.5-3.532-.832l.076-1.274c.02-.335,1.636-.51,3.608-.387l22.322,1.391c1.974.123,3.556.5,3.535.832Z" transform="translate(-1197.496 -2030.148)" fill="#15100c"/>
              <path id="Trazado_2491" data-name="Trazado 2491" d="M1218.686,2009.247a17.686,17.686,0,0,1,1.583-4.035c20.744,14.711,35.422,8.466,46,5.97q.149.938.216,1.942c.389,7.313-.129,14.634.176,21.945.282,5.813-7.908,10.905-11.835,11.066-14.654.634-17.983-.239-32.083-4.046-3.778-1.023-10.791-7.18-9.331-12.526Q1216.11,2019.43,1218.686,2009.247Z" transform="translate(-1188.183 -1996.807)" fill="#2c7eea"/>
              <path id="Trazado_2492" data-name="Trazado 2492" d="M1279.832,2002.6s15.33-.473,18.016,6.869-3.837,18.035-3.837,18.035-3.9,13.613-4.966,21,3.626,14.393,2.174,12.951c-.292-.291-3.762.044-9.286-2.546s-2.465-12.654-1.922-15.9,3.25-19.209,2.642-21.855S1279.832,2002.6,1279.832,2002.6Z" transform="translate(-1212.744 -1995.826)" fill="#194866"/>
              <path id="Trazado_2493" data-name="Trazado 2493" d="M1209.127,2003.182s-1.181-6.13,1.349-8.568c3.721-3.582,12.7-3.1,15.6-2.245a36.062,36.062,0,0,1,4.869,1.786s-10.152,4.1-9.766,25.108a104.574,104.574,0,0,0,2.218,16.492c1.223,5.589,1.639,16.5,1.639,16.5s-6.062,1.248-6.338,2.136-.654-6.481-4.789-13.512S1209.127,2003.182,1209.127,2003.182Z" transform="translate(-1186.545 -1991.76)" fill="#194866"/>
              <path id="Trazado_2494" data-name="Trazado 2494" d="M1222.512,1991.83c-5.65,4.7-9.073,8.724-8.211,33.15.14,3.958-.061,11.23.719,18-.337-.7-.7-1.4-1.116-2.1-4.13-7.03-4.778-37.695-4.778-37.695s-1.181-6.13,1.349-8.568C1213.168,1992.021,1218.608,1991.565,1222.512,1991.83Z" transform="translate(-1186.545 -1991.761)" fill="#163f59"/>
              <path id="Trazado_2495" data-name="Trazado 2495" d="M1328.555,2172.83a58.659,58.659,0,0,1,10.339,7.059c-5.652,2.732-8.346,9.507-14.943,12-4.2-2.266-14.35-16.446-11.144-15.722C1322.486,2178.357,1321.687,2175.143,1328.555,2172.83Z" transform="translate(-1225.319 -2059.699)" fill="#e6b09c"/>
              <path id="Trazado_2496" data-name="Trazado 2496" d="M1301.867,2176.669a16.149,16.149,0,0,1,10.162,4.344c-5.65,2.732-8.347,9.5-14.943,12-4.9,3.323-7.395,12.855-7.395,9.568C1289.691,2198.222,1294.647,2176.019,1301.867,2176.669Z" transform="translate(-1216.876 -2061.134)" fill="#ffc4ad"/>
              <path id="Trazado_2497" data-name="Trazado 2497" d="M1291.423,2199.467q1.567-4.121,3.021-8.166c.224-4.922-.394-8.107-1.974-9.014-5.981-3.419-24.02,10.783-38.871,67.628-.433,1.656-4.495,17.555-10.775,30.164-1.248,2.5-2.738,2.011-3.436,4.059-2.162,6.363-1.2,14.3-.937,14.05C1248.853,2288.663,1275.935,2240.234,1291.423,2199.467Z" transform="translate(-1197.485 -2063.068)" fill="#ffc4ad"/>
              <path id="Trazado_2498" data-name="Trazado 2498" d="M1231.574,2351.167l7.008-13.552a3.681,3.681,0,0,1,3.1-2.116l-5.4,10.436a4.529,4.529,0,0,0,1.129,5.719,3,3,0,0,0,1.808.525l-1.61,3.115c-1.047,2.019-3.244,2.732-4.912,1.592A4.527,4.527,0,0,1,1231.574,2351.167Z" transform="translate(-1194.867 -2120.733)" fill="#194866"/>
              <g id="Grupo_1275" data-name="Grupo 1275" transform="translate(13.067 47.419)">
                <path id="Trazado_2499" data-name="Trazado 2499" d="M1230.844,2104.01s2.7,1.979,3.227,3.572c.371,1.107,1.239,6.607,1.239,6.607a6.539,6.539,0,0,1-1.917-3.569A22.026,22.026,0,0,0,1230.844,2104.01Z" transform="translate(-1207.864 -2081.295)" fill="#e6b09c"/>
                <path id="Trazado_2500" data-name="Trazado 2500" d="M1232.709,2108c1.807,1.068,2.706,3.329,3.121,6.245.4,2.763,1.982,3.625,1.982,3.625a33.473,33.473,0,0,0-1.131-6.036c-.3-1.185-.658-2.38-1.037-3.529C1234.383,2104.51,1228.056,2105.251,1232.709,2108Z" transform="translate(-1207.932 -2081.928)" fill="#e6b09c"/>
                <path id="Trazado_2501" data-name="Trazado 2501" d="M1230.755,2097.35a12.246,12.246,0,0,0,2.937,3.959c2.382,1.447,4.538,2.36,4.511,2.379-2.655,1.59-6-1.756-7.842-2.226S1229.187,2093.877,1230.755,2097.35Z" transform="translate(-1207.266 -2078.44)" fill="#e6b09c"/>
                <path id="Trazado_2502" data-name="Trazado 2502" d="M1203.366,2080.542c4.769,2.788,10.352,5.009,12.287,7.573,2.755,3.646,2.573,6.738,5.3,8.35a8.211,8.211,0,0,1,.828.628c.734.569,1.659,1.078,1.931,1.349.312.313,1.084,1.295.937.78-1.33-4.575-3.262-9.558-4.085-10.363-1.692-1.658-11.449-10.4-15.745-12.9C1199.981,2073.14,1196.933,2076.78,1203.366,2080.542Z" transform="translate(-1196.18 -2070.395)" fill="#ffc4ad"/>
                <path id="Trazado_2503" data-name="Trazado 2503" d="M1234.052,2108.319s.588-.971,1.372-.554c1.286.686,3.1,3,3.706,3.848.679.948,3.133,5.948,3.133,5.948a6.523,6.523,0,0,1-2.885-2.845C1237.927,2111.785,1234.052,2108.319,1234.052,2108.319Z" transform="translate(-1209.068 -2082.665)" fill="#ffc4ad"/>
                <path id="Trazado_2504" data-name="Trazado 2504" d="M1196.083,2067.655a48.819,48.819,0,0,0-2.019,5.534c12.555,7.21,23.525,12.754,23.525,12.754Z" transform="translate(-1194.064 -2067.655)" fill="#ffc4ad"/>
              </g>
              <path id="Trazado_2505" data-name="Trazado 2505" d="M1173.285,2062.8c4.508,11.024,21.561,11.375,21.561,11.375s2.135-2.995,1.589-5.345c-.7-2.975-4.969-5.977-15.226-12.262C1174.86,2052.684,1172.533,2060.958,1173.285,2062.8Z" transform="translate(-1173.149 -2015.693)" fill="#163f59"/>
            </g>
          </g>
          <path id="Trazado_2506" data-name="Trazado 2506" d="M1326.119,2099.349c.987.624-1.2,6.787-3.389,6.672l-1.685.11s-14.547.314-14-7.189C1307.044,2098.943,1310.559,2092.084,1326.119,2099.349Z" transform="translate(-1223.382 -1990)" fill="#163f59"/>
        </g>
        <g id="Grupo_1281" data-name="Grupo 1281" transform="translate(130.205 76.322)">
          <path id="Trazado_2507" data-name="Trazado 2507" d="M1364.96,2108.228c-.012-.025-.028-.051-.039-.074l.039-2.294h95.051v2.294a.112.112,0,0,1,0,.074l-.242.427c-1.222,1.989-3.413,2.348-5.922,2.348h-82.718c-2.51,0-4.7-.359-5.924-2.348Z" transform="translate(-1364.921 -2056.835)" fill="#d0dee6"/>
          <path id="Trazado_2508" data-name="Trazado 2508" d="M1388.407,2109.155a.084.084,0,0,1,0,.063l-.235.345a3.865,3.865,0,0,1-1.39,1.17h-14.455c-2.414,0-4.521-.29-5.7-1.9l-.228-.349c-.015-.021-.03-.038-.043-.058l.025-1.132h22.023Z" transform="translate(-1365.461 -2057.375)" fill="#b6c2c9"/>
          <g id="Grupo_1279" data-name="Grupo 1279" transform="translate(35.776 49.555)">
            <rect id="Rectángulo_2194" data-name="Rectángulo 2194" width="47.495" height="1.622" fill="#b6c2c9"/>
          </g>
          <g id="Grupo_1280" data-name="Grupo 1280" transform="translate(23.473)">
            <path id="Trazado_2509" data-name="Trazado 2509" d="M1402.491,2076.333l12.323-46.705a3.1,3.1,0,0,1,2.818-2.233h66.69a1.661,1.661,0,0,1,1.64,2.233l-12.323,46.705Z" transform="translate(-1402.491 -2027.395)" fill="#d0dee6"/>
            <path id="Trazado_2510" data-name="Trazado 2510" d="M1462.76,2063.967a3.214,3.214,0,0,0,3.178,4.316,6.014,6.014,0,0,0,5.458-4.316,3.218,3.218,0,0,0-3.18-4.324A6.008,6.008,0,0,0,1462.76,2063.967Z" transform="translate(-1425.048 -2039.494)" fill="#b6c2c9"/>
          </g>
        </g>
        <g id="Grupo_1282" data-name="Grupo 1282" transform="translate(29.355 130.427)">
          <path id="Trazado_2511" data-name="Trazado 2511" d="M1893.9,2277.532h9.729l-16.052-155.461h-14.107Z" transform="translate(-1454.88 -2117.024)" fill="#acd5f4"/>
          <path id="Trazado_2512" data-name="Trazado 2512" d="M1874.973,2129.237l6.187,47.081,7.34-50.738-.361-3.508h-12.331Z" transform="translate(-1455.445 -2117.024)" fill="#86bbd8"/>
          <path id="Trazado_2513" data-name="Trazado 2513" d="M1370.3,2277.532h9.727l-16.051-155.461h-14.106Z" transform="translate(-1258.422 -2117.024)" fill="#acd5f4"/>
          <path id="Trazado_2514" data-name="Trazado 2514" d="M1351.371,2129.237l6.187,47.081,7.341-50.738-.363-3.508h-12.33Z" transform="translate(-1258.986 -2117.024)" fill="#86bbd8"/>
          <path id="Trazado_2515" data-name="Trazado 2515" d="M1213.236,2277.532h-9.729l16.052-155.461h14.107Z" transform="translate(-1203.507 -2117.024)" fill="#acd5f4"/>
          <path id="Trazado_2516" data-name="Trazado 2516" d="M1238.931,2129.237l-18.88,47.978,5.355-51.635.36-3.508H1238.1Z" transform="translate(-1209.714 -2117.024)" fill="#86bbd8"/>
          <rect id="Rectángulo_2195" data-name="Rectángulo 2195" width="298.846" height="9.086" transform="translate(2.434)" fill="#367082"/>
          <rect id="Rectángulo_2196" data-name="Rectángulo 2196" width="329.987" height="9.086" transform="translate(114.304)" fill="url(#radial-gradient)"/>
        </g>
      </g>
      <g id="Grupo_1286" data-name="Grupo 1286" transform="translate(392 162.841)">
        <path id="Trazado_2517" data-name="Trazado 2517" d="M1799.529,2108.217c.011-.026.028-.052.039-.074l-.039-2.3h-95.307v2.3a.117.117,0,0,0,0,.074l.242.428c1.225,1.995,3.423,2.354,5.938,2.354h82.94c2.517,0,4.714-.359,5.942-2.354Z" transform="translate(-1692.259 -2056.686)" fill="#b4c0c7"/>
        <path id="Trazado_2518" data-name="Trazado 2518" d="M1820,2109.146s-.016.04,0,.063l.234.346a3.892,3.892,0,0,0,1.395,1.174h14.493c2.421,0,4.533-.291,5.713-1.9l.23-.35c.013-.02.03-.039.042-.059l-.024-1.134H1820Z" transform="translate(-1735.7 -2057.227)" fill="#d6e3eb"/>
        <g id="Grupo_1284" data-name="Grupo 1284" transform="translate(23.813 49.688)">
          <rect id="Rectángulo_2197" data-name="Rectángulo 2197" width="47.622" height="1.626" fill="#8599a4"/>
        </g>
        <g id="Grupo_1285" data-name="Grupo 1285" transform="translate(0 0)">
          <path id="Trazado_2519" data-name="Trazado 2519" d="M1768.85,2076.237l-12.356-46.832a3.111,3.111,0,0,0-2.824-2.238H1686.8a1.664,1.664,0,0,0-1.644,2.238l12.355,46.832Z" transform="translate(-1685.079 -2027.167)" fill="#d7dfe2"/>
          <path id="Trazado_2520" data-name="Trazado 2520" d="M1753.347,2063.835a3.224,3.224,0,0,1-3.186,4.33,6.028,6.028,0,0,1-5.474-4.33,3.227,3.227,0,0,1,3.187-4.335A6.024,6.024,0,0,1,1753.347,2063.835Z" transform="translate(-1707.388 -2039.298)" fill="#b4c0c7"/>
        </g>
      </g>
      <g id="Grupo_1287" data-name="Grupo 1287" transform="translate(365.442 29.464)">
        <path id="Trazado_2521" data-name="Trazado 2521" d="M1651.745,1912.465a5.889,5.889,0,0,0,6.052,5.71h4.033V1931.5l14.118-13.323h36.3a5.888,5.888,0,0,0,6.052-5.71v-55.188a5.887,5.887,0,0,0-6.052-5.709H1657.8a5.887,5.887,0,0,0-6.052,5.709Z" transform="translate(-1651.745 -1851.568)" fill="#ffb500"/>
      </g>
      <g id="Grupo_1288" data-name="Grupo 1288" transform="translate(165.162 65.077)">
        <path id="Trazado_2522" data-name="Trazado 2522" d="M1341.83,1966.619a5.944,5.944,0,0,1-5.944-5.943v-3.96h-13.867l13.867-13.866v-35.657a5.943,5.943,0,0,1,5.944-5.943h57.442a5.941,5.941,0,0,1,5.941,5.943v53.483a5.942,5.942,0,0,1-5.941,5.943Z" transform="translate(-1322.019 -1901.25)" fill="#5981ff"/>
      </g>
      <path id="diamante" d="M41.689,17.48a1.025,1.025,0,0,0,.009-.1,1.2,1.2,0,0,0,0-.122.863.863,0,0,0-.014-.1.967.967,0,0,0-.031-.118c-.006-.02-.008-.041-.015-.061s-.015-.025-.022-.04-.009-.03-.016-.044l-6.951-13.5a.854.854,0,0,0-.112-.166l0,0a.679.679,0,0,0-.206-.156c-.01-.005-.016-.015-.026-.02a.231.231,0,0,0-.024,0,.576.576,0,0,0-.218-.048H7.643a.574.574,0,0,0-.215.047c-.008,0-.015,0-.022,0s-.017.014-.026.019a.685.685,0,0,0-.2.148.126.126,0,0,1-.012.01.836.836,0,0,0-.113.167L.1,16.887c-.007.013-.01.03-.016.044s-.016.025-.022.04-.009.04-.016.061a.968.968,0,0,0-.031.118,1.045,1.045,0,0,0-.014.1.8.8,0,0,0,0,.122,1.024,1.024,0,0,0,.009.1.893.893,0,0,0,.026.12.972.972,0,0,0,.031.1c.006.015.008.032.015.047s.028.043.04.066a.543.543,0,0,0,.027.054L20.3,48.226l0,.006,0,.006s.006,0,.008.008a.724.724,0,0,0,.205.2.676.676,0,0,0,.062.036.545.545,0,0,0,.5.022c.012-.005.019-.017.031-.023a.628.628,0,0,0,.1-.071.712.712,0,0,0,.143-.138c.01-.013.024-.019.033-.032L41.55,17.864c.011-.017.017-.037.027-.054a.748.748,0,0,0,.04-.066c.007-.015.009-.032.015-.047a.908.908,0,0,0,.031-.1A1.129,1.129,0,0,0,41.689,17.48ZM22.31,4.68H33.057L29.678,15.687Zm6.115,11.812H13.274L20.849,5.176ZM11.972,15.76,8.636,4.68H19.389Zm16.941,2.42L20.728,44.846,12.7,18.18Zm5.3-12.442,5.538,10.756H30.914ZM7.477,5.748l3.234,10.744H1.945ZM11.22,18.18l7.535,25.028L2.143,18.18Zm11.3,25.674L30.4,18.18h9.159Z" transform="translate(378.3 38.055)" fill="#fff"/>
      <path id="ayuda" d="M25.6,0A25.609,25.609,0,1,0,43.686,7.49,25.575,25.575,0,0,0,25.6,0ZM41.47,8.255l-6.634,6.588a14.137,14.137,0,0,0-18.469,0L9.733,8.255A23.487,23.487,0,0,1,41.47,8.255ZM25.6,37.655a12.08,12.08,0,1,1,12.08-12.08A12.08,12.08,0,0,1,25.6,37.655ZM8.26,9.729l6.632,6.585a14.138,14.138,0,0,0-.011,18.507l-6.61,6.61A23.489,23.489,0,0,1,8.26,9.729ZM9.745,42.905l6.61-6.61a14.138,14.138,0,0,0,18.507-.011l6.585,6.632a23.489,23.489,0,0,1-31.7-.011Zm33.177-1.462-6.588-6.634a14.137,14.137,0,0,0-.021-18.494l6.632-6.586a23.488,23.488,0,0,1-.022,31.714Zm0,0" transform="translate(616.646 51.81)" fill="#fff"/>
      <g id="enviar" transform="translate(192.723 78.012)">
        <g id="Grupo_1290" data-name="Grupo 1290" transform="translate(0 0)">
          <g id="Grupo_1289" data-name="Grupo 1289" transform="translate(0)">
            <path id="Trazado_2523" data-name="Trazado 2523" d="M42.767.807a.871.871,0,0,0-.029-.145.965.965,0,0,0-.061-.151c-.013-.027-.018-.056-.033-.082A.572.572,0,0,0,42.6.386.965.965,0,0,0,42.5.268a.909.909,0,0,0-.12-.1c-.016-.011-.026-.027-.042-.036s-.055-.02-.082-.033A.967.967,0,0,0,42.1.032a.979.979,0,0,0-.137-.024A.954.954,0,0,0,41.8,0a.836.836,0,0,0-.151.025.857.857,0,0,0-.1.016L.631,13.993A.929.929,0,0,0,.6,15.74l19.119,7.347L27.98,42.212a.931.931,0,0,0,.854.561h.047a.931.931,0,0,0,.84-.646L42.741,1.2a.7.7,0,0,0,.012-.088A.879.879,0,0,0,42.774.96.927.927,0,0,0,42.767.807ZM3.661,14.924,38.367,3.091,20.186,21.273ZM28.7,39.192,21.52,22.57,39.808,4.281Z" transform="translate(-0.002 0)" fill="#fff"/>
            <path id="Trazado_2524" data-name="Trazado 2524" d="M14.61,240.191a.929.929,0,0,0-1.315,0L.274,253.211a.93.93,0,1,0,1.315,1.315L14.61,241.506A.929.929,0,0,0,14.61,240.191Z" transform="translate(-0.001 -212.026)" fill="#fff"/>
            <path id="Trazado_2525" data-name="Trazado 2525" d="M94.784,296.191l-6.51,6.51a.93.93,0,1,0,1.315,1.315l6.51-6.51a.93.93,0,1,0-1.315-1.315Z" transform="translate(-77.77 -261.515)" fill="#fff"/>
            <path id="Trazado_2526" data-name="Trazado 2526" d="M.931,216.289a.928.928,0,0,0,.658-.273l6.51-6.51a.93.93,0,0,0-1.315-1.315L.274,214.7a.93.93,0,0,0,.658,1.588Z" transform="translate(-0.001 -183.746)" fill="#fff"/>
          </g>
        </g>
      </g>
    </g>
  </g>
  <rect id="Rectángulo_2540" data-name="Rectángulo 2540" width="1200" height="676" fill="none"/>
</svg>
