<?xml version="1.0" encoding="utf-8"?>
<!-- Generator: Adobe Illustrator 24.1.0, SVG Export Plug-In . SVG Version: 6.00 Build 0)  -->
<svg version="1.1" id="Capa_1" xmlns="http://www.w3.org/2000/svg" xmlns:xlink="http://www.w3.org/1999/xlink" x="0px" y="0px"
	 viewBox="0 0 740.5 497.4" style="enable-background:new 0 0 740.5 497.4;" xml:space="preserve">
<style type="text/css">
	.st0{fill:#4650FF;}
	.st1{fill:#367082;}
	.st2{fill:#88BDDA;}
	.st3{fill:#91E2F6;}
	.st4{fill:#001F46;}
	.st5{fill:#3DC7C9;}
	.st6{fill:#33A8B5;}
	.st7{fill:#2C7EEA;}
	.st8{fill:#161711;}
	.st9{fill:#E2C59C;}
	.st10{fill:#E9D6B8;}
	.st11{fill:#86C0F0;}
	.st12{fill:#74B2E8;}
	.st13{fill:#163F59;}
	.st14{fill:#C5E5FD;}
	.st15{fill:#DCE5EA;}
	.st16{fill:#CFD9E8;}
	.st17{fill:#FFC4AD;}
	.st18{fill:#AEBDDC;}
	.st19{fill:#194866;}
	.st20{fill:#5981FF;}
	.st21{fill:none;stroke:#33A8B5;stroke-width:2.282;stroke-miterlimit:10;}
	.st22{fill:#ACD5F4;}
	.st23{fill:none;stroke:#86C0F0;stroke-width:2.282;stroke-miterlimit:10;}
	.st24{fill:none;stroke:#161711;stroke-width:1.705;stroke-miterlimit:10;}
	.st25{fill:#3D7AA8;}
	.st26{fill:#1F5AEA;}
	.st27{fill:#E6B09C;}
	.st28{fill:#316091;}
	.st29{fill:#B6C2C9;}
	.st30{fill:#879BA6;}
	.st31{fill:#E4EEF3;}
	.st32{fill:#15100C;}
	.st33{fill:#D0DEE6;}
	.st34{fill:#86BBD8;}
	.st35{fill:url(#Rectángulo_2196_1_);}
	.st36{fill:#B4C0C7;}
	.st37{fill:#D6E3EB;}
	.st38{fill:#8599A4;}
	.st39{fill:#D7DFE2;}
	.st40{fill:#FFB500;}
	.st41{fill:#FFFFFF;}
</style>
<g id="Grupo_2193" transform="translate(-459.915 -178.6)">
	<path id="Trazado_1405" class="st0" d="M1201.5,325.5l-706,176.8c-24.4,6.1-39.2,30.8-33.1,55.2l29.8,119.3l709.2-0.3L1201.5,325.5
		z"/>
	<g id="Grupo_1291" transform="translate(480.02 178.601)">
		<g id="Grupo_1238" transform="translate(501.721 187.746)">
			<g id="Grupo_1233" transform="translate(83.944 17.971)">
				<path id="Trazado_2339" class="st1" d="M5,85c3.1,0,6.1-1.1,8.5-3.1c4.3-3.7,6.1-10.3,5.5-19.7c-0.4-6.3-2.9-12.7-5.5-19.4
					C9.1,31.5,4.1,18.6,6.7,1.5L1.9,0.8C-0.9,19.1,4.5,33.2,9,44.6c2.6,6.7,4.8,12.4,5.2,18c0.5,7.6-0.8,13-3.8,15.6
					c-1.8,1.5-4.2,2.2-6.5,1.8l-1,4.8C3.6,84.9,4.3,85,5,85z"/>
			</g>
			<g id="Grupo_1236" transform="translate(3.3 119.469)">
				<g id="Grupo_1234" transform="translate(3.904 21.744)">
					<path id="Trazado_2340" class="st2" d="M44,0.8l-4.8,7.3L79.5,21c0,0,2.7-2.6-7.2-7.7C60.8,7.3,44,0.8,44,0.8z"/>
					<path id="Trazado_2341" class="st2" d="M36.9,0.8l4.8,7.3L1.4,21c0,0-2.7-2.6,7.2-7.7C20.1,7.3,36.9,0.8,36.9,0.8z"/>
				</g>
				<rect id="Rectángulo_2185" x="40.2" y="0.8" class="st2" width="8.4" height="30"/>
				<g id="Grupo_1235" transform="translate(8.518 23.283)">
					<path id="Trazado_2342" class="st3" d="M40,0.8l-4.1,7l34.5,12.3c0,0,2.3-2.5-6.2-7.4C56.3,8.3,48.2,4.4,40,0.8z"/>
					<path id="Trazado_2343" class="st3" d="M31.7,0.8l4.1,7L1.4,20.1c0,0-2.3-2.5,6.2-7.4C15.4,8.3,23.5,4.4,31.7,0.8z"/>
				</g>
				<path id="Trazado_2344" class="st4" d="M74.9,46.1c0,1.6,1.3,2.9,2.9,2.9s2.9-1.3,2.9-2.9c0-1.6-1.3-2.9-2.9-2.9
					C76.3,43.2,74.9,44.5,74.9,46.1L74.9,46.1z"/>
				<path id="Trazado_2345" class="st4" d="M8.2,46.1c0,1.6,1.3,2.9,2.9,2.9s2.9-1.3,2.9-2.9c0-1.6-1.3-2.9-2.9-2.9
					C9.5,43.2,8.2,44.5,8.2,46.1L8.2,46.1z"/>
				<path id="Trazado_2346" class="st1" d="M82,46.1c0,1.6,1.3,2.9,2.9,2.9s2.9-1.3,2.9-2.9c0-1.6-1.3-2.9-2.9-2.9
					C83.3,43.2,82,44.5,82,46.1L82,46.1z"/>
				<path id="Trazado_2347" class="st1" d="M1.1,46.1C1.1,47.7,2.4,49,4,49s2.9-1.3,2.9-2.9c0-1.6-1.3-2.9-2.9-2.9
					C2.4,43.2,1.1,44.5,1.1,46.1L1.1,46.1z"/>
			</g>
			<rect id="Rectángulo_2186" x="44.7" y="109.3" class="st1" width="6.2" height="10.8"/>
			<path id="Trazado_2348" class="st1" d="M40.1,103.6c0,3.3,2.7,6,6,6h3.4c3.3,0,6-2.7,6-6l0,0c0-3.3-2.7-6-6-6h-3.4
				C42.8,97.6,40.1,100.3,40.1,103.6z"/>
			<path id="Trazado_2349" class="st5" d="M2.1,98.1C2,97.4,1.9,93,1.9,92.2c0-4.8,3.1-8.8,7-8.8h77.9c3.9,0,7,3.9,7,8.8
				c0,0.8-0.1,5.2-0.2,5.9H2.1z"/>
			<path id="Trazado_2350" class="st1" d="M94.5,100.5c0,1.5-0.9,2.7-1.9,2.7H3c-1.1,0-1.9-1.2-1.9-2.7l0,0C1.1,99,2,97.8,3,97.8
				h89.5C93.6,97.8,94.5,99,94.5,100.5z"/>
			<g id="Grupo_1237" transform="translate(45.154 0)">
				<path id="Trazado_2351" class="st5" d="M44.9,53.1c-1.9,0.1-14.1,0.4-16.2,0.4c-13.4,0.2-24.9-2.3-25.5-5.6
					C0.5,34.2,0.4,20.2,2.8,6.4c0.6-3.2,12.3-5.8,25.9-5.6c2.1,0,14.6,0.2,16.6,0.4C41.1,18.2,41,36,44.9,53.1z"/>
				<path id="Trazado_2352" class="st1" d="M46.8,1.2c1.5,0,2.5,0.7,2.3,1.6c-3.7,16-3.9,32.7-0.4,48.8c0.2,0.9-0.8,1.6-2.3,1.6l0,0
					c-1.5,0-2.8-0.7-3-1.5c-3.5-16.2-3.4-32.9,0.3-49C43.9,1.9,45.3,1.2,46.8,1.2L46.8,1.2z"/>
				<path id="Trazado_2353" class="st6" d="M47.4,53.1c-1.2,0.1-2.3,0.2-3.5,0.2c-2.9,0-5.9-2.5-6.5-5.8C35,34.1,35,20.2,37.6,6.8
					C38.2,3.6,41,1.2,44.3,1c1.2,0,2.4,0.1,3.6,0.2C43.6,18.2,43.5,36,47.4,53.1z"/>
			</g>
		</g>
		<g id="Grupo_1242" transform="translate(398.446)">
			<path id="Trazado_2354" class="st7" d="M126.4,172.8c0,0-18.5,65.7-33.4,89.2s-20.1-7.1-20.1-7.1l18.5-109.3l43.2-0.3
				C134.6,145.4,133.5,147.6,126.4,172.8z"/>
			<path id="Trazado_2355" class="st7" d="M105.9,145.6c0,0,12.4,107.8,14.2,113.2c6,18.3,19.8,6.5,21.9,0.4
				c2.1-6.1,5.7-51.3,5-84.3s-0.7-30.8-0.7-30.8L105.9,145.6z"/>
			<path id="Trazado_2356" class="st8" d="M143.8,357.3c0.6,0.8,0.2,2.8,0.2,2.8s-11.2,1.2-14.8,0.4c-1.4-0.5-2.7-1.1-4-1.9
				c-0.3-0.1-0.7-1-0.9-1.1c-0.5-0.3-0.7,0.2-1.1-0.1c-0.6-0.3-1.2-0.7-1.7-1.2c-1-5.1,0.3-7.2,0.3-7.2s9.5-3.2,11.3-1
				C137.3,353.3,142.4,355.6,143.8,357.3z"/>
			<path id="Trazado_2357" class="st8" d="M74.3,352.7l-1.6,8.3h-8.5c0,0-0.5-1.2-1.2-1.2c-0.6,0-1.4,1.2-2.2,1.2H39.2
				c0,0-0.4-1.8,0.1-2.4c0.8-0.5,1.7-0.9,2.6-1.1c4.4-1.2,16.9-5.1,19.1-9.3C63.7,343.2,74.3,352.7,74.3,352.7z"/>
			<path id="Trazado_2358" class="st9" d="M122.2,28.2c0.2,2.7,1.9,4.9,3.7,4.7l0,0c1.9-0.1,3.2-2.5,3-5.2l-0.2-3.5
				c-0.2-2.7-1.9-4.9-3.7-4.7l0,0c-1.9,0.1-3.2,2.5-3,5.2L122.2,28.2z"/>
			<path id="Trazado_2359" class="st9" d="M111,56.5c0.9,3.5,3.6,6.3,6.1,6.1l7.1-1c2.5-0.5,4.4-3.9,4.3-7.5
				c-0.2-6-0.4-11.9-0.7-17.9c-0.1-3.6-2.8-10.4-6.8-12c-3.6-1.4-7.7-0.8-10.8,1.5c-3.5,2.6-4.2,9.9-3.3,13.4
				C108.2,44.9,109.6,50.7,111,56.5z"/>
			<path id="Trazado_2360" class="st10" d="M168.5,130l-27.6,28.3c0,0,33.3-7.6,34.8-21.4S168.5,130,168.5,130z"/>
			<path id="Trazado_2361" class="st11" d="M85.8,63.6l22.1-8.3l12.1,3.6l14.9-1.7l16.5,7.1c0,0,7.4,7.1,0.5,30.1
				s-4.2,58.9-4.2,58.9l-58.6,2.6c0,0-2.1-33.4-5-66.5C81.8,63.5,88.3,69.2,85.8,63.6z"/>
			<path id="Trazado_2362" class="st11" d="M140.7,65.3c0,0,9.1-7.2,18,6.1c9.8,14.9,18,30.8,24.4,47.4c1.6,4.6,3.7,18.4-2.7,22.4
				l-6.4,4.1l-13.3-8.2l2.1-4.1l1.1-2.6c0,0-7.4-16.3-15.4-31.1S140.7,65.3,140.7,65.3z"/>
			<path id="Trazado_2363" class="st10" d="M106.4,46.8c2.6,3.9,4.6,4.3,7.9,3.8c3.1-0.7,3.9-0.6,6.9-1.3c3.2-0.9,5-6.1,4.5-10.1
				c-0.9-6.7,0.9-12.9,0-19.6c-0.5-4-3.2-6.8-8.6-8.1c-5-1.1-11.6-4.4-15.5-1.4c-4.3,3.4-4.5,11.7-3.1,15.4
				C100.9,31.9,104,40.4,106.4,46.8z"/>
			<path id="Trazado_2364" class="st12" d="M120.1,59l4.9,8.1l9.7-10.7l-4.3-4.6L120.1,59z"/>
			<path id="Trazado_2365" class="st12" d="M109.9,51.6l5.9,5.9l-3.9,7l-4.8-9.2L109.9,51.6z"/>
			<path id="Trazado_2366" class="st7" d="M117,212.9c0,0,2.8,40.9,2.4,62.5c-0.3,16.3-0.3,47.6,2.2,74.2c0.1,1.6,13.4,0.4,13.4,0.4
				s8.9-101.9,10.3-118.6S127.6,200.9,117,212.9z"/>
			<path id="Trazado_2367" class="st7" d="M77.6,258.1c0,0,3.8,0.8,15.6,1.8c5.4,0.5-15.8,94.3-15.8,94.3L60.7,347l12.6-94.6
				L77.6,258.1z"/>
			<path id="Trazado_2368" class="st13" d="M126.5,14l-0.7,5.6c0,0-6.6-3.9-11.5-7.3c-1.5-1.1-12.7,2.4-15.2,3.8
				c-1.9,1-1.3,3.6-1.3,5.3c0.1,5.9-2.2-9.2-2.2-9.2s1.6-7.9,8.4-10.8c3.8-1.6,6.3,0.1,8.8,2.6c0.6,0.6-4.6,0.3-3.9-0.1
				c2.2,0.8,4.3,1.7,6.3,2.7c1.2,1.3,2.4,2.5,3.9,3.6C124.4,14,126.5,14,126.5,14z"/>
			<path id="Trazado_2369" class="st9" d="M110.9,22.3l-2.9,1.4l1.4,1.6l-2.1,1.7l0.7,10.2l4.1-1l-1.2-5.9l1.5-3.7l6-2.6L110.9,22.3
				z"/>
			<path id="Trazado_2370" class="st11" d="M174.5,142.8l-11.4-9.7l-4.5,6.1l11.2,9.1L174.5,142.8z"/>
			<g id="Grupo_1239" transform="translate(134.161 146.696)">
				<path id="Trazado_2371" class="st10" d="M14.9,0.8c-1.9,0.6-1.8,0.5-1.8,0.5c0,1.5-0.5,3-1.4,4.3c-0.6,0.8-3.3,3.3-3.3,3.3
					l-3.9,3.8l-2,1.6c0,0-1.2,0.8-1.3,1.3c-0.3,1.3,0.7,1,0.7,1l8.2-5.6l-6.2,7.2c0,0-0.6,1.1-0.2,1.6S4.3,20,4.3,20l8.9-6.5
					l-2.8,4.1c0,0-0.6,1-0.2,1.6c0.4,0.6,0.5,0.7,0.5,0.7l6.8-7.5C17.4,12.4,16.7,0.3,14.9,0.8z"/>
				<path id="Trazado_2372" class="st10" d="M10.9,12.6l-4,5.3c-0.5,0.5-0.9,1.2-1.2,1.9c-0.2,0.5,0.1,1,0.6,1.1l0,0l6.9-7.4
					L10.9,12.6z"/>
			</g>
			<path id="Trazado_2373" class="st12" d="M120.5,154.3h-6.2c-6.5-32.1-6.2-65.2,1-97.2l5.6,2.2C114,90.6,113.9,123,120.5,154.3z"
				/>
			<g id="Grupo_1241" transform="translate(0 61.26)">
				<g id="Grupo_1240" transform="translate(9.215)">
					<path id="Trazado_2374" class="st10" d="M31.1,81.3L9.8,111.2l-8.7,0.1c0,0,0-0.5,1.8-1.5c0.5-0.3,3.2,0,3.7-0.5
						c0.6-0.7,3.3-1.6,3.5-2.7c1.2-8.6,1.3-21.5,5.6-30.3C22.7,62.3,31.6,80.9,31.1,81.3z"/>
					<path id="Trazado_2375" class="st11" d="M81,0.8c0,0-14.5,3-39.1,33.8C16.8,66.2,19.3,67.1,19.3,67.1l-3.8,8.3l13.2,10.1
						l42.7-48.7L81,0.8z"/>
					<path id="Trazado_2376" class="st12" d="M83.3,23.6L53,56.7l-12.1,11l3.8-6.4c0,0,2.6-3.8,17-22.4c8.1-10.5,12-14.1,17.4-18.9
						L83.3,23.6z"/>
					<path id="Trazado_2377" class="st12" d="M22.6,71.3l8.7,5.9l2,1.8l-4.5,6.2l-8.3-8.7L22.6,71.3z"/>
				</g>
				<path id="Trazado_2378" class="st10" d="M7,106c-2.5,1.4-7.2,3.5-5.6,4.5l8.6-3.4l4.6,0.1l2.6,2.5l1.7-2.5
					c1.1-0.3,2-0.6,1.4-2.5l0.8-1c-3.4-0.7-4.8-1-5.9-0.9l-4.3,1.1C9.6,104.4,8.3,105.1,7,106z"/>
			</g>
		</g>
		<path id="Trazado_2380" class="st14" d="M1.1,363.2c0,34.7,149,62.8,332.7,62.8s332.7-28.1,332.7-62.8s-149-62.8-332.7-62.8
			S1.1,328.6,1.1,363.2z"/>
		<g id="Grupo_1249" transform="translate(432.727 74.729)">
			<g id="Grupo_1244" transform="translate(112.441 23.508)">
				<path id="Trazado_2381" class="st15" d="M26.4,0.8h7.4v3.8C32.1,2.2,29.4,0.8,26.4,0.8z"/>
				<path id="Trazado_2382" class="st15" d="M24.3,0.8v10.5c0,5.1,4.1,9.2,9.2,9.2l0,0h0.4v16.2H1.1V0.8H24.3z"/>
			</g>
			<g id="Grupo_1248" transform="translate(0 0)">
				<path id="Trazado_2383" class="st16" d="M118.7,47.2c0,0,12.8,4.6,0.5,41.4s-20.5,32.3-20.5,32.3l-10.2-1L69,96.8l10.5-9.2
					l2.1,0.8c0,0,2.7-1.1,3-3.7s5.2-13.1,9-34.7C95.4,40,116.3,46.3,118.7,47.2z"/>
				<path id="Trazado_2384" class="st17" d="M71.8,97.2c0,0-25.3,12.9-41.3-12.1c-4.7-7.4-2.7,1.1-0.1,9.3s18.3,26.6,36.2,27.8
					s24.7,0.2,28.1-6S71.8,97.2,71.8,97.2z"/>
				<path id="Trazado_2385" class="st18" d="M93.5,91.3l-6.4-4.1l-2.7-1.5c-0.6,1.2-1.6,2.2-2.8,2.8l5.4,2.2l5.8,3.8l6,7.3
					L93.5,91.3z"/>
				<path id="Trazado_2386" class="st16" d="M95,152.9l48-1l19.9-66.8c0,0,9.1-40.2-7.9-40.9c-24.8-1-57.3-0.5-57.3-0.5
					S81,58.2,95,152.9z"/>
				<path id="Trazado_2387" class="st18" d="M112.3,149.3c-1.9,0.3-3.8,0.6-5.6,0.8c-3.1-35.2,0.2-70.6,9.6-104.6
					c1.5,0.5,3.1,1,4.6,1.5C111.9,80.3,109,115,112.3,149.3z"/>
				<path id="Trazado_2388" class="st13" d="M16,294.7c0,0,4.7,7.2,7,2.8c7.2-13.2,13.6-55,14-72.2c0.5-22.9,1.6-36.8,1.6-36.8
					l-23-8.3L16,294.7z"/>
				<path id="Trazado_2389" class="st13" d="M96.7,152.4l-81.2,27.8l21.3,11.9c0,0,83.7,14.7,85.2-16.4
					C123.3,149.6,96.7,152.4,96.7,152.4z"/>
				<path id="Trazado_2390" class="st19" d="M44.9,295.4c0,0,4.2,3.9,6.6-0.6c7.2-13.2,18.9-48.4,19.3-65.5
					c0.5-22.9-3.2-38.8-3.2-38.8l-23.5-8.2L44.9,295.4z"/>
				<path id="Trazado_2391" class="st19" d="M121.9,153.3l-77.4,29.2L65.7,194c0,0,78.5,14.7,80.1-16.4S121.9,153.3,121.9,153.3z"/>
				<path id="Trazado_2392" class="st19" d="M147.1,179.4c0.2,2.1-1.1,9.3-3.4,12.2c-7.3,8.9-24.7,5.9-38.5,5.9
					c-0.8,0-4.6-10.8-4.6-10.8l-5.8-35.3l48.5,0.8C143.3,152.2,145.5,161.6,147.1,179.4z"/>
				<path id="Trazado_2393" class="st17" d="M68.3,130.8l-17.8-3.2c0,0-2.8-0.3-2.9,1.6c-0.2,2.5,0.3,10.8,0.3,10.8l3.2-2l4.6,2.8
					l5.3-7c1.7,0.3,3.4,0.3,5,0C66.8,133.5,68.3,130.8,68.3,130.8z"/>
				<path id="Trazado_2394" class="st17" d="M111.9,125.7l-47,5.2c0,0,25.2,12.9,36.8,13c7.5,0,15-0.9,22.4-2.6L111.9,125.7z"/>
				<path id="Trazado_2395" class="st18" d="M135.1,77l-23.5,44.5l1.3,3.6l-3.6,0.7l11,17.5l17.2-3.9l31-61.4c0,0,6.5-18.5-8.3-32.7
					C152.9,38.2,137.2,73.4,135.1,77z"/>
				<path id="Trazado_2396" class="st16" d="M129.1,136.6c0,0-11.1-8.5-16.8-13.1l0.6,1.6l-3.6,0.7l3.8,6l6.7,7.8l3.8-1.4l-1.4-2.7
					L129.1,136.6z"/>
				<g id="Grupo_1246" transform="translate(99.66)">
					<g id="Grupo_1245">
						<path id="Trazado_2397" class="st13" d="M14.7,13.1c0,3.2,2.6,5.8,5.8,5.8l0,0h22c3.2,0,5.8-2.6,5.8-5.8l0,0l0,0
							c0-3.2-2.6-5.8-5.8-5.8l0,0h-22C17.3,7.3,14.7,9.9,14.7,13.1L14.7,13.1z"/>
						<path id="Trazado_2398" class="st13" d="M18.7,23.2c0,5.9,4.8,10.7,10.7,10.7h11.5c5.9,0,10.7-4.8,10.7-10.7l0,0
							c0-5.9-4.8-10.7-10.7-10.7H29.4C23.5,12.5,18.7,17.3,18.7,23.2z"/>
						<path id="Trazado_2399" class="st17" d="M10.1,40.4V6.8c0-5.3,4.3,0,9.7,0H25c5.4,0,9.7,4.3,9.7,9.7v23.9H10.1z"/>
						<path id="Trazado_2400" class="st17" d="M30.3,24c0,2.3,1.9,4.3,4.3,4.3l0,0c2.4,0,4.3-1.9,4.3-4.3l0,0l0,0
							c0-2.4-1.9-4.3-4.3-4.3l0,0C32.2,19.8,30.3,21.7,30.3,24z"/>
						<path id="Trazado_2401" class="st17" d="M12.9,29.9c0,1.3-1,2.4-2.4,2.5h-2c-1.3,0-2.4-1.1-2.4-2.5l0,0c0,0,4.4-12.8,5.7-12.8
							c0.6,0.7,1,1.5,1.1,2.5L12.9,29.9z"/>
						<path id="Trazado_2402" class="st13" d="M23.6,38.6c9.7,0,10.7-3,11-6.4c0,0,2.6,8.5,2.6,11.2v3.1c0,5.9-6.1,10.7-13.6,10.7
							H10.1V38.6H23.6z"/>
						<path id="Trazado_2403" class="st13" d="M10.1,32.3h7.8c3.6,0,6.5,2.9,6.5,6.5l0,0c0,0.5-0.1,1.1-0.2,1.6H10.1V32.3z"/>
						<path id="Trazado_2404" class="st17" d="M20.1,39.1v2.2c0,0.6-0.5,1.1-1.1,1.1l0,0h-6.3c-0.6,0-1.1-0.5-1.1-1.1v-2.2H20.1z"/>
						<path id="Trazado_2405" class="st13" d="M13.4,0.9h19.9c2.1,0,3.9,1.7,3.9,3.9l0,0v7.7H13.4V0.9z"/>
						<path id="Trazado_2406" class="st13" d="M1.1,6.6c0,3.2,2.6,5.9,5.9,5.9h13.5c3.2,0,5.9-2.6,5.9-5.9l0,0
							c0-3.2-2.6-5.9-5.9-5.8l0,0H7C3.7,0.8,1.1,3.4,1.1,6.6L1.1,6.6z"/>
					</g>
					<rect id="Rectángulo_2187" x="29.5" y="9.7" class="st13" width="5.4" height="14.1"/>
					<rect id="Rectángulo_2188" x="17.4" y="3.6" class="st13" width="15.8" height="16.6"/>
					<path id="Trazado_2407" class="st17" d="M29.5,20.5c0-4.4-3.6-8-8-8l0,0h-4.1c-4.4,0-6.8,3.6-6.8,8l0,0c0,4.4,3.6,8,8,8h2.9
						C25.9,28.5,29.5,24.9,29.5,20.5L29.5,20.5L29.5,20.5z"/>
				</g>
				<g id="Grupo_1247" transform="translate(2.143 66.228)">
					<path id="Trazado_2408" class="st17" d="M30.3,27.6c0,0,3.8-9.1,2.4-11.6c-1.4-2.5-7-11.2-7-11.2l-1.6-2.2c0,0-3.3,0.5,0.5,6.3
						s0.4,4,0.4,4l-5.5-4l-7.1-4.4l-3-2.2c0,0-1.6-1.4-2.2-1.5C5.3,0.7,5.9,2.2,5.9,2.2l10.6,10L4.2,5.6c0,0-1.7-0.6-2.3,0.1
						s-0.1,1-0.1,1l12.1,10.7l-6.7-2.7c0,0-1.7-0.5-2.3,0.1c-0.7,0.8-0.9,1-0.9,1l24.7,13.8L30.3,27.6z"/>
					<path id="Trazado_2409" class="st17" d="M14.5,13.9L5.6,9.8c-0.9-0.6-2-1-3.1-1.1C1.8,8.6,1.2,9.1,1.1,9.8l0,0l12.8,7.6
						L14.5,13.9z"/>
				</g>
				<path id="Trazado_2410" class="st19" d="M37.3,302.5c-0.2,0.8-0.3,1.7-0.1,2.5c0,0,7.2,1.2,9.6,0.5c0.9-0.4,1.8-1,2.6-1.6
					c0.2-0.1,0.4-0.9,0.6-1c0.3-0.2,0.4,0.2,0.7,0c0.4-0.3,0.8-0.7,1.1-1c0.6-4.5-0.3-6.4-0.3-6.4s-6.2-2.9-7.3-0.9
					C41.5,299,38.2,301,37.3,302.5z"/>
				<path id="Trazado_2411" class="st13" d="M23.9,296.8l-1,6.6h-5.5c0,0-0.3-0.9-0.8-0.9c-0.4,0-0.9,0.9-1.4,0.9h-14
					c0,0-0.2-1.4,0.1-1.9c0.5-0.4,1.1-0.7,1.7-0.9c2.8-1,11.4-3.1,13.3-6.1C17.7,292.1,23.9,296.8,23.9,296.8z"/>
			</g>
		</g>
		<g id="Grupo_1250" transform="translate(592.2 42.297)">
			<path id="Trazado_2412" class="st20" d="M91.9,62.6V8.1c0.1-4-3.1-7.2-7-7.3H18.6c-4,0.1-7.1,3.4-7,7.3v16.3l-3.5,3.7l-7,7.3
				l7,7.3l3.5,3.7v16.3c-0.1,4,3.1,7.2,7,7.3h66.2C88.8,69.8,91.9,66.6,91.9,62.6z"/>
		</g>
		<g id="Grupo_1255" transform="translate(594.823 278.984)">
			<g id="Grupo_1252" transform="translate(28.073 34.84)">
				<path id="Trazado_2414" class="st5" d="M5.6,45.4c0,0,3.7-13.3,9.6-17.8s10.2-11,17.9-13.9s9.6-8.3,6.7-10.1s-12.6-7.2-24.3,5
					S0.9,30.5,1.1,41.9S5.1,52,5.6,45.4z"/>
				<path id="Trazado_2415" class="st21" d="M35.5,5.6c0,0-11.7,3.5-17,7.5S3.2,28.2,2.7,39.2"/>
			</g>
			<g id="Grupo_1253" transform="translate(19.321)">
				<path id="Trazado_2416" class="st22" d="M11.2,84.5c0,0-6-17-8.5-22.4S0.6,44,4.5,39S14.8,26.6,12,15.6S10.5-2.2,15.8,2.1
					s14.7,13.7,14.9,28.8c0.2,11.5-3.2,18.3-9.6,26.6C16,64.2,10.8,76.7,11.2,84.5z"/>
				<path id="Trazado_2417" class="st23" d="M9.3,80.4c0,0-3.2-17,0-24s10.8-19.7,11.5-28.2c0.8-10.7-5.9-20.8-5.9-20.8"/>
			</g>
			<g id="Grupo_1254" transform="translate(0 46.611)">
				<path id="Trazado_2418" class="st19" d="M6.8,12.6c-6.9-1.3-7.5-9.3-2.1-10.9s14.1-1.4,18.4,4.2C28,12.4,30,24,28.4,32.3
					s0-3.2-3.5-8.8S12.5,13.7,6.8,12.6z"/>
				<path id="Trazado_2419" class="st24" d="M3.6,6.1c0,0,9.6-1.9,16.2,4.5c5.8,5.5,8.3,12.4,9.3,19.5"/>
			</g>
			<path id="Trazado_2420" class="st7" d="M42,100.6H22.8l-3.2-30.9h25.6L42,100.6z"/>
		</g>
		<g id="Grupo_1283" transform="translate(61.762 86.662)">
			<g id="Grupo_1259" transform="translate(231.407 148.471)">
				<g id="Grupo_1258" transform="translate(3.3 36.819)">
					<g id="Grupo_1256" transform="translate(4.119 21.744)">
						<path id="Trazado_2421" class="st2" d="M36.9,0.8l4.8,7.3L1.4,21c0,0-2.7-2.6,7.2-7.7C20.1,7.2,36.9,0.8,36.9,0.8z"/>
						<path id="Trazado_2422" class="st2" d="M44,0.8l-4.8,7.3L79.5,21c0,0,2.7-2.6-7.2-7.7C60.8,7.2,44,0.8,44,0.8z"/>
					</g>
					<rect id="Rectángulo_2189" x="40.4" y="0.8" class="st2" width="8.4" height="30"/>
					<g id="Grupo_1257" transform="translate(8.734 23.283)">
						<path id="Trazado_2423" class="st3" d="M31.7,0.8l4.1,7L1.4,20.1c0,0-2.3-2.5,6.2-7.4C15.4,8.3,23.5,4.4,31.7,0.8z"/>
						<path id="Trazado_2424" class="st3" d="M40,0.8l-4.1,7l34.5,12.3c0,0,2.3-2.5-6.2-7.4C56.3,8.3,48.2,4.4,40,0.8z"/>
					</g>
					<path id="Trazado_2425" class="st4" d="M14,46.1c0,1.6-1.3,2.9-2.9,2.9s-2.9-1.3-2.9-2.9c0-1.6,1.3-2.9,2.9-2.9
						C12.7,43.2,14,44.5,14,46.1L14,46.1z"/>
					<path id="Trazado_2426" class="st4" d="M80.8,46.1c0,1.6-1.3,2.9-2.9,2.9S75,47.7,75,46.1c0-1.6,1.3-2.9,2.9-2.9
						C79.5,43.2,80.8,44.5,80.8,46.1L80.8,46.1z"/>
					<path id="Trazado_2427" class="st1" d="M6.9,46.1C6.9,47.7,5.6,49,4,49s-2.9-1.3-2.9-2.9c0-1.6,1.3-2.9,2.9-2.9
						C5.6,43.2,6.9,44.5,6.9,46.1L6.9,46.1z"/>
					<path id="Trazado_2428" class="st1" d="M87.9,46.1c0,1.6-1.3,2.9-2.9,2.9s-2.9-1.3-2.9-2.9c0-1.6,1.3-2.9,2.9-2.9
						C86.6,43.2,87.9,44.5,87.9,46.1L87.9,46.1z"/>
				</g>
				<rect id="Rectángulo_2190" x="44.7" y="26.6" class="st1" width="6.2" height="10.8"/>
				<path id="Trazado_2429" class="st1" d="M55.5,21c0,3.3-2.7,6-6,6h-3.4c-3.3,0-6-2.7-6-6l0,0c0-3.3,2.7-6,6-6h3.4
					C52.8,15,55.5,17.6,55.5,21L55.5,21z"/>
				<path id="Trazado_2430" class="st5" d="M93.5,15.5c0.1-0.7,0.2-5.1,0.2-5.9c0-4.8-3.1-8.8-7-8.8H8.8c-3.9,0-7,3.9-7,8.8
					c0,0.8,0.1,5.2,0.2,5.9C2,15.5,93.5,15.5,93.5,15.5z"/>
				<path id="Trazado_2431" class="st1" d="M1.1,17.8c0,1.5,0.9,2.7,1.9,2.7h89.5c1.1,0,1.9-1.2,1.9-2.7l0,0c0-1.5-0.9-2.7-1.9-2.7
					H3C2,15.2,1.1,16.4,1.1,17.8z"/>
			</g>
			<g id="Grupo_1268" transform="translate(183.067)">
				<path id="Trazado_2432" class="st25" d="M111.1,149c0,0-50.1,0.1-69.5,0.4c-13.4,0.2-14.6-18.9-9.3-21.8c16-8.7,66-13.2,66-13.2
					l34,31.2C132.4,145.7,130.5,145.7,111.1,149z"/>
				<path id="Trazado_2433" class="st26" d="M63.9,46.8c0,0-12.9-3.6-18.5,13.2c-8.6,25.8-7.8,49.5-6.6,54.6
					c0.6,2.3,2.2,10.3,16.6,10.7c5.8,0.1,3.5-12.4,3.5-12.4c3.1-9.4,5.7-18.9,7.7-28.6C70.6,66.2,63.9,46.8,63.9,46.8z"/>
				<path id="Trazado_2434" class="st7" d="M53.7,48.2l33.1-10.7l25-1.7l27.4,8.3c0,0,9,6.2,0.6,26.1s-5.1,51-5.1,51L64,123.5
					c-1-19.3-3.1-38.5-6-57.6C56.9,59.5,56.8,51.9,53.7,48.2z"/>
				<path id="Trazado_2435" class="st26" d="M102.2,122.1h-3.6c-3.8-27.9-3.6-56.3,0.6-84.2c1.1,0.6,2.2,1.3,3.3,1.9
					C101.5,68.2,103.1,96.5,102.2,122.1z"/>
				<g id="Grupo_1260" transform="translate(84.679 10.5)">
					<path id="Trazado_2436" class="st27" d="M3.5,34.8c0.5,3.8,3.6,7.1,6.9,7.3h9.3c3.3-0.2,6.4-3.5,6.9-7.3
						c0.8-6.3,1.5-12.6,2.3-18.9c0.5-3.8-1.7-11.4-6.7-13.6c-4.6-2-9.7-2-14.3,0c-5,2.2-7.2,9.8-6.7,13.6
						C1.9,22.2,2.7,28.5,3.5,34.8z"/>
				</g>
				<path id="Trazado_2437" class="st26" d="M100.1,53.1l5.9,9.7l10.9-13.6l-1.7-7.1l-3.5-2.9v5.4L100.1,53.1z"/>
				<path id="Trazado_2438" class="st26" d="M99.4,53.1l-6,9.7L83.3,50.1l1.7-7.8l2.5-3.3l1,6.4L99.4,53.1z"/>
				<g id="Grupo_1261" transform="translate(81.122)">
					<path id="Trazado_2439" class="st13" d="M20,0.8c2.5,0,4.9,1.3,6.3,3.4h2.6c3.2,0,5.8,2.6,5.8,5.8l0,0v14.3h-4.1v-5.8
						c0-2.2-1.8-4.1-4.1-4.1h-1.1c-4.1,0-7.5-3.3-7.5-7.5l0,0V0.8H20z"/>
					<path id="Trazado_2440" class="st27" d="M27.2,29.6c0,2,1.6,3.5,3.5,3.5l0,0h0.4c2,0,3.5-1.6,3.5-3.5l0,0v-4.3
						c0-2-1.6-3.5-3.5-3.5l0,0h-0.3c-1.4,0-2.7,0.8-3.2,2.1"/>
					<path id="Trazado_2441" class="st13" d="M23.2,6.5V0.8H10.9c-4.1,0-7.5,3.3-7.5,7.5l0,0V14h12.3C19.8,14,23.2,10.6,23.2,6.5z"
						/>
					<path id="Trazado_2442" class="st17" d="M4.5,35c0,3,2.3,8,6,9.6c5.2,2.1,11.1,2.1,16.3,0c3.8-1.6,6-6.6,6.1-9.6V9.7
						c0-3-3-5.5-6.6-5.6H11.1C7.4,4.2,4.5,6.7,4.5,9.7V35z"/>
					<path id="Trazado_2443" class="st13" d="M15.8,0.8c-2.5,0-4.9,1.3-6.3,3.4H6.9c-3.2,0-5.7,2.6-5.7,5.8v14.3h4.1v-5.8
						c0-2.3,1.8-4.1,4.1-4.1h5.2c4.1,0,7.5-3.3,7.5-7.5V0.8H15.8z"/>
					<path id="Trazado_2444" class="st17" d="M8.5,25.3c0-2-1.6-3.5-3.5-3.5l0,0H4.6c-2,0-3.5,1.6-3.5,3.5v4.3c0,2,1.6,3.5,3.5,3.5
						h0.3c1.4,0,2.7-0.8,3.2-2.1"/>
					<path id="Trazado_2445" class="st13" d="M22,8c-0.1-0.5-0.1-1-0.1-1.5V0.8h5.2c4.1,0,7.5,3.3,7.5,7.5l0,0V14h-5.3
						c-0.5,0-1-0.1-1.5-0.2C27.2,10.9,24.9,8.6,22,8z"/>
				</g>
				<path id="Trazado_2446" class="st8" d="M168.7,244.9c0.8,0.9,0.2,3.4,0.2,3.4s-13.5,1.5-17.8,0.5c-1.7-0.6-3.3-1.3-4.8-2.3
					c-0.3-0.2-0.8-1.2-1.1-1.4c-0.5-0.3-0.8,0.2-1.3-0.1c-0.7-0.4-1.4-0.9-2.1-1.4c-1.2-6.2,0.4-8.7,0.4-8.7s11.5-3.8,13.6-1.2
					C160.9,240,167,242.8,168.7,244.9z"/>
				<path id="Trazado_2447" class="st8" d="M42.6,238.1l-0.9,10.2l-10.2,1c0,0-0.7-1.4-1.6-1.3c-0.7,0.1-1.5,1.6-2.5,1.7
					c-2.1,0.2-4.5,0.4-5.5,0.5c-1.9,0.2-20.5,2-20.5,2s-0.7-2.1-0.2-2.8c0.9-0.7,1.9-1.3,3-1.6c5.1-2,19.8-8.1,21.9-13.4
					C28.8,228,42.6,238.1,42.6,238.1z"/>
				<g id="Grupo_1262" transform="translate(48.086 108.295)">
					<path id="Trazado_2448" class="st17" d="M10,0.8l34.5,14.1c0,0-24.5,3.5-39.8,0.4C-5.6,13.2,9.5,0.4,10,0.8z"/>
				</g>
				<path id="Trazado_2449" class="st25" d="M136.4,130.6c0,0,3.3,31.5,2.8,48.2c-0.4,12.6-0.4,36.6,2.6,57.2
					c0.2,1.3,16.2,0.3,16.2,0.3s5.8-78.1,7.5-91S162.3,123.1,136.4,130.6z"/>
				<path id="Trazado_2450" class="st28" d="M35.4,138.2c0,0,5.2,8.2,19.4,10.1c5.1,0.7-8.3,91.4-8.3,91.4l-21-6.7l4-100.3
					L35.4,138.2z"/>
				<path id="Trazado_2451" class="st28" d="M93.3,148.3c0,0,27.4,3.9,45.7,5.8c6.7,0.7,12.5-18.1,13.3-18.9
					c2.4-2.8,5.9-4.4,9.6-4.7c-4-4.3-24.5-8.3-45.9-13.3s-24.7-1.9-24.7-1.9L93.3,148.3z"/>
				<path id="Trazado_2452" class="st25" d="M115.9,117.3c21.4,5,42,9,45.9,13.3c-3.7,0.2-7.1,1.9-9.6,4.7c-0.2,0.2-1.4,6.2-2.3,8.4
					c3.5-6.3-46.9-24.1-57.8-28.7C94.2,114.3,100.1,113.6,115.9,117.3z"/>
				<path id="Trazado_2453" class="st28" d="M139.4,148l2.1,61.3l2.1,14.2l0.2-14.2l-0.5-8.9l4.9-13.7l2.6-31.9l-3.7,1.4l0.5-14
					L139.4,148z"/>
				<path id="Trazado_2454" class="st25" d="M36.2,130.5l-5.1,1.4l-1.9,73.7l10.7,26.3L34.8,214l2.1-37.1c0,0,7.5,17.9,7.5,17
					S38.1,155,38.1,155s7,5.8,6.3,5.6S40.1,134,36.2,130.5z"/>
				<path id="Trazado_2455" class="st7" d="M124,44.4c0,0,11-8.6,21.8,7.4c15.8,23.5,22.6,48.4,25.2,55.7c1.9,5.5,0.9,21.2-5.6,27.7
					c-1.6,1.6-10.9,0.3-10.9,0.3l-6.1-4.2l2.6-4.9l0.1-3.9c0,0-7.8-18.9-17.4-36.7S124,44.4,124,44.4z"/>
				<g id="Grupo_1264" transform="translate(104.731 113.263)">
					<path id="Trazado_2456" class="st17" d="M46.2,2.9L10.4,4.8c0,0,34.4,15.8,35.6,13.1C52.5,2.4,46.2,2.9,46.2,2.9z"/>
					<g id="Grupo_1263">
						<path id="Trazado_2457" class="st17" d="M26.5,1.8c-2.1-1-1.9-1-1.9-1c-1.2,1.4-2.9,2.3-4.7,2.7c-1.3,0.2-5.7,0.3-5.7,0.3
							L7.6,3.9L4.5,3.8C3.8,3.6,3,3.7,2.3,3.8C1,4.7,2.1,5.4,2.1,5.4l11.8,1.7L2.6,8.4c0,0-1.4,0.4-1.5,1.2
							c-0.1,0.7,0.4,0.7,0.4,0.7l13.2,1.4l-5.8,1.4c0,0-1.4,0.4-1.5,1.2s-0.2,1-0.2,1l12.1-1.2C19.4,14.2,28.6,2.8,26.5,1.8z"/>
						<path id="Trazado_2458" class="st17" d="M13.5,9.1l-8,1.5c-0.9,0.1-1.8,0.3-2.6,0.7c-0.5,0.3-0.7,0.9-0.4,1.4l0,0l12.2-1
							L13.5,9.1z"/>
					</g>
				</g>
				<g id="Grupo_1267" transform="translate(67.234 77.347)">
					<path id="Trazado_2459" class="st29" d="M1.2,51.3C1.2,51.2,1.2,51.2,1.2,51.3V49h70.4v2.3c0,0,0,0,0,0.1l-0.2,0.4
						c-1.2,2-3.4,2.3-5.8,2.3H7.3c-2.5,0-4.6-0.3-5.8-2.3L1.2,51.3z"/>
					<g id="Grupo_1265" transform="translate(12.027 48.667)">
						<rect id="Rectángulo_2191" x="1.1" y="0.8" class="st30" width="46.6" height="1.6"/>
					</g>
					<g id="Grupo_1266">
						<path id="Trazado_2460" class="st31" d="M1.3,49.2L1.1,3c0-1.2,1-2.2,2.2-2.2l0,0h65.9c1.2,0,2.2,1,2.2,2.2l0.2,46.2H1.3z"/>
						<path id="Trazado_2461" class="st29" d="M32.1,25c0,2.4,1.9,4.3,4.3,4.3c2.4,0,4.3-1.9,4.3-4.3s-1.9-4.3-4.3-4.3l0,0
							C34,20.7,32.1,22.6,32.1,25L32.1,25z"/>
					</g>
				</g>
				<path id="Trazado_2462" class="st26" d="M155.6,134l2.5-15.7l-4.1-4.2l-9,1.4l1.8,17.4L155.6,134z"/>
				<path id="Trazado_2463" class="st26" d="M46,122.8l-0.9-5.8l11.3-10.2l6.2,2.8l-8.1,15.5L46,122.8z"/>
			</g>
			<g id="Grupo_1274" transform="translate(0 103.819)">
				<g id="Grupo_1269" transform="translate(0 17.972)">
					<path id="Trazado_2464" class="st1" d="M15.2,85c-3.1,0-6.1-1.1-8.5-3.1c-4.3-3.7-6.1-10.3-5.5-19.7c0.4-6.3,2.9-12.6,5.5-19.4
						c4.4-11.4,9.4-24.2,6.8-41.3l4.9-0.7c2.8,18.3-2.7,32.4-7.1,43.8c-2.6,6.7-4.8,12.4-5.2,18c-0.5,7.6,0.8,13,3.8,15.6
						c1.8,1.5,4.2,2.2,6.5,1.8l1,4.8C16.7,84.9,16,85,15.2,85z"/>
				</g>
				<g id="Grupo_1272" transform="translate(11.963 119.47)">
					<g id="Grupo_1270" transform="translate(4.12 21.744)">
						<path id="Trazado_2465" class="st2" d="M36.9,0.8l4.8,7.3L1.4,21c0,0-2.7-2.6,7.2-7.7C20.1,7.2,36.9,0.8,36.9,0.8z"/>
						<path id="Trazado_2466" class="st2" d="M44,0.8l-4.8,7.3L79.5,21c0,0,2.7-2.6-7.2-7.7C60.8,7.2,44,0.8,44,0.8z"/>
					</g>
					<rect id="Rectángulo_2192" x="40.4" y="0.8" class="st2" width="8.4" height="30"/>
					<g id="Grupo_1271" transform="translate(8.735 23.283)">
						<path id="Trazado_2467" class="st3" d="M31.7,0.8l4.1,7L1.4,20.1c0,0-2.3-2.5,6.2-7.4C17.4,7,31.7,0.8,31.7,0.8z"/>
						<path id="Trazado_2468" class="st3" d="M40,0.8l-4.1,7l34.5,12.3c0,0,2.3-2.5-6.2-7.4C56.3,8.3,48.2,4.4,40,0.8z"/>
					</g>
					<path id="Trazado_2469" class="st4" d="M14,46.1c0,1.6-1.3,2.9-2.9,2.9s-2.9-1.3-2.9-2.9c0-1.6,1.3-2.9,2.9-2.9
						C12.7,43.2,14,44.5,14,46.1L14,46.1z"/>
					<path id="Trazado_2470" class="st4" d="M80.8,46.1c0,1.6-1.3,2.9-2.9,2.9S75,47.7,75,46.1c0-1.6,1.3-2.9,2.9-2.9
						C79.5,43.2,80.8,44.5,80.8,46.1L80.8,46.1z"/>
					<path id="Trazado_2471" class="st1" d="M6.9,46.1C6.9,47.7,5.6,49,4,49s-2.9-1.3-2.9-2.9c0-1.6,1.3-2.9,2.9-2.9
						C5.6,43.2,6.9,44.5,6.9,46.1L6.9,46.1z"/>
					<path id="Trazado_2472" class="st1" d="M87.9,46.1c0,1.6-1.3,2.9-2.9,2.9s-2.9-1.3-2.9-2.9c0-1.6,1.3-2.9,2.9-2.9
						C86.6,43.2,87.9,44.5,87.9,46.1L87.9,46.1z"/>
				</g>
				<rect id="Rectángulo_2193" x="53.4" y="109.3" class="st1" width="6.2" height="10.8"/>
				<path id="Trazado_2473" class="st1" d="M64.1,103.6c0,3.3-2.7,6-6,6h-3.4c-3.3,0-6-2.7-6-6l0,0c0-3.3,2.7-6,6-6h3.4
					C61.5,97.6,64.1,100.3,64.1,103.6z"/>
				<path id="Trazado_2474" class="st5" d="M102.2,98.1c0.1-0.7,0.2-5.1,0.2-5.9c0-4.8-3.1-8.8-7-8.8H17.5c-3.9,0-7,3.9-7,8.8
					c0,0.8,0.1,5.2,0.2,5.9H102.2z"/>
				<path id="Trazado_2475" class="st1" d="M9.8,100.5c0,1.5,0.9,2.7,1.9,2.7h89.5c1.1,0,1.9-1.2,1.9-2.7l0,0c0-1.5-0.9-2.7-1.9-2.7
					H11.7C10.6,97.8,9.8,99,9.8,100.5z"/>
				<g id="Grupo_1273" transform="translate(8.829)">
					<path id="Trazado_2476" class="st5" d="M5.3,53.1c1.9,0.1,14.1,0.4,16.2,0.4c13.4,0.2,24.9-2.3,25.5-5.6
						c2.6-13.7,2.8-27.7,0.3-41.4c-0.4-3.4-12.1-5.9-25.8-5.7C19.4,0.8,6.9,1,4.9,1.2C9.1,18.2,9.2,36,5.3,53.1z"/>
					<path id="Trazado_2477" class="st1" d="M3.5,1.2C2,1.2,0.9,1.9,1.1,2.8c3.7,16,3.9,32.7,0.4,48.8c-0.2,0.9,0.8,1.6,2.3,1.6l0,0
						c1.5,0,2.8-0.7,3-1.5c3.6-16.2,3.4-32.9-0.3-49C6.3,1.9,5,1.2,3.5,1.2L3.5,1.2z"/>
					<path id="Trazado_2478" class="st6" d="M2.9,53.1c1.2,0.1,2.3,0.2,3.5,0.2c2.9,0,5.9-2.5,6.5-5.8c2.4-13.5,2.4-27.3-0.2-40.8
						C12.1,3.5,9.3,1.1,6,0.9C4.8,0.9,3.6,1,2.4,1.1C6.6,18.2,6.8,36,2.9,53.1z"/>
				</g>
			</g>
			<g id="Grupo_1278" transform="translate(10.387 13.182)">
				<g id="Grupo_1277">
					<path id="Trazado_2479" class="st17" d="M139.9,119.3l-3.4-4.1l-3.5-2.5l-6.9-1.6c0,0-7.5-0.7-10.4,0s-14.1-0.2-15.5,0
						s-2.3,4.3-2.3,4.3s10.3,0.3,15,0.2s11.5,2,13.4,2c1.3,0,2.6-0.1,3.9-0.4c1.2-0.2,1.2-0.6,0.2-0.8c-1.5-0.3-3.7-0.6-4.5-0.7
						c-1.3-0.1-0.5-1.5-0.5-1.5s6.8,0.6,8.6,1.4c1.1,0.6,2.1,1.4,2.9,2.3C137.9,118.7,138.9,119.2,139.9,119.3z"/>
					<path id="Trazado_2480" class="st4" d="M80.5,35.7c0,8.6-7,15.6-15.6,15.6L61,43.9c-8.6,0-15.6-13-15.6-21.6v-5.9
						c0-8.6,7-15.6,15.6-15.6l0,0h3.9c8.6,0,15.6,7,15.6,15.6l0,0V35.7z"/>
					<path id="Trazado_2481" class="st4" d="M47.9,16.2c-0.8,0-1.7,0.1-2.5,0.2c0.2,1,0.3,2.1,0.3,3.2c-0.1,10.4-7.9,19-18.2,20.2
						c1.5,11.3,12,19.3,23.3,17.8s19.3-12,17.8-23.3C67.1,23.8,58.3,16.2,47.9,16.2L47.9,16.2z"/>
					<path id="Trazado_2482" class="st17" d="M74.3,6.7c0,1.5-0.1,2.9-0.4,4.4c-1.6,10-7.7,17.6-14.3,18.6c-0.2,4.1-1,8.2-2.2,12.1
						c-1.2,4-5.9,8.1-5.9,8.1c-1.1,7,22.7,17.3,22.1,16.2s-6.4-9.4-8.4-16.9c-1.1-4.4-0.2-9,2.4-12.6c2.3-2.6,5.6-4.2,9.1-4.3
						c0.5,0,1-0.2,1.3-0.6c0.3-1.1,0.5-2.2,0.5-3.3V15.5C78.6,12.1,77,8.8,74.3,6.7z"/>
					<g id="Grupo_1276" transform="translate(0 40.875)">
						<path id="Trazado_2483" class="st19" d="M21.8,110.4c0-0.1,0-0.2-0.1-0.2c0-0.1,0.1-0.1,0.1-0.2c2-11.3,5.7-22.2,10.8-32.5
							c3.7-7.1,11-13.8,14.3-17.2c8.4,4.6,16.7,2.5,24.5,8.4c1.1,3.5,1.9,7,2.4,10.6c1.2,6.9,2.2,13.2,3.1,19.2
							c14.5,4.2,19.3,8.2,27.1,13.2c1,0.5,4.6,4.1,5.6,5c-0.6,10.9-2.1,18.4-7.5,27.2c-1,1.6-11.5,0.9-20.9-0.6
							c-4.3-0.7-18.5-1.6-20-2.2C14.6,136,20.1,119.2,21.8,110.4z"/>
						<path id="Trazado_2484" class="st27" d="M110.7,137.8c1.5-2.5,3.1-5,4.5-7.4c1.2-4.8,1.2-8-0.2-9.2c-5.2-4.5-25.6,6-51,59
							c-1.3,2.7-26.3,45.3-25.3,44.7C50.7,217.5,87.8,174.9,110.7,137.8z"/>
						<path id="Trazado_2485" class="st13" d="M38.4,220.2l8.1-12.9c0.7-1.2,1.9-1.9,3.3-1.9l-6.2,10c-1.2,1.8-0.9,4.3,0.7,5.8
							c0.5,0.4,1.1,0.6,1.8,0.7l-1.9,3c-1.2,1.9-3.5,2.5-5,1.2C37.4,224.5,37.1,222.1,38.4,220.2z"/>
						<path id="Trazado_2486" class="st17" d="M68.6,48.7l14.8-22.8c4.4-6.8,1.8-13.6-5.8-15.2l-42.7-9C30.1,1,22.5,7.8,24.2,15.9
							l9.1,26.4L68.6,48.7z"/>
						<path id="Trazado_2487" class="st13" d="M78.8,12.9c-5.7,19.6,6.1,57.3,6.1,57.3s6.4,3.3,7.9,0.1c1.9-4.1-1.2-17.4-3.4-45.4
							C88.1,7.5,79.8,9.6,78.8,12.9z"/>
						<path id="Trazado_2488" class="st13" d="M27,2.4C11.9,13.2,1.5,47,1.5,47s2.1,3.7,5.1,2.2c3.8-1.9,9.7-10.9,22.8-32.2
							C37.6,3.7,29.6,0.6,27,2.4z"/>
						<path id="Trazado_2489" class="st7" d="M39.5,58.5c0.1,3.1,3.2,8,5.6,7.9l24.7,1.3c2.3,0,5.7-4.4,5.7-7.4L75.3,50
							c-0.1-3.1-2-5.5-4.3-5.5l-29.1-6.9c-2.3,0-4.2,2.6-4.1,5.6L39.5,58.5z"/>
						<path id="Trazado_2490" class="st32" d="M71.1,68.3c0,0.3-1.6,0.5-3.6,0.4l-22.3-1.4c-2-0.1-3.6-0.5-3.5-0.8l0.1-1.3
							c0-0.3,1.6-0.5,3.6-0.4l22.3,1.4c2,0.1,3.6,0.5,3.5,0.8L71.1,68.3z"/>
						<path id="Trazado_2491" class="st7" d="M31.6,13.2c0.4-1.4,0.9-2.8,1.6-4c20.7,14.7,35.4,8.5,46,6c0.1,0.6,0.2,1.3,0.2,1.9
							c0.4,7.3-0.1,14.6,0.2,21.9c0.3,5.8-7.9,10.9-11.8,11.1c-14.7,0.6-18-0.2-32.1-4c-3.8-1-10.8-7.2-9.3-12.5
							C28.1,26.8,29.9,20,31.6,13.2z"/>
						<path id="Trazado_2492" class="st19" d="M68.2,7.6c0,0,15.3-0.5,18,6.9s-3.8,18-3.8,18s-3.9,13.6-5,21s3.6,14.4,2.2,13
							c-0.3-0.3-3.8,0-9.3-2.5s-2.5-12.7-1.9-15.9s3.2-19.2,2.6-21.9S68.2,7.6,68.2,7.6z"/>
						<path id="Trazado_2493" class="st19" d="M23.7,12.2c0,0-1.2-6.1,1.3-8.6C28.7,0,37.7,0.5,40.6,1.4c1.7,0.5,3.3,1.1,4.9,1.8
							c0,0-10.2,4.1-9.8,25.1c0.3,5.5,1,11.1,2.2,16.5c1.2,5.6,1.6,16.5,1.6,16.5s-6.1,1.2-6.3,2.1c-0.2,0.9-0.7-6.5-4.8-13.5
							S23.7,12.2,23.7,12.2z"/>
						<path id="Trazado_2494" class="st13" d="M37.1,0.9c-5.7,4.7-9.1,8.7-8.2,33.2c0.1,4-0.1,11.2,0.7,18c-0.3-0.7-0.7-1.4-1.1-2.1
							c-4.1-7-4.8-37.7-4.8-37.7S22.5,6.2,25,3.7C27.7,1.1,33.2,0.6,37.1,0.9z"/>
						<path id="Trazado_2495" class="st27" d="M104.3,113.9c3.7,2,7.2,4.3,10.3,7.1c-5.7,2.7-8.3,9.5-14.9,12
							c-4.2-2.3-14.3-16.4-11.1-15.7C98.3,119.5,97.5,116.2,104.3,113.9z"/>
						<path id="Trazado_2496" class="st17" d="M86.1,116.3c3.8,0.2,7.4,1.7,10.2,4.3c-5.7,2.7-8.3,9.5-14.9,12
							c-4.9,3.3-7.4,12.9-7.4,9.6C73.9,137.9,78.9,115.7,86.1,116.3z"/>
						<path id="Trazado_2497" class="st17" d="M95,137.2c1-2.7,2.1-5.5,3-8.2c0.2-4.9-0.4-8.1-2-9c-6-3.4-24,10.8-38.9,67.6
							c-0.4,1.7-4.5,17.6-10.8,30.2c-1.2,2.5-2.7,2-3.4,4.1c-2.2,6.4-1.2,14.3-0.9,14.1C52.5,226.4,79.6,178,95,137.2z"/>
						<path id="Trazado_2498" class="st19" d="M37.8,231.2l7-13.6c0.6-1.2,1.8-2,3.1-2.1l-5.4,10.4c-1.1,1.9-0.6,4.3,1.1,5.7
							c0.5,0.4,1.2,0.5,1.8,0.5l-1.6,3.1c-1,2-3.2,2.7-4.9,1.6C37.2,235.6,36.7,233.2,37.8,231.2z"/>
						<g id="Grupo_1275" transform="translate(13.067 47.419)">
							<path id="Trazado_2499" class="st27" d="M24.1,23.5c0,0,2.7,2,3.2,3.6c0.4,1.1,1.2,6.6,1.2,6.6c-1-1-1.7-2.2-1.9-3.6
								C26.1,27.8,25.3,25.6,24.1,23.5z"/>
							<path id="Trazado_2500" class="st27" d="M25.9,26.9c1.8,1.1,2.7,3.3,3.1,6.2c0.4,2.8,2,3.6,2,3.6c-0.2-2-0.6-4.1-1.1-6
								c-0.3-1.2-0.7-2.4-1-3.5C27.6,23.4,21.2,24.1,25.9,26.9z"/>
							<path id="Trazado_2501" class="st27" d="M24.6,19.7c0.7,1.5,1.7,2.9,2.9,4c2.4,1.4,4.5,2.4,4.5,2.4c-2.7,1.6-6-1.8-7.8-2.2
								S23,16.2,24.6,19.7z"/>
							<path id="Trazado_2502" class="st17" d="M8.3,10.9c4.8,2.8,10.4,5,12.3,7.6c2.8,3.6,2.6,6.7,5.3,8.4c0.3,0.2,0.6,0.4,0.8,0.6
								c0.7,0.6,1.7,1.1,1.9,1.3c0.3,0.3,1.1,1.3,0.9,0.8c-1.3-4.6-3.3-9.6-4.1-10.4C23.8,17.6,14,8.9,9.7,6.4
								C4.9,3.5,1.9,7.2,8.3,10.9z"/>
							<path id="Trazado_2503" class="st17" d="M26.1,26.5c0,0,0.6-1,1.4-0.6c1.3,0.7,3.1,3,3.7,3.8c0.7,0.9,3.1,5.9,3.1,5.9
								c-1.2-0.6-2.2-1.6-2.9-2.8C30,29.9,26.1,26.5,26.1,26.5z"/>
							<path id="Trazado_2504" class="st17" d="M3.1,0.8c-0.8,1.8-1.4,3.7-2,5.5c12.6,7.2,23.5,12.8,23.5,12.8L3.1,0.8z"/>
						</g>
						<path id="Trazado_2505" class="st13" d="M1.2,47.9c4.5,11,21.6,11.4,21.6,11.4s2.1-3,1.6-5.3c-0.7-3-5-6-15.2-12.3
							C2.8,37.8,0.5,46.1,1.2,47.9z"/>
					</g>
				</g>
				<path id="Trazado_2506" class="st13" d="M103.8,110.1c1,0.6-1.2,6.8-3.4,6.7l-1.7,0.1c0,0-14.5,0.3-14-7.2
					C84.8,109.7,88.3,102.9,103.8,110.1z"/>
			</g>
			<g id="Grupo_1281" transform="translate(130.205 76.322)">
				<path id="Trazado_2507" class="st33" d="M1.1,52.2C1.1,52.2,1.1,52.1,1.1,52.2v-2.4h95.1v2.3v0.1L96,52.6
					c-1.2,2-3.4,2.3-5.9,2.3H7.3c-2.5,0-4.7-0.4-5.9-2.3L1.1,52.2z"/>
				<path id="Trazado_2508" class="st29" d="M24,52.6C24.1,52.6,24.1,52.6,24,52.6L23.8,53c-0.4,0.5-0.8,0.9-1.4,1.2H8
					c-2.4,0-4.5-0.3-5.7-1.9L2.1,52c0,0,0,0,0-0.1v-1.1h22L24,52.6z"/>
				<g id="Grupo_1279" transform="translate(35.776 49.555)">
					<rect id="Rectángulo_2194" x="1.1" y="0.8" class="st29" width="47.5" height="1.6"/>
				</g>
				<g id="Grupo_1280" transform="translate(23.473)">
					<path id="Trazado_2509" class="st33" d="M1.1,49.7L13.4,3c0.4-1.2,1.5-2.1,2.8-2.2h66.7c0.9,0,1.7,0.7,1.7,1.6
						c0,0.2,0,0.4-0.1,0.7L72.2,49.7H1.1z"/>
					<path id="Trazado_2510" class="st29" d="M38.8,25.3c-0.6,1.7,0.2,3.5,1.9,4.1c0.4,0.1,0.8,0.2,1.3,0.2c2.6-0.1,4.7-1.9,5.5-4.3
						c0.6-1.7-0.2-3.5-1.9-4.1c-0.4-0.1-0.8-0.2-1.3-0.2C41.7,21.1,39.5,22.8,38.8,25.3z"/>
				</g>
			</g>
			<g id="Grupo_1282" transform="translate(29.355 130.427)">
				<path id="Trazado_2511" class="st22" d="M440.1,161.3h9.7l-16-155.5h-14.1L440.1,161.3z"/>
				<path id="Trazado_2512" class="st34" d="M420.6,13l6.2,47.1l7.3-50.7l-0.3-3.6h-12.3L420.6,13z"/>
				<path id="Trazado_2513" class="st22" d="M113,161.3h9.7l-16-155.5H92.5L113,161.3z"/>
				<path id="Trazado_2514" class="st34" d="M93.5,13l6.2,47.1L107,9.4l-0.4-3.6H94.3L93.5,13z"/>
				<path id="Trazado_2515" class="st22" d="M10.8,161.3H1.1L17.2,5.8h14.1L10.8,161.3z"/>
				<path id="Trazado_2516" class="st34" d="M30.3,13L11.4,61l5.4-51.6l0.4-3.6h12.3L30.3,13z"/>
				<rect id="Rectángulo_2195" x="3.5" y="0.8" class="st1" width="298.8" height="9.1"/>
				
					<radialGradient id="Rectángulo_2196_1_" cx="-1527.1061" cy="49.9735" r="33.368" gradientTransform="matrix(-9.2396 0 0 9.086 -9870.5059 -580.0001)" gradientUnits="userSpaceOnUse">
					<stop  offset="2.000000e-03" style="stop-color:#CDF7F1"/>
					<stop  offset="1" style="stop-color:#5DCFCA"/>
				</radialGradient>
				<rect id="Rectángulo_2196" x="115.4" y="0.8" class="st35" width="330" height="9.1"/>
			</g>
		</g>
		<g id="Grupo_1286" transform="translate(392 162.841)">
			<path id="Trazado_2517" class="st36" d="M108.4,52.3L108.4,52.3v-2.4H13.1v2.3v0.1l0.2,0.4c1.2,2,3.4,2.4,5.9,2.4h82.9
				c2.5,0,4.7-0.4,5.9-2.4L108.4,52.3z"/>
			<path id="Trazado_2518" class="st37" d="M85.4,52.7C85.4,52.7,85.4,52.8,85.4,52.7l0.2,0.4c0.4,0.5,0.8,0.9,1.4,1.2h14.5
				c2.4,0,4.5-0.3,5.7-1.9l0.2-0.4c0,0,0,0,0-0.1v-1.1h-22V52.7z"/>
			<g id="Grupo_1284" transform="translate(23.813 49.688)">
				<rect id="Rectángulo_2197" x="1.1" y="0.8" class="st38" width="47.6" height="1.6"/>
			</g>
			<g id="Grupo_1285" transform="translate(0 0)">
				<path id="Trazado_2519" class="st39" d="M84.9,49.9L72.5,3c-0.4-1.2-1.5-2.1-2.8-2.2H2.8c-0.9,0-1.7,0.7-1.7,1.6
					c0,0.2,0,0.4,0.1,0.6l12.4,46.8L84.9,49.9L84.9,49.9z"/>
				<path id="Trazado_2520" class="st36" d="M47.1,25.3c0.6,1.7-0.2,3.5-1.9,4.1c-0.4,0.1-0.8,0.2-1.3,0.2c-2.6-0.1-4.8-1.9-5.5-4.3
					c-0.6-1.7,0.2-3.5,1.9-4.1c0.4-0.1,0.8-0.2,1.3-0.2C44.1,21.1,46.3,22.9,47.1,25.3z"/>
			</g>
		</g>
		<g id="Grupo_1287" transform="translate(365.442 29.464)">
			<path id="Trazado_2521" class="st40" d="M1.1,61.7c0.1,3.2,2.8,5.8,6.1,5.7h4v13.3l14.1-13.3h36.3c3.2,0.1,6-2.5,6.1-5.7V6.5
				c-0.1-3.2-2.8-5.8-6.1-5.7H7.2c-3.3-0.1-6,2.5-6.1,5.7V61.7z"/>
		</g>
		<g id="Grupo_1288" transform="translate(165.162 65.077)">
			<path id="Trazado_2522" class="st20" d="M20.9,66.2c-3.3,0-5.9-2.7-5.9-5.9v-4H1.1L15,42.4V6.7c0-3.3,2.7-5.9,5.9-5.9l0,0h57.4
				c3.3,0,5.9,2.7,5.9,5.9l0,0v53.5c0,3.3-2.7,5.9-5.9,5.9l0,0L20.9,66.2z"/>
		</g>
		<path id="diamante" class="st41" d="M421.1,56.3L421.1,56.3v-0.2V56v-0.1c0,0,0,0,0-0.1s0,0,0,0l0,0l-7-13.5
			c0-0.1-0.1-0.1-0.1-0.2l0,0c-0.1-0.1-0.1-0.1-0.2-0.2l0,0l0,0c-0.1,0-0.1,0-0.2,0h-26.4c-0.1,0-0.1,0-0.2,0l0,0l0,0
			c-0.1,0-0.1,0.1-0.2,0.1l0,0c0,0.1-0.1,0.1-0.1,0.2l-7,13.5l0,0l0,0c0,0,0,0,0,0.1v0.1V56v0.1v0.1v0.1v0.1l0,0c0,0,0,0,0,0.1
			c0,0,0,0,0,0.1L399.9,87l0,0l0,0l0,0c0.1,0.1,0.1,0.1,0.2,0.2c0,0,0,0,0.1,0c0.2,0.1,0.3,0.1,0.5,0l0,0c0,0,0.1,0,0.1-0.1
			c0.1,0,0.1-0.1,0.1-0.1l0,0l20.2-30.4c0,0,0,0,0-0.1C421.1,56.5,421.1,56.5,421.1,56.3L421.1,56.3L421.1,56.3
			C421.1,56.4,421.1,56.4,421.1,56.3z M401.7,43.5h10.7l-3.4,11L401.7,43.5z M407.8,55.3h-15.2l7.6-11.3L407.8,55.3z M391.4,54.6
			l-3.3-11.1h10.8L391.4,54.6z M408.3,57l-8.2,26.7l-8-26.7H408.3z M413.6,44.6l5.5,10.8h-8.8L413.6,44.6z M386.9,44.6l3.2,10.7
			h-8.8L386.9,44.6z M390.6,57l7.5,25l-16.6-25C381.5,57,390.6,57,390.6,57z M401.9,82.7l7.9-25.7h9.2L401.9,82.7z"/>
		<path id="ayuda" class="st41" d="M643.3,52.6c-14.1,0-25.6,11.5-25.6,25.6s11.5,25.6,25.6,25.6s25.6-11.5,25.6-25.6
			c0-6.8-2.7-13.3-7.5-18.1C656.6,55.3,650.1,52.6,643.3,52.6z M659.2,60.9l-6.6,6.6c-5.3-4.6-13.2-4.6-18.5,0l-6.6-6.6
			C636.5,52.6,650.2,52.6,659.2,60.9z M643.3,90.3c-6.7,0-12.1-5.4-12.1-12.1s5.4-12.1,12.1-12.1c6.7,0,12.1,5.4,12.1,12.1
			S650,90.3,643.3,90.3L643.3,90.3z M626,62.3l6.6,6.6c-4.6,5.3-4.6,13.2,0,18.5L626,94C617.8,85.1,617.8,71.3,626,62.3z
			 M627.5,95.5l6.6-6.6c5.3,4.6,13.2,4.6,18.5,0l6.6,6.6C650.2,103.7,636.5,103.7,627.5,95.5L627.5,95.5z M660.7,94.1l-6.6-6.6
			c4.6-5.3,4.6-13.2,0-18.5l6.6-6.6C668.9,71.3,668.9,85.1,660.7,94.1L660.7,94.1z"/>
		<g id="enviar" transform="translate(192.723 78.012)">
			<g id="Grupo_1290" transform="translate(0 0)">
				<g id="Grupo_1289" transform="translate(0)">
					<path id="Trazado_2523" class="st41" d="M43.9,1.6V1.5c0-0.1,0-0.1-0.1-0.2V1.2l0,0l-0.1-0.1L43.6,1l0,0h-0.1
						c0,0-0.1,0-0.2-0.1h-0.1c-0.1,0-0.1,0-0.2,0c-0.1,0-0.1,0-0.2,0h-0.1l-41,13.9C1.2,15,1,15.5,1.1,16c0.1,0.3,0.3,0.5,0.5,0.6
						l19.1,7.3L29.1,43c0.1,0.3,0.5,0.6,0.9,0.6l0,0c0.4,0,0.7-0.3,0.8-0.6l13-40.9V2c0,0,0-0.1,0-0.2C43.9,1.7,43.9,1.7,43.9,1.6z
						 M4.8,15.7L39.5,3.9L21.3,22.1L4.8,15.7z M29.8,40l-7.2-16.6L40.9,5.1L29.8,40z"/>
					<path id="Trazado_2524" class="st41" d="M15.7,29c-0.4-0.4-1-0.4-1.3,0l0,0l-13,13c-0.4,0.4-0.4,0.9,0,1.3s0.9,0.4,1.3,0l0,0
						l13-13C16.1,29.9,16.1,29.3,15.7,29L15.7,29z"/>
					<path id="Trazado_2525" class="st41" d="M18.1,35.5L11.6,42c-0.4,0.4-0.4,0.9,0,1.3c0.4,0.4,0.9,0.4,1.3,0l0,0l6.5-6.5
						c0.4-0.4,0.4-0.9,0-1.3C19.1,35.1,18.5,35.1,18.1,35.5L18.1,35.5z"/>
					<path id="Trazado_2526" class="st41" d="M2,33.3c0.2,0,0.5-0.1,0.7-0.3l6.5-6.5c0.4-0.4,0.3-1,0-1.3c-0.4-0.3-0.9-0.3-1.3,0
						l-6.5,6.6c-0.4,0.4-0.4,1,0,1.3C1.5,33.2,1.8,33.3,2,33.3L2,33.3z"/>
				</g>
			</g>
		</g>
	</g>
</g>
</svg>
