<?xml version="1.0" encoding="utf-8"?>
<!-- Generator: Adobe Illustrator 24.1.0, SVG Export Plug-In . SVG Version: 6.00 Build 0)  -->
<svg version="1.0" id="Capa_1" xmlns="http://www.w3.org/2000/svg" xmlns:xlink="http://www.w3.org/1999/xlink" x="0px" y="0px"
	 viewBox="0 0 32 32" style="enable-background:new 0 0 32 32;" xml:space="preserve">
<style type="text/css">
	.st0{fill:#F1B434;}
	.st1{fill:#4650FF;}
	.st2{fill:#1932FF;}
</style>
<g>
	<path class="st0" d="M12.2,19.9C12.2,19.9,12.2,19.8,12.2,19.9L7,16.4l-5.5,0.8C1,17.3,1,17.9,1.4,18l5.9,1.9
		c0.3,0.1,0.4,0.4,0.3,0.6l-3.3,6.2c-0.4,0.7,0.4,1.6,1.2,1.2l6.2-3.3c0.2-0.1,0.5,0,0.6,0.3l1.9,5.9c0.1,0.4,0.8,0.4,0.8-0.1
		l0.8-5.5L12.2,19.9C12.3,19.9,12.2,19.9,12.2,19.9"/>
	<path class="st1" d="M30.7,0.1L11.5,11.6L1,10.4c-0.9-0.1-1.3,1.1-0.6,1.6L12,19.9c0,0,0,0,0.1,0.1L31.7,0.3
		C31.5,0,31.1-0.1,30.7,0.1"/>
	<path class="st2" d="M19.9,31.7c0.5,0.7,1.7,0.3,1.6-0.6l-1.2-10.6L31.8,1.4C32,1,31.9,0.6,31.7,0.3L12.1,20"/>
</g>
</svg>
