<svg id="Grupo_2265" data-name="Grupo 2265" xmlns="http://www.w3.org/2000/svg" xmlns:xlink="http://www.w3.org/1999/xlink" width="1200" height="676" viewBox="0 0 1200 676">
  <defs>
    <clipPath id="clip-path">
      <path id="Trazado_3139" data-name="Trazado 3139" d="M1356.284,1103.473c-35.594,0-160.41,35.458-185.64-11.5S1157,1006.034,1157,1006.034h-19.671s-103.022,44.124-94.757,136.41c7.763,86.617-87.16,85.882-172.056,115.134s21.22,122.2-232.532,87.706-304.655,132.848-397.51,65.161v48.029h1199V1161.291C1427.139,1128.243,1402.482,1103.473,1356.284,1103.473Z" transform="translate(-240.469 -1006.034)" fill="#f8f8f9"/>
    </clipPath>
    <clipPath id="clip-path-2">
      <rect id="Rectángulo_2324" data-name="Rectángulo 2324" width="74" height="63" fill="#fff"/>
    </clipPath>
    <clipPath id="clip-path-3">
      <rect id="Rectángulo_2325" data-name="Rectángulo 2325" width="83" height="64" fill="#fff"/>
    </clipPath>
  </defs>
  <g id="Grupo_2263" data-name="Grupo 2263" transform="translate(0 41.635)">
    <g id="Grupo_1596" data-name="Grupo 1596">
      <g id="Grupo_1595" data-name="Grupo 1595" transform="translate(0 181.661)">
        <g id="Grupo_1594" data-name="Grupo 1594">
          <g id="Grupo_1593" data-name="Grupo 1593" clip-path="url(#clip-path)">
            <rect id="Rectángulo_2276" data-name="Rectángulo 2276" width="1199" height="770.333" transform="translate(0 -317.893)" fill="#f8f8f9"/>
            <path id="Trazado_3135" data-name="Trazado 3135" d="M1098.209,1048.629c7.426,71.87,44.3,136.078-79.9,169.617s-124.766,32.163-157.467,86.995c-19.781,33.172-66.3,77.137-99.969,106.692H240.469V1045.25q41.5-28.993,96.714-56.034c309.53-150.77,800.142-29.724,800.142-29.724S1090.779,976.759,1098.209,1048.629Z" transform="translate(-240.469 -959.492)" fill="#f8f8f9"/>
            <path id="Trazado_3136" data-name="Trazado 3136" d="M2314.44,981.239v330.747c-28.832-37.912-43.009-105.728-43.733-140.3-.967-46.414-47.542-57.082-105.744-37.917s-136.815-13.416-157.19-68.039,13.764-86.26,13.764-86.26C2078.532,940.922,2224.241,947.749,2314.44,981.239Z" transform="translate(-1115.44 -979.475)" fill="#f8f8f9"/>
            <g id="Grupo_1592" data-name="Grupo 1592" transform="translate(0 320.79)">
              <g id="Grupo_1591" data-name="Grupo 1591">
                <path id="Trazado_3137" data-name="Trazado 3137" d="M1439.469,1651.634v131.65h-1199V1666.67l8.91,4.378,24.173-3.7,17.729,7.627,15.078-1.034,22.106,4.964,154.242-3.93,33.6,7.627,17.643-3.235,125.863,3.235,87.422-8.661,41.278,2.653,20.144-9.247,16.023,2.3,16.018-2.3,20.149,9.247,41.273-2.653,87.422,8.661,125.868-3.235,17.638,3.235,33.6-7.627,154.247,3.93,22.106-4.964,15.073,1.034,17.729-7.627,24.178,3.7Z" transform="translate(-240.469 -1651.634)" fill="#f8f8f9"/>
                <rect id="Rectángulo_2277" data-name="Rectángulo 2277" width="1199" height="78.086" transform="translate(0 53.564)" fill="#f8f8f9"/>
                <path id="Trazado_3138" data-name="Trazado 3138" d="M1835.1,1805.764v32.153H1036.649l402.762-77.693h155.535Z" transform="translate(-636.1 -1706.267)" fill="#f8f8f9"/>
              </g>
            </g>
          </g>
        </g>
        <circle id="Elipse_497" data-name="Elipse 497" cx="73.538" cy="73.538" r="73.538" transform="translate(923.018 121.153) rotate(-45)" fill="#f8f8f9"/>
      </g>
      <path id="Trazado_3140" data-name="Trazado 3140" d="M2044.34,784.519a3.125,3.125,0,0,0,.018-.676c-4.181,3.138-6.083,3.391-6.814,3.293a.416.416,0,0,1-.074-.122l-.025.108a.784.784,0,0,1-.293-.107s-23.758-5.672-55.492-13.234A9.5,9.5,0,0,0,1964,769.167l-.38-.1c-.061.129-.112.25-.17.377-19.631-4.675-40.941-9.745-60.931-14.493-.061-.2-.11-.39-.178-.589l-.373-.028a9.49,9.49,0,0,0-15.817-3.269c-34.6-8.206-62.052-14.678-64.291-15.084-6.12-1.113-6.332-2.492-6.34-2.586l.06,0c2.019-69.2-10.662-79.864-10.662-79.864a24.01,24.01,0,0,0-13.388-7.919,23.049,23.049,0,0,0-4.554-.454,23.868,23.868,0,0,0-14.5,4.46,18.1,18.1,0,0,0-3.645,3.325c-13.834,14.128-11.961,79.29-11.961,79.29-.289,1.009-.709,1.151-.709,1.151s0,1.443-6.341,2.594c-2.219.4-29.235,6.772-63.426,14.88a9.492,9.492,0,0,0-15.75,3.044l-.345.025c-.095.273-.162.539-.244.808-20.044,4.76-41.465,9.857-61.224,14.563a9.5,9.5,0,0,0-17.723,4.222c-32.275,7.69-56.576,13.491-56.576,13.491s-1.441,1.153-7.2-3.173a3.147,3.147,0,0,0,.01.59c-.266.012-.022.42-.022.42.049.11.1.212.147.32.379,1.658,1.738,4.765,6.493,8.761,0,0,0,1.153,5.475,1.153l17.017-1.479-.022.04,40.34-3.523a9.519,9.519,0,0,0,7.5,1.216,13.272,13.272,0,0,0,4.863-2.3l56.247-4.913a86.533,86.533,0,0,1,23.046.867c7.5,1.106,14.491,2.042,20.863,2.829,12.011,1.58,23.53,2.937,23.53,2.937l.926.052v6.579a1.73,1.73,0,0,0,1.73,1.729h.433a1.73,1.73,0,0,0,1.729-1.729V794.51H1747.8v3.316a1.731,1.731,0,0,0,1.73,1.73h.431a1.73,1.73,0,0,0,1.729-1.73V783.339a1.729,1.729,0,0,0-1.729-1.731h-.158l1.168-5.839h1.729l.576,8.939,3.386.143s3.242.865,3.675,3.676c.017.124.034.241.052.363.059.429.136,1.041.231,1.787a1.724,1.724,0,0,0-.932,1.528v14.486a1.73,1.73,0,0,0,1.729,1.731h.432a1.725,1.725,0,0,0,1.622-1.148,21.773,21.773,0,0,0,2.472,6.444c.07.138.147.275.219.412l-60.729,10.077v3.75h3.675V826.8l47.552-1.3v1.3h20.1s5.187,6.271,7.566,7.568c0,0,1.385,1.966,3.774.251a2.871,2.871,0,0,0,.334-.251c2.593-2.161,5.835-4.757,8-7.568h19.022v-1.514l47.984,1.514v1.081h3.892v-3.245l-60.522-10.812a20.318,20.318,0,0,0,2.485-5.885,1.722,1.722,0,0,0,1.189.479h.432a1.731,1.731,0,0,0,1.73-1.731V792.205a1.722,1.722,0,0,0-.537-1.249c.045-.858.083-1.736.105-2.646a4.2,4.2,0,0,1,3.675-3.243c3.024-.216,3.024,0,3.024,0l.865-9.3h1.513l1.249,5.628a1.725,1.725,0,0,0-1.682,1.725v14.488a1.73,1.73,0,0,0,1.729,1.73h.433a1.73,1.73,0,0,0,1.73-1.73v-3.027h10.807v2.811a1.729,1.729,0,0,0,1.728,1.729h.432a1.731,1.731,0,0,0,1.731-1.729v-6.7c2.816-.335,15.8-1.888,27.806-3.516,5.266-.675,10.9-1.445,16.865-2.324a63.992,63.992,0,0,1,7.875-.981,79.316,79.316,0,0,1,14.316.26l57.867,5.034a13.546,13.546,0,0,0,4.421,1.957,9.588,9.588,0,0,0,7.075-.956l56.581,4.922c5.477,0,5.477-1.154,5.477-1.154.037-.031.068-.06.1-.09,1.825-1.142,4.482-3.624,6.853-8.993C2044.685,784.852,2045.07,784.207,2044.34,784.519ZM1747.8,792.926h-10.159v-1.885l10.159.587Zm76.951.073v-1.515s1.67-.1,4.742-.338l6.065-.247V793Z" transform="translate(-879.946 -645.14)" fill="#f8f8f9"/>
    </g>
    <g id="Grupo_1421" data-name="Grupo 1421" transform="translate(1119.439 204.854)">
      <path id="Trazado_37" data-name="Trazado 37" d="M321.108,165.756l1.132,2.6a.4.4,0,0,0,.205.205l2.6,1.132a.4.4,0,0,1,0,.725l-2.6,1.132a.392.392,0,0,0-.205.2l-1.132,2.6a.394.394,0,0,1-.723,0l-1.132-2.6a.392.392,0,0,0-.2-.2l-2.6-1.132a.4.4,0,0,1,0-.725l2.6-1.132a.4.4,0,0,0,.2-.205l1.132-2.6A.394.394,0,0,1,321.108,165.756Z" transform="translate(-286.224 -153.898)" fill="#4d5bdb"/>
      <path id="Trazado_40" data-name="Trazado 40" d="M303.068,158.038l1.627,3.74a.569.569,0,0,0,.294.294l3.742,1.628a.567.567,0,0,1,0,1.04l-3.742,1.628a.574.574,0,0,0-.294.294l-1.627,3.74a.567.567,0,0,1-1.041,0l-1.627-3.74a.574.574,0,0,0-.294-.294l-3.742-1.628a.567.567,0,0,1,0-1.04l3.742-1.628a.569.569,0,0,0,.294-.294l1.627-3.74A.567.567,0,0,1,303.068,158.038Z" transform="translate(-296.023 -157.696)" fill="#a4b1fb"/>
      <path id="Trazado_41" data-name="Trazado 41" d="M320.428,148.875l1.322,3.038a.459.459,0,0,0,.239.239l3.038,1.322a.461.461,0,0,1,0,.845l-3.038,1.322a.459.459,0,0,0-.239.239l-1.322,3.039a.461.461,0,0,1-.845,0l-1.322-3.039a.459.459,0,0,0-.239-.239l-3.038-1.322a.461.461,0,0,1,0-.845l3.038-1.322a.459.459,0,0,0,.239-.239l1.322-3.038A.461.461,0,0,1,320.428,148.875Z" transform="translate(-303.349 -120.214)" fill="#f1b434"/>
    </g>
    <g id="Grupo_1948" data-name="Grupo 1948" transform="translate(1 402.468)">
      <g id="Grupo_1422" data-name="Grupo 1422" transform="translate(37.747)">
        <path id="Trazado_38" data-name="Trazado 38" d="M448.81,195.978l2.25,5.174a.791.791,0,0,0,.407.405l5.173,2.25a.784.784,0,0,1,0,1.439l-5.173,2.25a.789.789,0,0,0-.407.407l-2.25,5.173a.784.784,0,0,1-1.439,0l-2.25-5.173a.781.781,0,0,0-.405-.407l-5.174-2.25a.785.785,0,0,1,0-1.439l5.174-2.25a.783.783,0,0,0,.405-.405l2.25-5.174A.785.785,0,0,1,448.81,195.978Z" transform="translate(-427.996 -178.219)" fill="#f1b434"/>
        <path id="Trazado_39" data-name="Trazado 39" d="M437.969,184.42l1.43,3.289a.5.5,0,0,0,.258.26l3.289,1.43a.5.5,0,0,1,0,.916l-3.289,1.43a.5.5,0,0,0-.258.258l-1.43,3.289a.5.5,0,0,1-.916,0L435.623,192a.5.5,0,0,0-.258-.258l-3.289-1.43a.5.5,0,0,1,0-.916l3.289-1.43a.5.5,0,0,0,.258-.26l1.43-3.289A.5.5,0,0,1,437.969,184.42Z" transform="translate(-431.776 -184.121)" fill="#a4b1fb"/>
      </g>
      <g id="Enmascarar_grupo_10" data-name="Enmascarar grupo 10" transform="translate(0 13.898)" clip-path="url(#clip-path-2)">
        <path id="Trazado_3004" data-name="Trazado 3004" d="M528.054,182.578a22.056,22.056,0,0,0-9.7,2.256,23.544,23.544,0,0,0-22.806-17.757c-.052,0-.1.008-.153.008A29.033,29.033,0,1,0,438.5,178.1a18.581,18.581,0,0,0-16.374,11.683A18.54,18.54,0,0,0,392.768,201.8H550A22.148,22.148,0,0,0,528.054,182.578Z" transform="translate(-475.903 -139.307)" fill="#dad3f4"/>
      </g>
    </g>
    <g id="Enmascarar_grupo_11" data-name="Enmascarar grupo 11" transform="translate(1117 229.365)" clip-path="url(#clip-path-3)">
      <path id="Trazado_3005" data-name="Trazado 3005" d="M448.783,159.786a23.32,23.32,0,0,0-10.26,2.388,24.913,24.913,0,0,0-24.133-18.788c-.053,0-.108.007-.161.01a30.721,30.721,0,1,0-60.2,11.657A19.65,19.65,0,0,0,336.7,167.411a19.62,19.62,0,0,0-31.068,12.715H472A23.436,23.436,0,0,0,448.783,159.786Z" transform="translate(-305.537 -116.426)" fill="#a4b1fb"/>
    </g>
  </g>
  <rect id="Rectángulo_2561" data-name="Rectángulo 2561" width="1199" height="676" fill="none"/>
</svg>
