<svg xmlns="http://www.w3.org/2000/svg" xmlns:xlink="http://www.w3.org/1999/xlink" width="1200" height="676" viewBox="0 0 1200 676">
  <defs>
    <clipPath id="clip-path">
      <rect id="Rect치ngulo_2327" data-name="Rect치ngulo 2327" width="82" height="322" fill="#444df3"/>
    </clipPath>
  </defs>
  <g id="Grupo_2264" data-name="Grupo 2264" transform="translate(0 -676)">
    <rect id="Rect치ngulo_2573" data-name="Rect치ngulo 2573" width="1198" height="676" transform="translate(0 676)" fill="#f8f8f9"/>
    <g id="Enmascarar_grupo_13" data-name="Enmascarar grupo 13" transform="translate(1118 971)" clip-path="url(#clip-path)">
      <path id="Trazado_2705" data-name="Trazado 2705" d="M25.6,454.642c-10.854-11.724-18.954-25.564-22.647-42.2-7.508-33.816.179-74.725,13.413-106.28,18-42.922,52.782-65.04,96.1-77.723,40.42-11.836,80.707-24.727,117.946-44.722,27.53-14.781,56-30.065,76.276-54.723,10.262-12.479,17.9-26.8,25.286-40.655,8.261-15.489,16.062-30.119,27.235-42.473C387,15.136,427.011,4.774,455.687,1.5c35.331-4.044,75.218.2,109.429,11.647,48.325,16.163,92.853,45.21,130.794,71.168,38.749,26.511,78.363,55.838,99.678,97,23.791,45.939,26.787,115.942,6.969,162.833-55.894,127.472-195.45,170.674-228.181,182.292-44.529,15.8-94.7,18.469-141.46,20.837-54.95,2.783-109.778,1.68-164.641-2.066-45.387-3.1-90.039-14.294-132.47-30.459C99.645,500.969,53.514,484.8,25.6,454.642Z" transform="matrix(0.07, -0.998, 0.998, 0.07, -18.818, 648.351)" fill="#444df3" fill-rule="evenodd" style="mix-blend-mode: multiply;isolation: isolate"/>
    </g>
    <g id="Grupo_1390" data-name="Grupo 1390" transform="translate(33.839 753.149)">
      <path id="Trazado_37" data-name="Trazado 37" d="M322.351,165.817l1.419,3.263a.5.5,0,0,0,.257.257l3.263,1.419a.5.5,0,0,1,0,.909l-3.263,1.419a.492.492,0,0,0-.257.255l-1.419,3.263a.494.494,0,0,1-.907,0l-1.419-3.263a.492.492,0,0,0-.257-.255l-3.263-1.419a.5.5,0,0,1,0-.909l3.263-1.419a.5.5,0,0,0,.257-.257l1.419-3.263A.494.494,0,0,1,322.351,165.817Z" transform="translate(-278.621 -150.951)" fill="#4d5bdb"/>
      <path id="Trazado_40" data-name="Trazado 40" d="M304.855,158.124l2.039,4.689a.713.713,0,0,0,.369.369l4.691,2.041a.711.711,0,0,1,0,1.3l-4.691,2.041a.72.72,0,0,0-.369.369l-2.039,4.689a.711.711,0,0,1-1.305,0l-2.039-4.689a.72.72,0,0,0-.369-.369l-4.691-2.041a.711.711,0,0,1,0-1.3l4.691-2.041a.713.713,0,0,0,.369-.369l2.039-4.689A.711.711,0,0,1,304.855,158.124Z" transform="translate(-296.023 -157.696)" fill="#a4b1fb"/>
      <path id="Trazado_41" data-name="Trazado 41" d="M321.879,148.945l1.657,3.808a.575.575,0,0,0,.3.3l3.808,1.657a.577.577,0,0,1,0,1.06l-3.808,1.657a.575.575,0,0,0-.3.3l-1.657,3.81a.578.578,0,0,1-1.06,0l-1.657-3.81a.575.575,0,0,0-.3-.3l-3.808-1.657a.577.577,0,0,1,0-1.06l3.808-1.657a.575.575,0,0,0,.3-.3l1.657-3.808A.577.577,0,0,1,321.879,148.945Z" transform="translate(-300.469 -113.016)" fill="#f1b434"/>
    </g>
  </g>
</svg>
