<svg xmlns="http://www.w3.org/2000/svg" xmlns:xlink="http://www.w3.org/1999/xlink" width="1200" height="657" viewBox="0 0 1200 657">
  <defs>
    <clipPath id="clip-path">
      <rect id="Rectángulo_2588" data-name="Rectángulo 2588" width="204" height="361" transform="translate(996 1648)" fill="#fff"/>
    </clipPath>
    <clipPath id="clip-path-2">
      <rect id="Rectángulo_2328" data-name="Rectángulo 2328" width="83" height="219" transform="translate(0 1969)" fill="#fff"/>
    </clipPath>
    <clipPath id="clip-path-3">
      <rect id="Rectángulo_2335" data-name="Rectángulo 2335" width="132" height="286" transform="translate(1069 1813)" fill="#fff"/>
    </clipPath>
    <clipPath id="clip-path-4">
      <rect id="Rectángulo_2572" data-name="Rectángulo 2572" width="1200" height="112" transform="translate(594 1473)" fill="#fff"/>
    </clipPath>
  </defs>
  <g id="Grupo_2266" data-name="Grupo 2266" transform="translate(0 -1352)">
    <g id="Enmascarar_grupo_30" data-name="Enmascarar grupo 30" clip-path="url(#clip-path)">
      <path id="Trazado_3573" data-name="Trazado 3573" d="M-36.659,203.494c11.029-15.369,15.666-34.255,22.944-51.712s18.857-34.963,36.868-40.737c17.981-5.764,37.68,1.776,53.192,12.548s28.679,24.79,44.889,34.478c17.887,10.693,38.545,15.577,58.8,20.475s40.881,10.114,58.432,21.356,31.781,29.723,32.494,50.549c.816,23.86-15.779,44.879-34.34,59.9s-40.094,26.675-55.864,44.6c-16.106,18.313-24.918,41.707-36.532,63.157S116.291,460.6,92.906,467.533c-14.8,4.389-30.906,2.528-45.512-2.479s-27.981-13-41.148-21.064c-22.667-13.879-45.26-28.258-64.607-46.487s-35.448-40.678-42.4-66.334-3.835-54.721,11.856-76.18C-74.433,235.2-50.954,223.415-36.659,203.494Z" transform="translate(1106.255 1538.946)" fill="#dad3f4"/>
    </g>
    <g id="Grupo_1395" data-name="Grupo 1395" transform="translate(1120.394 1501.749)">
      <path id="Trazado_37" data-name="Trazado 37" d="M321.843,165.839l-1.527,3.511a.533.533,0,0,1-.277.277l-3.511,1.527a.534.534,0,0,0,0,.978l3.511,1.527a.529.529,0,0,1,.277.275l1.527,3.511a.532.532,0,0,0,.976,0l1.527-3.511a.529.529,0,0,1,.276-.275l3.511-1.527a.534.534,0,0,0,0-.978l-3.511-1.527a.533.533,0,0,1-.276-.277l-1.527-3.511A.532.532,0,0,0,321.843,165.839Z" transform="translate(-316.208 -149.84)" fill="#4d5bdb"/>
      <path id="Trazado_40" data-name="Trazado 40" d="M304.123,158.157l-2.194,5.046a.767.767,0,0,1-.4.4l-5.048,2.2a.765.765,0,0,0,0,1.4l5.048,2.2a.775.775,0,0,1,.4.4l2.194,5.046a.765.765,0,0,0,1.4,0l2.195-5.046a.775.775,0,0,1,.4-.4l5.048-2.2a.765.765,0,0,0,0-1.4l-5.048-2.2a.767.767,0,0,1-.4-.4l-2.195-5.046A.765.765,0,0,0,304.123,158.157Z" transform="translate(-260.929 -157.696)" fill="#1831fb"/>
    </g>
    <g id="Enmascarar_grupo_14" data-name="Enmascarar grupo 14" transform="translate(0 -406)" clip-path="url(#clip-path-2)">
      <path id="Trazado_2890" data-name="Trazado 2890" d="M541.037,64.5a61.749,61.749,0,0,1,15.509,28.9c5.141,23.158-.122,51.173-9.185,72.783-12.328,29.394-36.146,44.541-65.808,53.226-27.681,8.106-55.27,16.933-80.772,30.627-18.853,10.122-38.351,20.589-52.236,37.475-7.027,8.546-12.258,18.355-17.317,27.841-5.657,10.607-11,20.626-18.651,29.087-19.036,21.045-46.438,28.141-66.076,30.386a180.1,180.1,0,0,1-74.939-7.976c-33.094-11.069-63.587-30.961-89.57-48.737-26.536-18.156-53.664-38.239-68.261-66.425-16.292-31.46-18.345-79.4-4.773-111.511C47.236,52.878,142.807,23.292,165.222,15.336,195.716,4.515,230.072,2.688,262.1,1.067A948.6,948.6,0,0,1,374.846,2.482c31.082,2.123,61.66,9.789,90.718,20.859C490.326,32.774,521.918,43.845,541.037,64.5Z" transform="matrix(0.891, -0.454, 0.454, 0.891, -485.179, 2164.879)" fill="#444df3" fill-rule="evenodd" style="mix-blend-mode: multiply;isolation: isolate"/>
    </g>
    <g id="Grupo_1950" data-name="Grupo 1950" transform="translate(-1 -178)">
      <g id="Grupo_1587" data-name="Grupo 1587" transform="translate(1080.765 1754.375)">
        <path id="Trazado_3081" data-name="Trazado 3081" d="M1725.632,1718.4h47.012a5.223,5.223,0,0,1,5.223,5.223v33.953a5.223,5.223,0,0,1-5.223,5.223h-5.224v10.447l-11.752-10.447h-30.036a5.224,5.224,0,0,1-5.224-5.223v-33.953A5.224,5.224,0,0,1,1725.632,1718.4Z" transform="translate(-1720.409 -1718.395)" fill="#464ffb"/>
        <line id="Línea_173" data-name="Línea 173" y1="15.671" transform="translate(44.4 20.894)" fill="none" stroke="#fff" stroke-width="8.337"/>
        <line id="Línea_174" data-name="Línea 174" y1="7.835" transform="translate(33.953 28.729)" fill="none" stroke="#fff" stroke-width="8.337"/>
        <line id="Línea_175" data-name="Línea 175" y1="28.729" transform="translate(23.506 7.835)" fill="none" stroke="#fff" stroke-width="8.337"/>
        <line id="Línea_176" data-name="Línea 176" y1="20.894" transform="translate(13.059 15.67)" fill="none" stroke="#fff" stroke-width="8.337"/>
      </g>
      <g id="Enmascarar_grupo_21" data-name="Enmascarar grupo 21" clip-path="url(#clip-path-3)">
        <g id="Grupo_1586" data-name="Grupo 1586" transform="translate(1068.885 1813.146)">
          <path id="Trazado_3055" data-name="Trazado 3055" d="M4882.016,2271.883c-.417.555-.106,2.025-.106,2.025s7.328.919,9.683.32a11.9,11.9,0,0,0,2.617-1.34c.165-.1.452-.718.611-.821.295-.192.45.13.7-.043a8.356,8.356,0,0,0,1.116-.843c.63-3.683-.229-5.172-.229-5.172s-6.244-2.3-7.408-.715C4886.262,2269.018,4882.93,2270.667,4882.016,2271.883Z" transform="translate(-4763.604 -1988.849)" fill="#163f59"/>
          <path id="Trazado_3056" data-name="Trazado 3056" d="M4988.369,2265.971l-1.085,5.959h-2.857s-.321-.845-.811-.845c-.414,0-.947.845-1.509.845h-14.734s-.263-1.253.058-1.686a5.505,5.505,0,0,1,1.779-.8c2.992-.883,11.555-3.639,13.044-6.638C4984.064,2259.159,4988.369,2265.971,4988.369,2265.971Z" transform="translate(-4908.549 -1987.723)" fill="#163f59"/>
          <path id="Trazado_3057" data-name="Trazado 3057" d="M4897.381,2051.474l6.107-3.4.722-.759-.848-1.359-1.339.165.234-3.975-6.4-1.139-3.279-1.531,3.029,10.783" transform="translate(-4777.688 -1904.443)" fill="#ffdea9"/>
          <path id="Trazado_3058" data-name="Trazado 3058" d="M4997.3,1898.331s6.844,7.536-14.227,27.439-24.91,14.077-24.91,14.077l-6.366-4.236-4.723-22.147,10.172-2.359,1.1,1.307a3.859,3.859,0,0,0,3.287-1.341c1.1-1.557,8.076-6.8,18.137-19.728C4984.416,1885.381,4995.99,1896.87,4997.3,1898.331Z" transform="translate(-4905.912 -1848.296)" fill="#d1dbea"/>
          <path id="Trazado_3059" data-name="Trazado 3059" d="M5038.023,1914.614s-21.25-.386-22.944-22.509c-.5-6.576-2.189-.214-3.346,6.065s2.722,23.98,14.078,31.092,16.2,8.858,20.589,5.958S5038.023,1914.614,5038.023,1914.614Z" transform="translate(-4995.178 -1848.18)" fill="#ffdea9"/>
          <path id="Trazado_3060" data-name="Trazado 3060" d="M4944.583,2220s3.3,4.782,5.725.311c5.595-10.312,13.907-35.782,14.188-47.374a118.809,118.809,0,0,0-2.417-28.181l-17.712-5.779Z" transform="translate(-4870.394 -1941.725)" fill="#163f59"/>
          <path id="Trazado_3061" data-name="Trazado 3061" d="M4933.89,2016.122l-.805,76.174,16.1,8.893a109.7,109.7,0,0,0,10.87-41.373c.512-9.851.766-31.94-4.743-39.454C4947.847,2010.181,4933.89,2016.122,4933.89,2016.122Z" transform="translate(-4859.112 -1895.045)" fill="#163f59"/>
          <path id="Trazado_3062" data-name="Trazado 3062" d="M4881.945,2015.765l2.634,26.37,7.154,28.6,7.616,26.73,27.2,74.194,7.916.645s-1-55.7-10.659-71.937c-5.112-8.595-5.106-27.666-7.47-48.209-.425-3.7,1.673-12.054,1.334-15.432a55.024,55.024,0,0,0-8.186-23.28Z" transform="translate(-4801.293 -1894.687)" fill="#194866"/>
          <path id="Trazado_3063" data-name="Trazado 3063" d="M4898.173,1970.119l34.883-.772,14.9-49.88s9.66-30.16-8.855-30.546-39.856-.388-39.856-.388S4883.945,1916.666,4898.173,1970.119Z" transform="translate(-4823.658 -1847.882)" fill="#d1dbea"/>
          <path id="Trazado_3064" data-name="Trazado 3064" d="M4874.579,1995.707l-22.09,26.89s.794,3.915,2.568,1.835c.215-.25-.856-1.039.491-1.774,5.428-2.962,18.174-7.523,22.892-12.082a78.613,78.613,0,0,0,10.623-13.048Z" transform="translate(-4737.471 -1888.041)" fill="#ffdea9"/>
          <path id="Trazado_3065" data-name="Trazado 3065" d="M4957.89,1899.737s-16.232,27.989-11.621,58.961c.362,2.441,3.268,4.185,3.268,4.185l4-3.487S4953.211,1924.34,4957.89,1899.737Z" transform="translate(-4864.422 -1852.08)" fill="#feb62b"/>
          <path id="Trazado_3066" data-name="Trazado 3066" d="M4926.142,1895.31l.884,6.182,10.6-10.046V1889.9Z" transform="translate(-4832.094 -1848.394)" fill="#b0bfde"/>
          <path id="Trazado_3067" data-name="Trazado 3067" d="M4947.161,1892.17l-1.859,8.044,4.705-4.054Z" transform="translate(-4856.451 -1849.245)" fill="#b0bfde"/>
          <path id="Trazado_3068" data-name="Trazado 3068" d="M5006.978,1931.661l-2.766-5-1.223-1.938a4.166,4.166,0,0,1-2.826.835l2.757,3.338,2.527,4.528,1.425,6.9Z" transform="translate(-4947.727 -1861.443)" fill="#b0bfde"/>
          <path id="Trazado_3069" data-name="Trazado 3069" d="M4851.618,1918.861l12.133,34.941,2.629,1.045-1.463,2.322,14.963,2.6,6.574-11.418-17.475-47.426s-6.756-9.965-21.8-11.62C4836.265,1888.107,4850.745,1915.952,4851.618,1918.861Z" transform="translate(-4729.006 -1848.158)" fill="#d1dbea"/>
          <path id="Trazado_3070" data-name="Trazado 3070" d="M4868.053,1989.059s-10.2,1.912-15.559,2.724l1.146.456-1.463,2.322,5.182.858,7.543.168,1.178-2.792-2.2-.552Z" transform="translate(-4716.267 -1885.55)" fill="#b0bfde"/>
          <path id="Trazado_3071" data-name="Trazado 3071" d="M4939.831,1877.948a39.214,39.214,0,0,1-1.879,6.619c-1.207,2.706-11.673,6.186-13.285,6.573s.4-8.12.4-10.053c0-1.475.953-1.016-.193-3.14Z" transform="translate(-4832.982 -1843.916)" fill="#ffdea9"/>
          <path id="Trazado_3072" data-name="Trazado 3072" d="M4916.311,1857.546a3.04,3.04,0,0,0,2.521,3.48l13.5,2.165a3.038,3.038,0,0,0,3.481-2.518l3.208-20a3.039,3.039,0,0,0-2.518-3.481l-13.5-2.166a3.038,3.038,0,0,0-3.481,2.52Z" transform="translate(-4827.35 -1827.819)" fill="#ffdea9"/>
          <path id="Trazado_3073" data-name="Trazado 3073" d="M4944.653,1841.448a11.62,11.62,0,0,1-1.644-3.468,4.531,4.531,0,0,1,2.518-3.443c1.641-.635,2.63,1.191,2.63,1.191s-2.609.949-2.815,1.43S4944.653,1841.448,4944.653,1841.448Z" transform="translate(-4853.165 -1827.599)" fill="#163f59"/>
          <path id="Trazado_3074" data-name="Trazado 3074" d="M4931.342,1845.6s3.275-7.359,3.26-9.669-.015-3.913-2.722-4.6c-4.057-1.035-4.247-.169-6.045-1.739s-4.912-5.16-6.1-5.658c-1.984-.831-5.321-.662-6.069,3.193a4.345,4.345,0,0,1-2.435,3.371c.1.375.8.824,2.008,1.688,3.45,2.477,5.638,3.213,8.633,2.924s8.611-1.055,8.894,1.171-1.009,8.684-.839,9.223S4930.782,1845.892,4931.342,1845.6Z" transform="translate(-4819.741 -1823.522)" fill="#194866"/>
          <path id="Trazado_3075" data-name="Trazado 3075" d="M4915.541,1863.624a1.017,1.017,0,0,0,.839,1.161l2.918.467a1.012,1.012,0,0,0,1.16-.84l.857-5.333a1.015,1.015,0,0,0-.839-1.161l-2.918-.468a1.011,1.011,0,0,0-1.158.839Z" transform="translate(-4809.153 -1836.23)" fill="#ffdea9"/>
          <path id="Trazado_3076" data-name="Trazado 3076" d="M4943.361,1859.162a1.01,1.01,0,0,0,.838,1.16l2.916.468a1.013,1.013,0,0,0,1.161-.84l.854-5.332a1.012,1.012,0,0,0-.838-1.161l-2.917-.467a1.012,1.012,0,0,0-1.16.84Z" transform="translate(-4854.366 -1834.558)" fill="#ffdea9"/>
          <path id="Trazado_3077" data-name="Trazado 3077" d="M4942.868,1861.3s-1.263,7.874-1.686,10.5c-.38,2.374-2.161,7.43-15.567,5.279-7.937-1.273-6.71-7.059-6.4-8.975.234-1.459,2.586-5.564,3.558-6.267.031-.022-.521,3.249-.521,3.249a6.422,6.422,0,0,1,5.931-2.3c6.086.977,6.9,4.762,9.591,5.129C4939.84,1868.2,4941.932,1865.077,4942.868,1861.3Z" transform="translate(-4832.84 -1837.676)" fill="#194866"/>
          <path id="Trazado_3078" data-name="Trazado 3078" d="M4942.784,1871.135l-4.166-.668a1.01,1.01,0,0,1-.839-1.161l.093-.583,6.165.99-.093.583A1.012,1.012,0,0,1,4942.784,1871.135Z" transform="translate(-4845.77 -1840.459)" fill="#ffdea9"/>
          <g id="Grupo_1585" data-name="Grupo 1585" transform="translate(0 29.821)">
            <path id="Trazado_3079" data-name="Trazado 3079" d="M5080.636,1889.037s2.01-6.8.97-8.5-5.225-7.632-5.225-7.632l-1.2-1.409s-2.174.561.681,4.518.482,2.846.482,2.846l-3.851-2.525-4.951-2.7-2.052-1.5s-1.106-.944-1.547-.927c-1.274.049-.765,1.079-.765,1.079l7.52,6.552-8.466-4.015s-1.163-.32-1.527.234c-.341.521,0,.712,0,.712l8.585,6.968-4.584-1.545s-1.146-.283-1.528.238c-.417.569-.544.713-.544.713l16.9,8.57Z" transform="translate(-5060.414 -1871.213)" fill="#ffdea9"/>
            <path id="Trazado_3080" data-name="Trazado 3080" d="M5089.474,1883.747l-6.108-2.455a5.024,5.024,0,0,0-2.111-.633.913.913,0,0,0-.873.95l8.875,4.671Z" transform="translate(-5080.381 -1874.75)" fill="#ffdea9"/>
          </g>
        </g>
      </g>
    </g>
    <g id="Enmascarar_grupo_23" data-name="Enmascarar grupo 23" transform="translate(-594 -121)" clip-path="url(#clip-path-4)">
      <path id="Trazado_2776" data-name="Trazado 2776" d="M-1968.111,1343.693s267.05,62.764,601.21-37.479,600.027-10.078,600.027-10.078V908.988H-1968.111Z" transform="translate(2562.075 222.188)" fill="#f7f7f7"/>
    </g>
  </g>
</svg>
