<svg xmlns="http://www.w3.org/2000/svg" xmlns:xlink="http://www.w3.org/1999/xlink" width="135" height="55" viewBox="0 0 135 55">
  <defs>
    <filter id="Rect치ngulo_2262" x="0" y="0" width="135" height="55" filterUnits="userSpaceOnUse">
      <feOffset dx="3" dy="3" input="SourceAlpha"/>
      <feGaussianBlur stdDeviation="3" result="blur"/>
      <feFlood flood-opacity="0.161"/>
      <feComposite operator="in" in2="blur"/>
      <feComposite in="SourceGraphic"/>
    </filter>
  </defs>
  <g id="Grupo_1405" data-name="Grupo 1405" transform="translate(6.476 6.816)">
    <g transform="matrix(1, 0, 0, 1, -6.48, -6.82)" filter="url(#Rect치ngulo_2262)">
      <rect id="Rect치ngulo_2262-2" data-name="Rect치ngulo 2262" width="116" height="36" rx="8" transform="translate(6.5 6.5)" fill="#fff" stroke="#464ffb" stroke-width="1"/>
    </g>
    <path id="Trazado_2777" data-name="Trazado 2777" d="M24.954,62.517a5.052,5.052,0,0,1,2.4-4.237,5.17,5.17,0,0,0-4.073-2.2c-1.713-.18-3.375,1.026-4.248,1.026-.89,0-2.235-1.008-3.682-.978a5.425,5.425,0,0,0-4.565,2.784c-1.973,3.417-.5,8.438,1.39,11.2.946,1.353,2.051,2.864,3.5,2.81,1.415-.058,1.944-.9,3.652-.9,1.692,0,2.188.9,3.664.869,1.519-.024,2.476-1.358,3.389-2.723a11.224,11.224,0,0,0,1.549-3.156A4.88,4.88,0,0,1,24.954,62.517Z" transform="translate(-0.18 -45.122)" fill="#464ffb"/>
    <path id="Trazado_2778" data-name="Trazado 2778" d="M23.185,53.654a4.973,4.973,0,0,0,1.137-3.562,5.059,5.059,0,0,0-3.273,1.694,4.732,4.732,0,0,0-1.167,3.429A4.181,4.181,0,0,0,23.185,53.654Z" transform="translate(-1.198 -44.514)" fill="#464ffb"/>
    <path id="Trazado_2779" data-name="Trazado 2779" d="M48.361,73.3H46.384L45.3,69.895H41.534L40.5,73.3H38.576l3.731-11.591h2.3Zm-3.388-4.833-.98-3.027q-.156-.465-.586-2.184h-.034q-.171.74-.551,2.184l-.963,3.027Z" transform="translate(-3.102 -45.697)" fill="#464ffb"/>
    <path id="Trazado_2780" data-name="Trazado 2780" d="M59.241,69.365a4.753,4.753,0,0,1-1.152,3.37,3.369,3.369,0,0,1-2.562,1.1,2.56,2.56,0,0,1-2.373-1.187h-.035v4.4H51.261V68.041q0-1.342-.068-2.752h1.633l.1,1.325h.035a3.3,3.3,0,0,1,5.288-.328A4.611,4.611,0,0,1,59.241,69.365Zm-1.892.068a3.443,3.443,0,0,0-.551-2.012,1.9,1.9,0,0,0-1.617-.825,1.927,1.927,0,0,0-1.246.455,2.109,2.109,0,0,0-.731,1.2,2.435,2.435,0,0,0-.086.567v1.393a2.235,2.235,0,0,0,.559,1.54,1.855,1.855,0,0,0,1.453.628,1.9,1.9,0,0,0,1.634-.808A3.561,3.561,0,0,0,57.35,69.433Z" transform="translate(-4.386 -46.043)" fill="#464ffb"/>
    <path id="Trazado_2781" data-name="Trazado 2781" d="M69.944,69.365a4.746,4.746,0,0,1-1.154,3.37,3.365,3.365,0,0,1-2.562,1.1,2.559,2.559,0,0,1-2.372-1.187h-.034v4.4H61.964V68.041q0-1.342-.069-2.752h1.634l.1,1.325h.034a3.305,3.305,0,0,1,5.289-.328A4.616,4.616,0,0,1,69.944,69.365Zm-1.893.068a3.443,3.443,0,0,0-.551-2.012,1.9,1.9,0,0,0-1.616-.825,1.93,1.93,0,0,0-1.248.455,2.122,2.122,0,0,0-.73,1.2,2.475,2.475,0,0,0-.085.567v1.393a2.238,2.238,0,0,0,.557,1.54,1.857,1.857,0,0,0,1.455.628,1.9,1.9,0,0,0,1.633-.808A3.561,3.561,0,0,0,68.052,69.433Z" transform="translate(-5.475 -46.043)" fill="#464ffb"/>
    <path id="Trazado_2782" data-name="Trazado 2782" d="M82.007,70.031a3.091,3.091,0,0,1-1.029,2.407,4.563,4.563,0,0,1-3.158,1.014,5.537,5.537,0,0,1-3-.721l.43-1.549a5.087,5.087,0,0,0,2.685.74,2.535,2.535,0,0,0,1.635-.474,1.547,1.547,0,0,0,.583-1.267,1.616,1.616,0,0,0-.481-1.188,4.5,4.5,0,0,0-1.6-.9q-3.044-1.134-3.043-3.323a2.945,2.945,0,0,1,1.066-2.343,4.208,4.208,0,0,1,2.838-.914,5.624,5.624,0,0,1,2.63.551l-.464,1.514a4.558,4.558,0,0,0-2.218-.534,2.239,2.239,0,0,0-1.53.482,1.373,1.373,0,0,0-.464,1.049,1.416,1.416,0,0,0,.533,1.134,5.994,5.994,0,0,0,1.686.895,5.72,5.72,0,0,1,2.2,1.409A2.957,2.957,0,0,1,82.007,70.031Z" transform="translate(-6.79 -45.677)" fill="#464ffb"/>
    <path id="Trazado_2783" data-name="Trazado 2783" d="M89.08,66.465H87.033v4.058q0,1.548,1.084,1.549a3.3,3.3,0,0,0,.825-.086l.051,1.41a4.188,4.188,0,0,1-1.444.206,2.23,2.23,0,0,1-1.72-.67,3.3,3.3,0,0,1-.619-2.253V66.465H83.99V65.072h1.22V63.542l1.823-.551v2.081H89.08Z" transform="translate(-7.724 -45.827)" fill="#464ffb"/>
    <path id="Trazado_2784" data-name="Trazado 2784" d="M99.012,69.4a4.585,4.585,0,0,1-1.1,3.164,3.93,3.93,0,0,1-3.062,1.272,3.735,3.735,0,0,1-2.931-1.221,4.448,4.448,0,0,1-1.092-3.078,4.538,4.538,0,0,1,1.126-3.181,3.9,3.9,0,0,1,3.035-1.239,3.817,3.817,0,0,1,2.958,1.222A4.4,4.4,0,0,1,99.012,69.4Zm-1.928.06a3.764,3.764,0,0,0-.5-1.983,1.835,1.835,0,0,0-1.667-1,1.862,1.862,0,0,0-1.7,1,3.835,3.835,0,0,0-.5,2.018,3.758,3.758,0,0,0,.5,1.982,1.9,1.9,0,0,0,3.353-.016A3.767,3.767,0,0,0,97.084,69.459Z" transform="translate(-8.419 -46.043)" fill="#464ffb"/>
    <path id="Trazado_2785" data-name="Trazado 2785" d="M106.152,66.922a3.3,3.3,0,0,0-.586-.05,1.757,1.757,0,0,0-1.514.739,2.786,2.786,0,0,0-.464,1.651v4.385h-1.856l.017-5.726q0-1.446-.07-2.632H103.3l.067,1.6h.051a2.857,2.857,0,0,1,.929-1.324,2.25,2.25,0,0,1,1.343-.447,2.908,2.908,0,0,1,.464.034Z" transform="translate(-9.524 -46.043)" fill="#464ffb"/>
    <path id="Trazado_2786" data-name="Trazado 2786" d="M115.063,69.07a4.38,4.38,0,0,1-.068.843h-5.572a2.428,2.428,0,0,0,.808,1.893,2.757,2.757,0,0,0,1.822.584,6.16,6.16,0,0,0,2.255-.4l.291,1.29a6.99,6.99,0,0,1-2.8.516,4.055,4.055,0,0,1-3.053-1.143,4.227,4.227,0,0,1-1.109-3.07,4.79,4.79,0,0,1,1.033-3.147,3.558,3.558,0,0,1,2.922-1.34,3.115,3.115,0,0,1,2.736,1.34A4.521,4.521,0,0,1,115.063,69.07Zm-1.771-.481a2.529,2.529,0,0,0-.36-1.427,1.624,1.624,0,0,0-1.48-.773,1.764,1.764,0,0,0-1.479.756,2.765,2.765,0,0,0-.55,1.444Z" transform="translate(-10.13 -46.041)" fill="#464ffb"/>
    <path id="Trazado_2787" data-name="Trazado 2787" d="M44.484,53.457a2.861,2.861,0,0,1-.921,2.316,3.665,3.665,0,0,1-2.424.718,11.339,11.339,0,0,1-1.336-.067v-5.6a9.776,9.776,0,0,1,1.572-.119,3.387,3.387,0,0,1,2.255.651A2.625,2.625,0,0,1,44.484,53.457Zm-.963.026a1.856,1.856,0,0,0-2.07-2.061,3.9,3.9,0,0,0-.735.059v4.258a4.843,4.843,0,0,0,.617.026,2.161,2.161,0,0,0,1.618-.584A2.331,2.331,0,0,0,43.521,53.483Z" transform="translate(-3.227 -44.577)" fill="#464ffb"/>
    <path id="Trazado_2788" data-name="Trazado 2788" d="M50.239,54.529a2.252,2.252,0,0,1-.541,1.554,1.929,1.929,0,0,1-1.5.626,1.84,1.84,0,0,1-1.442-.6,2.189,2.189,0,0,1-.535-1.513,2.231,2.231,0,0,1,.552-1.563,1.915,1.915,0,0,1,1.491-.608,1.878,1.878,0,0,1,1.454.6A2.169,2.169,0,0,1,50.239,54.529Zm-.947.03a1.852,1.852,0,0,0-.245-.975.9.9,0,0,0-.819-.491.914.914,0,0,0-.836.491,1.887,1.887,0,0,0-.245.991,1.852,1.852,0,0,0,.245.975.932.932,0,0,0,1.647-.008A1.85,1.85,0,0,0,49.293,54.558Z" transform="translate(-3.88 -44.752)" fill="#464ffb"/>
    <path id="Trazado_2789" data-name="Trazado 2789" d="M57.639,52.519l-1.284,4.106h-.835l-.533-1.783a13.125,13.125,0,0,1-.331-1.327H54.64a9.673,9.673,0,0,1-.33,1.327l-.566,1.783H52.9l-1.208-4.106h.939l.464,1.951q.168.693.278,1.319h.016q.1-.515.339-1.31l.583-1.96h.744l.558,1.918q.2.7.329,1.352h.026a12.827,12.827,0,0,1,.278-1.352l.5-1.918Z" transform="translate(-4.437 -44.761)" fill="#464ffb"/>
    <path id="Trazado_2790" data-name="Trazado 2790" d="M63.173,56.615h-.913V54.264q0-1.087-.827-1.087a.823.823,0,0,0-.659.3,1.059,1.059,0,0,0-.253.7v2.436h-.913V53.683q0-.54-.033-1.174h.8l.042.641h.026a1.312,1.312,0,0,1,.472-.5,1.539,1.539,0,0,1,.827-.23,1.31,1.31,0,0,1,.956.372,1.805,1.805,0,0,1,.472,1.36Z" transform="translate(-5.239 -44.752)" fill="#464ffb"/>
    <path id="Trazado_2791" data-name="Trazado 2791" d="M66.281,56.411h-.912v-5.99h.912Z" transform="translate(-5.829 -44.548)" fill="#464ffb"/>
    <path id="Trazado_2792" data-name="Trazado 2792" d="M71.911,54.529a2.252,2.252,0,0,1-.541,1.554,1.931,1.931,0,0,1-1.5.626,1.836,1.836,0,0,1-1.441-.6A2.189,2.189,0,0,1,67.89,54.6a2.231,2.231,0,0,1,.552-1.563,1.914,1.914,0,0,1,1.49-.608,1.879,1.879,0,0,1,1.455.6A2.169,2.169,0,0,1,71.911,54.529Zm-.948.03a1.852,1.852,0,0,0-.245-.975.9.9,0,0,0-.818-.491.914.914,0,0,0-.837.491,1.9,1.9,0,0,0-.244.991,1.86,1.86,0,0,0,.244.975.921.921,0,0,0,.829.491.911.911,0,0,0,.818-.5A1.842,1.842,0,0,0,70.964,54.558Z" transform="translate(-6.085 -44.752)" fill="#464ffb"/>
    <path id="Trazado_2793" data-name="Trazado 2793" d="M76.9,56.615h-.82l-.068-.473H75.99a1.405,1.405,0,0,1-1.2.567,1.235,1.235,0,0,1-.937-.373,1.164,1.164,0,0,1-.322-.836,1.278,1.278,0,0,1,.629-1.149,3.283,3.283,0,0,1,1.771-.389v-.075q0-.811-.852-.811a1.906,1.906,0,0,0-1.07.3l-.186-.6a2.624,2.624,0,0,1,1.409-.355q1.61,0,1.611,1.7v1.513A6.357,6.357,0,0,0,76.9,56.615ZM75.956,55.2v-.633q-1.512-.026-1.511.827a.62.62,0,0,0,.175.482.638.638,0,0,0,.446.16.914.914,0,0,0,.558-.19.776.776,0,0,0,.317-.486A.756.756,0,0,0,75.956,55.2Z" transform="translate(-6.66 -44.752)" fill="#464ffb"/>
    <path id="Trazado_2794" data-name="Trazado 2794" d="M82.616,56.411h-.809l-.043-.659h-.025a1.366,1.366,0,0,1-1.319.753,1.547,1.547,0,0,1-1.233-.583,2.27,2.27,0,0,1-.49-1.513,2.379,2.379,0,0,1,.532-1.614,1.638,1.638,0,0,1,1.267-.574,1.232,1.232,0,0,1,1.157.557h.017V50.421h.914V55.3Q82.584,55.9,82.616,56.411ZM81.67,54.68V54a1.308,1.308,0,0,0-.025-.287,1.037,1.037,0,0,0-.331-.553.9.9,0,0,0-.611-.225.939.939,0,0,0-.8.406,1.741,1.741,0,0,0-.292,1.039,1.625,1.625,0,0,0,.28.989.941.941,0,0,0,.8.405.879.879,0,0,0,.721-.338A1.13,1.13,0,0,0,81.67,54.68Z" transform="translate(-7.185 -44.548)" fill="#464ffb"/>
    <path id="Trazado_2795" data-name="Trazado 2795" d="M91.3,54.529a2.248,2.248,0,0,1-.541,1.554,1.926,1.926,0,0,1-1.5.626,1.839,1.839,0,0,1-1.441-.6,2.185,2.185,0,0,1-.536-1.513,2.232,2.232,0,0,1,.553-1.563,1.916,1.916,0,0,1,1.492-.608,1.875,1.875,0,0,1,1.452.6A2.169,2.169,0,0,1,91.3,54.529Zm-.946.03a1.852,1.852,0,0,0-.244-.975.9.9,0,0,0-.82-.491.917.917,0,0,0-.837.491,1.887,1.887,0,0,0-.245.991,1.852,1.852,0,0,0,.245.975.933.933,0,0,0,1.648-.008A1.85,1.85,0,0,0,90.35,54.558Z" transform="translate(-8.058 -44.752)" fill="#464ffb"/>
    <path id="Trazado_2796" data-name="Trazado 2796" d="M96.807,56.615H95.9V54.264q0-1.087-.828-1.087a.82.82,0,0,0-.658.3,1.054,1.054,0,0,0-.253.7v2.436h-.914V53.683q0-.54-.032-1.174h.8l.042.641h.026a1.326,1.326,0,0,1,.472-.5,1.542,1.542,0,0,1,.828-.23,1.309,1.309,0,0,1,.955.372,1.8,1.8,0,0,1,.472,1.36Z" transform="translate(-8.662 -44.752)" fill="#464ffb"/>
    <path id="Trazado_2797" data-name="Trazado 2797" d="M103.771,53.087h-1.005v1.994c0,.508.179.761.533.761a1.659,1.659,0,0,0,.407-.042l.023.693a2.067,2.067,0,0,1-.71.1,1.088,1.088,0,0,1-.843-.33,1.61,1.61,0,0,1-.3-1.107v-2.07h-.6V52.4h.6V51.65l.895-.269V52.4h1.005Z" transform="translate(-9.482 -44.646)" fill="#464ffb"/>
    <path id="Trazado_2798" data-name="Trazado 2798" d="M109.031,56.411h-.914V54.077q0-1.1-.826-1.1a.871.871,0,0,0-.871.64,1.152,1.152,0,0,0-.042.329v2.469h-.913v-5.99h.913V52.9h.016a1.382,1.382,0,0,1,1.234-.675,1.273,1.273,0,0,1,.939.372,1.866,1.866,0,0,1,.464,1.377Z" transform="translate(-9.909 -44.548)" fill="#464ffb"/>
    <path id="Trazado_2799" data-name="Trazado 2799" d="M114.571,54.367a2.242,2.242,0,0,1-.033.414H111.8a1.2,1.2,0,0,0,.4.929,1.359,1.359,0,0,0,.9.287A3.044,3.044,0,0,0,114.2,55.8l.143.634a3.46,3.46,0,0,1-1.379.253,1.988,1.988,0,0,1-1.5-.562,2.072,2.072,0,0,1-.544-1.508,2.35,2.35,0,0,1,.507-1.546,1.747,1.747,0,0,1,1.436-.659,1.527,1.527,0,0,1,1.342.659A2.2,2.2,0,0,1,114.571,54.367Zm-.87-.236a1.234,1.234,0,0,0-.177-.7.8.8,0,0,0-.727-.38.869.869,0,0,0-.727.372,1.373,1.373,0,0,0-.27.71Z" transform="translate(-10.464 -44.751)" fill="#464ffb"/>
  </g>
</svg>
