<svg xmlns="http://www.w3.org/2000/svg" xmlns:xlink="http://www.w3.org/1999/xlink" width="133.975" height="54.93" viewBox="0 0 133.975 54.93">
  <defs>
    <filter id="Rect치ngulo_2263" x="0" y="0" width="133.975" height="54.93" filterUnits="userSpaceOnUse">
      <feOffset dx="3" dy="3" input="SourceAlpha"/>
      <feGaussianBlur stdDeviation="3" result="blur"/>
      <feFlood flood-opacity="0.161"/>
      <feComposite operator="in" in2="blur"/>
      <feComposite in="SourceGraphic"/>
    </filter>
  </defs>
  <g id="Grupo_1406" data-name="Grupo 1406" transform="translate(6.5 6.5)">
    <path id="Trazado_2801" data-name="Trazado 2801" d="M251.382,75.749v0h0l0,0v-.007l0,0h0v0l0,0-.005,0v.009l.005,0Z" transform="translate(-148.754 -46.776)" fill="#464ffb" fill-rule="evenodd"/>
    <path id="Trazado_2802" data-name="Trazado 2802" d="M251.4,75.751l0-.007,0,0v0l-.005,0h0v.017h0v-.007h0l0,.007Zm0-.012h0l0,0h0v0h.005Z" transform="translate(-148.756 -46.776)" fill="#464ffb" fill-rule="evenodd"/>
    <path id="Trazado_2803" data-name="Trazado 2803" d="M251.41,75.748H251.4v0h.006v0H251.4v0h.006v0h-.01v.017h.01Z" transform="translate(-148.757 -46.776)" fill="#464ffb" fill-rule="evenodd"/>
    <path id="Trazado_2804" data-name="Trazado 2804" d="M251.425,75.751l0-.017h0l-.005.017h0v-.005h0v.005Zm0-.008h0v0h0Z" transform="translate(-148.758 -46.776)" fill="#464ffb" fill-rule="evenodd"/>
    <path id="Trazado_2805" data-name="Trazado 2805" d="M251.436,75.734h-.011v0h0v.014h0v-.014h0Z" transform="translate(-148.76 -46.776)" fill="#464ffb" fill-rule="evenodd"/>
    <path id="Trazado_2806" data-name="Trazado 2806" d="M251.449,75.748h-.007v0h.006v0h-.006v0h.007v0h-.011v.017h.011Z" transform="translate(-148.761 -46.776)" fill="#464ffb" fill-rule="evenodd"/>
    <path id="Trazado_2807" data-name="Trazado 2807" d="M251.464,75.746v-.007l-.005,0h-.006v.017h.006l.005-.005Zm0,0h0l0,0h0v-.012h0l0,0Z" transform="translate(-148.762 -46.776)" fill="#464ffb" fill-rule="evenodd"/>
    <path id="Trazado_2808" data-name="Trazado 2808" d="M251.486,75.746h0l0,0,0,0h0l0,0h-.005v.017h.005l.005-.005Zm0-.007h0l0,0h0v0h0Zm0,.007h0l0,0h0v-.005h0l0,0Z" transform="translate(-148.765 -46.776)" fill="#464ffb" fill-rule="evenodd"/>
    <path id="Trazado_2809" data-name="Trazado 2809" d="M251.5,75.734h0l0,.006h0l0-.006h0l0,.01v.007h0v-.007Z" transform="translate(-148.766 -46.776)" fill="#464ffb" fill-rule="evenodd"/>
    <path id="Trazado_2810" data-name="Trazado 2810" d="M251.526,75.746h-.01v-.021h-.005v.025h.014Z" transform="translate(-148.768 -46.775)" fill="#464ffb" fill-rule="evenodd"/>
    <path id="Trazado_2811" data-name="Trazado 2811" d="M251.546,75.744V75.73s0-.006-.009-.006a.007.007,0,0,0-.007.006v.013s0,.006.007.006.009,0,.009-.006Zm0,0h0l0,0,0,0v-.012l0,0,0,0Z" transform="translate(-148.77 -46.775)" fill="#464ffb" fill-rule="evenodd"/>
    <path id="Trazado_2812" data-name="Trazado 2812" d="M251.567,75.75v-.014h-.008v0h0v0h0l0,0v-.012l0,0,0,0,0,0-.007,0s-.009,0-.009.007v.013s0,.006.008.006h.008Z" transform="translate(-148.772 -46.775)" fill="#464ffb" fill-rule="evenodd"/>
    <path id="Trazado_2813" data-name="Trazado 2813" d="M251.59,75.744V75.73s0-.006-.008-.006-.009,0-.009.006v.013s0,.006.009.006.008,0,.008-.006Zm0,0h0l0,0,0,0v-.012l0,0,0,0Z" transform="translate(-148.775 -46.775)" fill="#464ffb" fill-rule="evenodd"/>
    <path id="Trazado_2814" data-name="Trazado 2814" d="M251.63,75.75v-.025h0l-.008.018-.009-.018h0v.025h0v-.015l.007.015h0l.006-.015v.015Z" transform="translate(-148.778 -46.775)" fill="#464ffb" fill-rule="evenodd"/>
    <path id="Trazado_2815" data-name="Trazado 2815" d="M251.656,75.75l-.007-.025h-.005l-.007.025h0l0-.008h.006l0,.008Zm-.008-.012h0v-.006Z" transform="translate(-148.781 -46.775)" fill="#464ffb" fill-rule="evenodd"/>
    <path id="Trazado_2816" data-name="Trazado 2816" d="M251.675,75.745l0-.009-.006,0,0,0,0,0,0,0-.006,0c-.005,0-.007,0-.007.007l0,.007.005,0,0,0-.005,0,0,0,.008,0Z" transform="translate(-148.783 -46.775)" fill="#464ffb" fill-rule="evenodd"/>
    <path id="Trazado_2817" data-name="Trazado 2817" d="M251.695,75.725h-.017v0h.006v.021h0v-.021h.005Z" transform="translate(-148.785 -46.775)" fill="#464ffb" fill-rule="evenodd"/>
    <path id="Trazado_2818" data-name="Trazado 2818" d="M251.714,75.746H251.7v-.007h.009v0H251.7v-.006h.009v0H251.7v.025h.015Z" transform="translate(-148.788 -46.775)" fill="#464ffb" fill-rule="evenodd"/>
    <path id="Trazado_2819" data-name="Trazado 2819" d="M251.737,75.75l-.007-.011,0-.006v0c0-.005,0-.006-.007-.006h-.007v.025h0v-.01h0l.006.01Zm-.006-.018h0l0,0h0v-.007h0l0,0Z" transform="translate(-148.79 -46.775)" fill="#464ffb" fill-rule="evenodd"/>
    <path id="Trazado_2823" data-name="Trazado 2823" d="M195.209,55.787V50.742h.885v5.045Z" transform="translate(-143.039 -44.233)" fill="#464ffb"/>
    <path id="Trazado_2824" data-name="Trazado 2824" d="M198.765,55.788V51.522h-1.528v-.779h3.941v.779H199.65v4.266Z" transform="translate(-143.246 -44.233)" fill="#464ffb"/>
    <path id="Trazado_2825" data-name="Trazado 2825" d="M204.8,53.259a2.579,2.579,0,1,1,2.579,2.609A2.5,2.5,0,0,1,204.8,53.259Zm4.25,0a1.678,1.678,0,1,0-1.672,1.823A1.675,1.675,0,0,0,209.054,53.259Z" transform="translate(-144.016 -44.224)" fill="#464ffb"/>
    <path id="Trazado_2826" data-name="Trazado 2826" d="M215.215,55.787l-2.633-3.607v3.607H211.7V50.742h.907l2.58,3.5v-3.5h.885v5.045Z" transform="translate(-144.717 -44.233)" fill="#464ffb"/>
    <g transform="matrix(1, 0, 0, 1, -6.5, -6.5)" filter="url(#Rect치ngulo_2263)">
      <rect id="Rect치ngulo_2263-2" data-name="Rect치ngulo 2263" width="114.975" height="35.93" rx="8" transform="translate(6.5 6.5)" fill="#fff" stroke="#464ffb" stroke-width="1"/>
    </g>
    <path id="Trazado_2800" data-name="Trazado 2800" d="M204.921,75.739a5,5,0,0,1-1-1.363l1.447-.616a3.039,3.039,0,0,0,.443.683,1.978,1.978,0,0,0,1.471.678,1.942,1.942,0,0,0,1.531-.72,2.545,2.545,0,0,0,.415-1.509v-.565c-1.033,1.329-3.293,1.143-4.558-.232a3.987,3.987,0,0,1,.028-5.324,3.127,3.127,0,0,1,4.527-.239l0,0v-.64H210.8v6.818a3.414,3.414,0,0,1-3.532,3.9,3.471,3.471,0,0,1-2.347-.869Zm37.594.376h0l1.514-3.588-2.681-6.219h1.526l1.911,4.429,1.869-4.429h1.527l-4.139,9.807Zm-7.25-3.426h0a2.408,2.408,0,0,1-.672-1.665,2.1,2.1,0,0,1,.555-1.464,3.369,3.369,0,0,1,2.511-.939,3.269,3.269,0,0,1,1.62.371,1.475,1.475,0,0,0-1.584-1.515,1.532,1.532,0,0,0-1.489.966l-1.372-.555a2.828,2.828,0,0,1,2.828-1.795,2.923,2.923,0,0,1,3.1,3.293v3.766h-1.5V72.48a2.553,2.553,0,0,1-.82.649,2.88,2.88,0,0,1-1.252.253,2.835,2.835,0,0,1-1.925-.693Zm-47.855-3.238h0a3.737,3.737,0,1,1,3.737,3.772,3.735,3.735,0,0,1-3.737-3.772Zm8.11,0h0a3.737,3.737,0,1,1,3.737,3.772,3.735,3.735,0,0,1-3.737-3.772ZM177.29,71.433h0a5.827,5.827,0,0,1,.067-8.219,5.764,5.764,0,0,1,4.126-1.708,5.831,5.831,0,0,1,3.97,1.586l-1.119,1.169a4.081,4.081,0,0,0-5.786.078,4.34,4.34,0,0,0-.038,6,4.127,4.127,0,0,0,5.911.1,3.477,3.477,0,0,0,.843-2.014h-3.791v-1.6H186.8a6.528,6.528,0,0,1,.088,1.221,5.387,5.387,0,0,1-1.451,3.618,5.331,5.331,0,0,1-3.9,1.553,6.088,6.088,0,0,1-4.246-1.778Zm37.935.673h0a4.08,4.08,0,0,1,0-5.346,3.281,3.281,0,0,1,4.895-.009,5.691,5.691,0,0,1,.96,1.734l-4.982,2.1a1.943,1.943,0,0,0,1.771,1.15,2.055,2.055,0,0,0,1.861-1.05l1.3.877h0c-.15.2-.335.394-.473.548a3.781,3.781,0,0,1-5.336,0Zm9.359,1.054h0V63.228h3.2a3.174,3.174,0,0,1,3.38,3.007,3.048,3.048,0,0,1-3.085,3.008H226.1V73.16Zm7.567,0h0V63.226h1.514V73.16ZM211.867,73h0V61.883h1.658V73Zm27.4-2.751h0a2.691,2.691,0,0,0-1.428-.364c-1.078,0-1.686.544-1.686,1.141a1.1,1.1,0,0,0,1.231.993,1.894,1.894,0,0,0,1.883-1.77Zm-46.037-.8h0a2.093,2.093,0,1,0-2.085,2.277,2.179,2.179,0,0,0,2.085-2.277Zm8.11,0h0a2.093,2.093,0,1,0-2.085,2.277,2.179,2.179,0,0,0,2.085-2.277Zm7.926.686h0a2.02,2.02,0,0,0,.059-.269.1.1,0,0,0,.005-.036,2.4,2.4,0,0,0,0-.775.215.215,0,0,0-.007-.048,2.207,2.207,0,0,0-2-1.83,2.285,2.285,0,0,0,.029,4.541,2.082,2.082,0,0,0,1.915-1.583Zm6.572-.819h0l3.324-1.41a1.533,1.533,0,0,0-1.377-.779,2.092,2.092,0,0,0-1.947,2.189Zm13.772-3.046h0a1.59,1.59,0,0,0-1.694-1.571H226.1v3.143H228A1.586,1.586,0,0,0,229.613,66.27Z" transform="translate(-141.047 -45.328)" fill="#464ffb" fill-rule="evenodd"/>
    <path id="Trazado_2820" data-name="Trazado 2820" d="M176.052,53.259A2.536,2.536,0,0,1,178.7,50.65a2.361,2.361,0,0,1,2.027,1.044l-.719.417a1.627,1.627,0,0,0-1.309-.674,1.824,1.824,0,0,0,0,3.645,1.812,1.812,0,0,0,1.195-.454V53.85h-1.513v-.779h2.39v1.883a2.724,2.724,0,0,1-2.072.922A2.546,2.546,0,0,1,176.052,53.259Z" transform="translate(-141.09 -44.224)" fill="#464ffb"/>
    <path id="Trazado_2821" data-name="Trazado 2821" d="M182.525,55.787V50.742h3.456v.78h-2.572v1.3h2.52V53.6h-2.52v1.407h2.572v.779Z" transform="translate(-141.749 -44.233)" fill="#464ffb"/>
    <path id="Trazado_2822" data-name="Trazado 2822" d="M188.926,55.788V51.522H187.4v-.779h3.941v.779h-1.527v4.266Z" transform="translate(-142.244 -44.233)" fill="#464ffb"/>
    <g id="Grupo_1376" data-name="Grupo 1376" transform="translate(9.017 7.669)">
      <path id="Trazado_2827" data-name="Trazado 2827" d="M149.91,52.3a1.784,1.784,0,0,0-1.714-.083l9.245,9.265,3.023-3.037Zm-2.564.775a1.9,1.9,0,0,0-.179.8V70.823a1.812,1.812,0,0,0,.181.8l9.242-9.285Zm10.1,10.117-9.23,9.274a1.817,1.817,0,0,0,.766.163,1.794,1.794,0,0,0,.931-.252l10.556-6.155Zm7.04-2.405-.011-.007-2.93-1.707-3.249,3.264,3.251,3.257,2.939-1.714a1.81,1.81,0,0,0,0-3.094Z" transform="translate(-147.168 -52.033)" fill="#464ffb"/>
    </g>
  </g>
</svg>
