<svg xmlns="http://www.w3.org/2000/svg" width="35" height="35" viewBox="0 0 35 35">
  <g id="Grupo_1580" data-name="Grupo 1580" transform="translate(-0.462 0.317)">
    <g id="Grupo_1940" data-name="Grupo 1940">
      <g id="Grupo_1579" data-name="Grupo 1579" transform="translate(0)">
        <rect id="Rectángulo_29" data-name="Rectángulo 29" width="35" height="35" rx="17.5" transform="translate(0.462 -0.317)" fill="#fff"/>
      </g>
      <path id="icons8-twitter-2" d="M22.786,4.184a8.626,8.626,0,0,1-2.659.76,5.053,5.053,0,0,0,2.088-2.566,8.663,8.663,0,0,1-2.941,1.142A4.971,4.971,0,0,0,15.762,2a4.659,4.659,0,0,0-4.654,4.651A3.512,3.512,0,0,0,11.2,7.7,12.988,12.988,0,0,1,1.613,2.853,4.087,4.087,0,0,0,.949,5.227,4.761,4.761,0,0,0,3.037,9.121,6.752,6.752,0,0,1,.949,8.55v.1a4.608,4.608,0,0,0,3.7,4.558,4.875,4.875,0,0,1-1.231.189,2.6,2.6,0,0,1-.857-.1,4.507,4.507,0,0,0,4.369,3.23,9.492,9.492,0,0,1-5.793,1.992A4.724,4.724,0,0,1,0,18.426a13.3,13.3,0,0,0,7.121,2.088A13.171,13.171,0,0,0,20.413,7.222V6.651a9.748,9.748,0,0,0,2.374-2.466" transform="translate(6.462 5.683)" fill="#464ffb"/>
    </g>
  </g>
</svg>
