<svg id="Grupo_2339" data-name="Grupo 2339" xmlns="http://www.w3.org/2000/svg" xmlns:xlink="http://www.w3.org/1999/xlink" width="1200" height="676" viewBox="0 0 1200 676">
  <defs>
    <clipPath id="clip-path">
      <rect id="Rectángulo_2330" data-name="Rectángulo 2330" width="70" height="315" transform="translate(1130 213)" fill="#464ffb"/>
    </clipPath>
    <clipPath id="clip-path-2">
      <rect id="Rectángulo_2331" data-name="Rectángulo 2331" width="61" height="160" transform="translate(0 1180.587)" fill="#fff"/>
    </clipPath>
  </defs>
  <g id="Grupo_1628" data-name="Grupo 1628" transform="translate(1021.838 193.751)">
    <path id="Trazado_37" data-name="Trazado 37" d="M321.007,165.752l1.109,2.549a.386.386,0,0,0,.2.2l2.549,1.108a.387.387,0,0,1,0,.71l-2.549,1.108a.384.384,0,0,0-.2.2l-1.109,2.549a.386.386,0,0,1-.708,0l-1.108-2.549a.384.384,0,0,0-.2-.2l-2.549-1.108a.387.387,0,0,1,0-.71l2.549-1.108a.387.387,0,0,0,.2-.2l1.108-2.549A.386.386,0,0,1,321.007,165.752Z" transform="translate(-286.845 -154.138)" fill="#4d5bdb"/>
    <path id="Trazado_40" data-name="Trazado 40" d="M302.922,158.031l1.593,3.663a.557.557,0,0,0,.288.288l3.664,1.594a.555.555,0,0,1,0,1.018l-3.664,1.594a.562.562,0,0,0-.288.288l-1.593,3.663a.556.556,0,0,1-1.02,0l-1.593-3.663a.562.562,0,0,0-.288-.288l-3.664-1.594a.555.555,0,0,1,0-1.018l3.664-1.594a.557.557,0,0,0,.288-.288l1.593-3.663A.556.556,0,0,1,302.922,158.031Z" transform="translate(-296.023 -157.696)" fill="#a4b1fb"/>
    <path id="Trazado_41" data-name="Trazado 41" d="M320.309,148.869l1.295,2.975a.449.449,0,0,0,.234.234l2.975,1.295a.451.451,0,0,1,0,.828l-2.975,1.295a.449.449,0,0,0-.234.234l-1.295,2.976a.452.452,0,0,1-.828,0l-1.295-2.976a.449.449,0,0,0-.234-.234l-2.975-1.295a.451.451,0,0,1,0-.828l2.975-1.295a.449.449,0,0,0,.234-.234l1.295-2.975A.451.451,0,0,1,320.309,148.869Z" transform="translate(-303.584 -120.802)" fill="#f1b434"/>
  </g>
  <g id="Enmascarar_grupo_16" data-name="Enmascarar grupo 16" transform="translate(-1 -100)" clip-path="url(#clip-path)">
    <path id="Trazado_3449" data-name="Trazado 3449" d="M25.542,453.7C14.711,442,6.627,428.188,2.942,411.586c-7.492-33.746.178-74.57,13.385-106.06,17.964-42.833,52.672-64.905,95.9-77.561,40.336-11.811,80.54-24.675,117.7-44.629,27.473-14.75,55.886-30,76.118-54.609,10.24-12.453,17.863-26.746,25.234-40.571C339.52,72.7,347.3,58.1,358.455,45.771,386.194,15.1,426.125,4.764,454.741,1.493c35.257-4.036,75.062.2,109.2,11.623,48.225,16.129,92.66,45.116,130.522,71.02,38.668,26.456,78.2,55.722,99.471,96.8,23.741,45.844,26.732,115.7,6.955,162.5C745.113,470.634,605.847,513.747,573.183,525.34c-44.436,15.768-94.5,18.431-141.167,20.794-54.836,2.778-109.55,1.676-164.3-2.062-45.293-3.094-89.852-14.264-132.2-30.4C99.438,499.929,53.4,483.8,25.542,453.7Z" transform="matrix(0.07, -0.998, 0.998, 0.07, 1098.449, 858.282)" fill="#464ffb" fill-rule="evenodd" style="mix-blend-mode: multiply;isolation: isolate"/>
  </g>
  <rect id="Rectángulo_2566" data-name="Rectángulo 2566" width="1200" height="676" fill="none"/>
  <g id="Enmascarar_grupo_17" data-name="Enmascarar grupo 17" transform="translate(0 -706.587)" clip-path="url(#clip-path-2)">
    <path id="Trazado_3451" data-name="Trazado 3451" d="M412.594,49.187a47.089,47.089,0,0,1,11.827,22.039c3.921,17.66-.093,39.024-7,55.5-9.4,22.416-27.565,33.967-50.185,40.59-21.109,6.181-42.149,12.913-61.6,23.356-14.377,7.719-29.247,15.7-39.835,28.578-5.359,6.517-9.348,14-13.206,21.232-4.314,8.089-8.388,15.729-14.223,22.181-14.516,16.049-35.413,21.46-50.389,23.172a137.341,137.341,0,0,1-57.148-6.082c-25.237-8.441-48.492-23.611-68.306-37.167C42.291,228.744,21.6,213.429,10.472,191.934c-12.425-23.991-13.989-60.55-3.64-85.038C36.022,40.324,108.9,17.762,126,11.7,149.253,3.443,175.453,2.05,199.874.813a723.4,723.4,0,0,1,85.982,1.079c23.7,1.619,47.022,7.465,69.182,15.907C373.922,24.993,398.014,33.437,412.594,49.187Z" transform="matrix(0.891, -0.454, 0.454, 0.891, -379.459, 1328.149)" fill="#444df3" fill-rule="evenodd" style="mix-blend-mode: multiply;isolation: isolate"/>
  </g>
</svg>
