<svg id="Grupo_2267" data-name="Grupo 2267" xmlns="http://www.w3.org/2000/svg" xmlns:xlink="http://www.w3.org/1999/xlink" width="1200" height="676" viewBox="0 0 1200 676">
  <defs>
    <clipPath id="clip-path">
      <rect id="Rectángulo_2330" data-name="Rectángulo 2330" width="70" height="315" transform="translate(1130 213)" fill="#464ffb"/>
    </clipPath>
    <clipPath id="clip-path-2">
      <rect id="Rectángulo_2331" data-name="Rectángulo 2331" width="61" height="160" transform="translate(0 1180.587)" fill="#fff"/>
    </clipPath>
  </defs>
  <g id="Grupo_1628" data-name="Grupo 1628" transform="translate(1021.838 193.751)">
    <path id="Trazado_37" data-name="Trazado 37" d="M321.007,165.752l1.109,2.549a.386.386,0,0,0,.2.2l2.549,1.108a.387.387,0,0,1,0,.71l-2.549,1.108a.384.384,0,0,0-.2.2l-1.109,2.549a.386.386,0,0,1-.708,0l-1.108-2.549a.384.384,0,0,0-.2-.2l-2.549-1.108a.387.387,0,0,1,0-.71l2.549-1.108a.387.387,0,0,0,.2-.2l1.108-2.549A.386.386,0,0,1,321.007,165.752Z" transform="translate(-286.845 -154.138)" fill="#4d5bdb"/>
    <path id="Trazado_40" data-name="Trazado 40" d="M302.922,158.031l1.593,3.663a.557.557,0,0,0,.288.288l3.664,1.594a.555.555,0,0,1,0,1.018l-3.664,1.594a.562.562,0,0,0-.288.288l-1.593,3.663a.556.556,0,0,1-1.02,0l-1.593-3.663a.562.562,0,0,0-.288-.288l-3.664-1.594a.555.555,0,0,1,0-1.018l3.664-1.594a.557.557,0,0,0,.288-.288l1.593-3.663A.556.556,0,0,1,302.922,158.031Z" transform="translate(-296.023 -157.696)" fill="#a4b1fb"/>
    <path id="Trazado_41" data-name="Trazado 41" d="M320.309,148.869l1.295,2.975a.449.449,0,0,0,.234.234l2.975,1.295a.451.451,0,0,1,0,.828l-2.975,1.295a.449.449,0,0,0-.234.234l-1.295,2.976a.452.452,0,0,1-.828,0l-1.295-2.976a.449.449,0,0,0-.234-.234l-2.975-1.295a.451.451,0,0,1,0-.828l2.975-1.295a.449.449,0,0,0,.234-.234l1.295-2.975A.451.451,0,0,1,320.309,148.869Z" transform="translate(-303.584 -120.802)" fill="#f1b434"/>
  </g>
  <g id="Enmascarar_grupo_16" data-name="Enmascarar grupo 16" transform="translate(-1 -100)" clip-path="url(#clip-path)">
    <path id="Trazado_3449" data-name="Trazado 3449" d="M25.542,453.7C14.711,442,6.627,428.188,2.942,411.586c-7.492-33.746.178-74.57,13.385-106.06,17.964-42.833,52.672-64.905,95.9-77.561,40.336-11.811,80.54-24.675,117.7-44.629,27.473-14.75,55.886-30,76.118-54.609,10.24-12.453,17.863-26.746,25.234-40.571C339.52,72.7,347.3,58.1,358.455,45.771,386.194,15.1,426.125,4.764,454.741,1.493c35.257-4.036,75.062.2,109.2,11.623,48.225,16.129,92.66,45.116,130.522,71.02,38.668,26.456,78.2,55.722,99.471,96.8,23.741,45.844,26.732,115.7,6.955,162.5C745.113,470.634,605.847,513.747,573.183,525.34c-44.436,15.768-94.5,18.431-141.167,20.794-54.836,2.778-109.55,1.676-164.3-2.062-45.293-3.094-89.852-14.264-132.2-30.4C99.438,499.929,53.4,483.8,25.542,453.7Z" transform="matrix(0.07, -0.998, 0.998, 0.07, 1098.449, 858.282)" fill="#464ffb" fill-rule="evenodd" style="mix-blend-mode: multiply;isolation: isolate"/>
  </g>
  <rect id="Rectángulo_2566" data-name="Rectángulo 2566" width="1200" height="676" fill="none"/>
  <g id="Enmascarar_grupo_17" data-name="Enmascarar grupo 17" transform="translate(0 -706.587)" clip-path="url(#clip-path-2)">
    <path id="Trazado_3451" data-name="Trazado 3451" d="M412.594,49.187a47.089,47.089,0,0,1,11.827,22.039c3.921,17.66-.093,39.024-7,55.5-9.4,22.416-27.565,33.967-50.185,40.59-21.109,6.181-42.149,12.913-61.6,23.356-14.377,7.719-29.247,15.7-39.835,28.578-5.359,6.517-9.348,14-13.206,21.232-4.314,8.089-8.388,15.729-14.223,22.181-14.516,16.049-35.413,21.46-50.389,23.172a137.341,137.341,0,0,1-57.148-6.082c-25.237-8.441-48.492-23.611-68.306-37.167C42.291,228.744,21.6,213.429,10.472,191.934c-12.425-23.991-13.989-60.55-3.64-85.038C36.022,40.324,108.9,17.762,126,11.7,149.253,3.443,175.453,2.05,199.874.813a723.4,723.4,0,0,1,85.982,1.079c23.7,1.619,47.022,7.465,69.182,15.907C373.922,24.993,398.014,33.437,412.594,49.187Z" transform="matrix(0.891, -0.454, 0.454, 0.891, -379.459, 1328.149)" fill="#444df3" fill-rule="evenodd" style="mix-blend-mode: multiply;isolation: isolate"/>
  </g>
  <path id="Trazado_3579" data-name="Trazado 3579" d="M357.854,288.24c-10.407,25.754-41.462,37.07-69.234,36.633s-54.762-9.5-82.486-11.19c-23.843-1.459-47.774,2.558-71.612,1.031C85.989,311.6,39.655,284,13.794,242.82,4.977,228.771-1.695,212.387.381,195.936c3.385-26.8,28.706-45.62,54.222-54.5s53.177-11.219,77.8-22.35c22.574-10.207,41.306-27.237,58.72-44.866s34.065-36.263,54.12-50.808S289.549-1.5,314.272.177s49.364,17.555,56.143,41.384c6.089,21.4-2.611,44.054-12.634,63.919s-21.825,40.008-22.311,62.251c-.457,20.843,9.1,40.377,16.738,59.775S365.664,268.91,357.854,288.24Z" transform="matrix(0.985, 0.174, -0.174, 0.985, 684.683, 253.688)" fill="#b9bdf5"/>
  <g id="Grupo_1629" data-name="Grupo 1629" transform="translate(661.691 316.339)">
    <g id="Grupo_1625" data-name="Grupo 1625" transform="translate(0 0)">
      <path id="Trazado_3387" data-name="Trazado 3387" d="M5258.926,2159.859a2.792,2.792,0,0,1,2.792,2.792v7.445h11.166l-11.166,16.75v43.636a2.793,2.793,0,0,1-2.792,2.792h-99.2a2.793,2.793,0,0,1-2.792-2.792v-67.832a2.792,2.792,0,0,1,2.792-2.792Z" transform="translate(-5034.406 -1966.575)" fill="#d1dbea"/>
      <g id="Grupo_1613" data-name="Grupo 1613" transform="translate(139.56 213.086)">
        <rect id="Rectángulo_2289" data-name="Rectángulo 2289" width="69.483" height="3.103" transform="translate(0)" fill="#b0bfde"/>
        <rect id="Rectángulo_2290" data-name="Rectángulo 2290" width="69.483" height="3.103" transform="translate(0 9.926)" fill="#b0bfde"/>
        <rect id="Rectángulo_2291" data-name="Rectángulo 2291" width="69.483" height="3.102" transform="translate(0 19.853)" fill="#b0bfde"/>
        <rect id="Rectángulo_2292" data-name="Rectángulo 2292" width="69.483" height="3.103" transform="translate(0 29.779)" fill="#b0bfde"/>
      </g>
      <path id="Trazado_3388" data-name="Trazado 3388" d="M5181.954,1968.386a12.238,12.238,0,0,0,12.24,12.238l3.061-5.813c6.759,0,12.238-10.185,12.238-16.944v-4.59a12.239,12.239,0,0,0-12.238-12.24h-3.061a12.24,12.24,0,0,0-12.24,12.24Z" transform="translate(-5043.813 -1884.297)" fill="#011f46"/>
      <path id="Trazado_3389" data-name="Trazado 3389" d="M5211.352,1959.941a21.88,21.88,0,0,1,2.532-.2,19.99,19.99,0,0,0,.176,3.181,20.58,20.58,0,0,0,21.022,17.459,20.822,20.822,0,1,1-23.73-20.445Z" transform="translate(-5048.113 -1891.332)" fill="#011f46"/>
      <path id="Trazado_3390" data-name="Trazado 3390" d="M5187.756,1948.484a24.046,24.046,0,0,0,.292,3.448c1.236,7.86,6.013,13.827,11.234,14.563.163,3.56,1.422,6.647,1.735,9.481.682,6.168,7.514,6.826,7.514,6.826.885,5.49-20.7,13.095-20.261,12.208s5.046-7.348,6.551-13.279a12.072,12.072,0,0,0-1.878-9.9,10.01,10.01,0,0,0-7.153-3.385,1.407,1.407,0,0,1-1.031-.451,8.682,8.682,0,0,1-.385-2.558v-10.093A8.653,8.653,0,0,1,5187.756,1948.484Z" transform="translate(-5044.721 -1887.098)" fill="#fec4ad"/>
      <path id="Trazado_3391" data-name="Trazado 3391" d="M5167.945,2105.93l-.045-.171c.037-.044.067-.09.1-.132a91.408,91.408,0,0,1,8.2-24.708c2.784-5.377,8.4-10.474,10.873-13.048,6.383,3.48,12.69,1.865,18.656,6.377a55.18,55.18,0,0,1,1.854,8.031c.9,5.21,1.685,10.055,2.357,14.582,9.254.873,32.09,2.623,40.685,4.31,5.091,1.177,5.39,3.153,6.184,3.8-.451,8.308-7.195,13-11.276,19.658-.725,1.183-55.681.636-64.769.636C5175.9,2125.222,5163.566,2122.429,5167.945,2105.93Z" transform="translate(-5038.198 -1931.987)" fill="#194866"/>
      <path id="Trazado_3392" data-name="Trazado 3392" d="M5262.961,2137.987c1.5-1.737,2.333-3.906,3.449-5.835.869-3.714.856-6.21-.211-7.094-4.041-3.336-17.822,3.617-52.483,55.578-7.543,11.315-24.262,35.218-20.41,31.233C5250.716,2152.485,5255.4,2146.746,5262.961,2137.987Z" transform="translate(-5047.866 -1953.226)" fill="#e6b09c"/>
      <path id="Trazado_3393" data-name="Trazado 3393" d="M5193.285,2253.64l6.145-9.837a2.8,2.8,0,0,1,2.48-1.413l-4.729,7.573a3.44,3.44,0,0,0,.5,4.4,2.292,2.292,0,0,0,1.335.511l-1.412,2.261a2.562,2.562,0,0,1-3.818.9A3.445,3.445,0,0,1,5193.285,2253.64Z" transform="translate(-5047.861 -1997.606)" fill="#163f59"/>
      <path id="Trazado_3394" data-name="Trazado 3394" d="M5208.167,2032.174l11.221-17.367c3.336-5.161,1.364-10.376-4.378-11.588l-32.482-6.856c-3.6-.45-9.387,4.717-8.1,10.855l6.884,20.06Z" transform="translate(-5040.914 -1905.09)" fill="#fec4ad"/>
      <path id="Trazado_3395" data-name="Trazado 3395" d="M5236.458,2010.054c-.866,15.466,14.389,40.453,14.389,40.453s5.825.088,6.381-2.586c.7-3.391-4.366-10.463-10.817-30.85C5242.417,2004.45,5236.6,2007.466,5236.458,2010.054Z" transform="translate(-5064.292 -1909.384)" fill="#163f59"/>
      <path id="Trazado_3396" data-name="Trazado 3396" d="M5163.163,1997.092c-11.5,8.248-19.379,31.995-19.379,31.995s2.587,5.67,4.853,4.531c2.872-1.445,6.4-8.263,16.371-24.51C5171.181,1999.052,5165.088,1995.711,5163.163,1997.092Z" transform="translate(-5029.459 -1905.262)" fill="#163f59"/>
      <path id="Trazado_3397" data-name="Trazado 3397" d="M5189.186,2056.115c.041,2.324,2.459,6.077,4.222,6.043l17.121.551c1.764-.034,6.008-2.9,5.966-5.223l-.163-7.816c-.044-2.322-1.507-4.179-3.272-4.143l-22.141-5.276c-1.765.036-3.161,1.949-3.118,4.273Z" transform="translate(-5046.011 -1921.602)" fill="#dbdac6"/>
      <path id="Trazado_3398" data-name="Trazado 3398" d="M5215.056,2075.925c-.018.255-1.244.389-2.745.295l-16.972-1.058c-1.5-.092-2.7-.376-2.686-.633l.058-.966c.014-.256,1.243-.387,2.743-.295l16.973,1.057c1.5.092,2.7.377,2.686.633Z" transform="translate(-5047.835 -1934.006)" fill="#15100c"/>
      <path id="Trazado_3399" data-name="Trazado 3399" d="M5177.915,2008.659a13.454,13.454,0,0,1,1.2-3.067c15.772,11.183,26.929,6.436,34.976,4.54.075.474.131.967.165,1.476.3,5.558-.1,11.126.132,16.684.216,4.421-6.011,8.291-9,8.414-11.14.481-13.672-.182-24.391-3.075-2.874-.778-8.207-5.459-7.1-9.525Q5175.956,2016.4,5177.915,2008.659Z" transform="translate(-5040.73 -1908.57)" fill="#dbdac6"/>
      <path id="Trazado_3400" data-name="Trazado 3400" d="M5224.468,2003.606s11.652-.36,13.7,5.224-2.917,13.712-2.917,13.712-2.96,10.35-3.775,15.965,2.757,10.942,1.653,9.846a22.978,22.978,0,0,1-7.061-1.936c-4.2-1.969-1.872-9.621-1.46-12.092s2.469-14.6,2.009-16.616S5224.468,2003.606,5224.468,2003.606Z" transform="translate(-5059.467 -1907.822)" fill="#194866"/>
      <path id="Trazado_3401" data-name="Trazado 3401" d="M5170.641,2004.036s-.9-4.661,1.026-6.514c2.829-2.725,9.652-2.356,11.859-1.707a27.3,27.3,0,0,1,3.7,1.357s-7.718,3.117-7.425,19.088a79.511,79.511,0,0,0,1.687,12.539,98.2,98.2,0,0,1,1.245,12.542s-4.607.951-4.818,1.627-.5-4.928-3.641-10.275S5170.641,2004.036,5170.641,2004.036Z" transform="translate(-5039.479 -1904.719)" fill="#194866"/>
      <path id="Trazado_3402" data-name="Trazado 3402" d="M5180.9,1995.417c-4.293,3.575-6.9,6.633-6.24,25.2.105,3.009-.046,8.539.547,13.683-.257-.529-.536-1.064-.849-1.6-3.139-5.344-3.633-28.658-3.633-28.658s-.541-4.2,1.383-6.053C5174.156,1996.023,5177.935,1995.217,5180.9,1995.417Z" transform="translate(-5039.563 -1904.733)" fill="#163f59"/>
      <path id="Trazado_3403" data-name="Trazado 3403" d="M5253.292,2143.863c1.194-1.889,1.559-4.157,2.294-6.208.172-3.742-.475-5.921-1.5-6.853-4.652-4.228-14.891,3.607-31.466,37.7-8.353,17.188-14.636,32.053-25.928,41.249a8.834,8.834,0,0,0-3.014,4.213c-1.646,4.839-.916,10.869-.712,10.682C5200.873,2217.4,5231.213,2178.769,5253.292,2143.863Z" transform="translate(-5047.825 -1955.257)" fill="#fec4ad"/>
      <path id="Trazado_3404" data-name="Trazado 3404" d="M5187.729,2268.939l5.33-10.3a2.8,2.8,0,0,1,2.358-1.611l-4.1,7.936a3.443,3.443,0,0,0,.857,4.347,2.287,2.287,0,0,0,1.375.4l-1.222,2.368a2.567,2.567,0,0,1-3.735,1.212A3.447,3.447,0,0,1,5187.729,2268.939Z" transform="translate(-5045.829 -2003.11)" fill="#194866"/>
      <path id="Trazado_3405" data-name="Trazado 3405" d="M5142.3,2043.029c-4.14-8.054,4.088-18.078,4.088-18.078s2.786.247,3.874,1.726c1.374,1.87,1,5.825-.446,14.855C5148.928,2047.125,5143,2044.376,5142.3,2043.029Z" transform="translate(-5028.466 -1915.849)" fill="#163f59"/>
      <path id="Trazado_3406" data-name="Trazado 3406" d="M5147.794,2028.035s1.851.131,3.512-7.627.114-16.783.114-16.783l-3.987,15.134S5145.6,2025.6,5147.794,2028.035Z" transform="translate(-5030.562 -1907.831)" fill="#e6b09c"/>
      <path id="Trazado_3407" data-name="Trazado 3407" d="M5149.377,1995.107a13.082,13.082,0,0,0-1.04-2.6,42.375,42.375,0,0,0-2.805-5.535,33.611,33.611,0,0,1-1.81-3.693c-.378,2.088.766,3.113.971,4.061s.245.591-1.13-.4c-.78-.565-1.084-2.827-1.472-4.258a4.026,4.026,0,0,0-.8-1.709,19.476,19.476,0,0,0,.336,3.94,24.182,24.182,0,0,0,1.756,5.344,40.092,40.092,0,0,0,3.177,4.274,7.838,7.838,0,0,1,1.258,5.983C5147.473,2002.176,5149.615,1998.38,5149.377,1995.107Z" transform="translate(-5028.521 -1899.313)" fill="#fec4ad"/>
      <path id="Trazado_3408" data-name="Trazado 3408" d="M5143.305,1991.921a27.944,27.944,0,0,1-2.464-3.71c-.144-.518-.427-3.063-.427-3.063a4.977,4.977,0,0,1,1.085,2.041A41.475,41.475,0,0,0,5143.305,1991.921Z" transform="translate(-5028.192 -1900.883)" fill="#fec4ad"/>
      <g id="Grupo_1615" data-name="Grupo 1615" transform="translate(168.729 144.058)">
        <rect id="Rectángulo_2293" data-name="Rectángulo 2293" width="47.991" height="0.987" transform="translate(0.12 24.732)" fill="#cdd5d7"/>
        <path id="Trazado_3409" data-name="Trazado 3409" d="M5265.111,2105.645a1.309,1.309,0,0,0,1.211,1.387h24.614c.667,0,1.579-.489,2.4-2.431l12.166-22.215a1.265,1.265,0,0,0-1.418-1.39l-25.251.76a2.342,2.342,0,0,0-1.6,1.681Z" transform="translate(-5243.808 -2080.971)" fill="#cdd5d7"/>
        <path id="Trazado_3410" data-name="Trazado 3410" d="M5255.251,2122.188h-24.279a8.954,8.954,0,0,0,3.932.76h40.447a8.935,8.935,0,0,0,3.929-.76Z" transform="translate(-5230.972 -2096.469)" fill="#b7bec0"/>
      </g>
      <path id="Trazado_3411" data-name="Trazado 3411" d="M5262.663,2004.018h-1.8v-1.262h-12v10.62a2.473,2.473,0,0,0,2.28,2.623h7.435a2.474,2.474,0,0,0,2.282-2.623v-.809h1.8a1.739,1.739,0,0,0,1.6-1.845v-4.856A1.741,1.741,0,0,0,5262.663,2004.018Zm.251,6.7a.273.273,0,0,1-.251.29h-1.8v-5.44h1.8a.274.274,0,0,1,.251.293Z" transform="translate(-5068.97 -1907.504)" fill="#f1b434"/>
      <path id="Trazado_3412" data-name="Trazado 3412" d="M5269.677,2031.633c1.071-4.06,2.883-8.254,2.548-10.673-.475-3.442-2.232-5.008-1.627-7.343a6.586,6.586,0,0,0,.11-.783c.088-.7.314-1.471.313-1.763,0-.334-.113-1.278.085-.923,1.742,3.177,3.375,6.9,3.365,7.774-.022,1.8-.581,11.744-1.552,15.4C5271.828,2037.437,5268.235,2037.113,5269.677,2031.633Z" transform="translate(-5076.67 -1910.254)" fill="#fec4ad"/>
      <path id="Trazado_3413" data-name="Trazado 3413" d="M5275.026,2020.769s.79.348,1.093-.254a12,12,0,0,0,.627-4.013c.009-.888-.646-5.069-.646-5.069a4.948,4.948,0,0,0-.553,3.032A21.335,21.335,0,0,1,5275.026,2020.769Z" transform="translate(-5078.808 -1910.766)" fill="#fec4ad"/>
      <path id="Trazado_3414" data-name="Trazado 3414" d="M5271.707,2044.939a37.053,37.053,0,0,1-4.059-1.9c2.89-10.622,5.819-19.495,5.819-19.495Z" transform="translate(-5076.034 -1915.322)" fill="#fec4ad"/>
      <path id="Trazado_3415" data-name="Trazado 3415" d="M5273.715,2014.191l-1.036-5.907-2.306-.558-.8.4-.1.636s.3.388.239.388c-.33,0-.228,1.014.06,1.014a9.459,9.459,0,0,0-.2,1.383c.2.482,1.115.4,1.512,1.432s-.16,2.228.4,2.309S5273.715,2014.191,5273.715,2014.191Z" transform="translate(-5076.721 -1909.373)" fill="#fec4ad"/>
      <path id="Trazado_3416" data-name="Trazado 3416" d="M5270.149,2053.093c-.142-.876-5.1-1.181-5.675.386l-.577,1.148s-4.547,10.084.865,11.934C5264.762,2066.561,5270.607,2066.141,5270.149,2053.093Z" transform="translate(-5073.951 -1926.158)" fill="#163f59"/>
      <path id="Trazado_3417" data-name="Trazado 3417" d="M4979.651,2318.722c.53-.641.141-2.332.141-2.332s-9.257-1.03-12.238-.33a15.681,15.681,0,0,0-3.312,1.555c-.209.119-.576.829-.779.948-.371.222-.566-.149-.885.052a10.193,10.193,0,0,0-1.413.978c-.813,4.246.267,5.958.267,5.958s7.62,2.369,9.362.794C4975.211,2322.351,4978.491,2320.129,4979.651,2318.722Z" transform="translate(-4960.68 -2025.217)" fill="#161711"/>
      <path id="Trazado_3418" data-name="Trazado 3418" d="M5037.933,2323.136l1.32,6.9h7.037s.391-.977.985-.977c.5,0,1.15.977,1.832.977H5067s.32-1.451-.069-1.951a6.843,6.843,0,0,0-2.162-.923c-3.634-1.022-14.036-4.211-15.846-7.685C5046.729,2315.252,5037.933,2323.136,5037.933,2323.136Z" transform="translate(-4989.659 -2026.124)" fill="#161711"/>
      <path id="Trazado_3419" data-name="Trazado 3419" d="M5035.41,1925.638l1.679-8.361s5.942.455,7.1-2.742c2.325-6.414.376-16.661-1.03-19.534-4-8.176-5.7-22.5-24.429-11.111-7.119,4.33,3.877,25.332,4.7,29.877s-1.611,9.779-1.611,9.779l4.382,3.286Z" transform="translate(-4981.542 -1861.219)" fill="#fec4ad"/>
      <path id="Trazado_3420" data-name="Trazado 3420" d="M4986.554,2077.9l-.616,26.364s-9.932-10.955-10.9-23.418S4985.935,2076.927,4986.554,2077.9Z" transform="translate(-4965.992 -1934.345)" fill="#fec4ad"/>
      <path id="Trazado_3421" data-name="Trazado 3421" d="M4992.3,2167.24s2.745,1.194-5.335,39.521c-5.819,27.6-10.792,47.793-13.118,56.935-.905,3.552-1.917,2.912-1.917,2.912l-7.692.854-3.664-3.174,11-62.547Z" transform="translate(-4960.571 -1969.351)" fill="#163f59"/>
      <path id="Trazado_3422" data-name="Trazado 3422" d="M5082.631,2047.8l-15.754,30.219s30.068-21.751,28.181-33.719S5082.631,2047.8,5082.631,2047.8Z" transform="translate(-5000.542 -1921.415)" fill="#fec4ad"/>
      <path id="Trazado_3423" data-name="Trazado 3423" d="M4985.073,1966.408s-6.385,3.9-10.982,35.625-1.676,30.515-1.676,30.515l.836,7.228,11.943,1.282,6.453-27.381Z" transform="translate(-4964.679 -1893.837)" fill="#b0bfde"/>
      <path id="Trazado_3424" data-name="Trazado 3424" d="M5016.382,2086.576s-17.617,72.984-31.458,105.7c-8.108,19.165-8.179-17.617-8.179-17.617l12.595-105.987,36.788-1.78S5021.958,2068.186,5016.382,2086.576Z" transform="translate(-4966.652 -1931.619)" fill="#163f59"/>
      <path id="Trazado_3425" data-name="Trazado 3425" d="M5019.708,2065.487s13.316,94.485,14.715,98.752c4.738,14.426,12.042-4.488,13.713-9.3s4.459-40.4,3.9-66.371l-.555-25.971Z" transform="translate(-4982.807 -1930.006)" fill="#163f59"/>
      <path id="Trazado_3426" data-name="Trazado 3426" d="M5038.4,2185.3s-2.014,11.268-3.686,25.667c-1.229,10.572-1.267,40.77.684,61.742.12,1.284,13.455-2.619,13.455-2.619s4.87-58.706,5.985-71.855S5046.766,2175.9,5038.4,2185.3Z" transform="translate(-4988.126 -1974.695)" fill="#163f59"/>
      <path id="Trazado_3427" data-name="Trazado 3427" d="M4992.624,1959.492l15.731-7.14,4.335-4.1,16.721-.4,2.928,4.82,12.958,5.619s3.2,5.028.417,23.69c-3.082,20.679-3.734,51.94-3.734,51.94l-49.007,2.361S4997.223,1969.53,4992.624,1959.492Z" transform="translate(-4972.623 -1886.858)" fill="#d1dbea"/>
      <path id="Trazado_3428" data-name="Trazado 3428" d="M5069.53,1964.293s2.916-3.255,10.023,5.579c12.11,15.055,17.977,33.728,19.23,37.342s2.861,8.731-2.091,14.736c-3.789,4.6-5.016,6.143-5.016,6.143l-10.873-6.775,1.708-3.256,1.222-1.614s-5.853-12.849-12.121-24.492S5069.53,1964.293,5069.53,1964.293Z" transform="translate(-5001.025 -1892.821)" fill="#d1dbea"/>
      <path id="Trazado_3429" data-name="Trazado 3429" d="M5036.919,1895.078s-2.118-1.3-2.442.325.813,5.21,1.79,5.535,1.3,4.722,1.3,4.722l-2.605,4.885h-13.189s-4.071-1.791-4.4-4.721-3.582-23.608-3.582-23.608l9.28-4.885a61.527,61.527,0,0,1,8.3-3.419c5.252-1.5,6.35,1.3,6.189,2.767s1.464,1.629,3.58,1.629,4.723,1.628,3.583,2.605c-.471.4,1.63,1.69.8,3.246-1.194,2.221-5.194,2.94-5.519,6.523C5039.864,1892.31,5039.2,1897.683,5036.919,1895.078Z" transform="translate(-4980.584 -1858.896)" fill="#194866"/>
      <path id="Trazado_3431" data-name="Trazado 3431" d="M5380.876,2032.159l-2.4,31.065s-8.379-16.648-9.279-28.308S5381.092,2031.719,5380.876,2032.159Z" transform="translate(-5114.197 -1917.289)" fill="#fec4ad"/>
      <path id="Trazado_3432" data-name="Trazado 3432" d="M5414.2,1892.54c.3,3.544,2.2,6.615,4.206,6.76h5.7c2-.145,3.91-3.217,4.205-6.76q.7-8.767,1.4-17.532c.312-3.505-1.058-10.543-4.093-12.62a7.57,7.57,0,0,0-8.732,0c-3.034,2.077-4.4,9.114-4.093,12.62Q5413.494,1883.772,5414.2,1892.54Z" transform="translate(-5130.592 -1854.204)" fill="#e6b09c"/>
      <path id="Trazado_3433" data-name="Trazado 3433" d="M5467.748,2004.667l-15.254,24.792s22.684-10.894,21.51-21.037S5467.748,2004.667,5467.748,2004.667Z" transform="translate(-5145.536 -1907.476)" fill="#fec4ad"/>
      <path id="Trazado_3434" data-name="Trazado 3434" d="M5380.027,1925.791s-7.43,4.883-11.733,34.562-1.565,28.55-1.565,28.55l.781,6.762,10.954,1.126,6.259-25.544Z" transform="translate(-5112.966 -1878.565)" fill="#b0bfde"/>
      <path id="Trazado_3435" data-name="Trazado 3435" d="M5443.671,2267.163v2.958h-16.426l-.389-7.944,9.907-.329S5442.106,2266.741,5443.671,2267.163Z" transform="translate(-5135.897 -2004.925)" fill="#161711"/>
      <path id="Trazado_3436" data-name="Trazado 3436" d="M5399.611,2039.436s-8.506,48.687-17.375,70.056c-7.859,18.935-17.021-5.7-17.021-5.7l14.343-81.691,23.645-1.793S5404.827,2020.909,5399.611,2039.436Z" transform="translate(-5112.719 -1914.105)" fill="#194866"/>
      <path id="Trazado_3437" data-name="Trazado 3437" d="M5415.433,2019l-2.906,31.395,4.1,2.407s2.37,46.632,3.144,48.991c4.435,13.5,15.906,5.4,17.471.9s4.172-37.8,3.651-62.1l-.523-24.3Z" transform="translate(-5130.508 -1912.595)" fill="#194866"/>
      <path id="Trazado_3438" data-name="Trazado 3438" d="M5424.737,2131.046s-1.9,8.307-1.625,24.014c.173,9.958,1.149,36.315,2.975,55.938.112,1.2,9.909.292,9.909.292s5.969-63.695,6.493-76.026C5442.646,2131.549,5432.562,2122.26,5424.737,2131.046Z" transform="translate(-5134.479 -1954.363)" fill="#194866"/>
      <path id="Trazado_3439" data-name="Trazado 3439" d="M5384.171,1921.7l17.25-7.789,8.9,2.66,11-1.257,12.125,5.258s5.475,5.26.391,22.164-3.865,44.874-3.865,44.874l-44.878,2.914S5388.473,1931.091,5384.171,1921.7Z" transform="translate(-5119.847 -1874.098)" fill="#d1dbea"/>
      <path id="Trazado_3440" data-name="Trazado 3440" d="M5450.611,1925.278s6.652-3.757,13.3,4.508c11.332,14.084,16.817,31.556,17.992,34.937s2.736,13.524-1.958,16.529l-4.692,3.006-9.778-6.011,1.564-3,.781-1.879s-5.476-12.021-11.341-22.917S5450.611,1925.278,5450.611,1925.278Z" transform="translate(-5144.828 -1878.051)" fill="#d1dbea"/>
      <path id="Trazado_3441" data-name="Trazado 3441" d="M5429.569,1914.32l4.354,4.751,4.351-6.27-2.615-3.866Z" transform="translate(-5136.917 -1872.226)" fill="#b0bfde"/>
      <path id="Trazado_3442" data-name="Trazado 3442" d="M5412.984,1909.534l8.366,5.391-3.955,4.75-6.529-7.411Z" transform="translate(-5129.885 -1872.452)" fill="#b0bfde"/>
      <path id="Trazado_3443" data-name="Trazado 3443" d="M5364.264,2150.231s2.746.9,11.478,1.208c8.7.312-11.217,70.325-11.217,70.325l-12.359-4.54,8.9-70.481Z" transform="translate(-5107.813 -1961.644)" fill="#194866"/>
      <path id="Trazado_3444" data-name="Trazado 3444" d="M5357.477,2263.112l-1.174,6.135h-20.338v-2.254s9.777-3.381,11.733-7.138S5357.477,2263.112,5357.477,2263.112Z" transform="translate(-5101.721 -2003.759)" fill="#161711"/>
      <path id="Trazado_3445" data-name="Trazado 3445" d="M5416.542,1854.161v-4.055h-8.759a5.333,5.333,0,0,0-5.332,5.334v4.054h8.759A5.333,5.333,0,0,0,5416.542,1854.161Z" transform="translate(-5126.72 -1850.107)" fill="#163f59"/>
      <path id="Rectángulo_2294" data-name="Rectángulo 2294" d="M7.6,0h5.047a7.6,7.6,0,0,1,7.6,7.6v15.81a7.6,7.6,0,0,1-7.6,7.6H7.6a7.6,7.6,0,0,1-7.6-7.6V7.6A7.6,7.6,0,0,1,7.6,0Z" transform="translate(277.966 2.398)" fill="#fec4ad"/>
      <path id="Trazado_3446" data-name="Trazado 3446" d="M5419.848,1850.107a5.323,5.323,0,0,1,4.46,2.413h1.83a4.131,4.131,0,0,1,4.131,4.131v10.208h-2.907v-4.149a2.91,2.91,0,0,0-2.909-2.908h-8.777a5.333,5.333,0,0,1-5.333-5.333v-4.362Z" transform="translate(-5129.688 -1850.107)" fill="#163f59"/>
      <path id="Trazado_3447" data-name="Trazado 3447" d="M5436.148,1879.683a2.528,2.528,0,0,1,2.532-2.528h.21a2.528,2.528,0,0,1,2.529,2.528v3.073a2.531,2.531,0,0,1-2.529,2.53h-.21a2.534,2.534,0,0,1-2.316-1.508" transform="translate(-5139.391 -1860.277)" fill="#fec4ad"/>
    </g>
    <path id="Trazado_3448" data-name="Trazado 3448" d="M-212.784,202.424h-19.557a6.417,6.417,0,0,1-6.411-6.411V147.922a6.42,6.42,0,0,1,6.411-6.411h19.557a6.42,6.42,0,0,1,6.411,6.411v48.091A6.417,6.417,0,0,1-212.784,202.424Zm-19.557-58.346a3.85,3.85,0,0,0-3.844,3.844v48.091a3.851,3.851,0,0,0,3.844,3.848h19.557a3.852,3.852,0,0,0,3.848-3.848V147.922a3.851,3.851,0,0,0-3.848-3.844Z" transform="translate(588.276 -8.592)" fill="#142447"/>
    <rect id="Rectángulo_2295" data-name="Rectángulo 2295" width="22.442" height="5.527" transform="translate(354.653 131.531)" fill="#ffb522"/>
    <path id="Rectángulo_2296" data-name="Rectángulo 2296" d="M2.388,0H51.9a2.387,2.387,0,0,1,2.387,2.387v68A2.388,2.388,0,0,1,51.9,72.771H2.387A2.387,2.387,0,0,1,0,70.384v-68A2.388,2.388,0,0,1,2.388,0Z" transform="translate(338.57 188.487)" fill="#97beed"/>
    <g id="Grupo_1626" data-name="Grupo 1626" transform="translate(343.645 261.26)">
      <path id="Trazado_3341" data-name="Trazado 3341" d="M-232.844,177.246a3.689,3.689,0,0,1-3.688,3.688,3.686,3.686,0,0,1-3.688-3.688,3.685,3.685,0,0,1,3.688-3.684A3.688,3.688,0,0,1-232.844,177.246Z" transform="translate(240.22 -173.562)" fill="#142447"/>
      <path id="Trazado_3342" data-name="Trazado 3342" d="M-223.667,177.246a3.685,3.685,0,0,1-3.684,3.688,3.686,3.686,0,0,1-3.688-3.688,3.685,3.685,0,0,1,3.688-3.684A3.684,3.684,0,0,1-223.667,177.246Z" transform="translate(267.802 -173.562)" fill="#142447"/>
    </g>
    <g id="Grupo_1627" data-name="Grupo 1627" transform="translate(93.227 190.618)">
      <path id="Trazado_3353" data-name="Trazado 3353" d="M-204,167.344a2.321,2.321,0,0,1-2.322-2.318V149.36A2.324,2.324,0,0,1-204,147.038a2.321,2.321,0,0,1,2.319,2.322v15.665A2.317,2.317,0,0,1-204,167.344Z" transform="translate(211.84 -147.038)" fill="#011f46"/>
      <rect id="Rectángulo_2285" data-name="Rectángulo 2285" width="15.679" height="64.203" transform="translate(0 13.924)" fill="#214172"/>
    </g>
  </g>
</svg>
