<svg id="Grupo_1423" data-name="Grupo 1423" xmlns="http://www.w3.org/2000/svg" xmlns:xlink="http://www.w3.org/1999/xlink" width="228.032" height="251.612" viewBox="0 0 228.032 251.612">
  <defs>
    <linearGradient id="linear-gradient" x1="0.496" y1="1.856" x2="0.508" y2="-2.044" gradientUnits="objectBoundingBox">
      <stop offset="0" stop-color="#a4b1fb"/>
      <stop offset="1" stop-color="#c8d2fc"/>
    </linearGradient>
  </defs>
  <path id="Trazado_1029" data-name="Trazado 1029" d="M518.818,295.665c0-4.062-51.046-7.356-114.016-7.356s-114.016,3.294-114.016,7.356,51.048,7.355,114.016,7.355S518.818,299.727,518.818,295.665Z" transform="translate(-290.786 -51.408)" fill="url(#linear-gradient)"/>
  <path id="Trazado_1030" data-name="Trazado 1030" d="M373.043,237a13.252,13.252,0,0,0-5.827,1.356,14.144,14.144,0,0,0-13.7-10.669c-.032,0-.062,0-.092.005a17.444,17.444,0,1,0-34.186,6.619,11.16,11.16,0,0,0-9.837,7.018,11.14,11.14,0,0,0-17.642,7.22h94.47A13.31,13.31,0,0,0,373.043,237Z" transform="translate(-290.423 -53.564)" fill="#dad3f4"/>
  <rect id="Rectángulo_1757" data-name="Rectángulo 1757" width="134.285" height="233.4" rx="13.694" transform="translate(52.829 9.263)" fill="#312da4"/>
  <rect id="Rectángulo_1758" data-name="Rectángulo 1758" width="211.8" height="114.049" rx="6.324" transform="translate(176.996 19.382) rotate(90)" fill="#ede7fd"/>
  <g id="Grupo_349" data-name="Grupo 349" transform="translate(10.087 89.211)">
    <g id="Grupo_10" data-name="Grupo 10" transform="translate(112.96 48.19)">
      <path id="Rectángulo_5" data-name="Rectángulo 5" d="M1.708,0H5.044a0,0,0,0,1,0,0V22.557a0,0,0,0,1,0,0H1.708A1.708,1.708,0,0,1,0,20.849V1.708A1.708,1.708,0,0,1,1.708,0Z" fill="#4d5bdb"/>
      <rect id="Rectángulo_6" data-name="Rectángulo 6" width="27.038" height="22.557" rx="1.948" transform="translate(3.085)" fill="#a4b1fb"/>
      <path id="Trazado_20" data-name="Trazado 20" d="M409.168,213.912l-6.84-3.066V226.9l6.84-3.066Z" transform="translate(-372.238 -207.594)" fill="#4d5bdb"/>
      <path id="Trazado_21" data-name="Trazado 21" d="M380.411,219.769v4.709a2.345,2.345,0,0,0,2.345,2.345h2.7v-7.054Z" transform="translate(-380.411 -204.267)" fill="#2f44bc"/>
      <path id="Trazado_22" data-name="Trazado 22" d="M402.328,219.768v3.8l6.84-3.066v-.737Z" transform="translate(-372.238 -204.267)" fill="#2f44bc"/>
      <rect id="Rectángulo_7" data-name="Rectángulo 7" width="27.038" height="22.557" rx="1.948" transform="translate(3.085)" fill="#a4b1fb"/>
      <path id="Trazado_23" data-name="Trazado 23" d="M382.658,219.689v4.491a2.674,2.674,0,0,0,2.674,2.673h21.689a2.674,2.674,0,0,0,2.674-2.673v-4.491Z" transform="translate(-379.573 -204.297)" fill="#869bef"/>
    </g>
    <path id="Trazado_24" data-name="Trazado 24" d="M465.19,173.377H337.95a31.056,31.056,0,0,0-9.359,1.44c-11.167,3.523-28.819,10.508-30.339,19.822-2.238,13.709,27.7,17.625,27.7,17.625H442.183a61.287,61.287,0,0,0,17.462-2.541l5.545-1.649Z" transform="translate(-298.133 -173.377)" fill="#a4b1fb"/>
    <path id="Trazado_25" data-name="Trazado 25" d="M442.183,199.669H325.95S303.68,196.746,299,187.141a9.028,9.028,0,0,0-.751,2.366c-2.238,13.708,27.7,17.625,27.7,17.625H442.183a61.287,61.287,0,0,0,17.462-2.541l5.545-1.649v-7.463l-5.545,1.649A61.289,61.289,0,0,1,442.183,199.669Z" transform="translate(-298.133 -168.244)" fill="#869bef"/>
    <path id="Trazado_26" data-name="Trazado 26" d="M328.173,179.507l-17.29-.336a42.486,42.486,0,0,0-9.461,6.226c10.981-.546,15.856,4.5,15.856,4.5l10.9-3.564Z" transform="translate(-296.906 -171.216)" fill="#4d5bdb"/>
    <path id="Trazado_27" data-name="Trazado 27" d="M409.626,190.07H340.7l138.818,54.708h16.629Z" transform="translate(-282.26 -167.152)" fill="#dad3f4"/>
    <path id="Trazado_28" data-name="Trazado 28" d="M340.7,190.07l138.818,54.708h10.975L351.674,190.07Z" transform="translate(-282.26 -167.152)" fill="#a4b1fb"/>
    <path id="Trazado_29" data-name="Trazado 29" d="M441.811,233.921l11.174-14.739h5.455v14.739Z" transform="translate(-244.554 -156.296)" fill="#a4b1fb"/>
    <g id="Grupo_12" data-name="Grupo 12" transform="translate(58.057 8.208)">
      <g id="Grupo_11" data-name="Grupo 11" transform="translate(0 0)">
        <rect id="Rectángulo_8" data-name="Rectángulo 8" width="6.806" height="7.591" rx="1.159" transform="translate(99.371 0.022) rotate(-0.187)" fill="#4d5bdb"/>
        <rect id="Rectángulo_9" data-name="Rectángulo 9" width="6.806" height="7.591" rx="1.159" transform="translate(86.949 0.144) rotate(-0.187)" fill="#4d5bdb"/>
        <rect id="Rectángulo_10" data-name="Rectángulo 10" width="6.806" height="7.591" rx="1.159" transform="matrix(1, -0.003, 0.003, 1, 74.528, 0.267)" fill="#4d5bdb"/>
        <rect id="Rectángulo_11" data-name="Rectángulo 11" width="6.806" height="7.591" rx="1.159" transform="translate(62.107 0.389) rotate(-0.187)" fill="#4d5bdb"/>
        <rect id="Rectángulo_12" data-name="Rectángulo 12" width="6.806" height="7.591" rx="1.159" transform="translate(49.685 0.511) rotate(-0.187)" fill="#4d5bdb"/>
        <rect id="Rectángulo_13" data-name="Rectángulo 13" width="6.806" height="7.591" rx="1.159" transform="matrix(1, -0.003, 0.003, 1, 37.264, 0.633)" fill="#4d5bdb"/>
        <rect id="Rectángulo_14" data-name="Rectángulo 14" width="6.806" height="7.591" rx="1.159" transform="translate(24.843 0.755) rotate(-0.187)" fill="#4d5bdb"/>
        <rect id="Rectángulo_15" data-name="Rectángulo 15" width="6.806" height="7.591" rx="1.159" transform="translate(12.421 0.877) rotate(-0.187)" fill="#4d5bdb"/>
        <rect id="Rectángulo_16" data-name="Rectángulo 16" width="6.806" height="7.591" rx="1.159" transform="translate(6.831 8.568) rotate(179.813)" fill="#4d5bdb"/>
      </g>
    </g>
  </g>
  <g id="Grupo_1153" data-name="Grupo 1153" transform="translate(142.047 0)">
    <path id="Trazado_30" data-name="Trazado 30" d="M397.013,112.538a12.112,12.112,0,0,0-24.224,0c0,11.52,12.112,17.428,12.112,17.428S397.013,124.648,397.013,112.538Z" transform="translate(-372.789 -100.426)" fill="#f1b434"/>
    <path id="Trazado_31" data-name="Trazado 31" d="M387.809,109.5a4.874,4.874,0,1,0-4.874,4.874A4.873,4.873,0,0,0,387.809,109.5Z" transform="translate(-370.823 -98.861)" fill="#fff"/>
  </g>
  <path id="Trazado_34" data-name="Trazado 34" d="M314.874,213.081a7.473,7.473,0,1,0-14.947,0c0,7.109,7.474,10.754,7.474,10.754S314.874,220.554,314.874,213.081Z" transform="translate(-287.377 -62.887)" fill="#f1b434"/>
  <ellipse id="Elipse_1" data-name="Elipse 1" cx="3.008" cy="3.008" rx="3.008" ry="3.008" transform="translate(17.016 146.275)" fill="#fff"/>
  <path id="Trazado_1031" data-name="Trazado 1031" d="M464.232,163.375a11.651,11.651,0,0,0-5.122,1.192,12.437,12.437,0,0,0-12.047-9.38c-.027,0-.054,0-.081,0a15.336,15.336,0,1,0-30.054,5.82,9.815,9.815,0,0,0-8.649,6.171,9.794,9.794,0,0,0-15.51,6.347h83.056A11.7,11.7,0,0,0,464.232,163.375Z" transform="translate(-252.756 -100.122)" fill="#dad3f4"/>
  <path id="Trazado_1032" data-name="Trazado 1032" d="M387.676,141.4a13.365,13.365,0,0,0-5.88,1.369A14.278,14.278,0,0,0,367.965,132c-.03,0-.062,0-.092.005a17.607,17.607,0,1,0-34.5,6.681,11.262,11.262,0,0,0-9.927,7.083,11.245,11.245,0,0,0-17.805,7.287h95.347A13.432,13.432,0,0,0,387.676,141.4Z" transform="translate(-285.248 -106.977)" fill="#a4b1fb"/>
  <g id="Grupo_353" data-name="Grupo 353" transform="translate(7.191 51.688)">
    <path id="Trazado_37" data-name="Trazado 37" d="M320.737,165.739l1.046,2.405a.365.365,0,0,0,.189.189l2.405,1.046a.366.366,0,0,1,0,.67l-2.405,1.046a.362.362,0,0,0-.189.188l-1.046,2.405a.364.364,0,0,1-.669,0l-1.046-2.405a.363.363,0,0,0-.19-.188l-2.405-1.046a.366.366,0,0,1,0-.67l2.405-1.046a.365.365,0,0,0,.19-.189l1.046-2.405A.364.364,0,0,1,320.737,165.739Z" transform="translate(-288.496 -154.778)" fill="#4d5bdb"/>
    <path id="Trazado_38" data-name="Trazado 38" d="M447.877,195.933l2.035,4.679a.716.716,0,0,0,.368.367l4.678,2.035a.709.709,0,0,1,0,1.3l-4.678,2.035a.713.713,0,0,0-.368.368l-2.035,4.678a.709.709,0,0,1-1.3,0l-2.035-4.678a.706.706,0,0,0-.367-.368l-4.679-2.035a.71.71,0,0,1,0-1.3l4.679-2.035a.708.708,0,0,0,.367-.367l2.035-4.679A.71.71,0,0,1,447.877,195.933Z" transform="translate(-242.68 -143.596)" fill="#f1b434"/>
    <path id="Trazado_39" data-name="Trazado 39" d="M437.376,184.392l1.293,2.974a.448.448,0,0,0,.233.235l2.974,1.293a.451.451,0,0,1,0,.828l-2.974,1.293a.45.45,0,0,0-.233.233l-1.293,2.974a.451.451,0,0,1-.828,0l-1.293-2.974a.45.45,0,0,0-.233-.233l-2.974-1.293a.451.451,0,0,1,0-.828l2.974-1.293a.448.448,0,0,0,.233-.235l1.293-2.974A.452.452,0,0,1,437.376,184.392Z" transform="translate(-245.4 -147.842)" fill="#a4b1fb"/>
    <path id="Trazado_40" data-name="Trazado 40" d="M302.534,158.012l1.5,3.457a.525.525,0,0,0,.272.272l3.458,1.5a.524.524,0,0,1,0,.961l-3.458,1.5a.53.53,0,0,0-.272.272l-1.5,3.457a.524.524,0,0,1-.962,0l-1.5-3.457a.53.53,0,0,0-.272-.272l-3.458-1.5a.524.524,0,0,1,0-.961l3.458-1.5a.525.525,0,0,0,.272-.272l1.5-3.457A.524.524,0,0,1,302.534,158.012Z" transform="translate(-296.023 -157.696)" fill="#a4b1fb"/>
    <path id="Trazado_41" data-name="Trazado 41" d="M319.994,148.854l1.222,2.808a.424.424,0,0,0,.221.221l2.808,1.222a.426.426,0,0,1,0,.781l-2.808,1.222a.424.424,0,0,0-.221.221l-1.222,2.809a.426.426,0,0,1-.781,0l-1.222-2.809a.424.424,0,0,0-.221-.221l-2.808-1.222a.426.426,0,0,1,0-.781l2.808-1.222a.424.424,0,0,0,.221-.221l1.222-2.808A.426.426,0,0,1,319.994,148.854Z" transform="translate(-304.209 -122.365)" fill="#f1b434"/>
  </g>
  <path id="Trazado_32" data-name="Trazado 32" d="M450.844,255.125a9.058,9.058,0,0,0-18.116,0c0,8.616,9.057,13.034,9.057,13.034S450.844,264.182,450.844,255.125Z" transform="translate(-223.543 -73.053)" fill="#4d5bdb"/>
  <path id="Trazado_33" data-name="Trazado 33" d="M443.961,252.851a3.644,3.644,0,1,0-3.645,3.645A3.645,3.645,0,0,0,443.961,252.851Z" transform="translate(-222.073 -71.883)" fill="#fff"/>
  <g id="Grupo_1152" data-name="Grupo 1152" transform="translate(76.029 163.067)">
    <g id="Grupo_723" data-name="Grupo 723" transform="translate(0)">
      <rect id="Rectángulo_1770" data-name="Rectángulo 1770" width="48.664" height="48.664" rx="2.312" transform="translate(48.664 52.118) rotate(180)" fill="#bfc3ff"/>
      <path id="Trazado_1417" data-name="Trazado 1417" d="M212.9,150.7h39.445a4.612,4.612,0,0,1,4.611,4.611v8.1H208.292v-8.1A4.611,4.611,0,0,1,212.9,150.7Z" transform="translate(-208.292 -147.249)" fill="#041e42"/>
      <path id="Trazado_1418" data-name="Trazado 1418" d="M214.034,155.878h0a1.287,1.287,0,0,1-1.288-1.288v-4.332a1.287,1.287,0,0,1,1.288-1.288h0a1.287,1.287,0,0,1,1.288,1.288v4.332A1.287,1.287,0,0,1,214.034,155.878Z" transform="translate(-203.866 -148.97)" fill="#4650ff"/>
      <path id="Trazado_1419" data-name="Trazado 1419" d="M216.856,155.878h0a1.289,1.289,0,0,1-1.29-1.288v-4.332a1.289,1.289,0,0,1,1.29-1.288h0a1.289,1.289,0,0,1,1.288,1.288v4.332A1.289,1.289,0,0,1,216.856,155.878Z" transform="translate(-201.064 -148.97)" fill="#4650ff"/>
      <path id="Trazado_1420" data-name="Trazado 1420" d="M228.244,155.878h0a1.287,1.287,0,0,0,1.288-1.288v-4.332a1.287,1.287,0,0,0-1.288-1.288h0a1.287,1.287,0,0,0-1.288,1.288v4.332A1.287,1.287,0,0,0,228.244,155.878Z" transform="translate(-189.746 -148.97)" fill="#4650ff"/>
      <path id="Trazado_1421" data-name="Trazado 1421" d="M225.423,155.878h0a1.287,1.287,0,0,0,1.288-1.288v-4.332a1.287,1.287,0,0,0-1.288-1.288h0a1.287,1.287,0,0,0-1.288,1.288v4.332A1.287,1.287,0,0,0,225.423,155.878Z" transform="translate(-192.549 -148.97)" fill="#4650ff"/>
    </g>
  </g>
  <path id="Trazado_1422" data-name="Trazado 1422" d="M347.727,202.928a6.642,6.642,0,0,0-4.757-4.757,6.641,6.641,0,0,0,4.757-4.757,6.644,6.644,0,0,0,4.757,4.757A6.645,6.645,0,0,0,347.727,202.928Z" transform="translate(-148.244 8.85)" fill="none" stroke="#f1b434" stroke-miterlimit="10" stroke-width="2"/>
</svg>
