<svg xmlns="http://www.w3.org/2000/svg" xmlns:xlink="http://www.w3.org/1999/xlink" width="83" height="81" viewBox="0 0 83 81">
  <defs>
    <filter id="Elipse_388" x="0" y="0" width="83" height="81" filterUnits="userSpaceOnUse">
      <feOffset dx="2" dy="3" input="SourceAlpha"/>
      <feGaussianBlur stdDeviation="3" result="blur"/>
      <feFlood flood-opacity="0.161"/>
      <feComposite operator="in" in2="blur"/>
      <feComposite in="SourceGraphic"/>
    </filter>
  </defs>
  <g id="Grupo_1597" data-name="Grupo 1597" transform="translate(6.886 5.622)">
    <g transform="matrix(1, 0, 0, 1, -6.89, -5.62)" filter="url(#Elipse_388)">
      <ellipse id="Elipse_388-2" data-name="Elipse 388" cx="32.5" cy="31.5" rx="32.5" ry="31.5" transform="translate(7 6)" fill="#424beb"/>
    </g>
    <g id="Flight" transform="translate(16.093 14.907)">
      <path id="Trazado_3007" data-name="Trazado 3007" d="M33.43,2H3.654A1.654,1.654,0,0,0,2,3.654V33.43a1.654,1.654,0,0,0,1.654,1.654H33.43a1.654,1.654,0,0,0,1.654-1.654V3.654A1.654,1.654,0,0,0,33.43,2ZM3.654,3.1H33.43a.551.551,0,0,1,.551.551V6.411H3.1V3.654A.551.551,0,0,1,3.654,3.1ZM9.72,32.327V26.261h3.308v6.065a1.654,1.654,0,1,1-3.308,0Zm1.654-9.374a6.065,6.065,0,1,1,6.065-6.065A6.065,6.065,0,0,1,11.374,22.953Zm0,1.1c.186,0,.369-.014.551-.028v1.131h-1.1V24.028C11,24.042,11.187,24.056,11.374,24.056ZM33.43,33.981H13.565a2.728,2.728,0,0,0,.566-1.654V25.71a.551.551,0,0,0-.551-.551h-.551v-1.3a7.168,7.168,0,1,0-3.308,0v1.3H9.168a.551.551,0,0,0-.551.551v6.617a2.728,2.728,0,0,0,.566,1.654H3.654A.551.551,0,0,1,3.1,33.43V7.514H33.981V33.43A.551.551,0,0,1,33.43,33.981Z" transform="translate(-2 -2)" fill="#fdfdfd"/>
      <path id="Trazado_3008" data-name="Trazado 3008" d="M38.221,28.933a.551.551,0,0,0,.331.993h6.617a.551.551,0,0,0,.331-.993l-1.985-1.489v-1.93h1.654a.551.551,0,0,0,.39-.941l-2.044-2.044v-.875a1.654,1.654,0,0,0-3.308,0v.875l-2.044,2.044a.551.551,0,0,0,.39.941h1.654v1.93Zm2.536-4.521h-.875l1.264-1.264a.551.551,0,0,0,.162-.39v-1.1a.551.551,0,0,1,1.1,0v1.1a.551.551,0,0,0,.161.39l1.264,1.264h-.875a.551.551,0,0,0-.551.551V27.72a.551.551,0,0,0,.221.441l.882.662H40.206l.882-.662a.551.551,0,0,0,.221-.441V24.963A.551.551,0,0,0,40.757,24.411Z" transform="translate(-18.15 -10.075)" fill="#fdfdfd"/>
      <path id="Trazado_3009" data-name="Trazado 3009" d="M45.579,16H34.551a.551.551,0,0,0-.551.551V29.785a.551.551,0,0,0,.551.551H45.579a.551.551,0,0,0,.551-.551V16.551A.551.551,0,0,0,45.579,16Zm-.551,13.234H35.1V17.1h9.925Z" transform="translate(-16.355 -8.28)" fill="#fdfdfd"/>
      <path id="Trazado_3010" data-name="Trazado 3010" d="M14.963,20a4.963,4.963,0,1,0,4.963,4.963A4.963,4.963,0,0,0,14.963,20Zm0,8.822a3.86,3.86,0,1,1,3.86-3.86,3.86,3.86,0,0,1-3.86,3.86Z" transform="translate(-5.589 -10.075)" fill="#fdfdfd"/>
      <path id="Trazado_3011" data-name="Trazado 3011" d="M14,26.757h1.1A1.654,1.654,0,0,1,16.757,25.1V24A2.76,2.76,0,0,0,14,26.757Z" transform="translate(-7.383 -11.869)" fill="#fdfdfd"/>
      <path id="Trazado_3012" data-name="Trazado 3012" d="M18,48h1.1v1.1H18Z" transform="translate(-9.178 -22.636)" fill="#fdfdfd"/>
      <path id="Trazado_3013" data-name="Trazado 3013" d="M18,52h1.1v3.308H18Z" transform="translate(-9.178 -24.43)" fill="#fdfdfd"/>
      <path id="Trazado_3014" data-name="Trazado 3014" d="M6,6H7.1V7.1H6Z" transform="translate(-3.794 -3.794)" fill="#fdfdfd"/>
      <path id="Trazado_3015" data-name="Trazado 3015" d="M10,6h1.1V7.1H10Z" transform="translate(-5.589 -3.794)" fill="#fdfdfd"/>
      <path id="Trazado_3016" data-name="Trazado 3016" d="M14,6h1.1V7.1H14Z" transform="translate(-7.383 -3.794)" fill="#fdfdfd"/>
      <path id="Trazado_3017" data-name="Trazado 3017" d="M34,46h2.206v1.1H34Z" transform="translate(-16.355 -21.739)" fill="#fdfdfd"/>
      <path id="Trazado_3018" data-name="Trazado 3018" d="M40,46h8.822v1.1H40Z" transform="translate(-19.047 -21.739)" fill="#fdfdfd"/>
      <path id="Trazado_3019" data-name="Trazado 3019" d="M34,50h2.206v1.1H34Z" transform="translate(-16.355 -23.533)" fill="#fdfdfd"/>
      <path id="Trazado_3020" data-name="Trazado 3020" d="M40,50h8.822v1.1H40Z" transform="translate(-19.047 -23.533)" fill="#fdfdfd"/>
      <path id="Trazado_3021" data-name="Trazado 3021" d="M34,54h2.206v1.1H34Z" transform="translate(-16.355 -25.327)" fill="#fdfdfd"/>
      <path id="Trazado_3022" data-name="Trazado 3022" d="M40,54h8.822v1.1H40Z" transform="translate(-19.047 -25.327)" fill="#fdfdfd"/>
    </g>
  </g>
</svg>
