<svg xmlns="http://www.w3.org/2000/svg" xmlns:xlink="http://www.w3.org/1999/xlink" width="119" height="119" viewBox="0 0 119 119">
  <defs>
    <filter id="Elipse_388" x="0" y="0" width="119" height="119" filterUnits="userSpaceOnUse">
      <feOffset dx="2" dy="3" input="SourceAlpha"/>
      <feGaussianBlur stdDeviation="3" result="blur"/>
      <feFlood flood-opacity="0.161"/>
      <feComposite operator="in" in2="blur"/>
      <feComposite in="SourceGraphic"/>
    </filter>
  </defs>
  <g id="Grupo_1303" data-name="Grupo 1303" transform="translate(7.43 5.549)">
    <g transform="matrix(1, 0, 0, 1, -7.43, -5.55)" filter="url(#Elipse_388)">
      <circle id="Elipse_388-2" data-name="Elipse 388" cx="50.5" cy="50.5" r="50.5" transform="translate(7 6)" fill="#bfc3fd"/>
    </g>
    <path id="diamante" d="M52.8,20.011a1.118,1.118,0,0,0,.011-.122,1.308,1.308,0,0,0,0-.144.942.942,0,0,0-.018-.122,1.073,1.073,0,0,0-.039-.139c-.008-.024-.01-.049-.019-.071s-.019-.03-.027-.047-.011-.035-.02-.052l-8.8-15.857a1,1,0,0,0-.142-.2l0,0a.857.857,0,0,0-.261-.183c-.012-.006-.02-.018-.033-.024s-.02,0-.03,0a.778.778,0,0,0-.276-.056H9.68a.775.775,0,0,0-.273.056.242.242,0,0,0-.028,0c-.013,0-.021.017-.033.023a.866.866,0,0,0-.253.173.157.157,0,0,1-.015.012.982.982,0,0,0-.144.2L.13,19.314c-.009.016-.012.035-.02.052s-.02.03-.027.047-.011.048-.02.071a1.071,1.071,0,0,0-.039.139,1.143,1.143,0,0,0-.018.123A.875.875,0,0,0,0,19.889a1.117,1.117,0,0,0,.011.122.983.983,0,0,0,.033.141,1.084,1.084,0,0,0,.04.114c.008.018.011.038.019.055s.035.051.051.077a.621.621,0,0,0,.034.063L25.712,56.127l.005.007,0,.007s.007,0,.01.009a.89.89,0,0,0,.26.232.872.872,0,0,0,.078.043.789.789,0,0,0,.337.086.8.8,0,0,0,.3-.06c.015-.006.025-.02.04-.027a.8.8,0,0,0,.121-.083.877.877,0,0,0,.181-.162c.012-.015.031-.022.042-.038L52.624,20.462c.014-.02.021-.044.034-.063a.872.872,0,0,0,.051-.077c.009-.018.011-.038.019-.056a1.009,1.009,0,0,0,.04-.114A1.242,1.242,0,0,0,52.8,20.011ZM28.257,4.975h13.61L37.588,17.9ZM36,18.85H16.811L26.406,5.557Zm-20.839-.86L10.937,4.975H24.556Zm21.457,2.842L26.252,52.157,16.084,20.833ZM43.335,6.217l7.014,12.634h-11.2ZM9.47,6.23l4.1,12.62H2.463Zm4.74,14.6,9.543,29.4L2.714,20.833ZM28.517,50.991,38.5,20.833H50.1Z" transform="translate(24.547 23.656)" fill="#f7f7f7"/>
  </g>
</svg>
