<svg xmlns="http://www.w3.org/2000/svg" xmlns:xlink="http://www.w3.org/1999/xlink" width="118" height="119" viewBox="0 0 118 119">
  <defs>
    <filter id="Elipse_389" x="0" y="0" width="118" height="119" filterUnits="userSpaceOnUse">
      <feOffset dx="2" dy="3" input="SourceAlpha"/>
      <feGaussianBlur stdDeviation="3" result="blur"/>
      <feFlood flood-opacity="0.161"/>
      <feComposite operator="in" in2="blur"/>
      <feComposite in="SourceGraphic"/>
    </filter>
  </defs>
  <g id="Grupo_1302" data-name="Grupo 1302" transform="translate(7.234 5.549)">
    <g transform="matrix(1, 0, 0, 1, -7.23, -5.55)" filter="url(#Elipse_389)">
      <ellipse id="Elipse_389-2" data-name="Elipse 389" cx="50" cy="50.5" rx="50" ry="50.5" transform="translate(7 6)" fill="#bfc3fd"/>
    </g>
    <g id="ajustar" transform="translate(21.864 23.128)">
      <g id="Grupo_1297" data-name="Grupo 1297" transform="translate(0 37.745)">
        <g id="Grupo_1296" data-name="Grupo 1296">
          <g id="Trazado_2533" data-name="Trazado 2533" transform="translate(0 -352)" fill="#fff">
            <path d="M 40.10431289672852 368.0135192871094 C 38.41038513183594 368.0135192871094 36.80335235595703 367.4701232910156 35.45696258544922 366.4420471191406 C 34.15723419189453 365.4496154785156 33.18201446533203 364.0396728515625 32.71094512939453 362.471923828125 L 32.60393524169922 362.1158142089844 L 32.23209381103516 362.1158142089844 L 2.359043836593628 362.1158142089844 C 1.333963751792908 362.1158142089844 0.5000036954879761 361.2818603515625 0.5000036954879761 360.2568054199219 C 0.5000036954879761 359.2316589355469 1.333963751792908 358.3976440429688 2.359043836593628 358.3976440429688 L 32.23220443725586 358.3976440429688 L 32.60380554199219 358.3976440429688 L 32.71096420288086 358.0418395996094 C 33.18323516845703 356.4736633300781 34.1588020324707 355.0636291503906 35.45797348022461 354.0714111328125 C 36.80405426025391 353.0433959960938 38.41077423095703 352.5 40.10442352294922 352.5 C 41.79835510253906 352.5 43.4053955078125 353.0433959960938 44.75178527832031 354.0714416503906 C 46.0515022277832 355.0638732910156 47.0267219543457 356.4738159179688 47.49779510498047 358.0415344238281 L 47.60480499267578 358.3976440429688 L 47.97664260864258 358.3976440429688 L 54.2589225769043 358.3976440429688 C 55.283935546875 358.3976440429688 56.11784362792969 359.2316589355469 56.11784362792969 360.2568054199219 C 56.11784362792969 361.2818603515625 55.28388214111328 362.1158142089844 54.25881195068359 362.1158142089844 L 47.97653198242188 362.1158142089844 L 47.60493469238281 362.1158142089844 L 47.49777221679688 362.4716491699219 C 47.02550506591797 364.039794921875 46.04992294311523 365.4498596191406 44.75076293945312 366.4420776367188 C 43.40468215942383 367.4701232910156 41.7979621887207 368.0135192871094 40.10431289672852 368.0135192871094 Z M 40.10442352294922 356.2182312011719 C 37.87752532958984 356.2182312011719 36.06580352783203 358.0299377441406 36.06580352783203 360.2568054199219 C 36.06580352783203 362.4837341308594 37.87752532958984 364.2954711914062 40.10442352294922 364.2954711914062 C 42.33133316040039 364.2954711914062 44.1430549621582 362.4837341308594 44.1430549621582 360.2568054199219 C 44.1430549621582 358.0299377441406 42.33133316040039 356.2182312011719 40.10442352294922 356.2182312011719 Z" stroke="none"/>
            <path d="M 40.10442352294922 353 C 38.52139282226562 353 37.01962280273438 353.5079040527344 35.76145172119141 354.4687805175781 C 34.54522323608398 355.3976440429688 33.63190460205078 356.7177734375 33.18972396850586 358.1860046386719 L 32.97540283203125 358.8976440429688 L 32.23220443725586 358.8976440429688 L 2.359043121337891 358.8976440429688 C 1.609664916992188 358.8976440429688 1.000003814697266 359.5073547363281 1.000003814697266 360.2568054199219 C 1.000003814697266 361.0061645507812 1.609664916992188 361.6158142089844 2.359043121337891 361.6158142089844 L 32.23209381103516 361.6158142089844 L 32.97578430175781 361.6158142089844 L 33.18979644775391 362.3280334472656 C 33.63079452514648 363.7957153320312 34.54372406005859 365.1156311035156 35.76040649414062 366.0446472167969 C 37.01888275146484 367.0055847167969 38.5209846496582 367.5135192871094 40.10431289672852 367.5135192871094 C 41.68734359741211 367.5135192871094 43.18911361694336 367.005615234375 44.44728469848633 366.0447082519531 C 45.66351318359375 365.1158447265625 46.57683563232422 363.7956848144531 47.01901245117188 362.3274536132812 L 47.23333358764648 361.6158142089844 L 47.97653198242188 361.6158142089844 L 54.25880432128906 361.6158142089844 C 55.00818252563477 361.6158142089844 55.61784362792969 361.0061645507812 55.61784362792969 360.2568054199219 C 55.61784362792969 359.5073547363281 55.00823211669922 358.8976440429688 54.25891494750977 358.8976440429688 L 47.97664260864258 358.8976440429688 L 47.23295593261719 358.8976440429688 L 47.01894378662109 358.1854248046875 C 46.57794189453125 356.7177429199219 45.66502380371094 355.3978576660156 44.44834136962891 354.4688415527344 C 43.18985366821289 353.5079040527344 41.68775177001953 353 40.10442352294922 353 M 40.10442352294922 364.7954711914062 C 37.60182189941406 364.7954711914062 35.56580352783203 362.7594299316406 35.56580352783203 360.2568054199219 C 35.56580352783203 357.7542114257812 37.60182189941406 355.7182312011719 40.10442352294922 355.7182312011719 C 42.60703277587891 355.7182312011719 44.6430549621582 357.7542114257812 44.6430549621582 360.2568054199219 C 44.6430549621582 362.7594299316406 42.60703277587891 364.7954711914062 40.10442352294922 364.7954711914062 M 40.10442352294922 352 C 43.83169555664062 352 46.95520401000977 354.4982604980469 47.97664260864258 357.8976440429688 L 54.25891494750977 357.8976440429688 C 55.56344223022461 357.8976440429688 56.61784362792969 358.95458984375 56.61784362792969 360.2568054199219 C 56.61784362792969 361.5590515136719 55.56333541870117 362.6158142089844 54.25880432128906 362.6158142089844 L 47.97653198242188 362.6158142089844 C 46.95276260375977 366.0152282714844 43.83159255981445 368.5135192871094 40.10431289672852 368.5135192871094 C 36.37704467773438 368.5135192871094 33.25354385375977 366.0152282714844 32.23209381103516 362.6158142089844 L 2.359043121337891 362.6158142089844 C 1.056835174560547 362.6158142089844 3.814697265625e-06 361.5590515136719 3.814697265625e-06 360.2568054199219 C 3.814697265625e-06 358.95458984375 1.056835174560547 357.8976440429688 2.359043121337891 357.8976440429688 L 32.23220443725586 357.8976440429688 C 33.25597381591797 354.4982604980469 36.37714385986328 352 40.10442352294922 352 Z M 40.10442352294922 363.7954711914062 C 42.05530548095703 363.7954711914062 43.6430549621582 362.207763671875 43.6430549621582 360.2568054199219 C 43.6430549621582 358.3058166503906 42.05542373657227 356.7182312011719 40.10442352294922 356.7182312011719 C 38.15343475341797 356.7182312011719 36.56580352783203 358.3058166503906 36.56580352783203 360.2568054199219 C 36.56580352783203 362.207763671875 38.15343475341797 363.7954711914062 40.10442352294922 363.7954711914062 Z" stroke="none" fill="#bfc3fd"/>
          </g>
        </g>
      </g>
      <g id="Grupo_1299" data-name="Grupo 1299" transform="translate(0 0)">
        <g id="Grupo_1298" data-name="Grupo 1298">
          <g id="Trazado_2534" data-name="Trazado 2534" transform="translate(0 -10.667)" fill="#fff">
            <path d="M 40.10441970825195 26.6805362701416 C 38.41073226928711 26.6805362701416 36.80400085449219 26.13714790344238 35.45793151855469 25.10909652709961 C 34.15877151489258 24.11688613891602 33.18318176269531 22.70679664611816 32.71086120605469 21.1385669708252 L 32.60369110107422 20.78275680541992 L 32.23210144042969 20.78275680541992 L 2.359050989151001 20.78275680541992 C 1.333970904350281 20.78275680541992 0.5000009536743164 19.94878768920898 0.5000009536743164 18.92370796203613 C 0.5000009536743164 17.89862632751465 1.333970904350281 17.06466674804688 2.359050989151001 17.06466674804688 L 32.23208999633789 17.06466674804688 L 32.60367965698242 17.06466674804688 L 32.71084976196289 16.7088680267334 C 33.18317031860352 15.14069747924805 34.15877914428711 13.730637550354 35.45796203613281 12.73842716217041 C 36.80406188964844 11.71038722991943 38.41078186035156 11.16699695587158 40.10441970825195 11.16699695587158 C 41.79806137084961 11.16699695587158 43.40476226806641 11.71038722991943 44.75083160400391 12.73842716217041 C 46.04997253417969 13.73061752319336 47.02556228637695 15.14068698883057 47.49789047241211 16.7088680267334 L 47.60506057739258 17.06466674804688 L 47.97665023803711 17.06466674804688 L 54.2589225769043 17.06466674804688 C 55.28400039672852 17.06466674804688 56.11796188354492 17.8986873626709 56.11796188354492 18.92382621765137 C 56.11796188354492 19.94890785217285 55.28400039672852 20.78286743164062 54.2589225769043 20.78286743164062 L 47.97665023803711 20.78286743164062 L 47.60504913330078 20.78286743164062 L 47.49789047241211 21.13868713378906 C 47.02561950683594 22.70685768127441 46.05005264282227 24.11691665649414 44.75091171264648 25.10910797119141 C 43.40484237670898 26.13714790344238 41.79811096191406 26.6805362701416 40.10441970825195 26.6805362701416 Z M 40.10441970825195 14.88508701324463 C 37.87752151489258 14.88508701324463 36.06579971313477 16.69680786132812 36.06579971313477 18.92370796203613 C 36.06579971313477 21.1506175994873 37.87752151489258 22.96233749389648 40.10441970825195 22.96233749389648 C 42.33132934570312 22.96233749389648 44.14305114746094 21.1506175994873 44.14305114746094 18.92370796203613 C 44.14305114746094 16.69680786132812 42.33132934570312 14.88508701324463 40.10441970825195 14.88508701324463 Z" stroke="none"/>
            <path d="M 40.10442352294922 11.6669979095459 C 38.52140045166016 11.6669979095459 37.01962280273438 12.17489624023438 35.76144027709961 13.13579750061035 C 34.54518890380859 14.06466674804688 33.63182830810547 15.38481712341309 33.18959808349609 16.85306739807129 L 32.97527313232422 17.56466674804688 L 32.23208999633789 17.56466674804688 L 2.359039306640625 17.56466674804688 C 1.609661102294922 17.56466674804688 1 18.1743278503418 1 18.92370796203613 C 1 19.67308616638184 1.609661102294922 20.28275680541992 2.359039306640625 20.28275680541992 L 32.23210144042969 20.28275680541992 L 32.97528839111328 20.28275680541992 L 33.18961334228516 20.9943675994873 C 33.63184356689453 22.46267700195312 34.54518890380859 23.78286743164062 35.76141357421875 24.71173667907715 C 37.01956176757812 25.67263793945312 38.5213508605957 26.18053817749023 40.10442352294922 26.18053817749023 C 41.68749237060547 26.18053817749023 43.18928146362305 25.67263793945312 44.44742965698242 24.71174621582031 C 45.66363143920898 23.78288650512695 46.57694244384766 22.46274566650391 47.01911926269531 20.99449729919434 L 47.23342895507812 20.28286743164062 L 47.97663879394531 20.28286743164062 L 54.2589225769043 20.28286743164062 C 55.00830078125 20.28286743164062 55.61796188354492 19.6732063293457 55.61796188354492 18.92382621765137 C 55.61796188354492 18.17438697814941 55.00830078125 17.56466674804688 54.2589225769043 17.56466674804688 L 47.97663879394531 17.56466674804688 L 47.23345947265625 17.56466674804688 L 47.01913070678711 16.85306739807129 C 46.57690048217773 15.38480758666992 45.66355133056641 14.06464767456055 44.44734191894531 13.13578796386719 C 43.18918991088867 12.17489624023438 41.68743133544922 11.6669979095459 40.10442352294922 11.6669979095459 M 40.10442352294922 23.46233749389648 C 37.60182189941406 23.46233749389648 35.56580352783203 21.42631721496582 35.56580352783203 18.92370796203613 C 35.56580352783203 16.42110633850098 37.60182189941406 14.38508796691895 40.10442352294922 14.38508796691895 C 42.60703277587891 14.38508796691895 44.64305114746094 16.42110633850098 44.64305114746094 18.92370796203613 C 44.64305114746094 21.42631721496582 42.60703277587891 23.46233749389648 40.10442352294922 23.46233749389648 M 40.10442352294922 10.6669979095459 C 43.83169174194336 10.6669979095459 46.9527587890625 13.16526794433594 47.97663879394531 16.56466674804688 L 54.2589225769043 16.56466674804688 C 55.56344223022461 16.56466674804688 56.61796188354492 17.62160682678223 56.61796188354492 18.92382621765137 C 56.61796188354492 20.22603797912598 55.56344223022461 21.28286743164062 54.2589225769043 21.28286743164062 L 47.97663879394531 21.28286743164062 C 46.952880859375 24.68226623535156 43.83180999755859 27.18053817749023 40.10442352294922 27.18053817749023 C 36.37704086303711 27.18053817749023 33.2559700012207 24.68226623535156 32.23210144042969 21.28275680541992 L 2.359039306640625 21.28275680541992 C 1.056831359863281 21.28275680541992 0 20.22591781616211 0 18.92370796203613 C 0 17.62149620056152 1.056831359863281 16.56466674804688 2.359039306640625 16.56466674804688 L 32.23208999633789 16.56466674804688 C 33.2559700012207 13.16526794433594 36.37715148925781 10.6669979095459 40.10442352294922 10.6669979095459 Z M 40.10442352294922 22.46233749389648 C 42.05531311035156 22.46233749389648 43.64305114746094 20.87470626831055 43.64305114746094 18.92370796203613 C 43.64305114746094 16.97271728515625 42.0554313659668 15.38508796691895 40.10442352294922 15.38508796691895 C 38.1534309387207 15.38508796691895 36.56580352783203 16.97271728515625 36.56580352783203 18.92370796203613 C 36.56580352783203 20.87470626831055 38.1534309387207 22.46233749389648 40.10442352294922 22.46233749389648 Z" stroke="none" fill="#bfc3fd"/>
          </g>
        </g>
      </g>
      <g id="Grupo_1301" data-name="Grupo 1301" transform="translate(0 18.873)">
        <g id="Grupo_1300" data-name="Grupo 1300">
          <g id="Trazado_2535" data-name="Trazado 2535" transform="translate(0 -181.334)" fill="#fff">
            <path d="M 16.51353073120117 197.3474273681641 C 14.81989097595215 197.3474273681641 13.21319103240967 196.8040313720703 11.86713123321533 195.7760162353516 C 10.56799125671387 194.7838134765625 9.592400550842285 193.3737487792969 9.120080947875977 191.8055572509766 L 9.012910842895508 191.4497528076172 L 8.641321182250977 191.4497528076172 L 2.359050989151001 191.4497528076172 C 1.333970904350281 191.4497528076172 0.5000009536743164 190.6157989501953 0.5000009536743164 189.5907135009766 C 0.5000009536743164 188.5656280517578 1.333970904350281 187.7316589355469 2.359050989151001 187.7316589355469 L 8.641421318054199 187.7316589355469 L 9.013020515441895 187.7316589355469 L 9.120181083679199 187.3758392333984 C 9.592451095581055 185.8076934814453 10.56803131103516 184.3976287841797 11.86720085144043 183.4054260253906 C 13.21328067779541 182.3773956298828 14.81999111175537 181.8339996337891 16.51364135742188 181.8339996337891 C 18.2072811126709 181.8339996337891 19.81398010253906 182.3773956298828 21.16004180908203 183.4054260253906 C 22.45919036865234 184.3976287841797 23.43478012084961 185.8076782226562 23.90710067749023 187.3758697509766 L 24.0142707824707 187.7316589355469 L 24.38586044311523 187.7316589355469 L 54.2589225769043 187.7316589355469 C 54.7559814453125 187.7316589355469 55.22299194335938 187.9250793457031 55.57395172119141 188.2762908935547 C 55.92473220825195 188.6273193359375 56.11788940429688 189.0941009521484 56.11785125732422 189.5906677246094 C 56.11785125732422 190.6157989501953 55.28388977050781 191.4497528076172 54.25881195068359 191.4497528076172 L 24.38575172424316 191.4497528076172 L 24.01415061950684 191.4497528076172 L 23.90699005126953 191.8055725097656 C 23.43472099304199 193.3737487792969 22.45915031433105 194.7837982177734 21.15998077392578 195.7760009765625 C 19.81389999389648 196.8040313720703 18.20719146728516 197.3474273681641 16.51353073120117 197.3474273681641 Z M 16.51353073120117 185.5520935058594 C 14.28663063049316 185.5520935058594 12.47491073608398 187.3638153076172 12.47491073608398 189.5907135009766 C 12.47491073608398 191.817626953125 14.28663063049316 193.6293487548828 16.51353073120117 193.6293487548828 C 18.74043083190918 193.6293487548828 20.55215072631836 191.817626953125 20.55215072631836 189.5907135009766 C 20.55215072631836 187.3638153076172 18.74043083190918 185.5520935058594 16.51353073120117 185.5520935058594 Z" stroke="none"/>
            <path d="M 16.51364135742188 182.3339996337891 C 14.93061065673828 182.3339996337891 13.42882919311523 182.8419036865234 12.17066955566406 183.8027954101562 C 10.95444107055664 184.7316589355469 10.04112243652344 186.0518035888672 9.598941802978516 187.5200347900391 L 9.384620666503906 188.2316589355469 L 8.641422271728516 188.2316589355469 L 2.359039306640625 188.2316589355469 C 1.609661102294922 188.2316589355469 1 188.8413391113281 1 189.5907135009766 C 1 190.340087890625 1.609661102294922 190.9497528076172 2.359039306640625 190.9497528076172 L 8.641311645507812 190.9497528076172 L 9.384490966796875 190.9497528076172 L 9.598819732666016 191.6613616943359 C 10.04104995727539 193.1296234130859 10.95439910888672 194.4497833251953 12.17061233520508 195.3786468505859 C 13.42876052856445 196.3395233154297 14.93051147460938 196.8474273681641 16.51353073120117 196.8474273681641 C 18.09656143188477 196.8474273681641 19.59833908081055 196.3395233154297 20.85650253295898 195.3786468505859 C 22.07273101806641 194.4497680664062 22.98604965209961 193.129638671875 23.42823028564453 191.661376953125 L 23.64253997802734 190.9497528076172 L 24.38574981689453 190.9497528076172 L 54.25881195068359 190.9497528076172 C 55.0081901550293 190.9497528076172 55.61785125732422 190.340087890625 55.61785125732422 189.5906372070312 C 55.61788177490234 189.2275695800781 55.47668075561523 188.8863067626953 55.22026062011719 188.6296997070312 C 54.96376037597656 188.3730163574219 54.62235260009766 188.2316589355469 54.2589225769043 188.2316589355469 L 24.38586044311523 188.2316589355469 L 23.64268112182617 188.2316589355469 L 23.42835235595703 187.5200653076172 C 22.98612213134766 186.0518035888672 22.07276916503906 184.7316436767578 20.85655975341797 183.8027954101562 C 19.59841918945312 182.8419036865234 18.09666061401367 182.3339996337891 16.51364135742188 182.3339996337891 M 16.51353073120117 194.1293487548828 C 14.01092910766602 194.1293487548828 11.97491073608398 192.0933227539062 11.97491073608398 189.5907135009766 C 11.97491073608398 187.0881195068359 14.01092910766602 185.0520935058594 16.51353073120117 185.0520935058594 C 19.01613235473633 185.0520935058594 21.05215072631836 187.0881195068359 21.05215072631836 189.5907135009766 C 21.05215072631836 192.0933227539062 19.01613235473633 194.1293487548828 16.51353073120117 194.1293487548828 M 16.51364135742188 181.3339996337891 C 20.24092102050781 181.3339996337891 23.36198043823242 183.8322601318359 24.38586044311523 187.2316589355469 L 54.2589225769043 187.2316589355469 C 55.56344223022461 187.2316589355469 56.61796188354492 188.2884826660156 56.61785125732422 189.5907135009766 C 56.61785125732422 190.8929595947266 55.56333923339844 191.9497528076172 54.25881195068359 191.9497528076172 L 24.38574981689453 191.9497528076172 C 23.36198043823242 195.3491821289062 20.24081039428711 197.8474273681641 16.51353073120117 197.8474273681641 C 12.78626251220703 197.8474273681641 9.665191650390625 195.3491821289062 8.641311645507812 191.9497528076172 L 2.359039306640625 191.9497528076172 C 1.056831359863281 191.9497528076172 0 190.8929595947266 0 189.5907135009766 C 0 188.2884826660156 1.056831359863281 187.2316589355469 2.359039306640625 187.2316589355469 L 8.641422271728516 187.2316589355469 C 9.665191650390625 183.8322601318359 12.78636169433594 181.3339996337891 16.51364135742188 181.3339996337891 Z M 16.51353073120117 193.1293487548828 C 18.46453094482422 193.1293487548828 20.05215072631836 191.5416870117188 20.05215072631836 189.5907135009766 C 20.05215072631836 187.6397247314453 18.46453094482422 186.0520935058594 16.51353073120117 186.0520935058594 C 14.56253051757812 186.0520935058594 12.97491073608398 187.6397247314453 12.97491073608398 189.5907135009766 C 12.97491073608398 191.5416870117188 14.56253051757812 193.1293487548828 16.51353073120117 193.1293487548828 Z" stroke="none" fill="#bfc3fd"/>
          </g>
        </g>
      </g>
    </g>
  </g>
</svg>
