<svg id="Grupo_1369" data-name="Grupo 1369" xmlns="http://www.w3.org/2000/svg" width="105.175" height="171.229" viewBox="0 0 105.175 171.229">
  <path id="Trazado_2673" data-name="Trazado 2673" d="M1134.6,1688.455a6.31,6.31,0,0,1-6.31,6.308l-1.577-3c-3.486,0-6.309-5.25-6.309-8.733v-2.366a6.3,6.3,0,0,1,6.309-6.306h1.577a6.307,6.307,0,0,1,6.31,6.306Z" transform="translate(-1078.32 -1642.712)" fill="#2e45fa"/>
  <path id="Trazado_2674" data-name="Trazado 2674" d="M1113.332,1687.49a8.791,8.791,0,0,0-1.019.067,8.133,8.133,0,0,1-7.261,9.425,8.373,8.373,0,1,0,8.28-9.491Z" transform="translate(-1070.231 -1649.63)" fill="#2e45fa"/>
  <path id="Trazado_2675" data-name="Trazado 2675" d="M1134.8,1679.42a12.4,12.4,0,0,1-.15,1.777c-.638,4.05-3.1,7.127-5.791,7.507a19.149,19.149,0,0,1-.894,4.883,9.538,9.538,0,0,1-2.373,3.286c-.456,2.83,9.174,6.984,8.943,6.528s-2.6-3.789-3.377-6.844a6.228,6.228,0,0,1,.969-5.1,5.159,5.159,0,0,1,3.687-1.747.724.724,0,0,0,.531-.231,4.451,4.451,0,0,0,.2-1.32v-5.2A4.454,4.454,0,0,0,1134.8,1679.42Z" transform="translate(-1081.046 -1645.378)" fill="#e9d6b8"/>
  <path id="Trazado_2676" data-name="Trazado 2676" d="M1121.269,1741.032c-1.061,2.61-7.275,2.585-8.34-.026l-5.847-18.807c-.218-1.953-.138-4.774,2.348-4.774h6.7l3.051,1.464,2.684-1.464h1.618c2.488,0,3.65,2.136,2.587,4.746Z" transform="translate(-1071.259 -1665.401)" fill="#dbdac6"/>
  <path id="Trazado_2677" data-name="Trazado 2677" d="M1095.154,1764.07s-1.2.746-4.8-4.022a68.549,68.549,0,0,1-4.318-6.655c-1.681-2.893,1.621-.689,1.621-.689l4.753,4.835S1095.833,1761.61,1095.154,1764.07Z" transform="translate(-1059.962 -1683.564)" fill="#dbdac6"/>
  <path id="Trazado_2678" data-name="Trazado 2678" d="M1105.726,1718.462c-2.554,5.732-2.2,26.886-2.2,26.886s2.01,7.752,4.6-20.227C1108.9,1716.718,1106.357,1717.046,1105.726,1718.462Z" transform="translate(-1069.418 -1665.538)" fill="#dbdac6"/>
  <path id="Trazado_2679" data-name="Trazado 2679" d="M1142.307,1720.722l6.038,18.211s.413,1.261-.855.426c-1.778-1.167-5.773-5.41-9.327-13.86C1135.557,1719.3,1140.7,1720.375,1142.307,1720.722Z" transform="translate(-1087.294 -1666.982)" fill="#dbdac6"/>
  <path id="Trazado_2680" data-name="Trazado 2680" d="M1073.458,1731.367l-.3,1.69.135,1.393,1.07,2.007a15.151,15.151,0,0,0,2.184,2.545c.792.56,2.918,3.495,3.269,3.8s1.53-.341,1.53-.341-2.089-2.584-3.12-3.715a33.469,33.469,0,0,1-2.339-3.706,6.731,6.731,0,0,0-1.418-1.248s.808,1.392,1.063,1.73-.261.445-.261.445a13.613,13.613,0,0,1-1.458-2.4,3.674,3.674,0,0,1-.057-1.2Z" transform="translate(-1053.43 -1672.746)" fill="#e9d6b8"/>
  <path id="Trazado_2681" data-name="Trazado 2681" d="M1144.138,1861.158c-.283-1.01-.484-2.035-.74-3.028-.989-1.552-1.886-2.422-2.618-2.427-2.769-.017-4.24,9.448,1.424,27.5.315,1.005,5.273,19.161,5.281,18.43C1147.6,1886.954,1145.165,1864.826,1144.138,1861.158Z" transform="translate(-1087.764 -1738.251)" fill="#e9d6b8"/>
  <path id="Trazado_2682" data-name="Trazado 2682" d="M1097.028,1860.382c.222-1.033.52-2.028.761-3.027-.151-1.835-.541-3.021-1.187-3.366-2.443-1.306-8.154,6.379-11.56,24.992-.191,1.035-4.271,19.408-3.922,18.765C1088.069,1884.814,1096.227,1864.1,1097.028,1860.382Z" transform="translate(-1057.611 -1737.274)" fill="#e9d6b8"/>
  <path id="Trazado_2683" data-name="Trazado 2683" d="M1128.479,1717.407l-1.256,1.688-3.29-2.856,1.169-1.211Z" transform="translate(-1080.178 -1664.137)" fill="#c9c8b6"/>
  <path id="Trazado_2684" data-name="Trazado 2684" d="M1136.72,1715.231l-1.623,1.884,1.883,1.916.748-2.859Z" transform="translate(-1086.06 -1664.244)" fill="#c9c8b6"/>
  <path id="Trazado_2685" data-name="Trazado 2685" d="M1131.477,1742.461l1.064-.292c1.8-7.721,2.789-15.721.724-22.988a2.251,2.251,0,0,1-1.048.242C1134.308,1726.848,1133.326,1734.558,1131.477,1742.461Z" transform="translate(-1084.153 -1666.326)" fill="#c9c8b6"/>
  <path id="Trazado_2686" data-name="Trazado 2686" d="M1123.84,1817.41a10.792,10.792,0,0,0,.2-2.079c-.146-4.222.025-8.51-.659-16.527a215.434,215.434,0,0,0-5.5-32.629,17.75,17.75,0,0,0-1.154-3.483c-2.995-.418-6.042,1.62-9.15,2.5a30.455,30.455,0,0,0-2.822,7.706c-3.374,13.8-5.061,21.771-5.955,28.464-.9,6.484-1.011,11.689-1.47,15.147C1105.894,1830.763,1114.724,1804.224,1123.84,1817.41Z" transform="translate(-1066.159 -1689.22)" fill="#bfc3fd"/>
  <g id="Grupo_1359" data-name="Grupo 1359" transform="translate(59.847 41.591)">
    <path id="Trazado_2687" data-name="Trazado 2687" d="M1158.369,1732.328s-1.262-.378.559-7.178a143.986,143.986,0,0,1,6.027-16.369l-2.87,16.037S1160.721,1730.911,1158.369,1732.328Z" transform="translate(-1157.943 -1702.438)" fill="#e9d6b8"/>
    <path id="Trazado_2688" data-name="Trazado 2688" d="M1167.582,1706.942c.775-3.255-.376-5-.529-6.395a23.447,23.447,0,0,0-.539-2.844c1.1,1.019.881,2.08,1.167,2.7s.11.438.467-.7c.2-.647-.58-2.051-.967-3.021a2.851,2.851,0,0,1-.271-1.3,13.826,13.826,0,0,1,1.477,2.364,17.217,17.217,0,0,1,1.263,3.755,14.427,14.427,0,0,1-.928,4.455C1168.094,1707.648,1167.023,1709.289,1167.582,1706.942Z" transform="translate(-1162.459 -1695.374)" fill="#e9d6b8"/>
    <path id="Trazado_2689" data-name="Trazado 2689" d="M1171.551,1703.032a19.588,19.588,0,0,0-.178-3.131c-.137-.354-1.05-1.909-1.05-1.909a3.534,3.534,0,0,0,.248,1.612A28.945,28.945,0,0,1,1171.551,1703.032Z" transform="translate(-1164.46 -1696.753)" fill="#e9d6b8"/>
  </g>
  <path id="Trazado_2690" data-name="Trazado 2690" d="M1162.741,1725.79c.022,3.391-1.076,8.534-3.16,14.029-.241.646-.5,1.281-.752,1.9-.394.946-2.041-.355-1.954-2.092.168-3.36,1.5-7.232,3.394-12.216q.485-1.282,1-2.486A12.061,12.061,0,0,1,1162.741,1725.79Z" transform="translate(-1097.532 -1669.352)" fill="#dbdac6"/>
  <path id="Trazado_2691" data-name="Trazado 2691" d="M1163.375,1942.042a19.754,19.754,0,0,0-3.546.539c-1.488.316-2.53.765-3.242.457-1.176-.508-2.072-5.661-2.235-9.4-.019-.417-2.559-1.4-2.439-.935a66.092,66.092,0,0,1,1.759,10.71c.249,1.422.9,2.713,1.6,2.758,1.373.091,7.7-2.811,8.212-3.072S1163.486,1941.854,1163.375,1942.042Z" transform="translate(-1094.917 -1778.752)" fill="#e9d6b8"/>
  <path id="Trazado_2692" data-name="Trazado 2692" d="M1074.731,1947.829c-.6,3.629-.307,6.706.654,6.864s2.223-2.659,2.823-6.291.307-6.7-.65-6.862S1075.332,1944.2,1074.731,1947.829Z" transform="translate(-1054.094 -1783.47)" fill="#6855c1"/>
  <path id="Trazado_2693" data-name="Trazado 2693" d="M1076.115,1939.624c-.827,2.583-.474,5.134.485,5.293s1.994-1.827,2.315-4.519c.41-3.415.195-4.849,1.3-6.706,1.138-1.909,1.3-3.819,1.057-4.107s-1.537.432-1.708,1.424a9.685,9.685,0,0,1-1.109,3.07A25.9,25.9,0,0,0,1076.115,1939.624Z" transform="translate(-1054.742 -1777.141)" fill="#e9d6b8"/>
  <path id="Trazado_2694" data-name="Trazado 2694" d="M1164.47,1952.408c1.012,1.378-3.957,2.744-5.342,2.856a14.88,14.88,0,0,0-2.118.3l-.149.051a.739.739,0,0,0,.029.116c.357.843.456,2.12,1.8,1.552l8.441-3.554C1174.029,1950.834,1164.449,1952.378,1164.47,1952.408Z" transform="translate(-1097.526 -1788.969)" fill="#6855c1"/>
  <g id="Grupo_1363" data-name="Grupo 1363" transform="translate(0 56.564)">
    <path id="Trazado_2695" data-name="Trazado 2695" d="M1047.536,1770.734c-12.5-5.893-19.1-18.7-14.724-28.608s18.058-13.156,30.561-7.262,19.095,18.7,14.723,28.6S1060.042,1776.625,1047.536,1770.734Z" transform="translate(-1031.46 -1729.604)" fill="#f4901e"/>
    <path id="Trazado_2696" data-name="Trazado 2696" d="M1051.475,1765.827c-12.5-5.892-19.1-18.7-14.727-28.6s18.061-13.158,30.566-7.266,19.091,18.7,14.719,28.606S1063.982,1771.719,1051.475,1765.827Z" transform="translate(-1033.534 -1727.019)" fill="#f1b434"/>
    <path id="Trazado_2697" data-name="Trazado 2697" d="M1080.384,1739.67c9.55,4.493,14.58,14.274,11.238,21.837a12.668,12.668,0,0,1-7.369,6.7,12.93,12.93,0,0,0,8.377-7.035c3.338-7.565-1.692-17.345-11.238-21.841a20.805,20.805,0,0,0-15.958-1.145A21.141,21.141,0,0,1,1080.384,1739.67Z" transform="translate(-1049.359 -1732.324)" fill="#f4901e"/>
    <g id="Grupo_1362" data-name="Grupo 1362" transform="translate(15.766 13.033)">
      <path id="Trazado_2698" data-name="Trazado 2698" d="M1064.78,1760.245l2.952-5.68.72.374a10.976,10.976,0,0,1-.026,1.235,9.309,9.309,0,0,1-.162,1.19l12.215,6.343,1.428.841a4.873,4.873,0,0,1,.2-1.328,5.848,5.848,0,0,1,.539-1.249l.648.213a16.608,16.608,0,0,0-.027,2.33,9.37,9.37,0,0,0,.485,2.5l-.255.485-16.14-8.388a10.072,10.072,0,0,1-.866.786q-.465.375-.99.721Z" transform="translate(-1064.78 -1754.565)" fill="#f4901e"/>
    </g>
  </g>
  <g id="Grupo_1365" data-name="Grupo 1365" transform="translate(57.663 0)">
    <path id="Trazado_2699" data-name="Trazado 2699" d="M1197.211,1627.3c5.4,12.794.443,27.221-11.072,32.217s-25.231-1.331-30.626-14.133-.44-27.214,11.074-32.208S1191.814,1614.5,1197.211,1627.3Z" transform="translate(-1153.329 -1609.576)" fill="#f4901e"/>
    <path id="Trazado_2700" data-name="Trazado 2700" d="M1200.268,1623.31c5.395,12.8.441,27.222-11.074,32.217s-25.232-1.331-30.625-14.128-.442-27.218,11.075-32.216S1194.869,1610.511,1200.268,1623.31Z" transform="translate(-1154.938 -1607.474)" fill="#f1b434"/>
    <path id="Trazado_2701" data-name="Trazado 2701" d="M1173.257,1646.318c-4.124-9.767-.333-20.78,8.456-24.6a16.1,16.1,0,0,1,11.363-.5,16.22,16.22,0,0,0-12.45.119c-8.792,3.812-12.584,14.826-8.462,24.6a19.745,19.745,0,0,0,12.02,11.288A19.893,19.893,0,0,1,1173.257,1646.318Z" transform="translate(-1162.375 -1614.092)" fill="#f4901e"/>
    <g id="Grupo_1364" data-name="Grupo 1364" transform="translate(19.69 14.498)">
      <path id="Trazado_2702" data-name="Trazado 2702" d="M1208.4,1656.031l-6.966,2.579-.284-.766c.327-.34.664-.663,1.014-.961a12.982,12.982,0,0,1,1.089-.838l-4.8-12.967-.48-1.593a6.178,6.178,0,0,1-1.233.919,7.88,7.88,0,0,1-1.445.642l-.353-.59a21.488,21.488,0,0,0,1.9-1.829,10.717,10.717,0,0,0,1.619-2.3l.6-.217,6.341,17.137a12.693,12.693,0,0,1,1.333-.057c.453,0,.913.027,1.383.072Z" transform="translate(-1194.942 -1638.115)" fill="#f4901e"/>
    </g>
  </g>
</svg>
