<svg id="Grupo_1370" data-name="Grupo 1370" xmlns="http://www.w3.org/2000/svg" width="111.792" height="143.302" viewBox="0 0 111.792 143.302">
  <g id="Grupo_1310" data-name="Grupo 1310" transform="translate(38.273 21.048)">
    <path id="Trazado_2537" data-name="Trazado 2537" d="M4629.432,2428.859c5.013,1.262,14.251,5.755,16.187,13.439,2.9,11.538-2.906,28.472,6.289,45.041,2.936,5.278-50.808,12.377-50.808,12.377l-10.369-58.294s12.954-12.654,15.6-13.506C4611.821,2426.151,4619.415,2426.341,4629.432,2428.859Z" transform="translate(-4586.912 -2409.969)" fill="#86c0f0"/>
    <g id="Grupo_1306" data-name="Grupo 1306" transform="translate(0 31.371)">
      <path id="Trazado_2538" data-name="Trazado 2538" d="M4587.8,2452.325c-1.866,4.658-6.582,32.37-1.325,38.9.605.755-2.729,1.929-2.126,5.377.1.578,1.108,3.325,1.108,3.325l4.294,1.119,12.979-7.387-2.486-3.025-1.177.022a2.645,2.645,0,0,1-.8-2.308c.305-1.27-2.978-3.337-7.943-24.844C4588.866,2457.18,4588.212,2451.3,4587.8,2452.325Z" transform="translate(-4584.069 -2452.207)" fill="#74b2e8"/>
      <path id="Trazado_2539" data-name="Trazado 2539" d="M4596.044,2517.195l3.839-.846,1.556-.246a2.849,2.849,0,0,0,.854,1.837l-2.977.1-3.487.748-4.213,2.4Z" transform="translate(-4587.29 -2479.487)" fill="#ecb60d"/>
    </g>
    <path id="Trazado_2540" data-name="Trazado 2540" d="M4602.854,2524.257a11.511,11.511,0,0,0-5.5,1.52c-1.923,1.186-3.693,3.763-1.927,5.156a28.634,28.634,0,0,0,4.493,2.7S4606.682,2533.816,4602.854,2524.257Z" transform="translate(-4588.609 -2451.598)" fill="#c4d1e1"/>
    <path id="Trazado_2541" data-name="Trazado 2541" d="M4595.546,2535.587l1.808-.387s6.226-.563,7.112-.078,3.742,2.415,3.742,2.415l.587.542a3.005,3.005,0,0,1-3.261-.446c-1.879-1.311-2.031-.3-2.031-.3l.312,1.659-.024,2.116.289.894s.263.484.058.662a1.18,1.18,0,0,1-1.182.27l-1.893-3.307-.514,3.6a1.315,1.315,0,0,1-.85.614c-.558.12-.562-.027-.562-.027l-.426-.915a1.138,1.138,0,0,1-.377.627,1.817,1.817,0,0,1-1.129.318l.176-3.787-.776,1.925a1.419,1.419,0,0,1-.849.614c-.629.147-.8.195-.8.195Z" transform="translate(-4588.716 -2456.152)" fill="#e4eef3"/>
    <g id="Grupo_1308" data-name="Grupo 1308" transform="translate(16.406 24.577)">
      <g id="Grupo_1307" data-name="Grupo 1307" transform="translate(4.847)">
        <path id="Trazado_2542" data-name="Trazado 2542" d="M4638.977,2506.973s-4.52,11.449-15.377,14.512c-1.88.531-3.035,2.563-2.128,3.211,1.161.836,2.751,1.019,5.478,1.01,5.677-.012,13.4-1.779,18.748-6.951,7.913-7.655,10.4-11.135,9.6-14.988S4638.977,2506.973,4638.977,2506.973Z" transform="translate(-4621.157 -2466.935)" fill="#e9d6b8"/>
        <path id="Trazado_2543" data-name="Trazado 2543" d="M4666.747,2444.25c2.3,3.777,3.627,9.847,3.611,18.532-.016,6.72-5.814,17.728-6.7,21.112-.148.564-.5,2.988-.5,2.988l-6.427,6.3-12.894-8.735,3.919-6.016,1.169.121a19.87,19.87,0,0,0,.542-4.611c-.2-1.29,3.571-18.629,5.435-29.744C4655.971,2437.8,4664.469,2440.5,4666.747,2444.25Z" transform="translate(-4630.838 -2440.351)" fill="#74b2e8"/>
        <path id="Trazado_2544" data-name="Trazado 2544" d="M4659,2505.492l-3.752-1.165-1.529-.378a2.845,2.845,0,0,1-1.006,1.76l2.956.342,3.416,1.041,4,2.749Z" transform="translate(-4634.627 -2467.504)" fill="#86c0f0"/>
      </g>
      <path id="Trazado_2545" data-name="Trazado 2545" d="M4620.815,2534.14l-6.566-1.8s-1.857,2.5-1.507,3.117,0,4.313,0,4.313l3.181,2.7,2.589-.86s.181-1.13-.7-1.239.6-.752,1.061-1.018S4623.138,2537.129,4620.815,2534.14Z" transform="translate(-4612.698 -2479.626)" fill="#e9d6b8"/>
    </g>
    <rect id="Rect치ngulo_2236" data-name="Rect치ngulo 2236" width="11.976" height="18.059" rx="5.988" transform="translate(18.634 9.043) rotate(-19.324)" fill="#e4eef3"/>
    <g id="Grupo_1309" data-name="Grupo 1309" transform="translate(11.999)">
      <path id="Trazado_2546" data-name="Trazado 2546" d="M4612.562,2426.819a2.59,2.59,0,0,0,3.186,1.808l11.24-3.1a2.591,2.591,0,0,0,1.809-3.188l-4.588-16.65a2.588,2.588,0,0,0-3.185-1.808l-11.241,3.1a2.594,2.594,0,0,0-1.809,3.188Z" transform="translate(-4606.234 -2400.164)" fill="#e9d6b8"/>
      <path id="Trazado_2547" data-name="Trazado 2547" d="M4607.676,2416.335a9.931,9.931,0,0,1-2.5-2.111,3.888,3.888,0,0,1,.737-3.561c1.048-1.073,2.461-.007,2.461-.007s-1.688,1.661-1.679,2.106S4607.676,2416.335,4607.676,2416.335Z" transform="translate(-4605.008 -2402.895)" fill="#163f59"/>
      <path id="Trazado_2548" data-name="Trazado 2548" d="M4626.368,2410.167s-.064-6.872-.9-8.655-1.394-3.035-3.739-2.608c-3.512.633-3.353,1.373-5.306.792s-5.638-2.268-6.737-2.232c-1.831.055-4.362,1.372-3.578,4.625a3.713,3.713,0,0,1-.695,3.477c.211.255.914.356,2.153.6,3.553.7,5.514.5,7.734-.787s6.307-3.867,7.312-2.242,2.292,7.1,2.618,7.455S4626.035,2410.595,4626.368,2410.167Z" transform="translate(-4605.18 -2397.463)" fill="#194866"/>
      <path id="Trazado_2549" data-name="Trazado 2549" d="M4637.266,2425.433a.865.865,0,0,0,1.062.6l2.433-.668a.863.863,0,0,0,.6-1.062l-1.22-4.439a.868.868,0,0,0-1.066-.6l-2.429.669a.866.866,0,0,0-.6,1.063Z" transform="translate(-4618.244 -2406.755)" fill="#e9d6b8"/>
      <path id="Trazado_2550" data-name="Trazado 2550" d="M4611.991,2432.393a.869.869,0,0,0,1.066.608l2.428-.669a.867.867,0,0,0,.6-1.063l-1.223-4.441a.863.863,0,0,0-1.062-.6l-2.427.67a.862.862,0,0,0-.6,1.062Z" transform="translate(-4607.456 -2409.729)" fill="#e9d6b8"/>
      <path id="Trazado_2551" data-name="Trazado 2551" d="M4628.822,2422.7s1.806,6.558,2.412,8.743c.543,1.974.951,6.531-10.211,9.6-6.61,1.821-7.7-3.1-8.146-4.7a14.668,14.668,0,0,1,.543-6.122c.017-.029.746,2.7.746,2.7a5.475,5.475,0,0,1,3.79-3.881c5.07-1.393,7.033,1.253,9.253.59C4628.915,2429.12,4629.437,2425.96,4628.822,2422.7Z" transform="translate(-4608.312 -2408.236)" fill="#194866"/>
      <path id="Trazado_2552" data-name="Trazado 2552" d="M4624.063,2439.131l-3.469.959a.867.867,0,0,1-1.061-.607l-.135-.482,5.134-1.418.134.488A.859.859,0,0,1,4624.063,2439.131Z" transform="translate(-4611.152 -2414.593)" fill="#e9d6b8"/>
    </g>
  </g>
  <path id="Trazado_2553" data-name="Trazado 2553" d="M4531.48,2539.571c1.6,4.424,29.641,20.706,39.04,19.741l28.325,1.351c24.088-2.94,35.485-40.366,35.485-40.366-.961-9.4-24.691,4.225-33.146,8.443-13.4,6.688-21.865,7.025-21.865,7.025-8.961.917-19.35-6-30.66-6.237C4536.234,2529.264,4528.957,2532.6,4531.48,2539.571Z" transform="translate(-4523.13 -2427.476)" fill="#041e42"/>
  <g id="Grupo_1313" data-name="Grupo 1313" transform="translate(15.559 80.256)">
    <path id="Trazado_2554" data-name="Trazado 2554" d="M4603.053,2546.932a.163.163,0,0,1,.022-.035v-1.18l-48.755-.887-.021,1.177a.066.066,0,0,0,0,.038l.121.222c.608,1.033,1.73,1.237,3.017,1.26l42.427.772c1.287.026,2.414-.137,3.061-1.148Z" transform="translate(-4548.644 -2519.589)" fill="#b6c2c9"/>
    <path id="Trazado_2555" data-name="Trazado 2555" d="M4618.866,2547.763a.068.068,0,0,0,0,.032l.117.183a1.97,1.97,0,0,0,.7.612l7.414.132c1.238.023,2.321-.1,2.938-.92l.122-.175a.224.224,0,0,0,.022-.034v-.574l-11.3-.207Z" transform="translate(-4576.211 -2520.436)" fill="#d8e5ed"/>
    <g id="Grupo_1311" data-name="Grupo 1311" transform="translate(11.719 25.623)">
      <rect id="Rect치ngulo_2237" data-name="Rect치ngulo 2237" width="0.832" height="24.367" transform="matrix(0.018, -1, 1, 0.018, 0, 0.832)" fill="#879ba6"/>
    </g>
    <g id="Grupo_1312" data-name="Grupo 1312" transform="translate(0 0)">
      <path id="Trazado_2556" data-name="Trazado 2556" d="M4586.843,2526.653l-5.882-24.076a1.6,1.6,0,0,0-1.426-1.17l-34.2-.623a.853.853,0,0,0-.866,1.128l5.887,24.073Z" transform="translate(-4544.431 -2500.784)" fill="#d9e1e4"/>
      <path id="Trazado_2557" data-name="Trazado 2557" d="M4581.735,2521.718a1.648,1.648,0,0,1-1.668,2.186,3.09,3.09,0,0,1-2.759-2.265,1.648,1.648,0,0,1,1.67-2.185A3.079,3.079,0,0,1,4581.735,2521.718Z" transform="translate(-4558.439 -2508.755)" fill="#b6c2c9"/>
    </g>
  </g>
  <path id="Trazado_2558" data-name="Trazado 2558" d="M4646.038,2592.973c-3.376.58-5.945-3.339-5.945-3.339l-8.717-6.862,1.844-4.64,16.974,7.628S4649.412,2592.4,4646.038,2592.973Z" transform="translate(-4565.993 -2453.551)" fill="#e9d6b8"/>
  <path id="Trazado_2559" data-name="Trazado 2559" d="M4646.562,2593.506a8.524,8.524,0,0,0,.642,2.192c.65,1.79,1.448,2.412,2.289,2.661,3.254.958,5.6.474,13.426,1.983s10.173.371,12.463-3.236-.084-6.437-3.9-6.73c-5.525-.417-8.6.215-11.477-.223-3.017-.459-3.207-1.133-4.967-2.217-1.658-1.019-3.183,5.037-1.617,6.442C4654.8,2595.612,4647.734,2595.8,4646.562,2593.506Z" transform="translate(-4572.477 -2457.688)" fill="#041e42"/>
  <path id="Trazado_2560" data-name="Trazado 2560" d="M4649.064,2599.665c3.255.959,5.6.476,13.427,1.983s10.174.371,12.469-3.236a4.166,4.166,0,0,0,.49-4.318c1.72,1.185,2.311,3.255.761,5.691-2.292,3.607-4.637,4.744-12.465,3.236s-10.17-1.023-13.425-1.982a3.014,3.014,0,0,1-1.819-1.612A2.705,2.705,0,0,0,4649.064,2599.665Z" transform="translate(-4573.305 -2460.367)" fill="#e4eef3"/>
  <path id="Trazado_2561" data-name="Trazado 2561" d="M4646.573,2597.85a.8.8,0,0,1-.012-.107,1.043,1.043,0,0,0,.075.12Z" transform="translate(-4572.477 -2461.925)" fill="#e9d6b8"/>
  <g id="Grupo_1314" data-name="Grupo 1314" transform="translate(85.633 131.868)">
    <path id="Trazado_2562" data-name="Trazado 2562" d="M4675.79,2597.888c.252.091.476-.379.554-1.046a18.877,18.877,0,0,1,.9-4.031c.226-.662.222-1.246-.052-1.319s-.717.4-.933,1.042a18.949,18.949,0,0,0-.856,3.988C4675.34,2597.181,4675.539,2597.789,4675.79,2597.888Z" transform="translate(-4670.418 -2591.12)" fill="#fff"/>
    <path id="Trazado_2563" data-name="Trazado 2563" d="M4671.539,2597.4c.269.055.509-.408.58-1.032a17.31,17.31,0,0,1,.9-3.795c.221-.622.207-1.158-.084-1.2s-.744.432-.955,1.051a17.049,17.049,0,0,0-.845,3.754C4671.069,2596.8,4671.28,2597.341,4671.539,2597.4Z" transform="translate(-4668.595 -2591.074)" fill="#fff"/>
    <path id="Trazado_2564" data-name="Trazado 2564" d="M4667.115,2597.064c.273.038.547-.454.647-1.1a19.4,19.4,0,0,1,1.06-3.914c.246-.642.249-1.185-.058-1.2s-.781.488-1.021,1.124a18.994,18.994,0,0,0-1.008,3.875C4666.646,2596.486,4666.838,2597.03,4667.115,2597.064Z" transform="translate(-4666.713 -2590.85)" fill="#fff"/>
  </g>
  <path id="Trazado_2565" data-name="Trazado 2565" d="M4602.728,2566.106s-59.909-24.63-63.333-24.667c-11.57-.107-8.919,11.6-3.055,17.111,6.917,6.5,59.515,18.392,59.515,18.392Z" transform="translate(-4523.277 -2437.885)" fill="#01109a"/>
  <path id="Trazado_2566" data-name="Trazado 2566" d="M4608.139,2575.252l16.355-15.505-6.97-6.9-17.859,18.77Z" transform="translate(-4552.455 -2442.755)" fill="#e9d6b8"/>
  <path id="Trazado_2567" data-name="Trazado 2567" d="M4608.539,2540.777s41.619-38.151,44.428-39.289c9.5-3.856,15.387,6.635,15.053,10.261-.435,4.7-42.719,42.908-42.719,42.908Z" transform="translate(-4556.242 -2420.471)" fill="#061acb"/>
  <path id="Trazado_2568" data-name="Trazado 2568" d="M4564.65,2588.144c-.973.9-1.141,3.542-1.141,3.542s13.89,5.253,18.769,5.348a24.75,24.75,0,0,0,5.731-1.089c.37-.1,1.215-1.051,1.573-1.157.665-.194.816.452,1.388.271a16.661,16.661,0,0,0,2.57-.949c2.936-6.236,1.943-9.308,1.943-9.308s-6.381,1.826-5.289.4c2.34-3.056-4.348-6.186-5.839-4.555C4578.411,2587.153,4567.47,2585.543,4564.65,2588.144Z" transform="translate(-4537.018 -2454.434)" fill="#041e42"/>
  <path id="Trazado_2569" data-name="Trazado 2569" d="M4563.878,2596.323c4.269,1.7,13.24,5.2,15.026,5.323,7.308.521,12.418-2.077,15.833-3.6a27.227,27.227,0,0,1-1.194,2.953,16.752,16.752,0,0,1-2.57.949c-.572.182-.724-.464-1.388-.271-.358.107-1.2,1.06-1.573,1.157a24.758,24.758,0,0,1-5.731,1.09c-4.879-.095-18.769-5.348-18.769-5.348A9.659,9.659,0,0,1,4563.878,2596.323Z" transform="translate(-4537.018 -2461.318)" fill="#e4eef3"/>
  <g id="Grupo_1316" data-name="Grupo 1316" transform="translate(36.658 128.681)">
    <path id="Trazado_2570" data-name="Trazado 2570" d="M4581.269,2589.061c-.128.24.414.523,1.194.688a26.417,26.417,0,0,1,4.69,1.42c.758.312,1.452.38,1.559.118s-.422-.77-1.169-1.068a26.445,26.445,0,0,0-4.641-1.369C4582.128,2588.7,4581.4,2588.82,4581.269,2589.061Z" transform="translate(-4581.25 -2586.781)" fill="#fff"/>
    <path id="Trazado_2571" data-name="Trazado 2571" d="M4586.706,2587.169c-.117.25.412.6,1.172.816a26.806,26.806,0,0,1,4.532,1.785c.728.367,1.4.48,1.495.2s-.406-.834-1.129-1.19a26.422,26.422,0,0,0-4.495-1.723C4587.532,2586.849,4586.823,2586.926,4586.706,2587.169Z" transform="translate(-4583.573 -2585.991)" fill="#fff"/>
    <path id="Trazado_2572" data-name="Trazado 2572" d="M4591.943,2585.5c-.109.257.405.659,1.145.938a26.863,26.863,0,0,1,4.37,2.128c.7.417,1.34.573,1.428.281s-.385-.9-1.079-1.306a26.5,26.5,0,0,0-4.34-2.066C4592.739,2585.2,4592.053,2585.239,4591.943,2585.5Z" transform="translate(-4585.81 -2585.287)" fill="#fff"/>
  </g>
  <path id="Trazado_1005" data-name="Trazado 1005" d="M19.69,31.617c10.875,0,19.69,8.133,19.69,18.166a16.932,16.932,0,0,1-1.818,7.631l4.658,8.422a1.329,1.329,0,0,1-1.515,1.925l-10.2-2.8A20.79,20.79,0,0,1,19.69,67.95C8.815,67.95,0,59.817,0,49.783S8.815,31.617,19.69,31.617Zm-9.6,24.927c1.661,3.095,5.824,5.134,9.324,5.32q.266.014.531.014c3.338,0,7.475-1.675,9.354-4.456a10.181,10.181,0,0,0,.531-.879A1.436,1.436,0,1,0,27.3,55.186a7.253,7.253,0,0,1-.38.629c-1.417,2.1-4.826,3.316-7.352,3.181-2.5-.134-5.757-1.594-6.946-3.811a1.436,1.436,0,1,0-2.53,1.358Z" transform="translate(0 -31.617)" fill="#bfc3ff"/>
</svg>
