<svg id="Grupo_1369" data-name="Grupo 1369" xmlns="http://www.w3.org/2000/svg" width="88.387" height="143.898" viewBox="0 0 88.387 143.898">
  <path id="Trazado_2673" data-name="Trazado 2673" d="M1132.335,1686.205a5.3,5.3,0,0,1-5.3,5.3l-1.325-2.519c-2.929,0-5.3-4.412-5.3-7.339v-1.989a5.3,5.3,0,0,1,5.3-5.3h1.325a5.3,5.3,0,0,1,5.3,5.3Z" transform="translate(-1085.038 -1647.764)" fill="#2e45fa"/>
  <path id="Trazado_2674" data-name="Trazado 2674" d="M1112.01,1687.49a7.367,7.367,0,0,0-.856.056,6.835,6.835,0,0,1-6.1,7.92,7.036,7.036,0,1,0,6.958-7.976Z" transform="translate(-1075.789 -1655.673)" fill="#2e45fa"/>
  <path id="Trazado_2675" data-name="Trazado 2675" d="M1133.331,1679.42a10.421,10.421,0,0,1-.126,1.493c-.536,3.4-2.6,5.989-4.866,6.309a16.089,16.089,0,0,1-.751,4.1,8.017,8.017,0,0,1-1.995,2.762c-.383,2.378,7.71,5.869,7.515,5.486a23.407,23.407,0,0,1-2.838-5.752,5.234,5.234,0,0,1,.815-4.287,4.335,4.335,0,0,1,3.1-1.468.609.609,0,0,0,.446-.194,3.741,3.741,0,0,0,.167-1.109v-4.373A3.743,3.743,0,0,0,1133.331,1679.42Z" transform="translate(-1088.154 -1650.812)" fill="#e9d6b8"/>
  <path id="Trazado_2676" data-name="Trazado 2676" d="M1118.992,1737.264c-.891,2.193-6.114,2.172-7.009-.022l-4.913-15.8c-.183-1.642-.116-4.012,1.974-4.012h5.633l2.564,1.23,2.256-1.23h1.36c2.091,0,3.067,1.8,2.174,3.988Z" transform="translate(-1076.965 -1673.705)" fill="#dbdac6"/>
  <path id="Trazado_2677" data-name="Trazado 2677" d="M1093.623,1762.128s-1,.627-4.033-3.38a57.6,57.6,0,0,1-3.629-5.593c-1.413-2.431,1.363-.579,1.363-.579l3.995,4.063S1094.193,1760.06,1093.623,1762.128Z" transform="translate(-1064.048 -1694.472)" fill="#dbdac6"/>
  <path id="Trazado_2678" data-name="Trazado 2678" d="M1105.372,1718.338c-2.147,4.817-1.849,22.594-1.849,22.594s1.689,6.514,3.865-17C1108.043,1716.873,1105.9,1717.148,1105.372,1718.338Z" transform="translate(-1074.859 -1673.862)" fill="#dbdac6"/>
  <path id="Trazado_2679" data-name="Trazado 2679" d="M1141.53,1720.675l5.074,15.3s.347,1.06-.718.358c-1.495-.98-4.851-4.546-7.839-11.648C1135.857,1719.479,1140.177,1720.383,1141.53,1720.675Z" transform="translate(-1095.298 -1675.513)" fill="#dbdac6"/>
  <path id="Trazado_2680" data-name="Trazado 2680" d="M1073.411,1731.367l-.248,1.42.113,1.171.9,1.687a12.736,12.736,0,0,0,1.835,2.139c.666.47,2.452,2.937,2.747,3.191s1.286-.287,1.286-.287-1.755-2.172-2.622-3.122a28.117,28.117,0,0,1-1.966-3.115,5.656,5.656,0,0,0-1.192-1.049s.679,1.17.893,1.454-.219.375-.219.375a11.438,11.438,0,0,1-1.225-2.02,3.086,3.086,0,0,1-.048-1.012Z" transform="translate(-1056.58 -1682.102)" fill="#e9d6b8"/>
  <path id="Trazado_2681" data-name="Trazado 2681" d="M1143.211,1860.288c-.238-.849-.406-1.71-.621-2.545-.831-1.3-1.585-2.035-2.2-2.039-2.327-.014-3.564,7.94,1.2,23.107.265.845,4.432,16.1,4.438,15.489C1146.124,1881.966,1144.074,1863.37,1143.211,1860.288Z" transform="translate(-1095.835 -1756.999)" fill="#e9d6b8"/>
  <path id="Trazado_2682" data-name="Trazado 2682" d="M1094.485,1859.339c.187-.868.437-1.7.64-2.543-.127-1.542-.455-2.539-1-2.828-2.053-1.1-6.852,5.361-9.715,21-.16.87-3.589,16.311-3.3,15.77C1086.956,1879.871,1093.812,1862.467,1094.485,1859.339Z" transform="translate(-1061.36 -1755.881)" fill="#e9d6b8"/>
  <path id="Trazado_2683" data-name="Trazado 2683" d="M1127.754,1717.027l-1.055,1.418-2.765-2.4.983-1.018Z" transform="translate(-1087.162 -1672.26)" fill="#c9c8b6"/>
  <path id="Trazado_2684" data-name="Trazado 2684" d="M1136.461,1715.231l-1.364,1.583,1.582,1.61.628-2.4Z" transform="translate(-1093.887 -1672.383)" fill="#c9c8b6"/>
  <path id="Trazado_2685" data-name="Trazado 2685" d="M1131.477,1738.745l.894-.246c1.511-6.488,2.344-13.211.608-19.319a1.89,1.89,0,0,1-.881.2C1133.856,1725.624,1133.031,1732.1,1131.477,1738.745Z" transform="translate(-1091.707 -1674.762)" fill="#c9c8b6"/>
  <path id="Trazado_2686" data-name="Trazado 2686" d="M1119.608,1808.668a9.062,9.062,0,0,0,.165-1.747c-.123-3.548.021-7.152-.554-13.889a181.048,181.048,0,0,0-4.624-27.421,14.917,14.917,0,0,0-.969-2.927c-2.517-.352-5.077,1.361-7.689,2.1a25.6,25.6,0,0,0-2.371,6.476c-2.835,11.6-4.254,18.3-5,23.92-.76,5.449-.849,9.823-1.235,12.729C1104.526,1819.889,1111.947,1797.586,1119.608,1808.668Z" transform="translate(-1071.134 -1700.938)" fill="#bfc3fd"/>
  <g id="Grupo_1359" data-name="Grupo 1359" transform="translate(50.294 34.952)">
    <path id="Trazado_2687" data-name="Trazado 2687" d="M1158.3,1728.569s-1.06-.318.47-6.032a120.994,120.994,0,0,1,5.065-13.756l-2.412,13.477S1160.278,1727.379,1158.3,1728.569Z" transform="translate(-1157.943 -1703.45)" fill="#e9d6b8"/>
    <path id="Trazado_2688" data-name="Trazado 2688" d="M1167.411,1705.1c.651-2.736-.316-4.2-.445-5.374a19.676,19.676,0,0,0-.453-2.39c.922.856.741,1.748.98,2.269s.093.368.392-.592c.169-.544-.488-1.723-.812-2.539a2.4,2.4,0,0,1-.228-1.094,11.62,11.62,0,0,1,1.242,1.987,14.468,14.468,0,0,1,1.062,3.156,12.123,12.123,0,0,1-.78,3.744C1167.842,1705.689,1166.942,1707.068,1167.411,1705.1Z" transform="translate(-1163.106 -1695.374)" fill="#e9d6b8"/>
    <path id="Trazado_2689" data-name="Trazado 2689" d="M1171.353,1702.227a16.464,16.464,0,0,0-.15-2.631c-.115-.3-.883-1.6-.883-1.6a2.97,2.97,0,0,0,.208,1.354A24.322,24.322,0,0,1,1171.353,1702.227Z" transform="translate(-1165.395 -1696.951)" fill="#e9d6b8"/>
  </g>
  <path id="Trazado_2690" data-name="Trazado 2690" d="M1161.8,1725.652a36.017,36.017,0,0,1-2.656,11.79c-.2.543-.416,1.077-.632,1.6-.331.795-1.716-.3-1.642-1.758.141-2.823,1.261-6.077,2.852-10.266q.408-1.078.843-2.089A10.17,10.17,0,0,1,1161.8,1725.652Z" transform="translate(-1107.003 -1678.222)" fill="#dbdac6"/>
  <path id="Trazado_2691" data-name="Trazado 2691" d="M1161.544,1940.532a16.594,16.594,0,0,0-2.98.453c-1.251.265-2.127.643-2.725.384-.988-.427-1.741-4.757-1.878-7.9-.016-.35-2.15-1.174-2.05-.786a55.543,55.543,0,0,1,1.478,9c.209,1.2.757,2.28,1.346,2.318,1.154.077,6.472-2.362,6.9-2.581S1161.638,1940.373,1161.544,1940.532Z" transform="translate(-1104.014 -1803.305)" fill="#e9d6b8"/>
  <path id="Trazado_2692" data-name="Trazado 2692" d="M1074.682,1946.824c-.5,3.05-.258,5.635.55,5.769s1.868-2.235,2.372-5.287.258-5.63-.546-5.767S1075.187,1943.773,1074.682,1946.824Z" transform="translate(-1057.339 -1808.7)" fill="#6855c1"/>
  <path id="Trazado_2693" data-name="Trazado 2693" d="M1076.041,1938.011c-.7,2.171-.4,4.314.408,4.448s1.676-1.536,1.946-3.8c.344-2.87.163-4.075,1.092-5.635.956-1.6,1.1-3.209.888-3.451s-1.292.363-1.436,1.2a8.14,8.14,0,0,1-.932,2.58A21.767,21.767,0,0,0,1076.041,1938.011Z" transform="translate(-1058.08 -1801.463)" fill="#e9d6b8"/>
  <path id="Trazado_2694" data-name="Trazado 2694" d="M1163.255,1952.338c.85,1.158-3.325,2.306-4.489,2.4a12.511,12.511,0,0,0-1.78.254l-.125.043a.635.635,0,0,0,.024.1c.3.709.383,1.781,1.513,1.3l7.094-2.987C1171.289,1951.015,1163.238,1952.313,1163.255,1952.338Z" transform="translate(-1106.997 -1814.986)" fill="#6855c1"/>
  <g id="Grupo_1363" data-name="Grupo 1363" transform="translate(0 47.535)">
    <path id="Trazado_2695" data-name="Trazado 2695" d="M1044.97,1764.539c-10.508-4.952-16.052-15.715-12.374-24.041s15.175-11.056,25.683-6.1,16.047,15.712,12.373,24.036S1055.48,1769.49,1044.97,1764.539Z" transform="translate(-1031.46 -1729.974)" fill="#f4901e"/>
    <path id="Trazado_2696" data-name="Trazado 2696" d="M1048.909,1759.633c-10.506-4.952-16.052-15.714-12.376-24.039s15.178-11.058,25.687-6.106,16.044,15.712,12.37,24.04S1059.419,1764.584,1048.909,1759.633Z" transform="translate(-1033.832 -1727.019)" fill="#f1b434"/>
    <path id="Trazado_2697" data-name="Trazado 2697" d="M1078,1739.258c8.025,3.776,12.253,12,9.444,18.351a10.646,10.646,0,0,1-6.193,5.627,10.866,10.866,0,0,0,7.04-5.912c2.8-6.357-1.422-14.576-9.444-18.355a17.484,17.484,0,0,0-13.411-.962A17.766,17.766,0,0,1,1078,1739.258Z" transform="translate(-1051.925 -1733.084)" fill="#f4901e"/>
    <g id="Grupo_1362" data-name="Grupo 1362" transform="translate(13.249 10.953)">
      <path id="Trazado_2698" data-name="Trazado 2698" d="M1064.78,1759.338l2.481-4.773.6.314a9.22,9.22,0,0,1-.022,1.038,7.817,7.817,0,0,1-.136,1l10.265,5.331,1.2.707a4.1,4.1,0,0,1,.169-1.116,4.916,4.916,0,0,1,.453-1.05l.544.179a13.957,13.957,0,0,0-.023,1.958,7.876,7.876,0,0,0,.408,2.1l-.214.407-13.564-7.049a8.481,8.481,0,0,1-.728.66q-.391.315-.832.606Z" transform="translate(-1064.78 -1754.565)" fill="#f4901e"/>
    </g>
  </g>
  <g id="Grupo_1365" data-name="Grupo 1365" transform="translate(48.459 0)">
    <path id="Trazado_2699" data-name="Trazado 2699" d="M1190.207,1624.771c4.534,10.752.372,22.876-9.305,27.075s-21.2-1.118-25.737-11.877-.37-22.87,9.307-27.067S1185.671,1614.015,1190.207,1624.771Z" transform="translate(-1153.329 -1609.877)" fill="#f4901e"/>
    <path id="Trazado_2700" data-name="Trazado 2700" d="M1193.263,1620.782c4.533,10.755.371,22.877-9.306,27.074s-21.2-1.119-25.737-11.873-.371-22.873,9.307-27.073S1188.726,1610.027,1193.263,1620.782Z" transform="translate(-1155.169 -1607.474)" fill="#f1b434"/>
    <path id="Trazado_2701" data-name="Trazado 2701" d="M1172.817,1642.123c-3.465-8.208-.28-17.463,7.106-20.669a13.527,13.527,0,0,1,9.549-.423,13.631,13.631,0,0,0-10.463.1c-7.388,3.2-10.575,12.459-7.111,20.67a16.594,16.594,0,0,0,10.1,9.486A16.718,16.718,0,0,1,1172.817,1642.123Z" transform="translate(-1163.672 -1615.041)" fill="#f4901e"/>
    <g id="Grupo_1364" data-name="Grupo 1364" transform="translate(16.547 12.184)">
      <path id="Trazado_2702" data-name="Trazado 2702" d="M1206.25,1653.172l-5.854,2.167-.239-.644c.275-.286.558-.557.853-.808a10.913,10.913,0,0,1,.915-.7l-4.032-10.9-.4-1.339a5.192,5.192,0,0,1-1.036.772,6.62,6.62,0,0,1-1.215.54l-.3-.5a18.075,18.075,0,0,0,1.6-1.537,9.011,9.011,0,0,0,1.361-1.93l.5-.182,5.329,14.4a10.653,10.653,0,0,1,1.12-.048c.381,0,.767.023,1.163.06Z" transform="translate(-1194.942 -1638.115)" fill="#f4901e"/>
    </g>
  </g>
</svg>
