<svg id="Grupo_1370" data-name="Grupo 1370" xmlns="http://www.w3.org/2000/svg" width="121.885" height="156.241" viewBox="0 0 121.885 156.241">
  <g id="Grupo_1310" data-name="Grupo 1310" transform="translate(41.729 22.948)">
    <path id="Trazado_2537" data-name="Trazado 2537" d="M4632.926,2429.05c5.465,1.376,15.538,6.275,17.648,14.652,3.163,12.579-3.168,31.043,6.857,49.107,3.2,5.754-55.395,13.495-55.395,13.495l-11.306-63.557s14.123-13.8,17.013-14.726C4613.725,2426.1,4622,2426.3,4632.926,2429.05Z" transform="translate(-4586.567 -2408.453)" fill="#86c0f0"/>
    <g id="Grupo_1306" data-name="Grupo 1306" transform="translate(0 34.204)">
      <path id="Trazado_2538" data-name="Trazado 2538" d="M4588.139,2452.335c-2.035,5.079-7.176,35.293-1.444,42.416.66.823-2.975,2.1-2.318,5.863.112.63,1.208,3.625,1.208,3.625l4.683,1.22,14.15-8.054-2.71-3.3-1.283.024a2.883,2.883,0,0,1-.873-2.516c.333-1.385-3.247-3.639-8.66-27.087C4589.3,2457.629,4588.586,2451.215,4588.139,2452.335Z" transform="translate(-4584.069 -2452.207)" fill="#74b2e8"/>
      <path id="Trazado_2539" data-name="Trazado 2539" d="M4596.444,2517.293l4.186-.923,1.7-.269a3.105,3.105,0,0,0,.93,2l-3.245.1-3.8.816-4.594,2.619Z" transform="translate(-4586.9 -2476.181)" fill="#ecb60d"/>
    </g>
    <path id="Trazado_2540" data-name="Trazado 2540" d="M4603.589,2524.257a12.553,12.553,0,0,0-5.994,1.657c-2.1,1.293-4.026,4.1-2.1,5.622a31.183,31.183,0,0,0,4.9,2.94S4607.764,2534.679,4603.589,2524.257Z" transform="translate(-4588.059 -2445.037)" fill="#c4d1e1"/>
    <path id="Trazado_2541" data-name="Trazado 2541" d="M4595.6,2535.647l1.972-.422s6.788-.614,7.754-.085,4.079,2.633,4.079,2.633l.64.59a3.277,3.277,0,0,1-3.555-.486c-2.049-1.429-2.215-.331-2.215-.331l.34,1.81-.027,2.307.315.975s.286.527.063.721a1.288,1.288,0,0,1-1.29.295l-2.063-3.606-.561,3.922a1.433,1.433,0,0,1-.926.669c-.608.131-.613-.029-.613-.029l-.464-1a1.243,1.243,0,0,1-.412.684,1.98,1.98,0,0,1-1.23.347l.192-4.129-.847,2.1a1.548,1.548,0,0,1-.926.669c-.686.161-.87.212-.87.212Z" transform="translate(-4588.152 -2449.039)" fill="#e4eef3"/>
    <g id="Grupo_1308" data-name="Grupo 1308" transform="translate(17.887 26.796)">
      <g id="Grupo_1307" data-name="Grupo 1307" transform="translate(5.285)">
        <path id="Trazado_2542" data-name="Trazado 2542" d="M4640.585,2507.366s-4.928,12.483-16.766,15.822c-2.05.58-3.308,2.794-2.32,3.5,1.266.912,3,1.111,5.973,1.1,6.189-.013,14.613-1.94,20.441-7.579,8.627-8.346,11.343-12.141,10.468-16.341S4640.585,2507.366,4640.585,2507.366Z" transform="translate(-4621.157 -2463.713)" fill="#e9d6b8"/>
        <path id="Trazado_2543" data-name="Trazado 2543" d="M4668.815,2444.6c2.506,4.118,3.955,10.736,3.938,20.205-.017,7.327-6.339,19.329-7.31,23.018-.162.616-.547,3.258-.547,3.258l-7.008,6.874-14.058-9.523,4.273-6.559,1.274.132a21.675,21.675,0,0,0,.591-5.028c-.221-1.406,3.893-20.312,5.926-32.43C4657.067,2437.567,4666.332,2440.514,4668.815,2444.6Z" transform="translate(-4629.665 -2440.351)" fill="#74b2e8"/>
        <path id="Trazado_2544" data-name="Trazado 2544" d="M4659.563,2505.631l-4.091-1.27-1.667-.412a3.1,3.1,0,0,1-1.1,1.919l3.222.373,3.724,1.135,4.358,3Z" transform="translate(-4632.995 -2464.213)" fill="#86c0f0"/>
      </g>
      <path id="Trazado_2545" data-name="Trazado 2545" d="M4621.548,2534.3l-7.159-1.962s-2.026,2.721-1.643,3.4,0,4.7,0,4.7l3.468,2.947,2.822-.937s.2-1.231-.767-1.35.652-.821,1.156-1.11S4624.08,2537.561,4621.548,2534.3Z" transform="translate(-4612.698 -2474.866)" fill="#e9d6b8"/>
    </g>
    <rect id="Rect치ngulo_2236" data-name="Rect치ngulo 2236" width="13.057" height="19.689" rx="6.529" transform="translate(20.316 9.859) rotate(-19.324)" fill="#e4eef3"/>
    <g id="Grupo_1309" data-name="Grupo 1309" transform="translate(13.083)">
      <path id="Trazado_2546" data-name="Trazado 2546" d="M4612.985,2428.9a2.824,2.824,0,0,0,3.474,1.971l12.255-3.376a2.825,2.825,0,0,0,1.972-3.475l-5-18.154a2.822,2.822,0,0,0-3.473-1.971l-12.255,3.375a2.829,2.829,0,0,0-1.973,3.476Z" transform="translate(-4606.085 -2399.837)" fill="#e9d6b8"/>
      <path id="Trazado_2547" data-name="Trazado 2547" d="M4607.917,2416.89a10.837,10.837,0,0,1-2.731-2.3,4.237,4.237,0,0,1,.8-3.882c1.143-1.17,2.683-.009,2.683-.009s-1.841,1.811-1.83,2.3S4607.917,2416.89,4607.917,2416.89Z" transform="translate(-4605.008 -2402.237)" fill="#163f59"/>
      <path id="Trazado_2548" data-name="Trazado 2548" d="M4628.259,2411.314s-.069-7.492-.978-9.436-1.52-3.309-4.077-2.843c-3.829.691-3.656,1.5-5.785.863s-6.146-2.472-7.345-2.434c-2,.061-4.756,1.5-3.9,5.042a4.045,4.045,0,0,1-.757,3.791c.23.278,1,.388,2.348.655,3.874.763,6.012.54,8.433-.858s6.875-4.216,7.972-2.445,2.5,7.738,2.854,8.128S4627.9,2411.781,4628.259,2411.314Z" transform="translate(-4605.159 -2397.463)" fill="#194866"/>
      <path id="Trazado_2549" data-name="Trazado 2549" d="M4637.38,2425.993a.943.943,0,0,0,1.157.655l2.652-.729a.942.942,0,0,0,.654-1.159l-1.331-4.84a.946.946,0,0,0-1.162-.659l-2.648.73a.945.945,0,0,0-.658,1.158Z" transform="translate(-4616.64 -2405.629)" fill="#e9d6b8"/>
      <path id="Trazado_2550" data-name="Trazado 2550" d="M4612.1,2432.953a.948.948,0,0,0,1.163.663l2.647-.729a.946.946,0,0,0,.655-1.159l-1.333-4.843a.94.94,0,0,0-1.158-.657l-2.646.73a.94.94,0,0,0-.658,1.157Z" transform="translate(-4607.159 -2408.243)" fill="#e9d6b8"/>
      <path id="Trazado_2551" data-name="Trazado 2551" d="M4630.273,2422.7s1.97,7.15,2.629,9.532c.592,2.152,1.037,7.12-11.134,10.472-7.207,1.985-8.4-3.383-8.881-5.121a15.973,15.973,0,0,1,.593-6.675c.018-.031.813,2.948.813,2.948a5.968,5.968,0,0,1,4.132-4.232c5.527-1.519,7.668,1.367,10.088.643C4630.375,2429.7,4630.943,2426.255,4630.273,2422.7Z" transform="translate(-4607.911 -2406.931)" fill="#194866"/>
      <path id="Trazado_2552" data-name="Trazado 2552" d="M4624.483,2439.271l-3.782,1.046a.945.945,0,0,1-1.156-.661l-.147-.525,5.6-1.546.146.532A.936.936,0,0,1,4624.483,2439.271Z" transform="translate(-4610.407 -2412.517)" fill="#e9d6b8"/>
    </g>
  </g>
  <path id="Trazado_2553" data-name="Trazado 2553" d="M4531.525,2541.6c1.744,4.823,32.318,22.575,42.565,21.523l30.882,1.473c26.263-3.205,38.688-44.011,38.688-44.011-1.048-10.246-26.92,4.606-36.139,9.205-14.606,7.292-23.84,7.659-23.84,7.659-9.771,1-21.1-6.537-33.428-6.8C4536.708,2530.366,4528.773,2534,4531.525,2541.6Z" transform="translate(-4522.422 -2419.388)" fill="#041e42"/>
  <g id="Grupo_1313" data-name="Grupo 1313" transform="translate(16.964 87.502)">
    <path id="Trazado_2554" data-name="Trazado 2554" d="M4607.456,2547.122a.17.17,0,0,1,.024-.038V2545.8l-53.157-.967-.023,1.283a.069.069,0,0,0,0,.042l.131.242c.663,1.126,1.887,1.349,3.29,1.375l46.258.841c1.4.028,2.632-.15,3.337-1.251Z" transform="translate(-4548.133 -2517.31)" fill="#b6c2c9"/>
    <path id="Trazado_2555" data-name="Trazado 2555" d="M4618.866,2547.849a.074.074,0,0,0,0,.035l.128.2a2.152,2.152,0,0,0,.765.667l8.083.144c1.35.025,2.531-.111,3.2-1l.134-.19a.226.226,0,0,0,.024-.037l0-.626-12.317-.225Z" transform="translate(-4572.359 -2518.054)" fill="#d8e5ed"/>
    <g id="Grupo_1311" data-name="Grupo 1311" transform="translate(12.777 27.937)">
      <rect id="Rect치ngulo_2237" data-name="Rect치ngulo 2237" width="0.907" height="26.567" transform="matrix(0.018, -1, 1, 0.018, 0, 0.907)" fill="#879ba6"/>
    </g>
    <g id="Grupo_1312" data-name="Grupo 1312" transform="translate(0 0)">
      <path id="Trazado_2556" data-name="Trazado 2556" d="M4590.672,2528.989l-6.413-26.249a1.742,1.742,0,0,0-1.555-1.275l-37.292-.679a.93.93,0,0,0-.944,1.23l6.418,26.247Z" transform="translate(-4544.431 -2500.784)" fill="#d9e1e4"/>
      <path id="Trazado_2557" data-name="Trazado 2557" d="M4582.141,2521.922a1.8,1.8,0,0,1-1.819,2.384,3.369,3.369,0,0,1-3.008-2.47,1.8,1.8,0,0,1,1.821-2.383A3.357,3.357,0,0,1,4582.141,2521.922Z" transform="translate(-4556.741 -2507.789)" fill="#b6c2c9"/>
    </g>
  </g>
  <path id="Trazado_2558" data-name="Trazado 2558" d="M4647.361,2594.313c-3.682.632-6.482-3.641-6.482-3.641l-9.5-7.481,2.01-5.059,18.506,8.317S4651.04,2593.686,4647.361,2594.313Z" transform="translate(-4560.09 -2442.302)" fill="#e9d6b8"/>
  <path id="Trazado_2559" data-name="Trazado 2559" d="M4646.561,2594.02a9.325,9.325,0,0,0,.7,2.39c.709,1.951,1.579,2.629,2.5,2.9,3.548,1.045,6.1.517,14.638,2.162s11.091.4,13.589-3.529-.092-7.018-4.255-7.338c-6.023-.454-9.38.234-12.513-.244-3.289-.5-3.5-1.236-5.415-2.417-1.809-1.111-3.47,5.492-1.764,7.023C4655.543,2596.316,4647.84,2596.522,4646.561,2594.02Z" transform="translate(-4565.787 -2445.938)" fill="#041e42"/>
  <path id="Trazado_2560" data-name="Trazado 2560" d="M4649.115,2600.168c3.549,1.045,6.107.519,14.639,2.162s11.093.4,13.595-3.528c1.154-1.819,1.208-3.442.534-4.708,1.876,1.292,2.52,3.549.83,6.2-2.5,3.932-5.056,5.172-13.59,3.528s-11.089-1.116-14.637-2.161a3.285,3.285,0,0,1-1.983-1.757A2.947,2.947,0,0,0,4649.115,2600.168Z" transform="translate(-4566.515 -2448.292)" fill="#e4eef3"/>
  <path id="Trazado_2561" data-name="Trazado 2561" d="M4646.574,2597.86a.84.84,0,0,1-.013-.117,1.332,1.332,0,0,0,.083.131C4646.621,2597.871,4646.6,2597.865,4646.574,2597.86Z" transform="translate(-4565.787 -2449.661)" fill="#e9d6b8"/>
  <g id="Grupo_1314" data-name="Grupo 1314" transform="translate(93.365 143.775)">
    <path id="Trazado_2562" data-name="Trazado 2562" d="M4675.826,2598.466c.275.1.519-.413.6-1.141a20.561,20.561,0,0,1,.985-4.4c.246-.721.242-1.359-.057-1.438s-.781.433-1.017,1.136a20.633,20.633,0,0,0-.934,4.348C4675.335,2597.7,4675.552,2598.359,4675.826,2598.466Z" transform="translate(-4669.969 -2591.088)" fill="#fff"/>
    <path id="Trazado_2563" data-name="Trazado 2563" d="M4671.577,2597.945c.293.06.555-.445.632-1.125a18.863,18.863,0,0,1,.977-4.137c.24-.678.226-1.263-.092-1.3s-.812.471-1.041,1.146a18.567,18.567,0,0,0-.921,4.093C4671.064,2597.29,4671.293,2597.879,4671.577,2597.945Z" transform="translate(-4668.367 -2591.047)" fill="#fff"/>
    <path id="Trazado_2564" data-name="Trazado 2564" d="M4667.151,2597.625c.3.041.6-.495.706-1.2a21.135,21.135,0,0,1,1.155-4.268c.269-.7.271-1.291-.063-1.307s-.851.532-1.113,1.225a20.68,20.68,0,0,0-1.1,4.225C4666.639,2596.995,4666.85,2597.588,4667.151,2597.625Z" transform="translate(-4666.713 -2590.85)" fill="#fff"/>
  </g>
  <path id="Trazado_2565" data-name="Trazado 2565" d="M4609.175,2568.333s-65.319-26.854-69.052-26.894c-12.615-.117-9.725,12.65-3.331,18.656,7.541,7.084,64.888,20.052,64.888,20.052Z" transform="translate(-4522.551 -2428.535)" fill="#01109a"/>
  <path id="Trazado_2566" data-name="Trazado 2566" d="M4608.9,2577.276l17.833-16.905-7.6-7.527-19.471,20.465Z" transform="translate(-4548.192 -2432.815)" fill="#e9d6b8"/>
  <path id="Trazado_2567" data-name="Trazado 2567" d="M4608.539,2544.4s45.376-41.6,48.44-42.836c10.357-4.2,16.775,7.234,16.412,11.187-.473,5.122-46.576,46.782-46.576,46.782Z" transform="translate(-4551.521 -2413.231)" fill="#061acb"/>
  <path id="Trazado_2568" data-name="Trazado 2568" d="M4564.753,2588.862c-1.061.981-1.243,3.862-1.243,3.862s15.145,5.728,20.463,5.831a26.986,26.986,0,0,0,6.249-1.188c.4-.106,1.325-1.145,1.715-1.262.725-.211.89.493,1.513.3a18.171,18.171,0,0,0,2.8-1.035c3.2-6.8,2.118-10.148,2.118-10.148s-6.957,1.991-5.766.436c2.552-3.332-4.741-6.744-6.366-4.967C4579.756,2587.781,4567.827,2586.026,4564.753,2588.862Z" transform="translate(-4534.625 -2443.079)" fill="#041e42"/>
  <path id="Trazado_2569" data-name="Trazado 2569" d="M4563.911,2596.323c4.654,1.852,14.436,5.672,16.382,5.8,7.968.569,13.54-2.264,17.262-3.93a29.693,29.693,0,0,1-1.3,3.219,18.261,18.261,0,0,1-2.8,1.035c-.624.2-.789-.506-1.513-.3-.39.116-1.312,1.156-1.715,1.262a26.988,26.988,0,0,1-6.249,1.188c-5.319-.1-20.463-5.831-20.463-5.831A10.5,10.5,0,0,1,4563.911,2596.323Z" transform="translate(-4534.625 -2449.128)" fill="#e4eef3"/>
  <g id="Grupo_1316" data-name="Grupo 1316" transform="translate(39.968 140.299)">
    <path id="Trazado_2570" data-name="Trazado 2570" d="M4581.271,2589.086c-.14.261.451.571,1.3.75a28.869,28.869,0,0,1,5.114,1.549c.827.341,1.583.415,1.7.129s-.46-.839-1.275-1.165a28.793,28.793,0,0,0-5.06-1.492C4582.208,2588.693,4581.411,2588.824,4581.271,2589.086Z" transform="translate(-4581.25 -2586.599)" fill="#fff"/>
    <path id="Trazado_2571" data-name="Trazado 2571" d="M4586.708,2587.189c-.127.273.45.65,1.278.89a29.29,29.29,0,0,1,4.942,1.946c.793.4,1.521.524,1.629.222s-.443-.91-1.231-1.3a28.768,28.768,0,0,0-4.9-1.878C4587.608,2586.841,4586.834,2586.925,4586.708,2587.189Z" transform="translate(-4583.292 -2585.906)" fill="#fff"/>
    <path id="Trazado_2572" data-name="Trazado 2572" d="M4591.944,2585.518c-.119.28.442.718,1.248,1.022a29.268,29.268,0,0,1,4.764,2.32c.765.455,1.461.624,1.558.306s-.42-.977-1.177-1.423a28.894,28.894,0,0,0-4.732-2.253C4592.812,2585.2,4592.064,2585.235,4591.944,2585.518Z" transform="translate(-4585.257 -2585.287)" fill="#fff"/>
  </g>
  <path id="Trazado_1005" data-name="Trazado 1005" d="M21.468,31.617c11.856,0,21.468,8.868,21.468,19.807a18.461,18.461,0,0,1-1.982,8.32l5.078,9.182a1.449,1.449,0,0,1-1.652,2.1L33.264,67.973a22.667,22.667,0,0,1-11.8,3.257C9.611,71.23,0,62.363,0,51.424S9.611,31.617,21.468,31.617ZM11,58.794c1.811,3.374,6.35,5.6,10.166,5.8q.29.015.579.015c3.64,0,8.15-1.826,10.2-4.858a11.1,11.1,0,0,0,.579-.958,1.566,1.566,0,1,0-2.759-1.481,7.907,7.907,0,0,1-.415.686c-1.544,2.286-5.261,3.616-8.016,3.468-2.731-.146-6.277-1.738-7.574-4.155A1.566,1.566,0,1,0,11,58.794Z" transform="translate(0 -31.617)" fill="#bfc3ff"/>
</svg>
