<svg id="surface1" xmlns="http://www.w3.org/2000/svg" width="39.492" height="26.944" viewBox="0 0 39.492 26.944">
  <path id="Trazado_2891" data-name="Trazado 2891" d="M175.377,12.643a5.038,5.038,0,0,0-2.868-1.833,41.042,41.042,0,0,0-5.526-.355,5.471,5.471,0,0,1-.606-.034,4.06,4.06,0,0,1-.473-.483L158.583.893A4.521,4.521,0,0,0,157.9.188a2.845,2.845,0,0,0-1.351-.176l-.2.015a2.85,2.85,0,0,0-1,.212c-.139.081-.56.328-.171,1.527,0,0,2.791,8.608,2.8,8.646-.042,0-4.014,0-4.014,0a5.659,5.659,0,0,1-.616-.032,3.987,3.987,0,0,1-.49-.475L150.279,6.87a4.45,4.45,0,0,0-.72-.691,1.972,1.972,0,0,0-1.07-.107,1.83,1.83,0,0,0-.658.26c-.321.231-.375.736-.161,1.5.58,2.079,1.407,5.162,1.469,5.633-.061.472-.889,3.554-1.469,5.633a3.2,3.2,0,0,0-.145,1c.092.59.929.754.965.76a2.562,2.562,0,0,0,.675.03c.437-.053,1.005-.7,1.115-.827l2.582-3.039a5.5,5.5,0,0,1,.42-.443,4.187,4.187,0,0,1,.686-.064s3.974,0,4.013,0c-.011.04-2.8,8.648-2.8,8.648a2.878,2.878,0,0,0-.182,1c.06.429.513.678,1.349.74l.2.015c.127.009.313.019.5.019a2.582,2.582,0,0,0,.485-.035c.416-.09.989-.785,1.053-.864L165.905,17a5.612,5.612,0,0,1,.406-.451,4.032,4.032,0,0,1,.672-.066,41.046,41.046,0,0,0,5.526-.355,5.038,5.038,0,0,0,2.868-1.834A1.477,1.477,0,0,0,175.377,12.643Zm0,0" transform="translate(-136.137 0)" fill="#464ffb"/>
  <path id="Trazado_2892" data-name="Trazado 2892" d="M51.208,100.676H48.14a1.2,1.2,0,0,0,0,2.394h3.068a1.2,1.2,0,0,0,0-2.394Zm0,0" transform="translate(-43.335 -92.91)" fill="#464ffb"/>
  <path id="Trazado_2893" data-name="Trazado 2893" d="M51.208,221.609H48.14a1.2,1.2,0,0,0,0,2.393h3.068a1.2,1.2,0,0,0,0-2.393Zm0,0" transform="translate(-43.335 -204.516)" fill="#464ffb"/>
  <path id="Trazado_2894" data-name="Trazado 2894" d="M7.873,161.141H1.184a1.2,1.2,0,0,0,0,2.394h6.69a1.2,1.2,0,0,0,0-2.394Zm0,0" transform="translate(0 -148.711)" fill="#464ffb"/>
</svg>
