<svg id="gerente" xmlns="http://www.w3.org/2000/svg" width="27.083" height="27.083" viewBox="0 0 27.083 27.083">
  <g id="Grupo_1397" data-name="Grupo 1397">
    <g id="Grupo_1396" data-name="Grupo 1396">
      <ellipse id="Elipse_391" data-name="Elipse 391" cx="7.386" cy="7.386" rx="7.386" ry="7.386" transform="translate(6.155)" fill="#464ffb"/>
      <path id="Trazado_2895" data-name="Trazado 2895" d="M24.053,280.109a27.258,27.258,0,0,0-5.234-2.032.613.613,0,0,0-.739.387L15.557,285.5l-.764-3.82,1.179-3.538a.616.616,0,0,0-.584-.81H11.695a.616.616,0,0,0-.584.81l1.179,3.538-.764,3.82L9,278.463a.614.614,0,0,0-.739-.387,27.255,27.255,0,0,0-5.234,2.032A5.539,5.539,0,0,0,0,285.049v.9a2.465,2.465,0,0,0,2.462,2.462H24.621a2.465,2.465,0,0,0,2.462-2.462v-.9A5.539,5.539,0,0,0,24.053,280.109Z" transform="translate(0 -261.33)" fill="#464ffb"/>
    </g>
  </g>
</svg>
