<svg xmlns="http://www.w3.org/2000/svg" width="35.388" height="26.944" viewBox="0 0 35.388 26.944">
  <path id="personas" d="M27.683,86.12H7.705a1.142,1.142,0,0,1-1.142-1.142V81.6a4.09,4.09,0,0,1,2.42-3.731c4.276-1.909,4.041-1.845,4.375-1.845h1.357a1.142,1.142,0,0,1,1.109.869,1.928,1.928,0,0,0,3.74,0,1.142,1.142,0,0,1,1.109-.869c1.46,0,1.535-.029,1.822.1L26.4,77.868a4.091,4.091,0,0,1,2.42,3.731v3.38A1.142,1.142,0,0,1,27.683,86.12ZM17.722,59.176a6.973,6.973,0,1,0,6.973,6.973A6.981,6.981,0,0,0,17.722,59.176Zm-11,7.458a4.39,4.39,0,1,0,4.39,4.39A4.4,4.4,0,0,0,6.722,66.634Zm21.944,0a4.39,4.39,0,1,0,4.39,4.39A4.4,4.4,0,0,0,28.666,66.634ZM33.74,77.092c-2.375-1.061-2.318-1.072-2.643-1.072-1.7,0-2.813-.012-3.565-.016a.713.713,0,0,0-.333,1.346,4.1,4.1,0,0,1,1.263.953,4.938,4.938,0,0,1,1.248,3.641.713.713,0,0,0,.713.713h3.824a1.142,1.142,0,0,0,1.142-1.142V79.633a2.786,2.786,0,0,0-1.648-2.541ZM4.291,76.021c-.323,0-.26.007-2.643,1.072A2.786,2.786,0,0,0,0,79.633v1.883a1.142,1.142,0,0,0,1.142,1.142H4.965a.713.713,0,0,0,.713-.714A4.915,4.915,0,0,1,6.926,78.3a4.112,4.112,0,0,1,1.252-.948.713.713,0,0,0-.33-1.346c-.757,0-1.869.011-3.557.011Z" transform="translate(0 -59.176)" fill="#464ffb"/>
</svg>
