<svg xmlns="http://www.w3.org/2000/svg" xmlns:xlink="http://www.w3.org/1999/xlink" width="177" height="177" viewBox="0 0 177 177">
  <defs>
    <filter id="Elipse_390" x="0" y="0" width="177" height="177" filterUnits="userSpaceOnUse">
      <feOffset dx="3" dy="3" input="SourceAlpha"/>
      <feGaussianBlur stdDeviation="3" result="blur"/>
      <feFlood flood-opacity="0.161"/>
      <feComposite operator="in" in2="blur"/>
      <feComposite in="SourceGraphic"/>
    </filter>
  </defs>
  <g id="Grupo_1304" data-name="Grupo 1304" transform="translate(6 5.863)">
    <g transform="matrix(1, 0, 0, 1, -6, -5.86)" filter="url(#Elipse_390)">
      <circle id="Elipse_390-2" data-name="Elipse 390" cx="79.5" cy="79.5" r="79.5" transform="translate(6 6)" fill="#bfc3fd"/>
    </g>
    <g id="enviar" transform="translate(37.372 37.372)">
      <g id="Grupo_1295" data-name="Grupo 1295" transform="translate(0 0)">
        <g id="Grupo_1294" data-name="Grupo 1294">
          <path id="Trazado_2529" data-name="Trazado 2529" d="M84.857,1.6a1.728,1.728,0,0,0-.057-.288,1.915,1.915,0,0,0-.122-.3C84.652.961,84.643.9,84.611.853a1.133,1.133,0,0,0-.078-.087,1.914,1.914,0,0,0-.209-.234,1.8,1.8,0,0,0-.238-.207C84.056.3,84.036.271,84,.253,83.952.221,83.9.214,83.842.188a1.919,1.919,0,0,0-.308-.124,1.942,1.942,0,0,0-.271-.048A1.893,1.893,0,0,0,82.939,0a1.658,1.658,0,0,0-.3.05,1.7,1.7,0,0,0-.19.031L1.251,27.764a1.844,1.844,0,0,0-.065,3.468L39.123,45.809,55.516,83.759a1.848,1.848,0,0,0,1.694,1.113c.031,0,.061,0,.092,0a1.846,1.846,0,0,0,1.666-1.283l25.836-81.2a1.382,1.382,0,0,0,.024-.175,1.745,1.745,0,0,0,.042-.308A1.838,1.838,0,0,0,84.857,1.6ZM7.262,29.612,76.128,6.134,40.051,42.211ZM56.946,77.765,42.7,44.783,78.986,8.494Z" transform="translate(-0.001 0)" fill="#fff"/>
          <path id="Trazado_2530" data-name="Trazado 2530" d="M28.988,240.459a1.843,1.843,0,0,0-2.609,0L.542,266.3A1.845,1.845,0,1,0,3.152,268.9l25.836-25.836A1.843,1.843,0,0,0,28.988,240.459Z" transform="translate(-0.001 -184.574)" fill="#fff"/>
          <path id="Trazado_2531" data-name="Trazado 2531" d="M101.46,296.459,88.542,309.377a1.845,1.845,0,1,0,2.609,2.609l12.918-12.918a1.845,1.845,0,0,0-2.609-2.609Z" transform="translate(-67.701 -227.656)" fill="#fff"/>
          <path id="Trazado_2532" data-name="Trazado 2532" d="M1.847,224.527a1.84,1.84,0,0,0,1.3-.541L16.07,211.069a1.845,1.845,0,0,0-2.609-2.609L.542,221.377a1.845,1.845,0,0,0,1.3,3.15Z" transform="translate(-0.001 -159.956)" fill="#fff"/>
        </g>
      </g>
    </g>
  </g>
</svg>
