<svg xmlns="http://www.w3.org/2000/svg" width="42.517" height="40.787" viewBox="0 0 42.517 40.787">
  <g id="ajustar" transform="translate(0.5 0.5)">
    <g id="Grupo_1514" data-name="Grupo 1514" transform="translate(0 27.678)">
      <g id="Grupo_1513" data-name="Grupo 1513">
        <path id="Trazado_2568" data-name="Trazado 2568" d="M39.787,356.325H35.181a6.015,6.015,0,0,0-11.545,0H1.73a1.73,1.73,0,0,0,0,3.46H23.635a6.015,6.015,0,0,0,11.545,0h4.607a1.73,1.73,0,0,0,0-3.46Zm-10.379,4.325A2.595,2.595,0,1,1,32,358.054,2.6,2.6,0,0,1,29.408,360.649Z" transform="translate(0 -352)" fill="#464ffb" stroke="#fff" stroke-width="1"/>
      </g>
    </g>
    <g id="Grupo_1516" data-name="Grupo 1516" transform="translate(0 0)">
      <g id="Grupo_1515" data-name="Grupo 1515">
        <path id="Trazado_2569" data-name="Trazado 2569" d="M39.787,14.992H35.181a6.015,6.015,0,0,0-11.545,0H1.73a1.73,1.73,0,0,0,0,3.46H23.635a6.015,6.015,0,0,0,11.545,0h4.607a1.73,1.73,0,0,0,0-3.46ZM29.408,19.316A2.595,2.595,0,1,1,32,16.722,2.6,2.6,0,0,1,29.408,19.316Z" transform="translate(0 -10.667)" fill="#464ffb" stroke="#fff" stroke-width="1"/>
      </g>
    </g>
    <g id="Grupo_1518" data-name="Grupo 1518" transform="translate(0 13.839)">
      <g id="Grupo_1517" data-name="Grupo 1517">
        <path id="Trazado_2570" data-name="Trazado 2570" d="M39.787,185.659H17.882a6.015,6.015,0,0,0-11.545,0H1.73a1.73,1.73,0,1,0,0,3.46H6.337a6.015,6.015,0,0,0,11.545,0H39.787a1.73,1.73,0,0,0,0-3.46Zm-27.678,4.325a2.595,2.595,0,1,1,2.595-2.595A2.6,2.6,0,0,1,12.109,189.983Z" transform="translate(0 -181.334)" fill="#464ffb" stroke="#fff" stroke-width="1"/>
      </g>
    </g>
  </g>
</svg>
