<svg xmlns="http://www.w3.org/2000/svg" width="42.213" height="42.213" viewBox="0 0 42.213 42.213">
  <g id="red" transform="translate(0.25 0.25)">
    <g id="Grupo_1530" data-name="Grupo 1530" transform="translate(36.151 8.343)">
      <g id="Grupo_1529" data-name="Grupo 1529">
        <path id="Trazado_3029" data-name="Trazado 3029" d="M446.515,102.4a2.781,2.781,0,1,0,2.781,2.781A2.784,2.784,0,0,0,446.515,102.4Zm0,4.171a1.39,1.39,0,1,1,1.39-1.39A1.392,1.392,0,0,1,446.515,106.571Z" transform="translate(-443.734 -102.4)" fill="#464ffb" stroke="#464ffb" stroke-width="0.5"/>
      </g>
    </g>
    <g id="Grupo_1532" data-name="Grupo 1532" transform="translate(0 31.285)">
      <g id="Grupo_1531" data-name="Grupo 1531">
        <path id="Trazado_3030" data-name="Trazado 3030" d="M2.781,384a2.781,2.781,0,1,0,2.781,2.781A2.784,2.784,0,0,0,2.781,384Zm0,4.171a1.39,1.39,0,1,1,1.39-1.39A1.392,1.392,0,0,1,2.781,388.171Z" transform="translate(0 -384)" fill="#464ffb" stroke="#464ffb" stroke-width="0.5"/>
      </g>
    </g>
    <g id="Grupo_1534" data-name="Grupo 1534" transform="translate(30.589 6.256)">
      <g id="Grupo_1533" data-name="Grupo 1533">
        <path id="Trazado_3031" data-name="Trazado 3031" d="M382.457,79.757l-6-2.9a.7.7,0,1,0-.6,1.252l6,2.9a.7.7,0,0,0,.6-1.252Z" transform="translate(-375.463 -76.792)" fill="#464ffb" stroke="#464ffb" stroke-width="0.5"/>
      </g>
    </g>
    <g id="Grupo_1536" data-name="Grupo 1536" transform="translate(28.504 36.151)">
      <g id="Grupo_1535" data-name="Grupo 1535">
        <path id="Trazado_3032" data-name="Trazado 3032" d="M352.648,443.733a2.781,2.781,0,1,0,2.781,2.781A2.784,2.784,0,0,0,352.648,443.733Zm0,4.171a1.39,1.39,0,1,1,1.39-1.39A1.392,1.392,0,0,1,352.648,447.9Z" transform="translate(-349.867 -443.733)" fill="#464ffb" stroke="#464ffb" stroke-width="0.5"/>
      </g>
    </g>
    <g id="Grupo_1538" data-name="Grupo 1538" transform="translate(22.942 34.065)">
      <g id="Grupo_1537" data-name="Grupo 1537">
        <path id="Trazado_3033" data-name="Trazado 3033" d="M288.59,421.089l-6-2.9a.7.7,0,1,0-.6,1.252l6,2.9a.7.7,0,1,0,.6-1.252Z" transform="translate(-281.596 -418.124)" fill="#464ffb" stroke="#464ffb" stroke-width="0.5"/>
      </g>
    </g>
    <g id="Grupo_1540" data-name="Grupo 1540" transform="translate(18.076 18.771)">
      <g id="Grupo_1539" data-name="Grupo 1539">
        <path id="Trazado_3034" data-name="Trazado 3034" d="M224.648,230.4a2.781,2.781,0,1,0,2.781,2.781A2.784,2.784,0,0,0,224.648,230.4Zm0,4.171a1.39,1.39,0,1,1,1.39-1.39A1.392,1.392,0,0,1,224.648,234.571Z" transform="translate(-221.867 -230.4)" fill="#464ffb" stroke="#464ffb" stroke-width="0.5"/>
      </g>
    </g>
    <g id="Grupo_1542" data-name="Grupo 1542" transform="translate(13.904 15.99)">
      <g id="Grupo_1541" data-name="Grupo 1541">
        <path id="Trazado_3035" data-name="Trazado 3035" d="M176.395,200.009l-4.607-3.591a.7.7,0,0,0-.855,1.1l4.607,3.591a.7.7,0,1,0,.855-1.1Z" transform="translate(-170.664 -196.272)" fill="#464ffb" stroke="#464ffb" stroke-width="0.5"/>
      </g>
    </g>
    <g id="Grupo_1544" data-name="Grupo 1544" transform="translate(25.723 18.076)">
      <g id="Grupo_1543" data-name="Grupo 1543">
        <path id="Trazado_3036" data-name="Trazado 3036" d="M323.38,221.867a7.647,7.647,0,1,0,7.647,7.647A7.656,7.656,0,0,0,323.38,221.867Zm0,13.9a6.257,6.257,0,1,1,6.257-6.257A6.264,6.264,0,0,1,323.38,235.771Z" transform="translate(-315.733 -221.867)" fill="#464ffb" stroke="#464ffb" stroke-width="0.5"/>
      </g>
    </g>
    <g id="Grupo_1546" data-name="Grupo 1546" transform="translate(30.59 20.856)">
      <g id="Grupo_1545" data-name="Grupo 1545">
        <path id="Trazado_3037" data-name="Trazado 3037" d="M378.248,256a2.781,2.781,0,1,0,2.781,2.781A2.784,2.784,0,0,0,378.248,256Zm0,4.171a1.39,1.39,0,1,1,1.391-1.39A1.392,1.392,0,0,1,378.248,260.171Z" transform="translate(-375.467 -256)" fill="#464ffb" stroke="#464ffb" stroke-width="0.5"/>
      </g>
    </g>
    <g id="Grupo_1548" data-name="Grupo 1548" transform="translate(29.199 27.809)">
      <g id="Grupo_1547" data-name="Grupo 1547">
        <path id="Trazado_3038" data-name="Trazado 3038" d="M364.588,341.333h-4.034a2.128,2.128,0,0,0-2.154,2.1v1.833a.7.7,0,0,0,.347.6,7.609,7.609,0,0,0,7.649,0,.7.7,0,0,0,.347-.6V343.43A2.129,2.129,0,0,0,364.588,341.333Zm.764,3.514a6.3,6.3,0,0,1-5.562,0V343.43a.738.738,0,0,1,.764-.706h4.034a.738.738,0,0,1,.764.706v1.417Z" transform="translate(-358.4 -341.333)" fill="#464ffb" stroke="#464ffb" stroke-width="0.5"/>
      </g>
    </g>
    <g id="Grupo_1550" data-name="Grupo 1550" transform="translate(9.038 26.418)">
      <g id="Grupo_1549" data-name="Grupo 1549">
        <path id="Trazado_3039" data-name="Trazado 3039" d="M118.58,324.267a7.647,7.647,0,1,0,7.647,7.647A7.656,7.656,0,0,0,118.58,324.267Zm0,13.9a6.257,6.257,0,1,1,6.257-6.257A6.264,6.264,0,0,1,118.58,338.171Z" transform="translate(-110.933 -324.267)" fill="#464ffb" stroke="#464ffb" stroke-width="0.5"/>
      </g>
    </g>
    <g id="Grupo_1552" data-name="Grupo 1552" transform="translate(13.904 29.199)">
      <g id="Grupo_1551" data-name="Grupo 1551">
        <path id="Trazado_3040" data-name="Trazado 3040" d="M173.448,358.4a2.781,2.781,0,1,0,2.781,2.781A2.784,2.784,0,0,0,173.448,358.4Zm0,4.171a1.39,1.39,0,1,1,1.39-1.391A1.392,1.392,0,0,1,173.448,362.571Z" transform="translate(-170.667 -358.4)" fill="#464ffb" stroke="#464ffb" stroke-width="0.5"/>
      </g>
    </g>
    <g id="Grupo_1554" data-name="Grupo 1554" transform="translate(12.514 36.151)">
      <g id="Grupo_1553" data-name="Grupo 1553">
        <path id="Trazado_3041" data-name="Trazado 3041" d="M159.788,443.733h-4.034a2.128,2.128,0,0,0-2.155,2.1v1.833a.7.7,0,0,0,.347.6,7.609,7.609,0,0,0,7.649,0,.694.694,0,0,0,.347-.6V445.83A2.129,2.129,0,0,0,159.788,443.733Zm.764,3.514a6.3,6.3,0,0,1-5.562,0V445.83a.738.738,0,0,1,.764-.706h4.034a.738.738,0,0,1,.764.706v1.418Z" transform="translate(-153.6 -443.733)" fill="#464ffb" stroke="#464ffb" stroke-width="0.5"/>
      </g>
    </g>
    <g id="Grupo_1556" data-name="Grupo 1556" transform="translate(0 9.038)">
      <g id="Grupo_1555" data-name="Grupo 1555">
        <path id="Trazado_3042" data-name="Trazado 3042" d="M7.647,110.933a7.647,7.647,0,1,0,7.647,7.647A7.656,7.656,0,0,0,7.647,110.933Zm0,13.9A6.257,6.257,0,1,1,13.9,118.58,6.264,6.264,0,0,1,7.647,124.837Z" transform="translate(0 -110.933)" fill="#464ffb" stroke="#464ffb" stroke-width="0.5"/>
      </g>
    </g>
    <g id="Grupo_1558" data-name="Grupo 1558" transform="translate(4.867 11.819)">
      <g id="Grupo_1557" data-name="Grupo 1557">
        <path id="Trazado_3043" data-name="Trazado 3043" d="M62.515,145.067a2.781,2.781,0,1,0,2.781,2.781A2.784,2.784,0,0,0,62.515,145.067Zm0,4.171a1.39,1.39,0,1,1,1.39-1.39A1.392,1.392,0,0,1,62.515,149.238Z" transform="translate(-59.734 -145.067)" fill="#464ffb" stroke="#464ffb" stroke-width="0.5"/>
      </g>
    </g>
    <g id="Grupo_1560" data-name="Grupo 1560" transform="translate(3.476 18.771)">
      <g id="Grupo_1559" data-name="Grupo 1559">
        <path id="Trazado_3044" data-name="Trazado 3044" d="M48.855,230.4H44.821a2.128,2.128,0,0,0-2.154,2.1v1.833a.7.7,0,0,0,.347.6,7.609,7.609,0,0,0,7.649,0,.7.7,0,0,0,.347-.6V232.5A2.129,2.129,0,0,0,48.855,230.4Zm.764,3.514a6.3,6.3,0,0,1-5.562,0V232.5a.738.738,0,0,1,.764-.706h4.034a.738.738,0,0,1,.764.706v1.418Z" transform="translate(-42.667 -230.4)" fill="#464ffb" stroke="#464ffb" stroke-width="0.5"/>
      </g>
    </g>
    <g id="Grupo_1562" data-name="Grupo 1562" transform="translate(16.685)">
      <g id="Grupo_1561" data-name="Grupo 1561">
        <path id="Trazado_3045" data-name="Trazado 3045" d="M212.447,0a7.647,7.647,0,1,0,7.647,7.647A7.656,7.656,0,0,0,212.447,0Zm0,13.9A6.257,6.257,0,1,1,218.7,7.647,6.264,6.264,0,0,1,212.447,13.9Z" transform="translate(-204.8)" fill="#464ffb" stroke="#464ffb" stroke-width="0.5"/>
      </g>
    </g>
    <g id="Grupo_1564" data-name="Grupo 1564" transform="translate(21.552 2.781)">
      <g id="Grupo_1563" data-name="Grupo 1563">
        <path id="Trazado_3046" data-name="Trazado 3046" d="M267.315,34.133a2.781,2.781,0,1,0,2.781,2.781A2.784,2.784,0,0,0,267.315,34.133Zm0,4.171a1.39,1.39,0,1,1,1.39-1.39A1.392,1.392,0,0,1,267.315,38.3Z" transform="translate(-264.534 -34.133)" fill="#464ffb" stroke="#464ffb" stroke-width="0.5"/>
      </g>
    </g>
    <g id="Grupo_1566" data-name="Grupo 1566" transform="translate(20.161 9.733)">
      <g id="Grupo_1565" data-name="Grupo 1565">
        <path id="Trazado_3047" data-name="Trazado 3047" d="M253.655,119.467h-4.034a2.128,2.128,0,0,0-2.155,2.1V123.4a.7.7,0,0,0,.347.6,7.608,7.608,0,0,0,7.649,0,.7.7,0,0,0,.347-.6v-1.833A2.129,2.129,0,0,0,253.655,119.467Zm.764,3.514a6.3,6.3,0,0,1-5.562,0v-1.417a.738.738,0,0,1,.764-.706h4.034a.738.738,0,0,1,.764.706v1.417Z" transform="translate(-247.467 -119.467)" fill="#464ffb" stroke="#464ffb" stroke-width="0.5"/>
      </g>
    </g>
    <g id="Grupo_1568" data-name="Grupo 1568" transform="translate(11.868 6.952)">
      <g id="Grupo_1567" data-name="Grupo 1567">
        <path id="Trazado_3048" data-name="Trazado 3048" d="M151.712,85.576a.7.7,0,0,0-.98-.076l-4.818,4.123a.695.695,0,1,0,.9,1.056l4.818-4.123A.7.7,0,0,0,151.712,85.576Z" transform="translate(-145.671 -85.333)" fill="#464ffb" stroke="#464ffb" stroke-width="0.5"/>
      </g>
    </g>
    <g id="Grupo_1570" data-name="Grupo 1570" transform="translate(27.809 12.515)">
      <g id="Grupo_1569" data-name="Grupo 1569">
        <path id="Trazado_3049" data-name="Trazado 3049" d="M346.756,159.45l-4.171-5.562a.7.7,0,0,0-1.112.834l4.171,5.562a.7.7,0,0,0,1.112-.834Z" transform="translate(-341.333 -153.61)" fill="#464ffb" stroke="#464ffb" stroke-width="0.5"/>
      </g>
    </g>
    <g id="Grupo_1572" data-name="Grupo 1572" transform="translate(22.391 27.744)">
      <g id="Grupo_1571" data-name="Grupo 1571">
        <path id="Trazado_3050" data-name="Trazado 3050" d="M279.968,340.818a.7.7,0,0,0-.973-.139l-3.883,2.912a.695.695,0,0,0,.834,1.112l3.883-2.912A.694.694,0,0,0,279.968,340.818Z" transform="translate(-274.833 -340.54)" fill="#464ffb" stroke="#464ffb" stroke-width="0.5"/>
      </g>
    </g>
    <g id="Grupo_1574" data-name="Grupo 1574" transform="translate(4.171 33.37)">
      <g id="Grupo_1573" data-name="Grupo 1573">
        <path id="Trazado_3051" data-name="Trazado 3051" d="M56.762,409.6H51.9a.7.7,0,0,0,0,1.39h4.866a.7.7,0,0,0,0-1.39Z" transform="translate(-51.2 -409.6)" fill="#464ffb" stroke="#464ffb" stroke-width="0.5"/>
      </g>
    </g>
    <g id="Grupo_1576" data-name="Grupo 1576" transform="translate(4.866)">
      <g id="Grupo_1575" data-name="Grupo 1575">
        <path id="Trazado_3052" data-name="Trazado 3052" d="M62.514,0a2.781,2.781,0,1,0,2.781,2.781A2.784,2.784,0,0,0,62.514,0Zm0,4.171a1.39,1.39,0,1,1,1.39-1.39A1.392,1.392,0,0,1,62.514,4.171Z" transform="translate(-59.733)" fill="#464ffb" stroke="#464ffb" stroke-width="0.5"/>
      </g>
    </g>
    <g id="Grupo_1578" data-name="Grupo 1578" transform="translate(6.952 4.171)">
      <g id="Grupo_1577" data-name="Grupo 1577">
        <path id="Trazado_3053" data-name="Trazado 3053" d="M86.029,51.2a.7.7,0,0,0-.7.7v4.866a.7.7,0,1,0,1.39,0V51.9A.7.7,0,0,0,86.029,51.2Z" transform="translate(-85.334 -51.2)" fill="#464ffb" stroke="#464ffb" stroke-width="0.5"/>
      </g>
    </g>
  </g>
</svg>
