<svg xmlns="http://www.w3.org/2000/svg" xmlns:xlink="http://www.w3.org/1999/xlink" width="1200" height="676" viewBox="0 0 1200 676">
  <defs>
    <clipPath id="clip-path">
      <rect id="Rectángulo_2317" data-name="Rectángulo 2317" width="44" height="169" transform="translate(0 1129)" fill="#fff"/>
    </clipPath>
    <clipPath id="clip-path-2">
      <rect id="Rectángulo_2580" data-name="Rectángulo 2580" width="116" height="47" transform="translate(1084 792)" fill="#fff"/>
    </clipPath>
  </defs>
  <g id="Grupo_2251" data-name="Grupo 2251" transform="translate(0 -675)">
    <rect id="Rectángulo_2561" data-name="Rectángulo 2561" width="1200" height="676" transform="translate(0 675)" fill="none"/>
    <g id="Grupo_2249" data-name="Grupo 2249">
      <g id="Enmascarar_grupo_25" data-name="Enmascarar grupo 25" clip-path="url(#clip-path)">
        <path id="Trazado_2705" data-name="Trazado 2705" d="M12.47,45.885A43.928,43.928,0,0,0,1.436,66.444c-3.658,16.475.087,36.4,6.535,51.778,8.77,20.911,25.714,31.687,46.816,37.865,19.692,5.766,39.319,12.046,57.461,21.788,13.412,7.2,27.283,14.647,37.161,26.66,5,6.079,8.721,13.057,12.319,19.806,4.025,7.546,7.825,14.673,13.269,20.692,13.542,14.971,33.036,20.019,47.007,21.616a128.122,128.122,0,0,0,53.312-5.674c23.543-7.874,45.236-22.026,63.721-34.672,18.878-12.916,38.177-27.2,48.561-47.255,11.59-22.381,13.05-56.485,3.4-79.33-27.231-62.1-95.22-83.15-111.166-88.809-21.694-7.7-46.135-9-68.917-10.151A674.836,674.836,0,0,0,130.7,1.765C108.587,3.276,86.834,8.729,66.161,16.6,48.546,23.316,26.071,31.192,12.47,45.885Z" transform="matrix(-0.07, -0.998, 0.998, -0.07, -217.831, 1473.665)" fill="#464ffb" fill-rule="evenodd" style="mix-blend-mode: multiply;isolation: isolate"/>
      </g>
      <g id="Grupo_1390" data-name="Grupo 1390" transform="translate(42.65 1182.368) rotate(56)">
        <path id="Trazado_37" data-name="Trazado 37" d="M322.346,165.816l1.418,3.26a.494.494,0,0,0,.257.257l3.26,1.418a.5.5,0,0,1,0,.908l-3.26,1.418a.491.491,0,0,0-.257.255l-1.418,3.26a.494.494,0,0,1-.906,0l-1.418-3.26a.491.491,0,0,0-.257-.255l-3.26-1.418a.5.5,0,0,1,0-.908l3.26-1.418a.494.494,0,0,0,.257-.257l1.418-3.26A.494.494,0,0,1,322.346,165.816Z" transform="translate(-278.651 -150.962)" fill="#4d5bdb"/>
        <path id="Trazado_40" data-name="Trazado 40" d="M304.848,158.124l2.037,4.685a.713.713,0,0,0,.368.368l4.687,2.039a.71.71,0,0,1,0,1.3l-4.687,2.039a.719.719,0,0,0-.368.368l-2.037,4.685a.711.711,0,0,1-1.3,0l-2.037-4.685a.719.719,0,0,0-.368-.368l-4.687-2.039a.71.71,0,0,1,0-1.3l4.687-2.039a.713.713,0,0,0,.368-.368l2.037-4.685A.711.711,0,0,1,304.848,158.124Z" transform="translate(-296.023 -157.696)" fill="#a4b1fb"/>
        <path id="Trazado_41" data-name="Trazado 41" d="M321.873,148.945l1.656,3.805a.575.575,0,0,0,.3.3l3.805,1.656a.577.577,0,0,1,0,1.059l-3.805,1.656a.575.575,0,0,0-.3.3l-1.656,3.807a.578.578,0,0,1-1.059,0l-1.656-3.807a.574.574,0,0,0-.3-.3l-3.8-1.656a.577.577,0,0,1,0-1.059l3.8-1.656a.575.575,0,0,0,.3-.3l1.656-3.805A.577.577,0,0,1,321.873,148.945Z" transform="translate(-300.48 -113.045)" fill="#f1b434"/>
      </g>
    </g>
    <g id="Grupo_2250" data-name="Grupo 2250">
      <g id="Grupo_1391" data-name="Grupo 1391" transform="translate(1110.76 752.644)">
        <path id="Trazado_38" data-name="Trazado 38" d="M447.858,195.932l2.03,4.669a.714.714,0,0,0,.367.366l4.667,2.03a.708.708,0,0,1,0,1.3l-4.667,2.03a.711.711,0,0,0-.367.367l-2.03,4.667a.708.708,0,0,1-1.3,0l-2.03-4.667a.7.7,0,0,0-.366-.367l-4.669-2.03a.708.708,0,0,1,0-1.3l4.669-2.03a.706.706,0,0,0,.366-.366l2.03-4.669A.708.708,0,0,1,447.858,195.932Z" transform="translate(-429.078 -179.909)" fill="#f1b434"/>
        <path id="Trazado_39" data-name="Trazado 39" d="M437.364,184.391l1.29,2.967a.447.447,0,0,0,.233.234l2.967,1.29a.45.45,0,0,1,0,.826L438.887,191a.449.449,0,0,0-.233.233l-1.29,2.967a.45.45,0,0,1-.826,0l-1.29-2.967a.449.449,0,0,0-.233-.233l-2.967-1.29a.45.45,0,0,1,0-.826l2.967-1.29a.447.447,0,0,0,.233-.234l1.29-2.967A.451.451,0,0,1,437.364,184.391Z" transform="translate(-431.776 -184.121)" fill="#a4b1fb"/>
      </g>
      <g id="Enmascarar_grupo_26" data-name="Enmascarar grupo 26" clip-path="url(#clip-path-2)">
        <path id="Trazado_2885" data-name="Trazado 2885" d="M499.338,173.937a17.375,17.375,0,0,0-7.639,1.777,18.546,18.546,0,0,0-17.965-13.987c-.041,0-.08.006-.121.006a22.87,22.87,0,1,0-44.818,8.679,14.637,14.637,0,0,0-12.9,9.2,14.6,14.6,0,0,0-23.129,9.465H516.623A17.447,17.447,0,0,0,499.338,173.937Z" transform="translate(703.869 649.961)" fill="#dad3f4"/>
      </g>
    </g>
  </g>
</svg>
