<svg xmlns="http://www.w3.org/2000/svg" xmlns:xlink="http://www.w3.org/1999/xlink" width="1200" height="676" viewBox="0 0 1200 676">
  <defs>
    <clipPath id="clip-path">
      <rect id="Rectángulo_2582" data-name="Rectángulo 2582" width="152" height="287" transform="translate(0 1699)" fill="#feb52b"/>
    </clipPath>
    <clipPath id="clip-path-2">
      <rect id="Rectángulo_2581" data-name="Rectángulo 2581" width="239" height="243" transform="translate(961 1400)" fill="#fff"/>
    </clipPath>
  </defs>
  <g id="Grupo_2255" data-name="Grupo 2255" transform="translate(0 -1351)">
    <g id="Enmascarar_grupo_28" data-name="Enmascarar grupo 28" clip-path="url(#clip-path)">
      <path id="Trazado_3574" data-name="Trazado 3574" d="M420.776,157.594c-9.171-22.7-36.539-32.669-61.014-32.283s-48.26,8.37-72.692,9.861c-21.012,1.286-42.1-2.254-63.11-.909-42.77,2.747-83.6,27.063-106.394,63.358-7.77,12.381-13.65,26.819-11.82,41.317,2.983,23.622,25.3,40.2,47.784,48.033s46.863,9.887,68.561,19.7c19.894,9,36.4,24,51.749,39.539s30.021,31.958,47.694,44.776,39.046,21.946,60.834,20.472,43.5-15.471,49.477-36.47c5.366-18.861-2.3-38.823-11.134-56.33s-19.234-35.258-19.662-54.86c-.4-18.368,8.023-35.583,14.751-52.678S427.659,174.629,420.776,157.594Z" transform="translate(-296.41 1574.196)" fill="#feb52b"/>
    </g>
    <g id="Enmascarar_grupo_27" data-name="Enmascarar grupo 27" clip-path="url(#clip-path-2)">
      <path id="Trazado_2704" data-name="Trazado 2704" d="M11.218,199.27a39.52,39.52,0,0,1-9.926-18.5C-2,165.952,1.37,148.021,7.171,134.191c7.89-18.813,23.134-28.507,42.119-34.066,17.716-5.188,35.374-10.838,51.7-19.6,12.066-6.478,24.546-13.178,33.432-23.985,4.5-5.469,7.846-11.747,11.083-17.819,3.621-6.789,7.04-13.2,11.937-18.616C169.621,6.634,187.159,2.092,199.728.656a115.266,115.266,0,0,1,47.963,5.1c21.181,7.084,40.7,19.815,57.327,31.193C322,48.573,339.364,61.427,348.707,79.467c10.427,20.135,11.741,50.817,3.055,71.37-24.5,55.871-85.666,74.806-100.012,79.9-19.517,6.925-41.506,8.1-62,9.133a607.125,607.125,0,0,1-72.162-.906c-19.893-1.359-39.464-6.265-58.062-13.35C43.675,219.575,23.455,212.489,11.218,199.27Z" transform="matrix(-0.921, -0.391, 0.391, -0.921, 1253.648, 1712.161)" fill="#444df3" fill-rule="evenodd" style="mix-blend-mode: multiply;isolation: isolate"/>
    </g>
    <g id="Grupo_1395" data-name="Grupo 1395" transform="translate(1107.762 1450.83) rotate(59)">
      <path id="Trazado_37" data-name="Trazado 37" d="M322.814,165.839l1.526,3.508a.532.532,0,0,0,.276.276l3.508,1.526a.533.533,0,0,1,0,.977l-3.508,1.526a.529.529,0,0,0-.276.274l-1.526,3.508a.532.532,0,0,1-.975,0l-1.526-3.508a.528.528,0,0,0-.276-.274l-3.508-1.526a.533.533,0,0,1,0-.977l3.508-1.526a.532.532,0,0,0,.276-.276l1.526-3.508A.532.532,0,0,1,322.814,165.839Z" transform="translate(-275.789 -149.853)" fill="#bfc3fd"/>
      <path id="Trazado_40" data-name="Trazado 40" d="M305.52,158.157l2.193,5.042a.767.767,0,0,0,.4.4l5.044,2.195a.764.764,0,0,1,0,1.4l-5.044,2.195a.774.774,0,0,0-.4.4l-2.193,5.042a.765.765,0,0,1-1.4,0l-2.193-5.042a.775.775,0,0,0-.4-.4l-5.044-2.195a.764.764,0,0,1,0-1.4l5.044-2.195a.767.767,0,0,0,.4-.4l2.193-5.042A.765.765,0,0,1,305.52,158.157Z" transform="translate(-296.023 -157.696)" fill="#f1b434"/>
    </g>
    <rect id="Rectángulo_2562" data-name="Rectángulo 2562" width="1200" height="676" transform="translate(0 1351)" fill="none"/>
  </g>
</svg>
