<svg xmlns="http://www.w3.org/2000/svg" xmlns:xlink="http://www.w3.org/1999/xlink" width="1200" height="676" viewBox="0 0 1200 676">
  <defs>
    <clipPath id="clip-path">
      <rect id="Rectángulo_2583" data-name="Rectángulo 2583" width="138" height="266" transform="translate(1062 2153)" fill="#fff"/>
    </clipPath>
    <clipPath id="clip-path-2">
      <rect id="Rectángulo_2321" data-name="Rectángulo 2321" width="106" height="65" fill="#444df3"/>
    </clipPath>
  </defs>
  <g id="Grupo_2256" data-name="Grupo 2256" transform="translate(0 -2027)">
    <g id="Grupo_2254" data-name="Grupo 2254">
      <g id="Grupo_2252" data-name="Grupo 2252">
        <g id="Enmascarar_grupo_29" data-name="Enmascarar grupo 29" clip-path="url(#clip-path)">
          <path id="Trazado_3575" data-name="Trazado 3575" d="M-54.493,178.578c8.119-11.314,11.533-25.218,16.891-38.069s13.882-25.739,27.141-29.99c13.237-4.244,27.739,1.308,39.158,9.238s21.113,18.25,33.046,25.382c13.168,7.872,28.376,11.467,43.285,15.073s30.1,7.445,43.016,15.722,23.4,21.881,23.921,37.213c.6,17.565-11.616,33.039-25.28,44.1s-29.516,19.637-41.125,32.835c-11.857,13.481-18.344,30.7-26.893,46.494S58.1,367.852,40.889,372.955c-10.9,3.231-22.752,1.861-33.5-1.825s-20.6-9.569-30.292-15.507c-16.687-10.218-33.319-20.8-47.562-34.223s-26.1-29.946-31.21-48.833-2.823-40.284,8.728-56.082C-82.3,201.916-65.017,193.243-54.493,178.578Z" transform="translate(1166.255 2043.946)" fill="#dad3f4"/>
        </g>
        <g id="Grupo_1389" data-name="Grupo 1389" transform="translate(1138.635 2092.14)">
          <path id="Trazado_38" data-name="Trazado 38" d="M450.644,196.067l2.674,6.148a.94.94,0,0,0,.483.482l6.147,2.674a.932.932,0,0,1,0,1.71l-6.147,2.674a.937.937,0,0,0-.483.484l-2.674,6.147a.932.932,0,0,1-1.71,0l-2.674-6.147a.927.927,0,0,0-.482-.484l-6.148-2.674a.933.933,0,0,1,0-1.71l6.148-2.674a.93.93,0,0,0,.482-.482l2.674-6.148A.933.933,0,0,1,450.644,196.067Z" transform="translate(-425.911 -174.965)" fill="#f1b434"/>
          <path id="Trazado_39" data-name="Trazado 39" d="M439.135,184.477l1.7,3.908a.589.589,0,0,0,.307.308l3.908,1.7a.593.593,0,0,1,0,1.088l-3.908,1.7a.592.592,0,0,0-.307.307l-1.7,3.908a.593.593,0,0,1-1.088,0l-1.7-3.908a.592.592,0,0,0-.307-.307l-3.908-1.7a.593.593,0,0,1,0-1.088l3.908-1.7a.589.589,0,0,0,.307-.308l1.7-3.908A.594.594,0,0,1,439.135,184.477Z" transform="translate(-431.776 -184.121)" fill="#a4b1fb"/>
        </g>
      </g>
      <g id="Grupo_2253" data-name="Grupo 2253">
        <g id="Grupo_1388" data-name="Grupo 1388" transform="translate(8.283 2533)">
          <path id="Trazado_37" data-name="Trazado 37" d="M321.147,165.8l-1.338,3.077a.467.467,0,0,1-.242.242l-3.077,1.338a.468.468,0,0,0,0,.857l3.077,1.338a.463.463,0,0,1,.242.241l1.338,3.077a.466.466,0,0,0,.855,0l1.338-3.077a.464.464,0,0,1,.242-.241l3.077-1.338a.468.468,0,0,0,0-.857l-3.077-1.338a.467.467,0,0,1-.242-.242L322,165.8A.466.466,0,0,0,321.147,165.8Z" transform="translate(-316.208 -151.778)" fill="#4d5bdb"/>
          <path id="Trazado_40" data-name="Trazado 40" d="M303.122,158.1l-1.923,4.422a.672.672,0,0,1-.348.348l-4.424,1.925a.67.67,0,0,0,0,1.229l4.424,1.925a.679.679,0,0,1,.348.348l1.923,4.422a.671.671,0,0,0,1.231,0l1.923-4.422a.679.679,0,0,1,.348-.348l4.424-1.925a.67.67,0,0,0,0-1.229l-4.424-1.925a.673.673,0,0,1-.348-.348l-1.923-4.422A.671.671,0,0,0,303.122,158.1Z" transform="translate(-265.268 -157.696)" fill="#a4b1fb"/>
          <path id="Trazado_41" data-name="Trazado 41" d="M320.472,148.925l-1.563,3.592a.542.542,0,0,1-.283.283l-3.592,1.563a.545.545,0,0,0,0,1l3.592,1.563a.542.542,0,0,1,.283.283l1.563,3.593a.545.545,0,0,0,1,0l1.563-3.593a.542.542,0,0,1,.283-.283l3.592-1.563a.545.545,0,0,0,0-1l-3.592-1.563a.542.542,0,0,1-.283-.283l-1.563-3.592A.545.545,0,0,0,320.472,148.925Z" transform="translate(-294.482 -115.038)" fill="#f1b434"/>
        </g>
        <g id="Enmascarar_grupo_7" data-name="Enmascarar grupo 7" transform="translate(0 2590)" clip-path="url(#clip-path-2)">
          <path id="Trazado_2886" data-name="Trazado 2886" d="M328.837,159.751a23.3,23.3,0,0,1,10.252,2.386A24.893,24.893,0,0,1,363.2,143.365c.053,0,.108.007.16.01a30.7,30.7,0,1,1,60.156,11.647,19.635,19.635,0,0,1,17.308,12.349,19.6,19.6,0,0,1,31.043,12.705H305.636A23.418,23.418,0,0,1,328.837,159.751Z" transform="translate(-365.798 -115.605)" fill="#444df3"/>
        </g>
      </g>
    </g>
    <rect id="Rectángulo_2563" data-name="Rectángulo 2563" width="1200" height="676" transform="translate(0 2027)" fill="none"/>
  </g>
</svg>
