<svg xmlns="http://www.w3.org/2000/svg" xmlns:xlink="http://www.w3.org/1999/xlink" width="1202" height="676" viewBox="0 0 1202 676">
  <defs>
    <clipPath id="clip-path">
      <rect id="Rectángulo_2320" data-name="Rectángulo 2320" width="81" height="219" transform="translate(0 2833)" fill="#fff"/>
    </clipPath>
    <clipPath id="clip-path-2">
      <rect id="Rectángulo_2321" data-name="Rectángulo 2321" width="106" height="65" transform="translate(1094 2761)" fill="#fff"/>
    </clipPath>
    <clipPath id="clip-path-3">
      <rect id="Rectángulo_2571" data-name="Rectángulo 2571" width="1200" height="117" transform="translate(845 2823)" fill="#fff"/>
    </clipPath>
  </defs>
  <g id="Grupo_2262" data-name="Grupo 2262" transform="translate(2 -2703)">
    <g id="Grupo_2261" data-name="Grupo 2261">
      <g id="Grupo_2258" data-name="Grupo 2258">
        <g id="Grupo_2257" data-name="Grupo 2257">
          <g id="Grupo_2226" data-name="Grupo 2226" transform="translate(58.261 2721.509)">
            <g id="Grupo_1371" data-name="Grupo 1371" transform="translate(0 0)" opacity="0.25">
              <path id="Trazado_2707" data-name="Trazado 2707" d="M412.473-316.389c.656,1.174,1.258,2.4,2,3.492-4.947,1.835-10.7,2.925-16.017,4.415,4.626.6,10.889-.316,15.218.553-2.453,1.73-6.482,2.016-9.21,3.492,5.88-1.036,11.936-3.5,17.819-5.149,3.165,1.322,5.732,3.2,8.809,4.6a58.688,58.688,0,0,1-5.8,3.495c-1.522-1.527-7.354-2.772-6.809,1.284q-6.8,1.854-13.213,4.048v1.287c2.07.429,5,.062,7.408.183v9.564c-3.179-.7-5.832-1.878-9.011-2.577-.985,1.549-1.511,3.516-2.4,5.152,3,.429,6.874.062,10.209.183-1.959,4.636-4.24,8.979-6.4,13.426H393.652c-.461.435-.073,1.652-.2,2.391,1.152-.046,1.56-.775,2.6-.92,2,1.657,4.4,2.942,6.407,4.6-1.447,2.718-3.4,4.968-4.806,7.724a90.9,90.9,0,0,1-10.811-6.806c-1.846,1.433-3.873,2.7-5.605,4.232,4.728,1.12,10.266,2.032,14.816,2.758-6.485,3.484-14.09,5.94-20.823,9.2-2.151-.07-3.916-1.5-5.8-1.29-1.285.146-3.738,2.116-5.006,2.944a106.053,106.053,0,0,0-10.212,7.907,19.285,19.285,0,0,0-2.6-1.285c-1.527.548-1.792,1.789-3,2.572-2.437,1.573-6.056,1.965-8.409,3.678-1.228.9-2.521,3.23-3.6,4.782-3.373,4.823-6.687,9.961-10.009,14.53-1.843.391-3.263,1.171-5.208,1.471q-1.5-2.761-3-5.516h-4.6c-1.414-4.955-3.217-9.553-4.6-14.532a26.017,26.017,0,0,0,3-1.285c-.3-1.687.4-2.893,0-4.415-.237-.9-1.16-1.212-1.4-2.024a16.834,16.834,0,0,1,0-6.8c.6-2.491,3.63-3.867,4.806-6.069h5.605c1.379-1.428,1.851-3.695,2.6-5.7a9.439,9.439,0,0,1-4.6-4.966c1.139-.429,3.136-.065,4.6-.186-.095-1.994-.737-3.489-1-5.333-1.859.194-3.114.942-4.806,1.287,0-3.53,1.867-6.917,1.6-10.115-.2-2.44-2.386-4.137-2.6-6.436-3.821-1.517-9.472-1.352-15.015-1.287-.95-1.827-2.04-3.522-1.6-6.62h5.807v-1.471c-1.851-.6-3.778.173-5.206-.186-2.842-.715-2.839-4.612-3.605-6.62,2.933-.146,5.772-.327,8.412-.551,2.753-.237,5.772-.076,8.207-.737,1.438-.391,3.044-1.811,4.607-2.758,4.358-2.645,9.04-5.651,13.412-8.093a21.982,21.982,0,0,1,4.2,1.287c3.244-2.11,5.969-4.693,9.211-6.8Z" transform="translate(20.387 316.389)" fill="#e0e1e2" fill-rule="evenodd"/>
              <path id="Trazado_2708" data-name="Trazado 2708" d="M287.405-315.912c.8,2.221,5.165,6.256,5.8,8.827.667,2.68-.483,5.427,0,8.827H281.4c1.02-3.576.415-5.864,1.6-8.827C284.213-310.118,288.35-311.092,287.405-315.912Z" transform="translate(-6.707 317.199)" fill="#e0e1e2" fill-rule="evenodd"/>
              <path id="Trazado_2709" data-name="Trazado 2709" d="M358.694-315.843c.2.869-1.417,1.668-2.4,2.577a16.957,16.957,0,0,1-3,2.755c-1.479.783-3.778,1.133-5.8,1.84-1.859.648-3.775,1.4-5.608,2.021-3.921,1.325-8.239,2.334-11.41,3.864-.882.424-1.652,1.463-2.4,1.652-1.865.472-3.872-.135-5.605,0-2.628.21-4.685,1.017-7.008,1.29v2.575c-1.932.383-3.365,1.411-5.2,1.654a15.88,15.88,0,0,0-2.4,0c-1.649.453-3.349,2.9-4.6,4.045-1.714,1.576-3.222,2.844-4.6,4.045-1.738-.267-2.755-2.315-4.806-2.755-2.3-.5-4.957.37-7.208,0-1.951-.324-2.712-1.571-4.4-1.841,2.245-1.309,4.96-2.186,7.208-3.495q2.8.644,5.605,1.287c.583-.259.634-1.009,1-1.471-.561-.834-1.8-1.047-2.8-1.471,2.4-3.8,5.462-7,8.007-10.668,1.913.373,2.817,2.386,4.8,2.758,3.43.645,7.394-1.433,11.213-1.1.591-.5,1.344-.853,1.6-1.657-3.659-.364-6.771.5-9.812,0-2.615-.429-4.547-2.531-6.806-2.941v-4.966C320.926-315.843,340.667-315.846,358.694-315.843Z" transform="translate(-5.321 317.314)" fill="#e0e1e2" fill-rule="evenodd"/>
              <path id="Trazado_2710" data-name="Trazado 2710" d="M441.7-311.293a11.347,11.347,0,0,0,2.8-1.285,13.217,13.217,0,0,1,3.805,3.492c-1.268,1.9-2.245,4.067-3.406,6.069-2.693-.529-5.3-1.139-8.207-1.474a51.421,51.421,0,0,0-3.2-5.883c.82-1.455,2.421-2.191,3.4-3.495C438.84-313.328,439.876-311.955,441.7-311.293Z" transform="translate(251.639 320.671)" fill="#e0e1e2" fill-rule="evenodd"/>
              <path id="Trazado_2711" data-name="Trazado 2711" d="M450.5-310.129c-.9.766-2.089,1.738-3.4,2.944-.785.721-2.518,3.1-3.206,3.125-1.1.051-2.8-3.087-3.8-3.495.456-1.663,1.228-3.039,1.6-4.782C445.438-312.344,449.788-312.908,450.5-310.129Z" transform="translate(262.855 323.185)" fill="#e0e1e2" fill-rule="evenodd"/>
              <path id="Trazado_2712" data-name="Trazado 2712" d="M276.622-310.051c-2.4,3.044-8.112,6.609-12.214,3.311V-310.6a38.99,38.99,0,0,1,4.607,1.471,13.286,13.286,0,0,0,3.2-2.761C273.845-311.422,275-310.521,276.622-310.051Z" transform="translate(-35.567 324.028)" fill="#e0e1e2" fill-rule="evenodd"/>
              <path id="Trazado_2713" data-name="Trazado 2713" d="M391.494-309.674q-1.8,2.486-3.605,4.966c-3.484-.389-6.4.54-9.211,0-2.4-.459-3.837-2.758-5.8-3.311,2.99-1.843,9.718-2.448,14.217-3.309C388.53-311.6,390.131-309.72,391.494-309.674Z" transform="translate(148.678 324.938)" fill="#e0e1e2" fill-rule="evenodd"/>
              <path id="Trazado_2714" data-name="Trazado 2714" d="M273.056-310.869h.4v3.862c-3.152,1.15-6.142,1.916-9.21,2.941-2.912.974-5.8,2.661-9.61,2.574a35.735,35.735,0,0,1-1.8-3.492c2.334-.777,3.821-3.546,6.407-4.415,1.654-.556,4.534-.5,6.809-.737C268.512-310.386,270.87-310.456,273.056-310.869Z" transform="translate(-55.226 325.766)" fill="#e0e1e2" fill-rule="evenodd"/>
              <path id="Trazado_2715" data-name="Trazado 2715" d="M387.442-304.14c-2.9,3.106-5.611,6.374-6.207,11.588-2.591-.872-4.631-2.245-7.208-3.125.467-2.094,3.055-5.853.6-7.726a11.286,11.286,0,0,0-2.8,1.29,14.542,14.542,0,0,1-5.405-6.806c4.58-.205,10.465.788,12.813-1.474C381.926-308.266,384.969-306.466,387.442-304.14Z" transform="translate(137.715 326.574)" fill="#e0e1e2" fill-rule="evenodd"/>
              <path id="Trazado_2716" data-name="Trazado 2716" d="M655.89-305.371q3.579-1.223,7.009-2.575c3.36,1.268,6.25,2.963,9.61,4.229v7.726A53.629,53.629,0,0,0,665.1-292.5c.9.518,2.216.661,3.2,1.1a16.879,16.879,0,0,1-.8,2.2c3.379-1.862,5.737-4.663,9.008-6.62,2.469,1.349,5.23,2.432,7.81,3.678.464-.861.067-2.51.2-3.678,18.65.953,34.964,4.053,51.655,6.8.462-.435.073-1.649.2-2.388,2.817-1.136,5.171-2.3,7.807-3.495,2.4-1.093,5.111-3.041,7.607-3.495,2.7-.494,6.169,0,9.008,0,3.155,0,6.407-.294,9.011,0,2.485.281,5.033,1.363,7.408,2.021s5.138,1.943,7.208,2.024c1.921.076,4.631-.858,6.806-1.287,2.378-.47,4.62-1.155,6.609-1.471,3.694,2.121,6.995,4.6,10.609,6.806q8.711-2.117,17.62-4.048c.944.483,1.149,1.644,1.6,2.577a39.955,39.955,0,0,0,5.009-1.1v-2.761c3.311-.31,6.269-.51,9.208-.737,3.079-.235,6.358-.977,9.208-.734,2.07.178,4.455,1.357,6.609,2.024,4.558,1.4,8.552,2.607,13.215,4.045,2.172.669,4.625,1.789,6.606,2.021,4.615.54,8.924-1.39,14.014-1.285,2.143,3.546,4.922,7.492,6.606,10.849-7.443-.761-13.31-2.977-21.821-2.758.953,1.544.435,3.751-.6,5.7,2.6,1.411,5.494,2.556,8.207,3.865a40.967,40.967,0,0,1,5.006-1.474v3.678c-3.873,2.941-3.589,9.7-4.6,15.266-5.23-.391-6.776,2.6-10.209,3.862.577,1.921.88,4.094,1.4,6.067,1.886,1.517,4.024,2.8,6,4.231v2.391c3.9-.273,5.052,1.981,7.408,3.125.872.383-1.255,1-1.2,1.84.583,1.341,2.264,2.359,2.6,3.678.321,1.258-.183,2.639,0,3.862.7,4.715,4.526,8.854,3,15.08-3-2.34-6.024-4.682-9.008-7.173-2.828-2.361-6.175-4.712-8.609-7.357-3.9-4.234-6.561-9.353-10.411-13.793-.578-4,.793-7.416,0-10.665-.4-1.668-2.512-3.63-3.6-5.149a42.848,42.848,0,0,0-3.805-4.968c-.464,1.9-.067,4.6-.2,6.806a69.267,69.267,0,0,1-6.007-4.045c-1.088,2.431-1.7,5.3-2.6,7.91a18.975,18.975,0,0,0,5.006,1.654c-3.23,2.3-6.917,4.191-10.214,6.436-1.447-.629-2.119-1.978-3.4-2.761-7.068,1.722-14.047,3.524-21.22,5.152.237,2.108.545,4.566.8,7.17.237,2.442,1.085,5.57.6,7.357-.5,1.865-3,2.364-4.008,3.862,2.836,2.3,6.239,4.08,9.213,6.253a24.936,24.936,0,0,0,4.4-2.572c3.784,1.306,7.265,2.888,11.013,4.229,4.526,6.938,9.008,13.92,13.615,20.78-.151,5.335,1.646,10.231,1.4,15.08-.251,4.96-2.736,9.5-3.006,14.346-3.738-1.3-7.991-1.911-11.41,0,.1.769,1.276,1.517,1,2.024-1.654,3.1-1.2,6.191.2,9.378-2.07,2.137-1.19,4.577-.4,7.54h2.4c2.96,1.768,6.148,6.989,8.609,10.482,1.446,2.051,3.719,3.991,2.6,7.724-.621,2.081-3.686,2.909-5.006,4.782-5.168,1.036-4.822-2.456-6.406-5.333-.456-.826-2.88-2.583-3.2-3.309-.823-1.835-.046-4.237-.6-5.519-.729-1.681-3.538-1.859-4.407-3.309-1.007.116-1,1.166-2,1.287-2.07-.982-2.254-3.692-2-6.806-2.137,0-4.731.418-4.809-1.471-1.776.758-3.093,1.938-4.8,2.758-1.814-.418-3.311-1.128-5.206-1.471v-4.045c-.318-.629-1.376-.575-1.8-1.1-2.507,3.028-4.528,6.506-6.806,9.748,2.2,1.962,5.206,3.187,7.607,4.963,1.384-.567,1.986-1.851,3.2-2.572h6.409c.54,1.832,1.379,3.39,1.8,5.333h-3c-.818,3.908-.845,8.541-1.6,12.506,1.706,2.75,5.378,4.358,7.607,7.173,2.1,2.655,3.781,6.277,5.8,9.561.831,1.349,2.016,3,3,4.6.956,1.538,2.569,3.646,2.8,4.777.413,2-.38,5.017-.6,6.989a47.234,47.234,0,0,1-.8,6.806c-.8,2.834-3.586,5.88-5.2,8.641-1.827,3.122-3.041,6.428-5.608,8.28-6.32-.818-9.208,1.552-13.013,3.311-2.45,1.128-4.777,2.073-7.208,3.122v4.048c1.071.6,1.085,2.726.8,3.678-.564,1.889-4.153,3.565-5.206,4.782a21.814,21.814,0,0,0-3.6-1.657,32.593,32.593,0,0,1,3.8-6.62q-.7-1.287-1.4-2.577h-3.4a20.352,20.352,0,0,0-5.006,9.564c-.229,1.055-.931,2.3-.8,3.125.205,1.312,2.882,3.662,4,4.968,3.981,4.626,8.63,10.09,12.214,14.163.251,4.172.8,8.056,1.2,12.319.124,1.339.48,3.206.2,4.229-.316,1.152-2.51,2.232-3.805,3.314-3.865,3.222-7.634,6.66-11.413,9.559h-2.4a38.458,38.458,0,0,1,1.6-5.88c-2.761-4.947-7.734-7.856-11.612-11.772h-4.607a12.006,12.006,0,0,0-1.6-4.048c-2.2,0-1.6,2.421-1.6,3.864v5.149c0,3.438-.621,7.567,0,10.3.578,2.537,3.395,3.071,3,5.7,1.279,1.708,2.68,3.3,4,4.968h1.6q3.578,3.514,7.408,6.8c-.081.621-.774-.491-.6.367a34.409,34.409,0,0,1,2.4,9.931,19.608,19.608,0,0,0,0,2.388c.388,1.908,2.324,3.927,1.4,6.439a43.728,43.728,0,0,0-8.406-2.942c-3.479-6.064-8.056-11.116-12.813-16,.34-.418,1.527-.068,2.2-.184-.559-2,.542-5.524-1.6-6.067.982-5.028-5.492-5.065-5.8-9.564-.111-1.533,1.263-2.9,1.4-4.229.205-1.975-.551-4.415-.8-6.622-.256-2.243-.116-4.647-.6-6.623-.537-2.172-2.137-4.844-3.206-7.173-2.256-4.909-2.979-10.152-6.4-13.793-1.773,1.376-2.777,3.462-4.407,4.968-2.027-.283-3.4-1.169-5.4-1.473V-36.5c-2.693-3.058-5.629-6.2-8.611-9.194a9.286,9.286,0,0,0-3-2.391,14.274,14.274,0,0,1-1.6-8.641c-1.217-.661-2.234-1.506-4.4-1.29-.467.985-.07,2.761-.2,4.045h-8.808c-.459.378-.07,1.53-.2,2.21a29.17,29.17,0,0,0-4.607,7.54c-.6.61-1.376-1.271-1.8-1.287a15,15,0,0,0-2.6,2.2c-2.04,2.666-3.352,7.162-5.608,10.3a24.833,24.833,0,0,1-1.8,1.841c-2.521,2.909-3.1,6.015-7.208,6.806,1.549,5.816,1.382,12.811.6,19.312-.275,2.291-.051,4.779-.6,6.25-.337.9-1.376,1.409-2,2.207-1.662,2.124-2.863,4.825-4.2,6.62-7.8,1.411-6.167-8.12-8.209-12.319-1.384-1.123-3.09-1.946-4.6-2.944.4-4.874-1.4-8.023-2.807-11.769-1.935-5.173-3.819-9.853-6-15.08C671.9-34.5,670.274-37,669.7-39.443c-1.05-4.512-.2-9.121-1.4-14.53h-1.6c-1.185,1.854-1.43,4.574-3.6,5.519-3.862.632-5.306-1.746-7.208-3.495a48.72,48.72,0,0,0-4-3.678c.618-1.268,2.018-1.822,2.8-2.942-.731-1.465-4.415-.375-5.807-.734-1.3-2.475-4.539-4.623-6.806-6.806-5.988-.321-10.9.437-16.216,0-5.171-.426-10.571-2.24-16.618-1.471-1.4-2.089-2.07-4.841-4-6.436-2.108,1.128-3.843,2.6-5.8,3.859-2.8-1.657-5.09-3.784-7.81-5.513a10.626,10.626,0,0,1-7.6-2.944c-2.364-2.167-3.732-5.821-5.608-7.907H573.6c.769,5.853,4.191,9.264,6.207,13.976.448-.078.081-.907.2-1.287a34.136,34.136,0,0,0,4.4.734c.095,1.446.219,2.866.4,4.231a16.967,16.967,0,0,0-2.6-.367c.283,1.333,1.743,1.584,1.4,3.495,1.179-1.123,1.4-3.128,2-4.782a39.544,39.544,0,0,1,4,3.676v4.966h9.213c1.819-2.062,2.9-4.814,4.8-6.8,2.75-.3,4.129,2.135,5.605,3.492,4.561,4.188,8.59,8.989,13.213,13.24-3.481,4.639-6.66,9.758-10.209,14.716-1.112,1.549-2.2,3.616-3.406,4.779-2.569,2.485-6.436,3.12-9.011,5.7-2.464-.291-5.1.162-4.2,3.495-1.808,1.719-4.429,2.826-7.008,4.412-2.113,1.3-4.3,3.274-6.806,4.412-2.456,1.123-5.645,1.884-8.811,2.942-1.274.429-2.785.934-4.4,1.473-1.419.475-3.511,1.2-4.8.92s-3.22-2.574-3.6-4.415c-.183-.869.17-1.727,0-2.572-.308-1.509-2.323-4.774-3-4.418-.437-1.921.57-4.331,0-6.434-.386-1.419-2.7-3.435-4-4.966-3.087-3.643-5.241-5.959-8.409-9.564-1.317-1.5-3.417-3.546-4-4.968-1.463-3.524-1.039-6.9-2.6-11.4-.648-.88-2.037-1.074-3-1.657q-3.7-6.8-7.408-13.609-1.6-.737-3.2-1.468V-85.234h-1.6a57.934,57.934,0,0,0-1.6,7.354c-2.086-1.088-3.122-3.136-5.206-4.229,2.091,5.867,5.794,11.369,9.008,16.737,1.363,2.272,2.815,4.52,4.207,6.8a77.863,77.863,0,0,1,4.2,6.806c.855,1.83,1.258,4.159,2.4,6.253.934,1.711,2.823,3.943,3.2,5.7.181.842-.135,1.762,0,2.577.467,2.844,2.566,5.33,3.4,8.274.866,3.028,1.53,5.932,2.4,9.194h2.4C551.044-17,553.9-13.5,558.387-11.49c.917,2.777,3.346,4.161,3,8.1A16.245,16.245,0,0,1,567,.468c7.365-2.245,14.824-4.407,22.024-6.8.856.5,1.349,1.33,2.2,1.835-.826,3.595-1.66,7.03-2.4,10.484s-.926,7.254-2.2,10.482c-.764,1.924-2.442,3.784-3.605,5.7-3.376,5.573-6.793,11.734-9.81,17.657-2.1.34-3.908.947-6.007,1.287-3.363,4.458-7.359,9.3-10.209,13.607-.291.289-1.026.165-1.6.186a24.022,24.022,0,0,0-3.2,4.231c-.8,1.328-2.237,3.079-2.6,4.782-.337,1.554.459,3.387,0,5.149-.256.963-1.22,1.29-1.8,2.2-1.244,1.967-1.474,4.553-2.6,6.069,2.618,3.967,1.287,9.742,2.8,14.163.278.81,1.368,1.43,1.6,2.208.753,2.521-.607,5.9,0,9.008.38,1.962,2.731,4.142,3,5.7.318,1.843-.537,4.5-.8,6.806-.491,4.3-.267,7.807-2.4,10.3-3.311-.475-4.245.855-6.406,2.572-1.266,1.009-2.434,1.984-3.4,2.761-3.322,2.664-6.4,4.6-8.007,8.277-1.824-.081-3.6-.116-4.2.92a23.061,23.061,0,0,0,1.2,6.987c.578,2.1,1.824,4.3,1.8,6.253-.022,1.878-1.317,4.178-2,6.069a37.708,37.708,0,0,1-2.6,5.516c-3.951-.524-6.282.659-7.6,2.944-2.029,3.489-1.117,9.607-2.6,13.056-.472,1.085-2.127,2.715-3.206,4.045-2.971,3.678-5.778,9.022-8.809,12.506-1.452,1.671-5.467,4.391-7.807,5.7-3.2,1.8-8.288,2.186-13.016,3.13-3.176.632-7.181.891-10.009,2.024-1.633.653-1.814,1.8-3.605,2.941h-5c-.54-1.482-1.012-3.225-1.6-5.152-.486-1.579-1.673-3.611-1.6-4.965.051-.961,1.314-1.927,1.4-2.942.119-1.365-1.017-3.724-1.6-5.886-1.117-4.14-2.226-7.454-3.6-11.218-.7-1.913-1.849-3.454-2.4-4.965-1.066-2.9-1.557-6.25-2.4-9.378q-2.461-9.112-5-18.572c-.858-3.174-1.4-6.5-2.6-9.2-1.363-3.076-4.563-5.772-6-8.463V120.374a26.756,26.756,0,0,0,3-1.287c.424-3.031-.583-5.387,0-7.726.6-2.38,3.651-3.678,4.407-5.7-.537-5.381-2.469-11.4-3-17.474-.194-2.2.413-4.5,0-6.617-.427-2.175-2.572-4.194-3.605-5.888-1.776-5.88-5.926-10.865-9.408-16.184-.837-1.274-3.055-3.932-3.206-5.149-.2-1.665,1.67-5.772,2.2-7.54.761-2.529,1.541-4.922,2.2-7.354-1.765-3.595-4.563-6.231-7.208-9.014-2.958.41-5.756.966-8.811,1.287-1.484-3.114-2.923-6.261-4.4-9.378-1.776.03-3.254,1.025-5.206,1.285-1.522.205-3.122-.3-4.6,0-2.083.432-3.327,2.469-5.006,2.944-3.165-.3-7.038.818-11.41,1.1-7.931.521-16.011-.68-20.623,2.758-3.954-4.491-11.858-6.841-15.817-11.4-.934-1.074-1.471-2.4-2.4-3.492-1.322-1.557-3.249-2.639-4.607-4.232-2.178-2.556-3.57-5.945-5.405-8.825-1.843-2.9-4.18-5.392-5.605-8.463.356-1.722.928-4.118.4-5.883-.459-1.536-2.575-2.008-3-3.125q2.858-7.027,6-13.8c-1.166-4.69-.346-11.208-3-14.53-.356-4.032,1.619-7.3,3-10.668,3.111-7.581,7.8-14.6,11.412-21.516-.022-.47-.669-.364-1.2-.367,6.2-2.337,10.158-6.73,15.015-10.3.556-1.849.944-3.643,1.4-5.333.475-1.759.648-3.875,1.4-5.335,1.009-1.948,5.211-4.785,7.006-6.436,2.472-2.272,4.79-4.318,7.008-6.253,4.08-.494,8.722.645,13.215,0,4.572-.653,10.347-4.752,15.215-5.516,6.668-1.047,15.083.014,22.024-1.287,1.079-.2,2.977-1.357,4.2-1.287,2.1.119,3.2,2.313,5.206,2.942v10.3c-1.1.221-1.708.885-2.8,1.1v2.024a46.481,46.481,0,0,0,9.008,3.125c3.128.718,6.806,1.063,9.812,2.207,2.467.939,5,2.742,7.408,4.048,2.529,1.366,4.833,2.893,7.208,4.045.669-.3,1.333-.615,2-.923-2.027-1.951-.486-4.437.2-6.8,2.167-2.118,7.141-1.654,11.612-1.654.237,1,.961,1.565,1.2,2.572,8.871-.818,13.383,2.41,20.021,4.048,2.016-1.031,2.987-3.017,5.006-4.048,2.45.629,5.13,1.05,7.807,1.474a16.243,16.243,0,0,0,1.2,2.391c1.4-.251,1.916-1.306,3.8-1.1.877-2,1.59-4.358,2.6-6.809.88-2.121,2.607-4.41,3-6.25a19.251,19.251,0,0,0-1-10.115c-2.974.051-5.743,1.428-8.406,1.287-2.753-.143-4.825-2.059-7.208-2.575-1.066.739-5.778,2.89-7.807,2.575S497.063-118,493.52-116.5c-.634-5.484-3.514-8.911-6.007-12.686,2.461-3.012,5.789-5.227,8.409-8.093-2.237.766-4.736,1.293-5.808,3.125-2.858.38-5.1-.529-7.205,0-2.07.524-2.861,3.012-4.407,3.864-1.123,5.937,4.35,5.813,4.407,10.668-2.307,1.56-3.991,3.689-8.611,3.122a29.166,29.166,0,0,0-1.8-4.963c.8-.437,2.7.151,2.807-.92-.335-1.654-3.576-.64-5.408-.92-1.4-1.9-1.33-5.152-4.4-5.516a25.266,25.266,0,0,1-1.6-10.851c-6.5-3.47-13.72-6.277-17.015-12.689-.712-.472-1.193.537-1.6.92-1.012-.726-1.266-2.151-2.6-2.575-2.507,3.414.855,7.049,1.6,10.665,2.745,1.894,6.38,2.968,8.609,5.335,3.748.418,5.133,3.009,7.807,4.412v2.207c-2.437-.157-4.464.067-5.605,1.1-.024,1.538,1.266,2.28,1.2,3.495-.1,1.87-2.726,3.071-3.2,4.966-.853-.076-2.062.178-2.6-.186-.548,2.38-1.117,4.739-1.8,6.99-.888.256-1.614-.855-2.4-1.473-2.329-1.816-5.478-3.848-7.607-5.883v-2.208c3.813.664,7.643,1.314,11.612,1.838-.456-2.512-.216-5.233-1.2-7.357-1.36-2.928-7.724-4.65-10.209-6.8-1.619-1.4-2.507-3.381-3.605-4.782a44.728,44.728,0,0,1-3.6-4.779,19.363,19.363,0,0,1-2.6-1.1c-1.5,1.22-3.576.869-5.608,1.285-1.951.4-3.23,2.1-4.6,2.761-2.1.278-6.172-1.94-8.409-1.285-.672.194-.88,1.163-1.6,2.021a11.779,11.779,0,0,0-2,5.516c-2.531,1.411-6.1,1.876-8.808,3.125-.232,1.617-1.622,2.021-1.8,3.495-.243,1.984,1.541,4.226,1.2,6.069-.262,1.409-2.96,3.333-4,4.232-1.614,1.39-3.009,2.458-4.4,3.678-2.2.189-4.148.607-6.207.918-1.088,1.33-1.97,2.85-3,4.231-3.149-.788-4.55-3.176-6.207-5.335-2.046.329-3.808.915-5.8,1.29-.731-2.477-.445-4.79-1.4-6.806-.308-.648-1.212-1.15-1.4-1.841-.467-1.7.667-3.913,1.2-5.7a40.255,40.255,0,0,0,1.6-5.335c.534-3.883-.4-6.927,0-11.216,2.453-.259,4.026-1.328,4.6-3.311,6.069,1.231,12.646,1.992,18.618,3.311.413-3.794-.213-8.536,1.6-11.035-1.544-2.386-3.6-4.291-5.405-6.436H382.4c-.408-3.565.8-5.646,1.6-8.093,3.12-.659,2.78,1.862,5.807,1.287.9-1.009,1.093-2.672,1.6-4.048,2.378-.283,3.349.729,4.806,1.29a13.83,13.83,0,0,0,7.006-6.436c4.736-.737,4.218-6.3,9.008-6.99,1.932-1.007,2.653-3.171,4.806-4.229,2.844-1.392,6.76-1.223,9.41-3.128-1.865-1.411-.758-5.554-2.6-6.987a23.185,23.185,0,0,1,8.808-10.851c-.251,2.329.335,4.186,0,6.436-.435,2.923-2.529,5.1-1.6,7.724.518,1.471,2.723,1.624,4.008,2.758,3.249-1.66,7.168-1.061,10.808,0,.567.032-.165-1.134.4-1.1a75.733,75.733,0,0,1,18.418-4.231c.769.151.5,1.26,1,1.657,5.891-.475,7.017-5.327,7.008-11.218h4.6c.564-.831.721-2.038,1.2-2.942-1.12-.753-2.947-.85-4.2-1.473V-218.2c2.661-.715,5.411-.513,7.61-1.287,2.273-.8,3.638-2.836,5.406-3.862-.332-.615-.669-1.225-1-1.838-3.263-.192-5.438,1.087-8.209,2.021-2.073.7-4.58,2.035-6,2.024-2.539-.022-4.2-2.4-6.809-2.944-.173-1.8-.356-3.381-.6-4.963-.232-1.5-1.055-3.241-.8-4.6s2.507-2.3,3.206-3.5c1.6-2.744,1.916-6.555,4-8.825a5.583,5.583,0,0,0-1.2-2.391h-1.8a115.175,115.175,0,0,0-4.407,10.665c-2.585,1.795-5.022,3.727-7.608,5.519-.723,2.583-1.711,4.928-2.6,7.356a35.47,35.47,0,0,0,6,4.229,56.679,56.679,0,0,1-4.6,5.335c-1.471,1.7-3.692,3.209-4.806,4.966-1.285,2.024-1.552,4.464-2.8,6.8-2.367.4-4.442,1.071-6.809,1.471-2.334-4.782-4.844-9.4-7.006-14.343-2.486,1.276-4.89,4.207-7.208,6.253-2.172-.64-4.634-1.017-6.809-1.654-.043-6.461-2.051-11.11-3-16.737,3.409-3.182,7.295-5.926,11.011-8.827h3.6c-.289-3.608,1.406-5.154,3.206-7.54,3.122-4.145,6.733-8.077,9.008-12.692,3.357-1.733,6.075-3.886,9.41-6.067,1.12-.731,2.113-1.924,2.8-2.207,2.213-.907,4.952-.542,7.006-1.287,2.69-.977,3.716-2.871,6.207-4.048,5.683.17,9.893-.2,13.615,1.29,1.46.583,2.016,2.145,3.4,2.942,2.226,1.279,4.647,1.131,6.809,2.388,2.262-1.595,4.178-1.047,7.405-.548a34.082,34.082,0,0,1,4.607.548c1.7.556,4.717,3.079,6.407,4.234,2.342,1.595,4.393,3.336,6.207,4.412-1.617,2.62-3.144,5.327-6.606,6.253-4.509-1.19-8.995-2.407-13.412-3.678,1.042,2.9,3.425,6.172,4.8,9.378,2.17,1.255,4.434,2.426,6.606,3.678,1.179-.14,1.511-1.061,2.2-1.654-1.163-1.136-2.842-1.805-4.2-2.758.615-.845,1.587-1.363,2.2-2.208,2.172.518,4.52.872,6.809,1.287.151-3.662,3.368-4.507,5.206-6.62h3.6c.467-3.433.068-7.664.2-11.4q3.744,2.352,7.208,4.963c-.024,1.433-.2,3,.8,3.5,5.165-2.92,9.917-6.215,14.813-9.383,1.452.631,2.121,1.978,3.406,2.761,3.568-1.506,7.645-2.539,11.21-4.045,1.193.974,4.183,2.491,5.6.55-.14-1.676.521-3.13,0-4.6,3.152.383,5.608-.532,8.01,0,2.5.548,4.016,3.222,6.007,4.045a18.812,18.812,0,0,1,3.2-.92c-2.615-3.236-5.635-6.1-8.406-9.194,1-2.577,2.2-4.965,3.2-7.54h8.406c2.542,6.309,7.033,10.83,10.212,16.551,1.228.281,1.976,1.007,3.206,1.287.567,3.711-1.276,5.206-2.2,7.54,1.527.237,3.546-.664,5.408-.734-.777-4.086,1.387-5.467,3.4-6.99,2.812.788,5.146,2.013,8.007,2.758,1.984,2.345,4.008,4.655,6.207,6.806.529-1.382-.051-3.109.2-4.415,2.626,1.144,4.742,2.758,7.408,3.862.437-1.384-1.2-1.816-2-2.207-4.68-2.275-8.976-4.353-14.014-6.8-1.862-.907-3.959-2.448-5.6-2.758-2.162-.408-3.948.467-5.8,0-2.78-.7-5.756-6.042-8.212-7.357v-7.724c2.639.829,5.117,1.8,7.61,2.758,1-.119,1-1.169,2-1.287,3.433,1.015,6.917,1.984,10.611,2.758.993,1.417,1.722,3.079,2.6,4.6a4.242,4.242,0,0,0,1.2-2.024c.961.346,1.959.653,3,.92-.5-1.506-2.164-3.527-3.2-5.149-2.628-.281-4.944-.853-7.408-1.287a41.1,41.1,0,0,0-3.2-7.54c6.2-3.681,12.279-7.481,18.421-11.218h18.019c-1.962-2.836.685-6.142,2.6-8.093,2.037.238,3.47-.337,4.806,0C653.407-308.7,654.087-306.095,655.89-305.371ZM570.8-165.416c-4.186,2.04-8.873,3.622-12.214,6.434,1.177,6.164,4.067,9.132,7.208,13.979.788,1.22,1.827,2.8,3,4.412.9,1.241,2.828,3.354,3,4.415.491,2.974-1.549,5.959-1.4,9.564,1.554,2,2.558,4.515,4.4,6.253,4.375.34,7.443-.521,10.813-1.1-1.365-5-2.736-9.99-4-15.08,1.079-.6,2.237-1.131,3.4-1.657a12.226,12.226,0,0,0-3.2-3.676c-.92.254-2.054.318-3,.551-2.985-4.555-6.89-8.261-10.009-12.689a47.567,47.567,0,0,1,4.8-4.782c1.341.362,2.583.815,4,1.1.213-1.519,1.144-2.383,1.4-3.865C576.158-162.736,573.77-164.342,570.8-165.416Zm-54.459,4.229a47.4,47.4,0,0,0,3.8,5.149c-2.529,1.109-4.6,2.634-7.006,3.862-1.473-1.341-2.833-2.79-4.207-4.231.426-.464.235-1.5.6-2.021-2.14-.243-3.986-.753-6.007-1.1-2.081,3.114-4.191,6.2-6.207,9.381-.453-.092-.437-.9-1-.37a17.15,17.15,0,0,0-1.6,4.229h-1.4c-.6,4.48,2.248,5.783,3.808,8.279,8.387.089,14.762-2.893,22.42-4.048,1.619.521,2.542,2.237,4.407,2.575,2.019.367,5.025-.348,7.608-.551,2.688-.21,5.225-.537,7.608-.553.6-.793.351-2.372.4-3.678-4.968-3.708-10.7-6.722-15.817-10.3.5-2.429,2.175-5.713,1.6-7.91C522.368-162.027,519.448-161.522,516.342-161.187Zm81.087,3.495c-.173,2.048-.211,4.221-.4,6.253,2,.186,3.781.572,5.608.917.459-2.539.5-4.326,1.8-6.067-1.171-1.438-2.03-3.163-3.4-4.415C599.936-159.806,598.565-158.856,597.429-157.693ZM521.146,50.671c-1.509,2.861-1.873,4.634-4,6.623.461.985.739,2.143,1.2,3.125,7.974,1.36,7.335-5.249,10.611-7.724C527.89,49.405,524.389,49.017,521.146,50.671Z" transform="translate(71.68 328.359)" fill="#e0e1e2" fill-rule="evenodd"/>
              <path id="Trazado_2717" data-name="Trazado 2717" d="M270.589-309.026c.971-.154,3.678,4.369,4.8,4.412.686.027,2.019-2.51,2.8-2.574,1.635-.129,2.07,2.6,4,3.311-1.649,2.1-3.452,4.064-5,6.253-3-1.29-5.451-3.087-8.409-4.415C269.255-304.49,270.105-306.59,270.589-309.026Z" transform="translate(-28.13 328.889)" fill="#e0e1e2" fill-rule="evenodd"/>
              <path id="Trazado_2718" data-name="Trazado 2718" d="M275.908-308.62c1.746,2.747,6.444,2.782,10.212,3.676v2.577c3.519,1.085,7.98,3.8,11.413,1.287q3.858,1.6,8.007,2.941a47.836,47.836,0,0,1-1.8,5.152c-3.014-.122-4.982-1.347-7.807-1.29-2.1.043-4.016,1.387-5.807,1.29-1.643-.094-3.4-1.563-4.8-2.208-1.646-.761-3.168-1.339-4.806-2.024v-2.758c-1.441-1.069-3.163-1.878-4.6-2.944Z" transform="translate(-16.032 329.586)" fill="#e0e1e2" fill-rule="evenodd"/>
              <path id="Trazado_2719" data-name="Trazado 2719" d="M270.977-305.586c4-.8,6.668-2.825,11.612-2.761.726.418-1.341,1.3-1.6,2.024,1.347,1.031,3.686,1.15,4.2,2.941-1.317.934-2.283,2.194-3.6,3.125-5.23.491-9.124-.672-13.213,0-3.77.623-5.924,4.072-11.815,2.761-.224-.551,1.026-1.492,1.8-2.207a17.643,17.643,0,0,0,2.4-2.2c-1.1-.58-2.615-.788-3.8-1.29v-2.208a72.686,72.686,0,0,0,8.007-2.942A51.873,51.873,0,0,1,270.977-305.586Z" transform="translate(-48.942 330.047)" fill="#e0e1e2" fill-rule="evenodd"/>
              <path id="Trazado_2720" data-name="Trazado 2720" d="M375.879-307.939c1.986,1.792,4.688,3.908,6,5.7h-6.4A9.484,9.484,0,0,1,375.879-307.939Z" transform="translate(152.681 330.743)" fill="#e0e1e2" fill-rule="evenodd"/>
              <path id="Trazado_2721" data-name="Trazado 2721" d="M267.037-306.3c1.174,1.741,2.564,3.284,3.605,5.149-2.969.685-5.7.634-8.01,1.471-4.175,1.514-6.806,5.1-10.611,6.8h-8.609c1.112-2.167,2.4-4.167,3.4-6.436,3.7-2.245,7.146-4.717,10.811-6.987Z" transform="translate(-71.23 333.522)" fill="#e0e1e2" fill-rule="evenodd"/>
              <path id="Trazado_2722" data-name="Trazado 2722" d="M434.141-302.625c-3.91,1.43-7.8,1.252-11.013,2.758-3.549,1.665-5.921,6.677-9.607,8.46a36.457,36.457,0,0,0-5.408-1.657c2.753-3.97,5.378-8.053,8.209-11.952,4.169,2.361,8.242.119,12.012-1.287C430.423-305.215,432.6-304.217,434.141-302.625Z" transform="translate(208.539 333.522)" fill="#e0e1e2" fill-rule="evenodd"/>
              <path id="Trazado_2723" data-name="Trazado 2723" d="M268.7-300.172c1.352-.416,1.617-1.827,3-2.207,3.608,1.776,5.843,4.809,12.214,4.045-.464,5.392.893,9.111,1.6,13.426-3.238.127-7.2,2.7-11.011,2.758-1.719.027-4.369-1.128-5.807-1.287a77.849,77.849,0,0,0-8.209,0c-2.723,0-6.234.575-8.207,0-2.11-.613-4.037-5.395-5.608-6.62h13.415c0-1.228-.723-1.789-.8-2.941h-7.81v-3.865h4.4c.138-1.535-.337-2.507-.2-4.045q6-1.3,11.612-2.942A12.369,12.369,0,0,1,268.7-300.172Z" transform="translate(-65.686 337.689)" fill="#e0e1e2" fill-rule="evenodd"/>
              <path id="Trazado_2724" data-name="Trazado 2724" d="M284.552-302.495c-.475,1.525-1.473,2.569-2,4.045-4.76-.634-6.925,1.12-9.208,2.761a5.384,5.384,0,0,1-2.4-2.208,51.3,51.3,0,0,0,4.806-5.886C278.884-303.542,280.838-302.209,284.552-302.495Z" transform="translate(-24.476 337.804)" fill="#e0e1e2" fill-rule="evenodd"/>
              <path id="Trazado_2725" data-name="Trazado 2725" d="M290.892-302.28c-1.1,1.733-2.229,3.781-3.4,5.7-1.071,1.754-3.411,3.605-2.2,5.7,2.162-2.615,3.689-5.81,5.605-8.647,1.822.108,5.8-2.869,7.61-2.755.7.043,2.58,1.355,2.6,1.838.024.529-3.716,3.6-4.2,4.045-1.714,1.573-3.128,2.448-4.2,4.045a57.176,57.176,0,0,0,10.611-5.883,76.723,76.723,0,0,0,7.608,2.758c2.982,3.389,6.126,6.633,9.211,9.931a18.865,18.865,0,0,1-1.4,3.308c-.416.939-1.479,2.4-1.4,3.311.135,1.608,3.881,4.3,5.206,5.7.95,1,2.418,2.747,3.805,4.229.6.64,1.411.971,1.4,1.287-.019.7-4.348,3.36-5.006,3.862-1.948,1.49-3.268,2.529-4.8,3.862-1.989-2.342-3.484-5.135-5.605-7.357a23.823,23.823,0,0,0-1,3.311,13.048,13.048,0,0,0,3,2.942c-1.579,3.025-3.336,5.886-4.8,9.014-3.133.364-3.74-1.592-5.8-2.207-.772,2.415-.974,5.36-1.6,7.907-3.376-2.048-6.9-3.962-10.012-6.253q.64-1.992,1.4-3.862c-1.97-.534-4.391-3.333-6.606-3.678-2.672-.415-5.276,1.3-8.209,1.473.47-2.148,1.214-5.627,3.4-6.806h8.409c1.444-5.538,4.453-9.64,7.208-13.976-6.5-2.485-13.607-4.423-20.224-6.806q-1.668-3.611-3.2-7.356c.9-4.075,3.681-6.426,6.606-8.641Z" transform="translate(-18.805 340.35)" fill="#e0e1e2" fill-rule="evenodd"/>
              <path id="Trazado_2726" data-name="Trazado 2726" d="M415.852-298.468a46.729,46.729,0,0,0,1.4,6.439c2.583,1.549,6.318,2.04,8.808,3.678-3.651.507-7.335.982-10.811,1.652-3.519-2.162-6.323-4.982-9.81-7.17,1.886-2.437,4.553-4.153,6.606-6.436C413.3-299.685,414.7-299.189,415.852-298.468Z" transform="translate(204.004 343.709)" fill="#e0e1e2" fill-rule="evenodd"/>
              <path id="Trazado_2727" data-name="Trazado 2727" d="M278.172-287.718c1.16,3.163,2.413,6.245,3.4,9.561-2.092-.65-4.58-.939-6.606-1.654a10.086,10.086,0,0,1-6.606,1.471,16.178,16.178,0,0,0-1.8-3.309c1.665-2.518,3.217-5.138,5.006-7.543C274.453-289.332,275.9-288.142,278.172-287.718Z" transform="translate(-31.911 362.568)" fill="#e0e1e2" fill-rule="evenodd"/>
              <path id="Trazado_2728" data-name="Trazado 2728" d="M340.352-284.941c4.434-.955,8.949-1.832,13.415-2.758,1.519,3.141,5.427,4.086,4.8,9.194-3.659,1.665-7.61,3.516-11.612,5.333-1.214.553-2.842,1.625-3.8,1.657-1.63.057-4.14-1.376-5.807-2.021-1.908-.74-3.6-1.776-5.605-2.208q1.5-2.757,3-5.519c-1.117-1.854-3.819-3.233-4.6-4.782,2.243-.575,4.7-.952,6.809-1.654C338.4-287.07,339.067-285.723,340.352-284.941Z" transform="translate(76.089 365.123)" fill="#e0e1e2" fill-rule="evenodd"/>
              <path id="Trazado_2729" data-name="Trazado 2729" d="M544.49-253.8v2.2h-3.4c1.538,2.264,4.439,4.871,6.4,7.359-.424,2.245-1.241,4.129-1.6,6.436a24.6,24.6,0,0,1-4.407-2.944c-1.349-.98-3.271-1.919-4.2-3.125-1.258-1.627-2.073-4.118-3-6.069s-1.506-4.234-2.8-6.069c-1.827-2.583-5.063-4.191-7.208-6.436-2.364-2.472-3.964-4.941-6.207-7.356v-6.253c2.618-.513,3.532,1.209,5,2.944,2.574,3.023,5.111,7.081,7.81,9.561,2.1,1.929,4.89,3.23,7.006,4.782C540.2-257.068,542.336-255.584,544.49-253.8Z" transform="translate(395.305 384.745)" fill="#e0e1e2" fill-rule="evenodd"/>
              <path id="Trazado_2730" data-name="Trazado 2730" d="M357.221-274.547v2.761c1.217,1.209,3.055,1.851,4.4,2.941.132,2.815-.853,4.609-1.4,6.806,3.352,5.135,6.89,10.1,10.411,15.08-1.638,2.969-2.121,7-5.006,8.827h-6.606c-.791-.051-.057,1.293-.6,1.471-5.751-.748-6.5,3.1-11.812,2.755,1.109-3.576,4.24-5.3,7.008-7.354-.532-.615-1.611-.726-2.2-1.287V-248.8h4.2a13.25,13.25,0,0,1-1.2-6.8c-.54-.426-1.932-.067-2.8-.186-1.042-2.9-1.994-5.891-3.2-8.641,1.525-3.384,3.246-6.579,4.6-10.117Z" transform="translate(104.066 387.464)" fill="#e0e1e2" fill-rule="evenodd"/>
              <path id="Trazado_2731" data-name="Trazado 2731" d="M368.3-270.662c2.2,1.592,4.79,2.834,4,7.173-2.013-.483-3.711-1.25-5.807-1.654C366.9-267.162,367.856-268.673,368.3-270.662Z" transform="translate(137.841 394.064)" fill="#e0e1e2" fill-rule="evenodd"/>
              <path id="Trazado_2732" data-name="Trazado 2732" d="M358-261.808h-1.6c-.426,2.245-.977,4.377-1.4,6.622a48.618,48.618,0,0,1-13.213,4.6c.389-2.035,1.236-5.238,3-6.623.78-3.22-2.461-2.888-1.4-6.436.3-.99,1.174-1.036,1.8-2.021,3.292-.275,5.16-3.81,9.011-2.761A5.912,5.912,0,0,1,358-261.808Z" transform="translate(95.875 397.529)" fill="#e0e1e2" fill-rule="evenodd"/>
              <path id="Trazado_2733" data-name="Trazado 2733" d="M302.258-263.575c.391.618-.737,1.128-1.2,1.654-1.511,1.719-3.184,4.051-4.8,5.705a45.765,45.765,0,0,0,5.605,2.572,29.032,29.032,0,0,1-1.4,4.048c.675.729,1.911.942,2.8,1.468-.211,3.241-2.051,4.982-5.8,4.968v-4.048c-1.509.945-2.227,2.615-3.2,4.048h-2.4a22.043,22.043,0,0,1-1.4-2.761c-2.62-.475-5.3-.893-7.807-1.471a29.5,29.5,0,0,1,1.4-4.048c-.194-.985-1.409-1.031-1.6-2.021,3.891-2.618,7.278-5.7,11.013-8.46C296.348-262.506,299.362-262.987,302.258-263.575Z" transform="translate(-4.944 406.102)" fill="#e0e1e2" fill-rule="evenodd"/>
              <path id="Trazado_2734" data-name="Trazado 2734" d="M529.138-261.053c3.781,1,7.481,2.075,11.413,2.942q3.077,3.06,6.4,5.883c-1.705,2.113-3.387,4.248-5.206,6.255h-5.605a9.644,9.644,0,0,0-1.4,2.575h-4.2c.194-2.766-.753-6.579,1.4-7.543C530.341-253.7,528.428-256.174,529.138-261.053Z" transform="translate(413.86 410.386)" fill="#e0e1e2" fill-rule="evenodd"/>
              <path id="Trazado_2735" data-name="Trazado 2735" d="M283.992-257.51c.483,2.683-.451,6.666,1.8,7.726-1.069,2.019-4.342,2.016-7.807,1.838C279.834-251.276,282.187-254.142,283.992-257.51Z" transform="translate(-12.504 416.404)" fill="#e0e1e2" fill-rule="evenodd"/>
              <path id="Trazado_2736" data-name="Trazado 2736" d="M542.215-254.58c3.187,2.224,5.589,5.165,8.609,7.543,1.3,3.338,2.871,6.439,4.4,9.561.116,1-1.355,1.069-1.4,2.208-.057,1.468,2.248,1.9,3,3.495a34.078,34.078,0,0,1,1.4,6.62c-.113,1.4-1.325,1.789-1.8,3.678-1.276-.178-1.214-1.584-2.6-1.657-.836,1.5-1.1,3.527-1.6,5.335-3.781,1-7.483,2.078-11.415,2.944a9.675,9.675,0,0,0-1.4-2.575q-6.606,1.283-12.813,2.942c-.119-.764.836-1.379,1.4-2.024,1.517-1.735,3.576-5.046,5.608-6.436,1.908-1.306,4.437-1.668,5.405-3.678-.618-4.31,3.128-4.607,4.607-6.99-.289-3.012.4-5,0-7.356-.475-2.8-2.89-4.9-3-7.17C540.5-250.281,542.142-251.973,542.215-254.58Z" transform="translate(409.792 421.381)" fill="#e0e1e2" fill-rule="evenodd"/>
              <path id="Trazado_2737" data-name="Trazado 2737" d="M368.043-248.174a9.209,9.209,0,0,1-1.4,7.357h-2.8C362.95-245.37,366.407-245.937,368.043-248.174Z" transform="translate(133.088 432.263)" fill="#e0e1e2" fill-rule="evenodd"/>
              <path id="Trazado_2738" data-name="Trazado 2738" d="M363.769-244.357h4.4a48.767,48.767,0,0,0,.4,5.333,29.014,29.014,0,0,0-4.607,1.654C363.5-239.332,363.9-242.09,363.769-244.357Z" transform="translate(133.156 438.747)" fill="#e0e1e2" fill-rule="evenodd"/>
              <path id="Trazado_2739" data-name="Trazado 2739" d="M534.974-237.651a51.507,51.507,0,0,0-1.8,6.62c-1.7-1.5-2.583-3.759-4.2-5.335,1.085-1.271,2.521-2.221,3.605-3.492A5.345,5.345,0,0,1,534.974-237.651Z" transform="translate(413.829 446.387)" fill="#e0e1e2" fill-rule="evenodd"/>
              <path id="Trazado_2740" data-name="Trazado 2740" d="M537.516-231.479c-.475,1.587-1.131,3.009-1.6,4.6q-2.639.882-5.405,1.652c-.848-1.978-2.321-3.384-1.8-6.62-.6-.424-2.064-.065-3-.184v-5.152c2.113-.629,4.542-.971,6.6-1.654C534.521-236.822,535.678-233.84,537.516-231.479Z" transform="translate(408.286 448.122)" fill="#e0e1e2" fill-rule="evenodd"/>
              <path id="Trazado_2741" data-name="Trazado 2741" d="M520.584-222.754c1.492.4,2.512,1.247,4.005,1.654-.011,2.723,1.789,4.86,1.6,7.17-.205,2.51-3.041,4.412-3.605,6.806C519.6-211.093,518-217.529,520.584-222.754Z" transform="translate(397.387 475.443)" fill="#e0e1e2" fill-rule="evenodd"/>
              <path id="Trazado_2742" data-name="Trazado 2742" d="M245.24-220.711h4.2a23.912,23.912,0,0,0,1.8,5.149c-1.071.429-3,.065-4.4.186C246.26-217.111,244.827-218.061,245.24-220.711Z" transform="translate(-68.251 478.913)" fill="#e0e1e2" fill-rule="evenodd"/>
              <path id="Trazado_2743" data-name="Trazado 2743" d="M275.62-203.175a37.153,37.153,0,0,1-2,3.495q-6.295.834-12.813,1.471c-.324-.694.413-2.879,0-4.048-.461-1.309-5.837-4.083-7.208-4.963-1.233-.8-2.375-1.484-3.8-2.391-1.193-.758-2.809-2.175-3.805-2.207-2.283-.081-3.535,2.394-5.206,2.758-1.905-.221-3.387.086-5.605,0q1.8-3.307,3.605-6.62c3.2.022,6.091-1.708,9.008-1.471a.62.62,0,0,1,.2,0C257.016-212.861,266.855-207.431,275.62-203.175Z" transform="translate(-85.219 484.921)" fill="#e0e1e2" fill-rule="evenodd"/>
              <path id="Trazado_2744" data-name="Trazado 2744" d="M241.769-212.025c7.489-1.608,6.52,9.818-.6,7.537A3.889,3.889,0,0,1,241.769-212.025Z" transform="translate(-79.596 493.403)" fill="#e0e1e2" fill-rule="evenodd"/>
              <path id="Trazado_2745" data-name="Trazado 2745" d="M538.869-189.4c.745,1.649,1.174,3.584,2.005,5.154-2.38.057-4.914.569-6.809.181-1.433-.291-3.489-1.76-4.607-2.575-3.2-2.342-5.462-6.658-8.207-8.827,4.418-2.194-.891-14.3,3.8-15.631,2.334.855,4.38,1.981,6.606,2.939a40.962,40.962,0,0,0,1.6,4.234c.415,1.158,1.52,2.993,1.4,4.229-.154,1.549-2.553,2.529-2.8,4.229a9.81,9.81,0,0,0,1.2,4.782C534.052-189.342,536.294-189.358,538.869-189.4Z" transform="translate(400.724 495.238)" fill="#e0e1e2" fill-rule="evenodd"/>
              <path id="Trazado_2746" data-name="Trazado 2746" d="M273.129-202.427c-8.916.157-17.5.011-24.226-1.84a6.821,6.821,0,0,1,3.4-1.471c-.267-.861-1.39-.931-2.2-1.29,2.531-1,4.6-2.974,7.208-3.495,5.163-1.026,9.623,3.125,13.814,4.232A35,35,0,0,1,273.129-202.427Z" transform="translate(-61.905 495.944)" fill="#e0e1e2" fill-rule="evenodd"/>
              <path id="Trazado_2747" data-name="Trazado 2747" d="M258.918-209.262c3.006,1.657,5.405,3.864,8.409,5.519-2.216.5-5.408.027-8.409.183Z" transform="translate(-44.893 498.361)" fill="#e0e1e2" fill-rule="evenodd"/>
              <path id="Trazado_2748" data-name="Trazado 2748" d="M254.486-206.766v2.391c-2.005.159-3.292,1.538-5,1.471-2.407-.1-4.337-2.628-6.809-2.944-.105-.872,1.484-1.67,2.2-2.391C248.012-207.684,251.169-207.152,254.486-206.766Z" transform="translate(-72.494 500.097)" fill="#e0e1e2" fill-rule="evenodd"/>
              <path id="Trazado_2749" data-name="Trazado 2749" d="M541.66-192.887c.661,5.1,4.782,10.719,1.2,14.9q-1.206-.551-2.4-1.106c-.464.864-.073,2.512-.2,3.681q-3.7-.737-7.205-1.657v-5.335h-4.607v-4.96c5.046-.637,7.041-4.08,9.41-7.173C539.151-194.012,540.257-193.313,541.66-192.887Z" transform="translate(412.948 523.367)" fill="#e0e1e2" fill-rule="evenodd"/>
              <path id="Trazado_2750" data-name="Trazado 2750" d="M269.418-194h10.611c.2,1-2.585,2.394-3.4,3.681v4.412c-2.758-.189-5.762-1.179-9.008-1.471-.275-.861,1.382-1.39,1.8-2.2Z" transform="translate(-30.166 524.291)" fill="#e0e1e2" fill-rule="evenodd"/>
              <path id="Trazado_2751" data-name="Trazado 2751" d="M468.716-193.314c.931,1.252,2.313,3.465,3.605,5.516,1.927,3.058,3.792,4.782,3.2,9.931-2.839,1.379-5.77,3.643-8.609,4.41a84.1,84.1,0,0,0-1.6-8.825A65.356,65.356,0,0,0,468.716-193.314Z" transform="translate(305.702 525.451)" fill="#e0e1e2" fill-rule="evenodd"/>
              <path id="Trazado_2752" data-name="Trazado 2752" d="M549.64-181.665c-.9,1.082-.661,1.9-1.6,3.125-1.115,1.46-4.008,2.442-4.4,4.232-.324,1.447.9,4.361,1.4,6.62.467,2.137,1.409,4.563,1.4,6.439-.005,1.584-.839,3.84-1.4,5.886-.54,1.959-1.009,4.258-1.6,5.7-.348.842-1.214,1.525-1.4,2.394-.262,1.214.383,2.583,0,3.862-.769,2.58-4.693,3.565-6.407,6.069-1.252-.186-1.83.248-3,0-1.031-.221-1.436-1.093-2.2-1.29-3.219-.807-6.439.591-10.212,0-.337-1.1-1.112-1.8-1.4-2.939-1.695-.281-2.99-.934-4.6-1.29-1.965-6.04-4.556-11.507-6.007-18.022.054-1.687,3.449-1.849,2.8-4.779,1.341-.3,3.079.383,4.607,0,1.676-.426,5.678-4.917,7.006-6.072,1.773-1.544,3.73-2.728,5.608-4.229a11.652,11.652,0,0,1,5-2.942c.138-1.282-.256-2.24,0-3.128,2.245-1.527,4.45-4.6,6.407-6.99C543.158-186.747,546.145-183.97,549.64-181.665Z" transform="translate(378.543 532.742)" fill="#e0e1e2" fill-rule="evenodd"/>
              <path id="Trazado_2753" data-name="Trazado 2753" d="M499.752-184.485c1.517,2.224,3.05,4.431,4.4,6.809a25.621,25.621,0,0,0,3,1.285c8.93,9.27,16.127,20.129,24.026,30.344v9.75c-1.349,1.4-3.389,2.159-5.006,3.309-4.072-3.136-7.656-6.847-11.812-10.665-1.3-1.19-3.454-2.5-3.8-3.678-.483-1.625.345-3.395,0-4.966-.389-1.757-2.472-4.021-3.605-5.7-2.548-3.781-5-6.849-6.4-11.769-.9-.71-2.334-.923-3.2-1.654.758-4.6-1.706-5.613-4.407-8.093-2.016-1.854-5.206-3.1-4.4-6.439Q494.114-185.187,499.752-184.485Z" transform="translate(344.942 537.95)" fill="#e0e1e2" fill-rule="evenodd"/>
              <path id="Trazado_2754" data-name="Trazado 2754" d="M537.908-181.049c1.6,3.333,4.447,8.08,3.4,13.426-.4,2.075-2.075,4.083-3,5.519-.248-2.175-1.2-4.936-1.6-7.91-.372-2.8-1.409-6.469-1-8.458C535.965-179.732,537.314-180.142,537.908-181.049Z" transform="translate(425.112 546.286)" fill="#e0e1e2" fill-rule="evenodd"/>
              <path id="Trazado_2755" data-name="Trazado 2755" d="M548.867-176.1c-1.851.524-2.866,2.626-5,2.947-2.588.383-5.513-1.241-8.412-1.287-1.209,1.522-1.77,3.643-2.6,5.513a61.915,61.915,0,0,0,9.008,1.473c-1,2.092-4.129,3.8-5.8,5.886,1.018,1.638,2.817,2.558,4,4.045q-.729,4.481-1.6,8.827h-2.4c-1.193-1.6-2.089-3.476-3.4-4.963a92.336,92.336,0,0,0-1.4,10.112c-1.2.8-2.817,1.214-4.007,2.024-1.452-4.488-.591-11.1-4.8-13.056.7-4.423,3.673-8.725,4.4-13.426.146-.934-.173-1.865,0-2.758.432-2.218,2.6-4.08,3.2-6.069,3.716-3.271,14.98.394,18.421-3.128C549.369-179.378,548.621-177.281,548.867-176.1Z" transform="translate(402.74 548.139)" fill="#e0e1e2" fill-rule="evenodd"/>
              <path id="Trazado_2756" data-name="Trazado 2756" d="M551.92-171.815v6.434c1.671,1.225,4.369,1.5,6.2,2.577,2.5-1.819,4.04-4.507,6.207-6.623,4.534-.386,5.265,5.994,11.615,3.678,6.531,3.748,14.47,6.2,19.018,11.772-.964,4.372,1.449,4.893,3.8,6.62a16.262,16.262,0,0,1,3.606,3.128c-1.123,1.606-1.87,3.554-3.006,5.149,3.12,5.227,6.078,10.6,9.41,15.633-3.336.121-6.938-1.109-10.609-1.29-1.781-2.631-2.426-5.951-4.407-8.277-1.441-1.692-3.84-2.275-5.405-3.859-2.669.855-4.588,2.4-6.809,3.678v3.309c-4.706-2.356-9.005-5.092-14.413-6.806-.507-4.253-1.166-8.369-1.6-12.689-5.025-3.171-10.466-5.959-15.417-9.194-1.6.186-2.129,2.715-3.2,2.758-1.025.043-1.209-1.7-2.4-2.021.464-.861.934-1.716,1.4-2.577-.656-1.422-2.35-1.886-3-3.309a17.747,17.747,0,0,0,3.2-1.473c-1.911-.758-3.093-2.186-4.4-3.492-.6-4.172,2.1-5.3,3.4-7.724C547.546-175.032,549.678-173.373,551.92-171.815Z" transform="translate(435.325 554.159)" fill="#e0e1e2" fill-rule="evenodd"/>
              <path id="Trazado_2757" data-name="Trazado 2757" d="M574.8-168.782H579c1.263,5.268-4.337,7.338-6.207,10.668a43.9,43.9,0,0,1-8.808-3.128,14.988,14.988,0,0,1,2.6-1.84c.677-.413,2.048-1.592,2.8-1.652.707-.059.958,1.1,1.6,1.1C571.7-163.63,575.238-166.742,574.8-168.782Z" transform="translate(473.312 567.123)" fill="#e0e1e2" fill-rule="evenodd"/>
              <path id="Trazado_2758" data-name="Trazado 2758" d="M526.35-164.956c3.047,1.5,7.049,2.11,8.01,5.516,2.051.507,4.218.909,6.2,1.473.389,3.63-2.483,3.773-6,4.415a29.524,29.524,0,0,1-3.406.737c-2.936-.2-5.281-3.368-9.008-4.048-4.2-.764-7.516.564-12.214,0-.532-.982-1.069-1.962-1.6-2.941a59.665,59.665,0,0,1-6.2-1.471c-.189-.626.988-1.473,1.8-2.21a27.133,27.133,0,0,0,3-2.755c.065-.005.132.005.2,0C514.006-166.7,521.02-161.844,526.35-164.956Z" transform="translate(368.197 571.388)" fill="#e0e1e2" fill-rule="evenodd"/>
              <path id="Trazado_2759" data-name="Trazado 2759" d="M636.636-156.31c1.387.683,2.92,1.236,4.2,2.021.3,5.486.872,10.724,1.4,16,1.309.637,3.017.909,4.407,1.471v16.367c0,1.8-.423,3.913,0,5.335.351,1.171,2.645,2.8,3.605,3.676a44.2,44.2,0,0,1,3.8,3.495c.715,4.029-.947,8.058,0,11.955.435,1.784,2.68,3.133,3.007,4.412.307,1.2-.086,2.793,0,4.226.256,4.261,1.568,8.881,1.4,12.508a64.279,64.279,0,0,1-1.4,8.093c-.454,2.491-.586,5.816-1.4,7.907-.537,1.382-2.251,3.058-3.406,4.6-3.4,4.555-7.127,9.273-10.409,13.609-4.755.273-6.5,3.97-9.008,6.99-4.782,5.743-10.126,11.882-14.619,17.468-5.146,1.341-10.352,2.626-15.215,4.231a20.983,20.983,0,0,1-2.8-3.862c-1.306.578-2,1.719-3,2.577-3.856-3.268-7.356-6.855-11.213-10.117.753-1.392,2.286-2.07,3.2-3.311.178-3.271.85-6.085,1-9.378-.982.507-1.978,2.591-3.2,3.495h-5.408c-.194-.613.513-1.5,1-2.208,1.484-2.145,3.479-4.671,4.806-6.987-3.667,1.592-6.6,3.867-10.212,5.513v-11.4c-3.73-.936-6.293-3.457-9.812-3.864-2.577-.3-5.254.491-8,.737-2.7.24-5.794.04-8.012.551-2.388.556-4.912,2.342-7.405,3.495-2.348,1.082-5.171,2.9-7.408,3.311-4.453.81-8.868-.464-13.215,0a43.106,43.106,0,0,0-5.405,1.285c-1.452.383-3.694,1.568-5.006,1.473-2.356-.167-4.655-3.846-7.009-4.415,1.851-2.653,4.175-4.868,6.207-7.354.259-5.432,2.925-9.362,2.8-14.713-.1-4.264-2.963-8.22-2.8-12.139.07-1.689,1.4-3.217,1.6-4.782h2.607c-.5-1.565-.775-3.336-1.4-4.782,2.132-5.584,4.075-11.337,6.207-16.918h2c5.861-2.974,11.353-5.2,17.619-8.093,1.908-.88,3.956-2.421,5.8-2.758,1.122-.2,2.863.289,4,0,1.762-.445,5.295-5.1,6.606-6.436,6.528-6.639,12.77-13.361,19.422-19.492,3.1,1.5,6.7,2.545,9.81,4.045q4.6-5.89,8.808-12.139a53.008,53.008,0,0,0,5.8-1.287c.9-.642.972-2.051,1.8-2.758,5.546,1.22,10.525,2.96,16.017,4.229-2.448,4.617-5.071,9.07-7.408,13.793,3.613,3.4,7.446,6.331,11.413,9.561,1.215.985,2.451,2.809,4.806,2.207C630.85-135.144,633.735-145.734,636.636-156.31Z" transform="translate(374.636 588.309)" fill="#e0e1e2" fill-rule="evenodd"/>
              <path id="Trazado_2760" data-name="Trazado 2760" d="M438.275-156.231c3.276-.251,3.673,2.145,5.405,3.309.289,5.438,1.115,10.382,1.4,15.817a36.094,36.094,0,0,1-4.4-1.285c.8,6.838-1.012,11.852-2.6,16.734-2.591,7.95-5.349,15.65-8.01,23.724-2.534-.011-6.493,2.915-9.208,2.758-2.207-.124-3.111-2.3-5.206-2.942-.81-3.611-1.411-6.806-2.2-10.484-.232-1.077-.931-2.432-.8-3.306.3-2.083,5.548-5.2,6.007-7.362.521-2.453-1.754-5.092-1.6-7.907.17-3.157,2.8-6.153,3-9.745,2.737-1.29,5.351-1.444,7.61-2.758,2.162-1.263,3.894-5.19,5.4-7.726C435.08-150.783,436.543-153.84,438.275-156.231Z" transform="translate(216.217 588.411)" fill="#e0e1e2" fill-rule="evenodd"/>
              <path id="Trazado_2761" data-name="Trazado 2761" d="M588.874-107.382c.124,1.854,1.444,2.9,1.6,4.782.281,3.373-1.973,7.448-1.4,10.3.456,2.278,3.39,2.6,4.4,4.6a45.817,45.817,0,0,1-1.8,4.779c-1.5.283-2.9-.381-4.4,0-.92.235-2.642,2.059-3.605,2.944-2.5,2.3-4.167,3.827-6.806,6.25-1.552,1.428-2.4,3.468-5.608,2.947,1.025-4.518,2.18-8.911,3.2-13.426h3.006c1.436-.982,2.393-2.523,3.8-4.048,1.079-1.169,3.146-2.647,3.6-4.043.65-2,.372-4.89.6-7.359.24-2.6.57-5.122.8-7.726Z" transform="translate(485.662 671.421)" fill="#e0e1e2" fill-rule="evenodd"/>
              <path id="Trazado_2762" data-name="Trazado 2762" d="M545.294-96.956h4.6v6.069a40.965,40.965,0,0,1-9.413,6.069,13.3,13.3,0,0,1-3.8-3.5,46.85,46.85,0,0,0,3-9.745,22.774,22.774,0,0,0,3.4-2.575C544.377-99.913,544.444-98.078,545.294-96.956Z" transform="translate(426.936 682.883)" fill="#e0e1e2" fill-rule="evenodd"/>
              <path id="Trazado_2763" data-name="Trazado 2763" d="M594.68-90.088c-2.993,2.4-5.977,4.812-9.21,6.987-.289,1.635-1.112,2.78-1.4,4.415-7.842,1.992-12.8,6.633-18.221,10.849h-9.81c.54-1.835-.707-3.986,0-5.886.451-1.2,5.47-3.773,6.809-4.6,1.937-1.19,5.567-3.878,7.208-4.229,1.25-.27,3.241.216,4.005,0,1.509-3.373,5.767-5.535,9.008-7.91,2.926-2.137,5.443-4.329,8.01-5.883C592.435-94.4,593.323-92.028,594.68-90.088Z" transform="translate(459.435 690.176)" fill="#e0e1e2" fill-rule="evenodd"/>
              <path id="Trazado_2764" data-name="Trazado 2764" d="M179.61-242.611c2.483-3.8,9.7-3.128,14.616-4.963,2.386-.891,4.545-2.723,6.606-3.862,2.353-1.3,4.75-2.164,6.606-3.864-2.4-.548-4.2-1.657-6.606-2.2,1.66-4.3,3.147-8.76,4.806-13.056,2.615-1.309,4.96-2.18,7.807-3.495,2.094-.969,5.322-3.373,7.81-3.495,2.013-.1,4.31,1.549,6.4,1.287,1-.127,2.121-1.4,3.006-2.207.826-.761,2.178-1.708,1.8-2.391-3.314-.88-6.55-1.832-10.009-2.574q7.307-4.781,15.015-9.194a41.705,41.705,0,0,1,2.8,3.862,11.152,11.152,0,0,0,3.805-2.391c.089-4.636-.686-10.069,1.8-12.506,1.047.761,2.413,1.592,4,2.758,1.112.815,2.647,2.677,4,2.758,1.519.095,5.257-1.862,7.208-2.574,2.383-.869,5.087-2.162,7.208-2.575,4.14-.8,9.756-.745,14.616-1.1,1.614-.122,3.576-.58,4.8-.37,1.479.253,4.68,2.48,6.207,3.308,6.415,3.487,12.068,6.234,17.819,10.3,4.415-.791,9.329-1.32,14.416-2.024a30.494,30.494,0,0,1,4.6-.734c1.7.089,3.317,1.347,4.806,1.287,1.4-.059,1.784-1.233,2.8-1.287a31.427,31.427,0,0,0,3,4.045,29.5,29.5,0,0,1,4-1.287c4.82,2.315,9.483,4.777,14.214,7.173-.459,1.312-2.734,2.855-2.2,3.862,2.351.6,5.163.775,7.61,1.285.947,1.093,1.722,2.342,2.6,3.5,2.761-1.066,3.411-4.347,6.207-4.966,7.524-1.668,13.275,2.923,18.618,3.862,1.309.138,2.294-2.526,3.605-2.394,3.614.909,7.513,1.56,6.407,6.806a52.286,52.286,0,0,0,4.6-4.6c1.422-1.487,4.213-3.465,4.4-5.152.181-1.562-1.244-2.952-1.6-4.779A152.047,152.047,0,0,1,424.67-294.1c-.648,3.522.877,5.891,0,8.827-.416,1.392-2.745,2.046-2.8,3.495-.046,1.144,1.252,3.268,1.8,4.6a22.231,22.231,0,0,1,1.8,4.415c3.551-2.01,5.624-5.378,9.008-7.54,2.664.556,5.322,1.117,8.209,1.468-1.692,3.535-3.311,7.135-5.006,10.668-7.224,1.7-15.185,2.726-21.222,5.516-1.711-1.061-3.894-1.692-5.605-2.755-1.166.645-2.566,1.074-3.2,2.2a36.494,36.494,0,0,1,5.206,2.391,29.678,29.678,0,0,1-2,3.495,49.852,49.852,0,0,1-19.822-2.391c.014,1.152.623,1.759.8,2.758a71.871,71.871,0,0,1,9.81,3.128c-5.859,2.831-11.591,5.783-17.417,8.644-1.142,2.734-6.741,5.37-7.008,8.644-.143,1.77.99,2.18,1.4,3.308-.977,1.87-3.943,3.57-1.8,5.7,1.468.429,3.8.065,5.605.186A96.356,96.356,0,0,0,398.042-213c-1.633,2.852-2.772,6.158-4.407,9.011.464,1.39,2.364,1.633,2.8,3.311.326,1.247-.542,2.942.4,4.226,3.344.162,4.466-2.232,5.8-5.333a21.078,21.078,0,0,0,1.4-3.125c.529-2.593-.389-5.694,0-8.644,4.639-1.625,8.854-3.638,13.415-5.333.354-4.213,1.015-8.142,1.4-12.322,2.159-.715,3.848-1.862,6.007-2.575,2.642-5.543,4.917-11.423,7.807-16.737,7.456,2.777,13.35,6.99,18.82,11.588-1.25,1.425-1.849,3.449-3,4.966,1.681,2.135,4.431,3.284,6.407,5.149,3.357-2.067,6.56-5.257,9.613-6.99.486,6.542,1.778,12.341,1.6,19.492.715.818,2.181.945,3,1.66-.313,2.289.437,3.894,0,5.513-.337,1.247-2.081,2.812-3,3.862-1.034,1.179-2.777,2.062-2.4,3.495,1.878.132,2.715-2.167,4.8-2.388,2.58-.272,5.462,1.484,8.209,1.654a41.807,41.807,0,0,0-1.8,4.782c-4.153,2.013-8.377,4.213-12.813,6.436-1.36.68-3,1.805-4.2,2.024-3.546.642-7.51,0-11.01,0-3.292,0-7.319-.718-10.814,0-1.746.359-4.043,2.245-6,3.492-5.813,3.705-11.466,7.618-17.217,10.851.251,1.115.831,1.932,1,3.125,7.969-3.9,14.505-9.111,22.024-13.423,2.105.7,4.564,1.079,6.806,1.654-.777,1.187-1.2,2.7-2.2,3.678h-3.6c1.843,1.773.332,4.752,1,6.99.834,2.785,6.7,4.971,7.81,7.724-5.578,2.172-11.062,5.411-16.419,7.17a15.452,15.452,0,0,1,1.4-8.274c-3.249-.043-5.2,1.881-7.408,3.128-2.977,1.676-5.432,4.218-10.811,3.678-.138,1.911-2.313,3.875-2.4,5.513-.062,1.144,1.163,1.123,1.2,2.21a29.064,29.064,0,0,1-1.8,3.125c-4.372.459-8.638,1.015-13.213,1.287-1.749,6.18-6.215,9.861-9.812,14.343a17.83,17.83,0,0,0-1.6-5.513c-.532,1.935-2.742,3.708-3.2,6.067-.553,2.842.4,5.8,0,9.2-5.808,4.474-12.079,8.52-18.219,12.689h-2.8c-.8,1.884-1.692,3.775-2.8,6.067-.861,1.778-2.45,3.781-2.8,6.072-1.05,6.811.774,13.38-1.4,18.389a6.271,6.271,0,0,1-7.408,3.311c-.729-6.992-2-13.493-2.8-20.413-5.794-1.055-11.024-2.623-16.818-3.678-.291,2.488-1,4.6-1.4,6.987-1.741-1.1-3.735-1.859-5.808-2.942-1.778-.931-3.595-2.588-5.605-2.944-2.79-.488-5.629.356-9.211,0-3.651,3.74-7.456,8.8-11.21,13.242a28.489,28.489,0,0,0-3.605,4.412c-2.464,4.558-3.64,11.189-4.8,17.471-.367,1.973-1.277,4.909-1,6.256.34,1.665,2.99,3.581,4.4,5.333.823,1.015,2.753,4.763,4.4,5.149,1.473.343,4.167-.542,6.007-.734,2.208-.232,4.178-.286,6.207-.553,1.331-2.944,1.765-6.717,3.2-9.564l16.017-1.471q-4.429,8.622-9.211,16.921c-.105,2.6.426,5.786-.8,7.354,4.07,1.228,8.468.375,12.014,1.657,2.019.726,3.492,3.395,5.206,4.6.383.27.586.626,1,.739-.008-.005.694-1.023.4,0,.31.656-.059,1.449-.2,2.2-1.085,5.8-1.768,12.824-2.8,18.758,1.555,2.005,2.558,4.518,4.4,6.253,1.943-.119,3.735-.524,5.608-.734,1.778-.2,4.064-.769,5.605-.556,2.394.337,4.841,3.174,7.208,3.865,1.285-1.735,2.356-3.506,3.6-5.335.982-1.436,2.545-4.62,4-5.333,3.7-1.808,7.98-3.581,12.012-5.516,1,.858,2.825.961,3.6,2.021-.491,1.425-2.572,2.529-3,4.415-.486,2.129.181,4.393.2,6.806,1.962-.224,1.32-2.834,1.4-4.782.745-.85,1.066-2.089,1.8-2.944a19.1,19.1,0,0,0,3.2-.917c.113-.54-1.074-1.463-.6-2.944.853-.5,1.347-1.336,2.2-1.838,2.558,1.992,3.848,5.848,6.609,7.173a44.385,44.385,0,0,0,5.6,1.287c1.671.381,3.727,1.314,5.006,1.285,1.5-.032,2.216-1.228,3.8-1.285a29.627,29.627,0,0,1,7.009,1.285c1.8.691,4.15,3.449,6.007,5.149,4.4,4.045,6.933,6.668,11.21,11.035,1.433,1.463,4.062,5.225,5.608,5.516,2.167.416,4.742-1.506,6.806-1.285,3.711,3.411,9.27,6.053,13.815,8.091,2.175,3.433,3.406,7.608,5.8,10.854,1.487,2.005,4.1,3.079,5.006,5.146-2.386,1.366-5.988,1.614-7.006,4.229.877-.111,1.085-.828,1.8-1.285,1.889-1.212,5.049-1.7,7.205-2.758-.777,1.554-1.735,2.939-2.4,4.6,4.887-.6,6.507,4.226,10.212,6.617a25.059,25.059,0,0,0,6.207,2.574c4.909,1.376,10.894,1.2,15.614,2.761,3.446,1.139,6.431,3.754,9.61,5.7,1.4.858,3.13,1.73,4.806,2.761,1.46.9,3.829,2.2,4.2,3.125.81,2,.356,4.885.6,6.99.248,2.135,1.141,4.661.8,6.62-.211,1.214-1.436,3.1-2.2,4.6-2.167,4.237-4.9,9.105-6.806,13.426-2.639.828-5.422,2.942-5.807,5.513-.24,1.6.448,3.665.6,5.521.478,5.813,1.1,11.008-.2,16.548-1.708,7.305-3.535,13.08-4.806,19.862-6.2,3.533-11.585,6.431-18.019,10.117-1.406.8-5.262,2.712-5.605,3.678-.659,1.851.44,7.316.6,9.378.116,1.46.273,3.071.4,4.6.132,1.552.661,3.381.4,4.412-.211.826-1.4,1.6-1.8,2.575-.415,1.023-.491,3.036-1.2,4.231-.837,1.406-2.234,2.8-3.2,4.6a46.085,46.085,0,0,1-2.6,5.152c-.553.772-1.5,1.214-2,1.838-1.168,1.46-3.052,5.9-4.6,6.806-3.354,1.957-11.38,1.6-13.415-1.473.507,2.108,1.411,3.854,2,5.886,2.591,1.36,5.184,2.715,7.608,4.231q-1.538,4.469-3.2,8.827c-4.1,1.684-6.31,5.117-13.215,4.229-.278,2.4,2.307,3.141,1.6,5.883-.246.955-3.085,3.891-3.8,3.864-.837-.032-2.059-2.993-4.806-1.657-.245,1.088.777,2.591.8,4.048,2.221.143,4.242.318,4.806,2.207,1.112,3.721-.837,10.911,0,15.077-1.549,1.519-3.94,2.267-5.206,4.045,2.758,1.268,5.924,2.159,8.209,3.862.44,6.328-3.246,11.361-4.4,16.187-.5,2.1,3.805,4.577,2.8,8.274-.429,1.592-2.834,1.768-2.6,3.495,1.546.464,3.708-1.592,5.006-1.471.567.051,2.3,1.509,3.2,2.021,2.61,1.5,4.666,2.591,7.211,4.051,1.46.834,2.588,1.5,2,3.492-5.589.386-10.077,1.795-15.814,1.1-.931-.68-.783-2.348-2.005-2.761v2.208c-.577,1.147,1.168.715.6,1.287-4.286,3.346-7.9-2.734-9.61-4.231,2.458-.683,5.662-.685,7.807-1.652a8.368,8.368,0,0,1-6-1.84c.291-1.738-.675-2.321-1-3.495-3.211-.729-6.366-1.506-6.609-4.968-1.009-1.274-3.533-2.351-4.4-4.226-.634-1.357-.451-3.371-1.2-4.965-1.212-2.572-4.075-3.578-3-7.91-1.762-1.749-4.431-2.672-6-4.6.788-1.786,1.7-3.46,4.4-3.492-1.571-5.791-2.834-11.866-4.2-17.838-2.3-1.139-5.23-1.692-7.607-2.758v-6.069c-3.257-4.887-3.533-11.21-4.407-18.575-2.8-23.632-5.924-47.3-8.808-71.174-.556-4.609-.464-11.016-2.8-13.976-1.034-1.306-3.206-2.534-5.006-3.862-3.676-2.7-6.62-4.234-10.811-6.806-1.849-1.128-4.283-2.267-5.206-3.489-1.452-1.927-2.55-5.33-3.805-8.1-3.554-7.821-7.794-17.477-10.611-25.011a2.245,2.245,0,0,0-.2-.367c-2.035-3.176-7.716-5.478-9.011-8.827-1.255-3.246-.615-8.255-1.6-11.216-.054-.653.815-.472,1.2-.737a3.914,3.914,0,0,0,1.8-4.418c-.715-.281-2.181,1.306-3,.923v-7.54c1.962-2.712,3.638-6.2,6.007-9.75,1.967-2.942,5.362-6.45,6-9.745.489-2.5,0-6.5,0-9.931,0-3.071.634-6.806,0-9.564-.553-2.4-3.087-4.264-4.4-6.434-.961.345-1.956.65-3,.92-.461.553-.07,1.894-.2,2.758-1.293.529-2.4,1.228-3.805,1.654-1.573-1.681-2.971-3.524-4.4-5.333-1.034-.421-1.193.37-2.2-.186-.974-1.851-3.611-3.632-5.405-5.333-.788.626-1.965.893-2.8,1.471-2.475-1.97-3.179-5.306-4.4-8.277-1.244-3.014-2.261-6.1-3.6-8.827.359-1.02,1.595-2.208,1.4-3.128-1.935,1.827-3.611.4-6.207-.551-4.318-1.587-8.755-3.81-11.41-6.8-2.35-2.647-3.4-6.015-5.807-7.907-3.306.947-6.952,1.584-10.012,2.758q-5.837-2.915-12.012-5.516c-4.987-5.721-10.228-11.2-15.215-16.921-.132-2.688,2.013-9.113,1.6-12.139-.143-1.034-1.417-3.13-2.2-4.779-.756-1.59-1.719-3.187-2.4-4.6-3.951-8.163-5.813-17.02-7.607-26.852-.685-3.751-.7-6.5-3.406-8.46q-1.137,3.368-2.4,6.62c.9,4.156,3.719,8.56,4.407,13.059.64,4.2-.707,8.215,0,12.506.448,2.731,2.585,5.713,3,8.277-1.052,1.314-2.618,3.1-4,3.495-.389-2.051-2.726-3.813-3.2-6.255-.729-3.732.537-7.713,0-11.952a116.907,116.907,0,0,1-7.608-9.934c.861-.648,3.122-.891,3-1.835a121.161,121.161,0,0,1-1.4-23.54c-1.028-1.322-2.415-2.68-3.805-4.232-1.082-1.206-3.23-2.874-3.6-4.229-1.055-3.824.772-7.921,0-12.506,1.268-.675,3.346-.6,4.2-1.654-1.789-3.079-1.071-8.46-1.2-13.059,7.7-12.3,14.829-25.125,22.825-37.15,4.267-.912,4.348,2.013,6.207,3.311,1.49-2.923,3.443-5.422,5.006-8.277-.936-1.49-1.983-2.963-3-4.6-.907-1.452-2.574-3.373-2.8-4.782-.205-1.255.553-3.122.8-4.782.718-4.806,1.455-9.828,2.4-14.163,1.433-6.533,3.314-12.325,4.2-18.022-2.132.553-3.692,1.633-5.605,2.391-1.544-3.3-3.128-6.569-4.607-9.931-3.508-1.617-6.577-3.641-10.209-5.149q-5.639,2.817-11.612,5.333a14.194,14.194,0,0,1-3.805-1.838,16.122,16.122,0,0,0,1.8-3.311c3.257-1.3,6.922-2.224,9.61-4.045-2.707-.4-5.478,1.093-8.007,2.021-2.658.98-5.257,2.086-7.81,2.944v2.758c-6.706,2.826-13.4,6.137-20.421,9.378-2.178,1.007-4.793,2.61-6.809,2.944-5.036.828-10.994-.6-16.216,0Z" transform="translate(-179.61 336.034)" fill="#e0e1e2" fill-rule="evenodd"/>
              <path id="Trazado_2765" data-name="Trazado 2765" d="M266.011-301.834c3.406-.426,6.6-1.044,10.009-1.471-.291,1.838.408,3.419,0,4.782-.372,1.249-3.236,3.856-4.8,4.6-2.048.966-4.957.688-6.809,1.654C264.6-295.036,265.533-298.717,266.011-301.834Z" transform="translate(-35.567 338.614)" fill="#e0e1e2" fill-rule="evenodd"/>
            </g>
          </g>
          <g id="Enmascarar_grupo_6" data-name="Enmascarar grupo 6" transform="translate(-2 107)" clip-path="url(#clip-path)">
            <path id="Trazado_2890" data-name="Trazado 2890" d="M541.037,64.5a61.749,61.749,0,0,1,15.509,28.9c5.141,23.158-.122,51.173-9.185,72.783-12.328,29.394-36.146,44.541-65.808,53.226-27.681,8.106-55.27,16.933-80.772,30.627-18.853,10.122-38.351,20.589-52.236,37.475-7.027,8.546-12.258,18.355-17.317,27.841-5.657,10.607-11,20.626-18.651,29.087-19.036,21.045-46.438,28.141-66.076,30.386a180.1,180.1,0,0,1-74.939-7.976c-33.094-11.069-63.587-30.961-89.57-48.737-26.536-18.156-53.664-38.239-68.261-66.425-16.292-31.46-18.345-79.4-4.773-111.511C47.236,52.878,142.807,23.292,165.222,15.336,195.716,4.515,230.072,2.688,262.1,1.067A948.6,948.6,0,0,1,374.846,2.482c31.082,2.123,61.66,9.789,90.718,20.859C490.326,32.774,521.918,43.845,541.037,64.5Z" transform="matrix(0.891, -0.454, 0.454, 0.891, -485.179, 3030.879)" fill="#444df3" fill-rule="evenodd" style="mix-blend-mode: multiply;isolation: isolate"/>
          </g>
          <g id="Grupo_2225" data-name="Grupo 2225" transform="translate(-844 773)">
            <g id="Grupo_1388" data-name="Grupo 1388" transform="translate(1959.533 2436)">
              <path id="Trazado_37" data-name="Trazado 37" d="M322,165.8l1.338,3.077a.467.467,0,0,0,.242.242l3.077,1.338a.468.468,0,0,1,0,.857l-3.077,1.338a.463.463,0,0,0-.242.241L322,175.971a.466.466,0,0,1-.855,0l-1.338-3.077a.464.464,0,0,0-.242-.241l-3.077-1.338a.468.468,0,0,1,0-.857l3.077-1.338a.467.467,0,0,0,.242-.242l1.338-3.077A.466.466,0,0,1,322,165.8Z" transform="translate(-280.757 -151.778)" fill="#4d5bdb"/>
              <path id="Trazado_40" data-name="Trazado 40" d="M304.353,158.1l1.923,4.422a.672.672,0,0,0,.348.348l4.424,1.925a.67.67,0,0,1,0,1.229l-4.424,1.925a.679.679,0,0,0-.348.348l-1.923,4.422a.671.671,0,0,1-1.231,0L301.2,168.3a.679.679,0,0,0-.348-.348l-4.424-1.925a.67.67,0,0,1,0-1.229l4.424-1.925a.673.673,0,0,0,.348-.348l1.923-4.422A.671.671,0,0,1,304.353,158.1Z" transform="translate(-296.023 -157.696)" fill="#a4b1fb"/>
              <path id="Trazado_41" data-name="Trazado 41" d="M321.471,148.925l1.563,3.592a.542.542,0,0,0,.283.283l3.592,1.563a.545.545,0,0,1,0,1l-3.592,1.563a.542.542,0,0,0-.283.283l-1.563,3.593a.545.545,0,0,1-1,0l-1.563-3.593a.542.542,0,0,0-.283-.283l-3.592-1.563a.545.545,0,0,1,0-1l3.592-1.563a.542.542,0,0,0,.283-.283l1.563-3.592A.545.545,0,0,1,321.471,148.925Z" transform="translate(-301.277 -115.038)" fill="#f1b434"/>
            </g>
            <g id="Enmascarar_grupo_7" data-name="Enmascarar grupo 7" transform="translate(844 -268)" clip-path="url(#clip-path-2)">
              <path id="Trazado_2886" data-name="Trazado 2886" d="M448.669,159.751a23.3,23.3,0,0,0-10.252,2.386A24.893,24.893,0,0,0,414.3,143.365c-.053,0-.108.007-.16.01a30.7,30.7,0,1,0-60.156,11.647,19.635,19.635,0,0,0-17.308,12.349,19.6,19.6,0,0,0-31.043,12.705H471.87A23.418,23.418,0,0,0,448.669,159.751Z" transform="translate(788.291 2645.395)" fill="#a4b1fb"/>
            </g>
          </g>
          <rect id="Rectángulo_2564" data-name="Rectángulo 2564" width="1200" height="676" transform="translate(0 2703)" fill="none"/>
        </g>
      </g>
      <rect id="Rectángulo_2584" data-name="Rectángulo 2584" width="1200" height="676" transform="translate(0 2703)" fill="none"/>
    </g>
    <g id="Enmascarar_grupo_22" data-name="Enmascarar grupo 22" transform="translate(-846 -120)" clip-path="url(#clip-path-3)">
      <path id="Trazado_2776" data-name="Trazado 2776" d="M-1968.111,1343.345s266.687,62.713,600.392-37.449,599.211-10.07,599.211-10.07V908.988h-1199.6Z" transform="translate(2813.11 1576.953)" fill="#f7f7f7"/>
    </g>
  </g>
</svg>
